G04 #@! TF.FileFunction,Copper,L1,Top,Signal*
%FSLAX46Y46*%
G04 Gerber Fmt 4.6, Leading zero omitted, Abs format (unit mm)*
G04 Created by KiCad (PCBNEW 4.0.7) date Wed Apr 18 20:42:22 2018*
%MOMM*%
%LPD*%
G01*
G04 APERTURE LIST*
%ADD10C,0.100000*%
%ADD11R,1.500000X0.550000*%
%ADD12R,0.550000X1.500000*%
%ADD13R,1.800000X1.800000*%
%ADD14C,1.800000*%
%ADD15C,1.500000*%
%ADD16R,3.000000X3.000000*%
%ADD17C,3.000000*%
%ADD18R,1.700000X1.700000*%
%ADD19O,1.700000X1.700000*%
%ADD20R,1.905000X1.905000*%
%ADD21C,1.905000*%
%ADD22C,1.400000*%
%ADD23O,1.400000X1.400000*%
%ADD24R,1.600000X1.600000*%
%ADD25C,1.600000*%
%ADD26O,2.000000X1.800000*%
%ADD27C,0.600000*%
%ADD28C,0.254000*%
G04 APERTURE END LIST*
D10*
D11*
X72405000Y-55690000D03*
X72405000Y-56490000D03*
X72405000Y-57290000D03*
X72405000Y-58090000D03*
X72405000Y-58890000D03*
X72405000Y-59690000D03*
X72405000Y-60490000D03*
X72405000Y-61290000D03*
X72405000Y-62090000D03*
X72405000Y-62890000D03*
X72405000Y-63690000D03*
D12*
X74105000Y-65390000D03*
X74905000Y-65390000D03*
X75705000Y-65390000D03*
X76505000Y-65390000D03*
X77305000Y-65390000D03*
X78105000Y-65390000D03*
X78905000Y-65390000D03*
X79705000Y-65390000D03*
X80505000Y-65390000D03*
X81305000Y-65390000D03*
X82105000Y-65390000D03*
D11*
X83805000Y-63690000D03*
X83805000Y-62890000D03*
X83805000Y-62090000D03*
X83805000Y-61290000D03*
X83805000Y-60490000D03*
X83805000Y-59690000D03*
X83805000Y-58890000D03*
X83805000Y-58090000D03*
X83805000Y-57290000D03*
X83805000Y-56490000D03*
X83805000Y-55690000D03*
D12*
X82105000Y-53990000D03*
X81305000Y-53990000D03*
X80505000Y-53990000D03*
X79705000Y-53990000D03*
X78905000Y-53990000D03*
X78105000Y-53990000D03*
X77305000Y-53990000D03*
X76505000Y-53990000D03*
X75705000Y-53990000D03*
X74905000Y-53990000D03*
X74105000Y-53990000D03*
D13*
X52705000Y-27305000D03*
D14*
X55245000Y-27305000D03*
D13*
X59055000Y-27305000D03*
D14*
X61595000Y-27305000D03*
D13*
X65405000Y-27305000D03*
D14*
X67945000Y-27305000D03*
D15*
X47752000Y-93218000D03*
D16*
X66040000Y-81915000D03*
D17*
X61840000Y-81915000D03*
X66040000Y-76415000D03*
X61840000Y-76415000D03*
D18*
X89154000Y-90170000D03*
D19*
X89154000Y-92710000D03*
X86614000Y-90170000D03*
X86614000Y-92710000D03*
X84074000Y-90170000D03*
X84074000Y-92710000D03*
X81534000Y-90170000D03*
X81534000Y-92710000D03*
X78994000Y-90170000D03*
X78994000Y-92710000D03*
D20*
X93726000Y-84582000D03*
D21*
X96266000Y-84582000D03*
D20*
X100076000Y-84582000D03*
D21*
X102616000Y-84582000D03*
D22*
X77978000Y-73406000D03*
D23*
X85598000Y-73406000D03*
D22*
X55245000Y-32385000D03*
D23*
X55245000Y-40005000D03*
D22*
X61595000Y-32385000D03*
D23*
X61595000Y-40005000D03*
D22*
X67945000Y-32385000D03*
D23*
X67945000Y-40005000D03*
D15*
X94615000Y-55880000D03*
X94615000Y-60780000D03*
D22*
X99695000Y-60960000D03*
X102195000Y-60960000D03*
X99695000Y-55880000D03*
X102195000Y-55880000D03*
X55880000Y-83185000D03*
X55880000Y-85685000D03*
D24*
X55880000Y-92075000D03*
D25*
X53380000Y-92075000D03*
D22*
X71755000Y-83185000D03*
X71755000Y-85685000D03*
D24*
X71755000Y-92075000D03*
D25*
X74255000Y-92075000D03*
D24*
X63500000Y-62865000D03*
D25*
X61000000Y-62865000D03*
D22*
X81280000Y-83058000D03*
X78780000Y-83058000D03*
D24*
X81280000Y-77470000D03*
D25*
X78780000Y-77470000D03*
D22*
X100965000Y-67945000D03*
X100965000Y-70445000D03*
D24*
X93345000Y-69215000D03*
D25*
X95845000Y-69215000D03*
D22*
X80518000Y-39370000D03*
X83018000Y-39370000D03*
D24*
X83566000Y-45466000D03*
D25*
X86066000Y-45466000D03*
D26*
X110490000Y-73025000D03*
X110490000Y-75565000D03*
X110490000Y-78105000D03*
X110490000Y-80645000D03*
X110490000Y-83185000D03*
X110490000Y-70485000D03*
X110490000Y-67945000D03*
X110490000Y-65405000D03*
X110490000Y-62865000D03*
X110490000Y-60325000D03*
X110490000Y-34925000D03*
X110490000Y-37465000D03*
X110490000Y-40005000D03*
X110490000Y-42545000D03*
X110490000Y-45085000D03*
X110490000Y-57785000D03*
X110490000Y-55245000D03*
X110490000Y-52705000D03*
X110490000Y-50165000D03*
X110490000Y-47625000D03*
X46990000Y-47625000D03*
X46990000Y-50165000D03*
X46990000Y-52705000D03*
X46990000Y-55245000D03*
X46990000Y-57785000D03*
X46990000Y-45085000D03*
X46990000Y-42545000D03*
X46990000Y-40005000D03*
X46990000Y-37465000D03*
X46990000Y-34925000D03*
X46990000Y-60325000D03*
X46990000Y-62865000D03*
X46990000Y-65405000D03*
X46990000Y-67945000D03*
X46990000Y-70485000D03*
X46990000Y-83185000D03*
X46990000Y-80645000D03*
X46990000Y-78105000D03*
X46990000Y-75565000D03*
X46990000Y-73025000D03*
D14*
X87122000Y-57404000D03*
X89154000Y-58928000D03*
X75692000Y-73660000D03*
X90424000Y-55880000D03*
X67564000Y-94488000D03*
X76708000Y-42672000D03*
X86360000Y-65532000D03*
X76962000Y-71120000D03*
X66294000Y-61976000D03*
X67818000Y-63754000D03*
X75692000Y-51562000D03*
X72390000Y-52832000D03*
X90678000Y-51816000D03*
X74676000Y-59436000D03*
X103632000Y-77470000D03*
X74422000Y-57404000D03*
X91186000Y-75946000D03*
X58674000Y-64008000D03*
X60198000Y-66802000D03*
X79756000Y-60706000D03*
X76708000Y-59944000D03*
X76708000Y-63246000D03*
X81280000Y-57404000D03*
X88392000Y-51816000D03*
X52070000Y-60325000D03*
D27*
X83805000Y-58090000D02*
X86436000Y-58090000D01*
X86436000Y-58090000D02*
X87122000Y-57404000D01*
X86066000Y-45466000D02*
X85979000Y-45466000D01*
X85979000Y-45466000D02*
X84455000Y-46990000D01*
X78105000Y-53990000D02*
X78105000Y-49149000D01*
X78105000Y-48260000D02*
X78105000Y-49149000D01*
X79375000Y-46990000D02*
X78105000Y-48260000D01*
X84455000Y-46990000D02*
X79375000Y-46990000D01*
X83805000Y-58890000D02*
X89116000Y-58890000D01*
X89116000Y-58890000D02*
X89154000Y-58928000D01*
X72405000Y-59690000D02*
X62230000Y-59690000D01*
X61000000Y-60920000D02*
X61000000Y-62865000D01*
X62230000Y-59690000D02*
X61000000Y-60920000D01*
X74255000Y-92075000D02*
X74255000Y-93051000D01*
X82550000Y-94234000D02*
X84074000Y-92710000D01*
X75438000Y-94234000D02*
X82550000Y-94234000D01*
X74255000Y-93051000D02*
X75438000Y-94234000D01*
X77305000Y-65390000D02*
X77305000Y-68237000D01*
X75692000Y-73660000D02*
X75692000Y-73152000D01*
X75692000Y-73152000D02*
X75184000Y-72644000D01*
X75184000Y-70358000D02*
X77305000Y-68237000D01*
X75184000Y-72644000D02*
X75184000Y-70358000D01*
X83805000Y-57290000D02*
X84950000Y-57290000D01*
X86360000Y-55880000D02*
X90424000Y-55880000D01*
X84950000Y-57290000D02*
X86360000Y-55880000D01*
X68326000Y-95250000D02*
X99060000Y-95250000D01*
X67564000Y-94488000D02*
X68326000Y-95250000D01*
X107569000Y-78105000D02*
X110490000Y-78105000D01*
X105918000Y-79756000D02*
X107569000Y-78105000D01*
X105918000Y-88392000D02*
X105918000Y-79756000D01*
X99060000Y-95250000D02*
X105918000Y-88392000D01*
X61595000Y-40005000D02*
X61595000Y-40640000D01*
X61595000Y-40640000D02*
X63627000Y-42672000D01*
X63627000Y-42672000D02*
X76708000Y-42672000D01*
X61722000Y-40132000D02*
X61595000Y-40005000D01*
X93218000Y-66548000D02*
X93218000Y-69088000D01*
X93218000Y-69088000D02*
X93345000Y-69215000D01*
X99568000Y-66548000D02*
X93218000Y-66548000D01*
X93218000Y-66548000D02*
X87376000Y-66548000D01*
X80518000Y-39370000D02*
X80010000Y-39370000D01*
X80010000Y-39370000D02*
X76708000Y-42672000D01*
X80518000Y-39370000D02*
X80772000Y-39370000D01*
X80772000Y-39370000D02*
X82677000Y-37465000D01*
X110490000Y-37465000D02*
X82677000Y-37465000D01*
X83566000Y-45466000D02*
X79502000Y-45466000D01*
X77305000Y-53990000D02*
X77305000Y-47663000D01*
X77305000Y-47663000D02*
X79502000Y-45466000D01*
X78105000Y-62738000D02*
X80518000Y-62738000D01*
X80518000Y-62738000D02*
X82296000Y-60960000D01*
X78105000Y-62738000D02*
X78105000Y-55753000D01*
X78105000Y-55753000D02*
X77305000Y-54953000D01*
X82550000Y-59690000D02*
X83805000Y-59690000D01*
X82296000Y-60960000D02*
X82296000Y-59944000D01*
X82296000Y-59944000D02*
X82550000Y-59690000D01*
X77305000Y-53990000D02*
X77305000Y-54953000D01*
X78105000Y-62738000D02*
X78105000Y-65390000D01*
X99568000Y-66548000D02*
X100965000Y-67945000D01*
X87376000Y-66548000D02*
X86360000Y-65532000D01*
X78105000Y-65390000D02*
X78105000Y-69977000D01*
X78105000Y-69977000D02*
X76962000Y-71120000D01*
X63500000Y-61468000D02*
X64516000Y-60452000D01*
X64516000Y-60452000D02*
X64516000Y-60490000D01*
X72405000Y-60490000D02*
X64516000Y-60490000D01*
X63500000Y-61468000D02*
X63500000Y-62865000D01*
X49022000Y-94488000D02*
X65278000Y-94488000D01*
X76962000Y-88138000D02*
X78994000Y-90170000D01*
X71628000Y-88138000D02*
X76962000Y-88138000D01*
X65278000Y-94488000D02*
X71628000Y-88138000D01*
X47752000Y-93218000D02*
X49022000Y-94488000D01*
X78486000Y-90170000D02*
X78994000Y-90170000D01*
X78905000Y-72390000D02*
X80772000Y-72390000D01*
X80772000Y-72390000D02*
X91440000Y-83058000D01*
X91440000Y-83058000D02*
X91440000Y-91948000D01*
X91440000Y-91948000D02*
X90678000Y-92710000D01*
X90678000Y-92710000D02*
X89154000Y-92710000D01*
X78905000Y-65390000D02*
X78905000Y-72390000D01*
X78905000Y-72390000D02*
X78905000Y-72479000D01*
X78905000Y-72479000D02*
X77978000Y-73406000D01*
X77978000Y-73406000D02*
X77978000Y-73660000D01*
X84074000Y-81534000D02*
X84074000Y-90170000D01*
X82804000Y-80264000D02*
X84074000Y-81534000D01*
X78232000Y-80264000D02*
X82804000Y-80264000D01*
X74168000Y-70104000D02*
X74168000Y-76200000D01*
X74168000Y-76200000D02*
X78232000Y-80264000D01*
X76432002Y-67839998D02*
X76432002Y-65390000D01*
X74168000Y-70104000D02*
X76432002Y-67839998D01*
X76432002Y-65390000D02*
X76505000Y-65390000D01*
X83058000Y-87376000D02*
X81534000Y-88900000D01*
X83058000Y-81788000D02*
X83058000Y-87376000D01*
X82550000Y-81280000D02*
X83058000Y-81788000D01*
X77978000Y-81280000D02*
X82550000Y-81280000D01*
X81534000Y-90170000D02*
X81534000Y-88900000D01*
X73152000Y-69596000D02*
X73152000Y-76454000D01*
X73152000Y-76454000D02*
X77978000Y-81280000D01*
X75705000Y-67056000D02*
X75692000Y-67056000D01*
X75692000Y-67056000D02*
X73152000Y-69596000D01*
X75705000Y-67056000D02*
X75705000Y-65390000D01*
X72405000Y-61290000D02*
X66980000Y-61290000D01*
X66980000Y-61290000D02*
X66294000Y-61976000D01*
X72405000Y-62090000D02*
X69482000Y-62090000D01*
X69482000Y-62090000D02*
X67818000Y-63754000D01*
X75692000Y-51562000D02*
X74422000Y-51562000D01*
X74105000Y-53990000D02*
X74105000Y-51879000D01*
X74105000Y-51879000D02*
X74422000Y-51562000D01*
X74422000Y-51562000D02*
X74105000Y-51879000D01*
X72405000Y-52847000D02*
X72390000Y-52832000D01*
X72405000Y-55690000D02*
X72405000Y-52847000D01*
X82105000Y-53990000D02*
X88504000Y-53990000D01*
X88504000Y-53990000D02*
X90678000Y-51816000D01*
X74676000Y-59436000D02*
X74676000Y-59182000D01*
X75946000Y-57912000D02*
X75946000Y-56642000D01*
X74676000Y-59182000D02*
X75946000Y-57912000D01*
X75946000Y-56642000D02*
X75705000Y-56401000D01*
X75705000Y-53990000D02*
X75705000Y-56401000D01*
X103632000Y-77470000D02*
X87376000Y-77470000D01*
X87376000Y-77470000D02*
X79705000Y-69799000D01*
X79705000Y-65390000D02*
X79705000Y-69799000D01*
X74905000Y-53990000D02*
X74905000Y-56921000D01*
X74905000Y-56921000D02*
X74422000Y-57404000D01*
X80505000Y-65390000D02*
X80505000Y-69075000D01*
X80505000Y-69075000D02*
X82677000Y-71247000D01*
X86487000Y-71247000D02*
X82677000Y-71247000D01*
X86487000Y-71247000D02*
X91186000Y-75946000D01*
X46990000Y-65405000D02*
X68453000Y-65405000D01*
X68453000Y-65405000D02*
X70968000Y-62890000D01*
X72405000Y-62890000D02*
X70968000Y-62890000D01*
X60198000Y-66802000D02*
X70104000Y-66802000D01*
X72405000Y-64501000D02*
X72405000Y-63690000D01*
X70104000Y-66802000D02*
X72405000Y-64501000D01*
X57531000Y-62865000D02*
X46990000Y-62865000D01*
X58674000Y-64008000D02*
X57531000Y-62865000D01*
X79756000Y-60706000D02*
X79756000Y-56388000D01*
X79756000Y-56388000D02*
X80454000Y-55690000D01*
X80454000Y-55690000D02*
X83805000Y-55690000D01*
X76505000Y-53990000D02*
X76505000Y-55931000D01*
X76708000Y-56134000D02*
X76708000Y-59944000D01*
X76505000Y-55931000D02*
X76708000Y-56134000D01*
X74905000Y-63779000D02*
X75438000Y-63246000D01*
X75438000Y-63246000D02*
X76708000Y-63246000D01*
X74905000Y-63779000D02*
X74905000Y-65390000D01*
X83805000Y-56490000D02*
X82194000Y-56490000D01*
X82194000Y-56490000D02*
X81280000Y-57404000D01*
X81305000Y-53990000D02*
X81305000Y-52807000D01*
X81305000Y-52807000D02*
X82296000Y-51816000D01*
X82296000Y-51816000D02*
X88392000Y-51816000D01*
X81305000Y-52807000D02*
X82296000Y-51816000D01*
X58166000Y-68580000D02*
X72136000Y-68580000D01*
X74105000Y-66611000D02*
X74105000Y-65390000D01*
X72136000Y-68580000D02*
X74105000Y-66611000D01*
X45085000Y-45085000D02*
X46990000Y-45085000D01*
X44196000Y-45974000D02*
X45085000Y-45085000D01*
X44196000Y-83820000D02*
X44196000Y-45974000D01*
X46228000Y-85852000D02*
X44196000Y-83820000D01*
X48006000Y-85852000D02*
X46228000Y-85852000D01*
X49784000Y-84074000D02*
X48006000Y-85852000D01*
X49784000Y-76962000D02*
X49784000Y-84074000D01*
X58166000Y-68580000D02*
X49784000Y-76962000D01*
X83805000Y-62090000D02*
X91072000Y-62090000D01*
X91072000Y-62090000D02*
X94234000Y-58928000D01*
X108331000Y-57785000D02*
X110490000Y-57785000D01*
X107188000Y-58928000D02*
X108331000Y-57785000D01*
X94234000Y-58928000D02*
X107188000Y-58928000D01*
X106489500Y-57594500D02*
X94043500Y-57594500D01*
X94043500Y-57594500D02*
X93472000Y-58166000D01*
X83805000Y-61290000D02*
X90348000Y-61290000D01*
X90348000Y-61290000D02*
X93472000Y-58166000D01*
X108839000Y-55245000D02*
X110490000Y-55245000D01*
X106489500Y-57594500D02*
X108839000Y-55245000D01*
X87122000Y-60452000D02*
X89916000Y-60452000D01*
X92710000Y-57658000D02*
X92710000Y-54864000D01*
X89916000Y-60452000D02*
X92710000Y-57658000D01*
X94869000Y-52705000D02*
X110490000Y-52705000D01*
X92710000Y-54864000D02*
X94869000Y-52705000D01*
X87122000Y-60452000D02*
X87122000Y-60490000D01*
X83805000Y-60490000D02*
X87122000Y-60490000D01*
X80505000Y-53990000D02*
X80505000Y-51321000D01*
X81661000Y-50165000D02*
X110490000Y-50165000D01*
X80505000Y-51321000D02*
X81661000Y-50165000D01*
X81153000Y-49149000D02*
X107315000Y-49149000D01*
X107315000Y-49149000D02*
X108839000Y-47625000D01*
X79705000Y-53990000D02*
X79705000Y-50597000D01*
X108839000Y-47625000D02*
X110490000Y-47625000D01*
X79705000Y-50597000D02*
X81153000Y-49149000D01*
X78905000Y-50127000D02*
X81026000Y-48006000D01*
X106426000Y-48006000D02*
X109347000Y-45085000D01*
X81026000Y-48006000D02*
X106426000Y-48006000D01*
X78905000Y-53990000D02*
X78905000Y-50127000D01*
X109347000Y-45085000D02*
X110490000Y-45085000D01*
X72405000Y-56490000D02*
X70968000Y-56490000D01*
X70358000Y-55880000D02*
X70358000Y-52578000D01*
X70968000Y-56490000D02*
X70358000Y-55880000D01*
X80391000Y-42545000D02*
X110490000Y-42545000D01*
X70358000Y-52578000D02*
X80391000Y-42545000D01*
X69342000Y-52324000D02*
X69342000Y-56388000D01*
X110490000Y-40005000D02*
X109093000Y-40005000D01*
X70244000Y-57290000D02*
X72405000Y-57290000D01*
X69342000Y-56388000D02*
X70244000Y-57290000D01*
X80264000Y-41402000D02*
X69342000Y-52324000D01*
X107696000Y-41402000D02*
X80264000Y-41402000D01*
X109093000Y-40005000D02*
X107696000Y-41402000D01*
X72405000Y-58090000D02*
X47295000Y-58090000D01*
X47295000Y-58090000D02*
X46990000Y-57785000D01*
X72405000Y-58890000D02*
X53505000Y-58890000D01*
X53505000Y-58890000D02*
X52070000Y-60325000D01*
X82105000Y-65390000D02*
X82105000Y-68135000D01*
X83312000Y-69342000D02*
X88138000Y-69342000D01*
X82105000Y-68135000D02*
X83312000Y-69342000D01*
X91821000Y-73025000D02*
X110490000Y-73025000D01*
X88138000Y-69342000D02*
X91821000Y-73025000D01*
X81305000Y-65390000D02*
X81305000Y-68605000D01*
X83058000Y-70358000D02*
X87884000Y-70358000D01*
X81305000Y-68605000D02*
X83058000Y-70358000D01*
X93091000Y-75565000D02*
X110490000Y-75565000D01*
X87884000Y-70358000D02*
X93091000Y-75565000D01*
X83805000Y-63690000D02*
X87312000Y-63690000D01*
X103886000Y-65786000D02*
X108585000Y-70485000D01*
X108585000Y-70485000D02*
X110490000Y-70485000D01*
X87312000Y-63690000D02*
X89408000Y-65786000D01*
X89408000Y-65786000D02*
X103886000Y-65786000D01*
X83805000Y-62890000D02*
X87782000Y-62890000D01*
X89662000Y-64770000D02*
X104140000Y-64770000D01*
X87782000Y-62890000D02*
X89662000Y-64770000D01*
X110490000Y-67945000D02*
X107315000Y-67945000D01*
X107315000Y-67945000D02*
X104140000Y-64770000D01*
D28*
G36*
X77089000Y-34798000D02*
X77099006Y-34847410D01*
X77127447Y-34889035D01*
X77169841Y-34916315D01*
X77216000Y-34925000D01*
X106934000Y-34925000D01*
X106983410Y-34914994D01*
X107025035Y-34886553D01*
X107052315Y-34844159D01*
X107061000Y-34798000D01*
X107061000Y-34560260D01*
X108898964Y-34560260D01*
X109019622Y-34798000D01*
X110363000Y-34798000D01*
X110363000Y-33549865D01*
X110617000Y-33549865D01*
X110617000Y-34798000D01*
X111960378Y-34798000D01*
X112081036Y-34560260D01*
X111846809Y-34045248D01*
X111414474Y-33631255D01*
X110856620Y-33414223D01*
X110617000Y-33549865D01*
X110363000Y-33549865D01*
X110123380Y-33414223D01*
X109565526Y-33631255D01*
X109133191Y-34045248D01*
X108898964Y-34560260D01*
X107061000Y-34560260D01*
X107061000Y-32893000D01*
X114835000Y-32893000D01*
X114835000Y-90732609D01*
X114490953Y-92462249D01*
X113552197Y-93867196D01*
X112147249Y-94805953D01*
X110417610Y-95150000D01*
X100482290Y-95150000D01*
X104384671Y-91247619D01*
X108254613Y-91247619D01*
X108594155Y-92069372D01*
X109222321Y-92698636D01*
X110043481Y-93039611D01*
X110932619Y-93040387D01*
X111754372Y-92700845D01*
X112383636Y-92072679D01*
X112724611Y-91251519D01*
X112725387Y-90362381D01*
X112385845Y-89540628D01*
X111757679Y-88911364D01*
X110936519Y-88570389D01*
X110047381Y-88569613D01*
X109225628Y-88909155D01*
X108596364Y-89537321D01*
X108255389Y-90358481D01*
X108254613Y-91247619D01*
X104384671Y-91247619D01*
X106579145Y-89053145D01*
X106613434Y-89001827D01*
X106781827Y-88749809D01*
X106817516Y-88570389D01*
X106853001Y-88392000D01*
X106853000Y-88391995D01*
X106853000Y-83549740D01*
X108898964Y-83549740D01*
X109133191Y-84064752D01*
X109565526Y-84478745D01*
X110123380Y-84695777D01*
X110363000Y-84560135D01*
X110363000Y-83312000D01*
X110617000Y-83312000D01*
X110617000Y-84560135D01*
X110856620Y-84695777D01*
X111414474Y-84478745D01*
X111846809Y-84064752D01*
X112081036Y-83549740D01*
X111960378Y-83312000D01*
X110617000Y-83312000D01*
X110363000Y-83312000D01*
X109019622Y-83312000D01*
X108898964Y-83549740D01*
X106853000Y-83549740D01*
X106853000Y-80143290D01*
X107956290Y-79040000D01*
X109172059Y-79040000D01*
X109272559Y-79190409D01*
X109548819Y-79375000D01*
X109272559Y-79559591D01*
X108939813Y-80057581D01*
X108822968Y-80645000D01*
X108939813Y-81232419D01*
X109272559Y-81730409D01*
X109544054Y-81911816D01*
X109133191Y-82305248D01*
X108898964Y-82820260D01*
X109019622Y-83058000D01*
X110363000Y-83058000D01*
X110363000Y-83038000D01*
X110617000Y-83038000D01*
X110617000Y-83058000D01*
X111960378Y-83058000D01*
X112081036Y-82820260D01*
X111846809Y-82305248D01*
X111435946Y-81911816D01*
X111707441Y-81730409D01*
X112040187Y-81232419D01*
X112157032Y-80645000D01*
X112040187Y-80057581D01*
X111707441Y-79559591D01*
X111431181Y-79375000D01*
X111707441Y-79190409D01*
X112040187Y-78692419D01*
X112157032Y-78105000D01*
X112040187Y-77517581D01*
X111707441Y-77019591D01*
X111431181Y-76835000D01*
X111707441Y-76650409D01*
X112040187Y-76152419D01*
X112157032Y-75565000D01*
X112040187Y-74977581D01*
X111707441Y-74479591D01*
X111431181Y-74295000D01*
X111707441Y-74110409D01*
X112040187Y-73612419D01*
X112157032Y-73025000D01*
X112040187Y-72437581D01*
X111707441Y-71939591D01*
X111431181Y-71755000D01*
X111707441Y-71570409D01*
X112040187Y-71072419D01*
X112157032Y-70485000D01*
X112040187Y-69897581D01*
X111707441Y-69399591D01*
X111431181Y-69215000D01*
X111707441Y-69030409D01*
X112040187Y-68532419D01*
X112157032Y-67945000D01*
X112040187Y-67357581D01*
X111707441Y-66859591D01*
X111431181Y-66675000D01*
X111707441Y-66490409D01*
X112040187Y-65992419D01*
X112157032Y-65405000D01*
X112040187Y-64817581D01*
X111707441Y-64319591D01*
X111431181Y-64135000D01*
X111707441Y-63950409D01*
X112040187Y-63452419D01*
X112157032Y-62865000D01*
X112040187Y-62277581D01*
X111707441Y-61779591D01*
X111435946Y-61598184D01*
X111846809Y-61204752D01*
X112081036Y-60689740D01*
X111960378Y-60452000D01*
X110617000Y-60452000D01*
X110617000Y-60472000D01*
X110363000Y-60472000D01*
X110363000Y-60452000D01*
X109019622Y-60452000D01*
X108898964Y-60689740D01*
X109133191Y-61204752D01*
X109544054Y-61598184D01*
X109272559Y-61779591D01*
X108939813Y-62277581D01*
X108822968Y-62865000D01*
X108939813Y-63452419D01*
X109272559Y-63950409D01*
X109548819Y-64135000D01*
X109272559Y-64319591D01*
X108939813Y-64817581D01*
X108822968Y-65405000D01*
X108939813Y-65992419D01*
X109272559Y-66490409D01*
X109548819Y-66675000D01*
X109272559Y-66859591D01*
X109172059Y-67010000D01*
X107702290Y-67010000D01*
X104801145Y-64108855D01*
X104497809Y-63906173D01*
X104140000Y-63835000D01*
X90049289Y-63835000D01*
X89239290Y-63025000D01*
X91072000Y-63025000D01*
X91429809Y-62953827D01*
X91733145Y-62751145D01*
X93288308Y-61195982D01*
X93440169Y-61563515D01*
X93829436Y-61953461D01*
X94338298Y-62164759D01*
X94889285Y-62165240D01*
X95398515Y-61954831D01*
X95788461Y-61565564D01*
X95999759Y-61056702D01*
X96000240Y-60505715D01*
X95789831Y-59996485D01*
X95656578Y-59863000D01*
X98904291Y-59863000D01*
X98563902Y-60202796D01*
X98360232Y-60693287D01*
X98359769Y-61224383D01*
X98562582Y-61715229D01*
X98937796Y-62091098D01*
X99428287Y-62294768D01*
X99959383Y-62295231D01*
X100450229Y-62092418D01*
X100647716Y-61895275D01*
X101439331Y-61895275D01*
X101501169Y-62131042D01*
X102002122Y-62307419D01*
X102532440Y-62278664D01*
X102888831Y-62131042D01*
X102950669Y-61895275D01*
X102195000Y-61139605D01*
X101439331Y-61895275D01*
X100647716Y-61895275D01*
X100826098Y-61717204D01*
X100938291Y-61447013D01*
X101023958Y-61653831D01*
X101259725Y-61715669D01*
X102015395Y-60960000D01*
X102374605Y-60960000D01*
X103130275Y-61715669D01*
X103366042Y-61653831D01*
X103542419Y-61152878D01*
X103513664Y-60622560D01*
X103366042Y-60266169D01*
X103130275Y-60204331D01*
X102374605Y-60960000D01*
X102015395Y-60960000D01*
X101259725Y-60204331D01*
X101023958Y-60266169D01*
X100945207Y-60489842D01*
X100827418Y-60204771D01*
X100486243Y-59863000D01*
X101481749Y-59863000D01*
X101439331Y-60024725D01*
X102195000Y-60780395D01*
X102950669Y-60024725D01*
X102908251Y-59863000D01*
X107188000Y-59863000D01*
X107545809Y-59791827D01*
X107849145Y-59589145D01*
X108718290Y-58720000D01*
X109172059Y-58720000D01*
X109272559Y-58870409D01*
X109544054Y-59051816D01*
X109133191Y-59445248D01*
X108898964Y-59960260D01*
X109019622Y-60198000D01*
X110363000Y-60198000D01*
X110363000Y-60178000D01*
X110617000Y-60178000D01*
X110617000Y-60198000D01*
X111960378Y-60198000D01*
X112081036Y-59960260D01*
X111846809Y-59445248D01*
X111435946Y-59051816D01*
X111707441Y-58870409D01*
X112040187Y-58372419D01*
X112157032Y-57785000D01*
X112040187Y-57197581D01*
X111707441Y-56699591D01*
X111431181Y-56515000D01*
X111707441Y-56330409D01*
X112040187Y-55832419D01*
X112157032Y-55245000D01*
X112040187Y-54657581D01*
X111707441Y-54159591D01*
X111431181Y-53975000D01*
X111707441Y-53790409D01*
X112040187Y-53292419D01*
X112157032Y-52705000D01*
X112040187Y-52117581D01*
X111707441Y-51619591D01*
X111431181Y-51435000D01*
X111707441Y-51250409D01*
X112040187Y-50752419D01*
X112157032Y-50165000D01*
X112040187Y-49577581D01*
X111707441Y-49079591D01*
X111431181Y-48895000D01*
X111707441Y-48710409D01*
X112040187Y-48212419D01*
X112157032Y-47625000D01*
X112040187Y-47037581D01*
X111707441Y-46539591D01*
X111431181Y-46355000D01*
X111707441Y-46170409D01*
X112040187Y-45672419D01*
X112157032Y-45085000D01*
X112040187Y-44497581D01*
X111707441Y-43999591D01*
X111431181Y-43815000D01*
X111707441Y-43630409D01*
X112040187Y-43132419D01*
X112157032Y-42545000D01*
X112040187Y-41957581D01*
X111707441Y-41459591D01*
X111431181Y-41275000D01*
X111707441Y-41090409D01*
X112040187Y-40592419D01*
X112157032Y-40005000D01*
X112040187Y-39417581D01*
X111707441Y-38919591D01*
X111431181Y-38735000D01*
X111707441Y-38550409D01*
X112040187Y-38052419D01*
X112157032Y-37465000D01*
X112040187Y-36877581D01*
X111707441Y-36379591D01*
X111435946Y-36198184D01*
X111846809Y-35804752D01*
X112081036Y-35289740D01*
X111960378Y-35052000D01*
X110617000Y-35052000D01*
X110617000Y-35072000D01*
X110363000Y-35072000D01*
X110363000Y-35052000D01*
X109019622Y-35052000D01*
X108898964Y-35289740D01*
X109133191Y-35804752D01*
X109544054Y-36198184D01*
X109272559Y-36379591D01*
X109172059Y-36530000D01*
X82677000Y-36530000D01*
X82319191Y-36601173D01*
X82015855Y-36803855D01*
X80784478Y-38035232D01*
X80253617Y-38034769D01*
X79762771Y-38237582D01*
X79386902Y-38612796D01*
X79345708Y-38712002D01*
X76920525Y-41137185D01*
X76404009Y-41136735D01*
X75839629Y-41369932D01*
X75471919Y-41737000D01*
X64014290Y-41737000D01*
X62824753Y-40547463D01*
X62828379Y-40542036D01*
X62930000Y-40031154D01*
X62930000Y-39978846D01*
X66610000Y-39978846D01*
X66610000Y-40031154D01*
X66711621Y-40542036D01*
X67001012Y-40975142D01*
X67434118Y-41264533D01*
X67945000Y-41366154D01*
X68455882Y-41264533D01*
X68888988Y-40975142D01*
X69178379Y-40542036D01*
X69280000Y-40031154D01*
X69280000Y-39978846D01*
X69178379Y-39467964D01*
X68888988Y-39034858D01*
X68455882Y-38745467D01*
X67945000Y-38643846D01*
X67434118Y-38745467D01*
X67001012Y-39034858D01*
X66711621Y-39467964D01*
X66610000Y-39978846D01*
X62930000Y-39978846D01*
X62828379Y-39467964D01*
X62538988Y-39034858D01*
X62105882Y-38745467D01*
X61595000Y-38643846D01*
X61084118Y-38745467D01*
X60651012Y-39034858D01*
X60361621Y-39467964D01*
X60260000Y-39978846D01*
X60260000Y-40031154D01*
X60361621Y-40542036D01*
X60651012Y-40975142D01*
X60768466Y-41053622D01*
X60933855Y-41301145D01*
X62965855Y-43333145D01*
X63269191Y-43535827D01*
X63627000Y-43607000D01*
X75472445Y-43607000D01*
X75837357Y-43972551D01*
X76214539Y-44129171D01*
X68680855Y-51662855D01*
X68478173Y-51966191D01*
X68407000Y-52324000D01*
X68407000Y-56388000D01*
X68478173Y-56745809D01*
X68680855Y-57049145D01*
X68786710Y-57155000D01*
X48511735Y-57155000D01*
X48207441Y-56699591D01*
X47931181Y-56515000D01*
X48207441Y-56330409D01*
X48540187Y-55832419D01*
X48657032Y-55245000D01*
X48540187Y-54657581D01*
X48207441Y-54159591D01*
X47931181Y-53975000D01*
X48207441Y-53790409D01*
X48540187Y-53292419D01*
X48657032Y-52705000D01*
X48540187Y-52117581D01*
X48207441Y-51619591D01*
X47931181Y-51435000D01*
X48207441Y-51250409D01*
X48540187Y-50752419D01*
X48657032Y-50165000D01*
X48540187Y-49577581D01*
X48207441Y-49079591D01*
X47931181Y-48895000D01*
X48207441Y-48710409D01*
X48540187Y-48212419D01*
X48657032Y-47625000D01*
X48540187Y-47037581D01*
X48207441Y-46539591D01*
X47931181Y-46355000D01*
X48207441Y-46170409D01*
X48540187Y-45672419D01*
X48657032Y-45085000D01*
X48540187Y-44497581D01*
X48207441Y-43999591D01*
X47931181Y-43815000D01*
X48207441Y-43630409D01*
X48540187Y-43132419D01*
X48657032Y-42545000D01*
X48540187Y-41957581D01*
X48207441Y-41459591D01*
X47931181Y-41275000D01*
X48207441Y-41090409D01*
X48540187Y-40592419D01*
X48657032Y-40005000D01*
X48651830Y-39978846D01*
X53910000Y-39978846D01*
X53910000Y-40031154D01*
X54011621Y-40542036D01*
X54301012Y-40975142D01*
X54734118Y-41264533D01*
X55245000Y-41366154D01*
X55755882Y-41264533D01*
X56188988Y-40975142D01*
X56478379Y-40542036D01*
X56580000Y-40031154D01*
X56580000Y-39978846D01*
X56478379Y-39467964D01*
X56188988Y-39034858D01*
X55755882Y-38745467D01*
X55245000Y-38643846D01*
X54734118Y-38745467D01*
X54301012Y-39034858D01*
X54011621Y-39467964D01*
X53910000Y-39978846D01*
X48651830Y-39978846D01*
X48540187Y-39417581D01*
X48207441Y-38919591D01*
X47931181Y-38735000D01*
X48207441Y-38550409D01*
X48540187Y-38052419D01*
X48657032Y-37465000D01*
X48540187Y-36877581D01*
X48207441Y-36379591D01*
X47935946Y-36198184D01*
X48346809Y-35804752D01*
X48581036Y-35289740D01*
X48460378Y-35052000D01*
X47117000Y-35052000D01*
X47117000Y-35072000D01*
X46863000Y-35072000D01*
X46863000Y-35052000D01*
X45519622Y-35052000D01*
X45398964Y-35289740D01*
X45633191Y-35804752D01*
X46044054Y-36198184D01*
X45772559Y-36379591D01*
X45439813Y-36877581D01*
X45322968Y-37465000D01*
X45439813Y-38052419D01*
X45772559Y-38550409D01*
X46048819Y-38735000D01*
X45772559Y-38919591D01*
X45439813Y-39417581D01*
X45322968Y-40005000D01*
X45439813Y-40592419D01*
X45772559Y-41090409D01*
X46048819Y-41275000D01*
X45772559Y-41459591D01*
X45439813Y-41957581D01*
X45322968Y-42545000D01*
X45439813Y-43132419D01*
X45772559Y-43630409D01*
X46048819Y-43815000D01*
X45772559Y-43999591D01*
X45672059Y-44150000D01*
X45085000Y-44150000D01*
X44727191Y-44221173D01*
X44423855Y-44423855D01*
X43534855Y-45312855D01*
X43332173Y-45616191D01*
X43261000Y-45974000D01*
X43261000Y-83820000D01*
X43332173Y-84177809D01*
X43534855Y-84481145D01*
X45566855Y-86513145D01*
X45870191Y-86715827D01*
X46228000Y-86787000D01*
X48006000Y-86787000D01*
X48363809Y-86715827D01*
X48667145Y-86513145D01*
X49230907Y-85949383D01*
X54544769Y-85949383D01*
X54747582Y-86440229D01*
X55122796Y-86816098D01*
X55613287Y-87019768D01*
X56144383Y-87020231D01*
X56635229Y-86817418D01*
X57011098Y-86442204D01*
X57214768Y-85951713D01*
X57214770Y-85949383D01*
X70419769Y-85949383D01*
X70622582Y-86440229D01*
X70997796Y-86816098D01*
X71488287Y-87019768D01*
X72019383Y-87020231D01*
X72510229Y-86817418D01*
X72886098Y-86442204D01*
X73089768Y-85951713D01*
X73090231Y-85420617D01*
X72887418Y-84929771D01*
X72512204Y-84553902D01*
X72242013Y-84441709D01*
X72448831Y-84356042D01*
X72510669Y-84120275D01*
X72383670Y-83993275D01*
X78024331Y-83993275D01*
X78086169Y-84229042D01*
X78587122Y-84405419D01*
X79117440Y-84376664D01*
X79473831Y-84229042D01*
X79535669Y-83993275D01*
X78780000Y-83237605D01*
X78024331Y-83993275D01*
X72383670Y-83993275D01*
X71755000Y-83364605D01*
X70999331Y-84120275D01*
X71061169Y-84356042D01*
X71284842Y-84434793D01*
X70999771Y-84552582D01*
X70623902Y-84927796D01*
X70420232Y-85418287D01*
X70419769Y-85949383D01*
X57214770Y-85949383D01*
X57215231Y-85420617D01*
X57012418Y-84929771D01*
X56637204Y-84553902D01*
X56367013Y-84441709D01*
X56573831Y-84356042D01*
X56635669Y-84120275D01*
X55880000Y-83364605D01*
X55124331Y-84120275D01*
X55186169Y-84356042D01*
X55409842Y-84434793D01*
X55124771Y-84552582D01*
X54748902Y-84927796D01*
X54545232Y-85418287D01*
X54544769Y-85949383D01*
X49230907Y-85949383D01*
X50445145Y-84735145D01*
X50647827Y-84431809D01*
X50719000Y-84074000D01*
X50719000Y-82992122D01*
X54532581Y-82992122D01*
X54561336Y-83522440D01*
X54708958Y-83878831D01*
X54944725Y-83940669D01*
X55700395Y-83185000D01*
X56059605Y-83185000D01*
X56815275Y-83940669D01*
X57051042Y-83878831D01*
X57227419Y-83377878D01*
X57198664Y-82847560D01*
X57051042Y-82491169D01*
X56815275Y-82429331D01*
X56059605Y-83185000D01*
X55700395Y-83185000D01*
X54944725Y-82429331D01*
X54708958Y-82491169D01*
X54532581Y-82992122D01*
X50719000Y-82992122D01*
X50719000Y-82249725D01*
X55124331Y-82249725D01*
X55880000Y-83005395D01*
X56547579Y-82337815D01*
X59704630Y-82337815D01*
X60028980Y-83122800D01*
X60629041Y-83723909D01*
X61413459Y-84049628D01*
X62262815Y-84050370D01*
X63047800Y-83726020D01*
X63648909Y-83125959D01*
X63905000Y-82509224D01*
X63905000Y-83541310D01*
X64001673Y-83774699D01*
X64180302Y-83953327D01*
X64413691Y-84050000D01*
X65754250Y-84050000D01*
X65913000Y-83891250D01*
X65913000Y-82042000D01*
X66167000Y-82042000D01*
X66167000Y-83891250D01*
X66325750Y-84050000D01*
X67666309Y-84050000D01*
X67899698Y-83953327D01*
X68078327Y-83774699D01*
X68175000Y-83541310D01*
X68175000Y-82992122D01*
X70407581Y-82992122D01*
X70436336Y-83522440D01*
X70583958Y-83878831D01*
X70819725Y-83940669D01*
X71575395Y-83185000D01*
X71934605Y-83185000D01*
X72690275Y-83940669D01*
X72926042Y-83878831D01*
X73102419Y-83377878D01*
X73073664Y-82847560D01*
X72926042Y-82491169D01*
X72690275Y-82429331D01*
X71934605Y-83185000D01*
X71575395Y-83185000D01*
X70819725Y-82429331D01*
X70583958Y-82491169D01*
X70407581Y-82992122D01*
X68175000Y-82992122D01*
X68175000Y-82249725D01*
X70999331Y-82249725D01*
X71755000Y-83005395D01*
X72510669Y-82249725D01*
X72448831Y-82013958D01*
X71947878Y-81837581D01*
X71417560Y-81866336D01*
X71061169Y-82013958D01*
X70999331Y-82249725D01*
X68175000Y-82249725D01*
X68175000Y-82200750D01*
X68016250Y-82042000D01*
X66167000Y-82042000D01*
X65913000Y-82042000D01*
X65893000Y-82042000D01*
X65893000Y-81788000D01*
X65913000Y-81788000D01*
X65913000Y-79938750D01*
X66167000Y-79938750D01*
X66167000Y-81788000D01*
X68016250Y-81788000D01*
X68175000Y-81629250D01*
X68175000Y-80288690D01*
X68078327Y-80055301D01*
X67899698Y-79876673D01*
X67666309Y-79780000D01*
X66325750Y-79780000D01*
X66167000Y-79938750D01*
X65913000Y-79938750D01*
X65754250Y-79780000D01*
X64413691Y-79780000D01*
X64180302Y-79876673D01*
X64001673Y-80055301D01*
X63905000Y-80288690D01*
X63905000Y-81321877D01*
X63651020Y-80707200D01*
X63050959Y-80106091D01*
X62266541Y-79780372D01*
X61417185Y-79779630D01*
X60632200Y-80103980D01*
X60031091Y-80704041D01*
X59705372Y-81488459D01*
X59704630Y-82337815D01*
X56547579Y-82337815D01*
X56635669Y-82249725D01*
X56573831Y-82013958D01*
X56072878Y-81837581D01*
X55542560Y-81866336D01*
X55186169Y-82013958D01*
X55124331Y-82249725D01*
X50719000Y-82249725D01*
X50719000Y-77349290D01*
X51230475Y-76837815D01*
X59704630Y-76837815D01*
X60028980Y-77622800D01*
X60629041Y-78223909D01*
X61413459Y-78549628D01*
X62262815Y-78550370D01*
X63047800Y-78226020D01*
X63648909Y-77625959D01*
X63940314Y-76924177D01*
X64228980Y-77622800D01*
X64829041Y-78223909D01*
X65613459Y-78549628D01*
X66462815Y-78550370D01*
X67247800Y-78226020D01*
X67848909Y-77625959D01*
X68174628Y-76841541D01*
X68175370Y-75992185D01*
X67851020Y-75207200D01*
X67250959Y-74606091D01*
X66466541Y-74280372D01*
X65617185Y-74279630D01*
X64832200Y-74603980D01*
X64231091Y-75204041D01*
X63939686Y-75905823D01*
X63651020Y-75207200D01*
X63050959Y-74606091D01*
X62266541Y-74280372D01*
X61417185Y-74279630D01*
X60632200Y-74603980D01*
X60031091Y-75204041D01*
X59705372Y-75988459D01*
X59704630Y-76837815D01*
X51230475Y-76837815D01*
X58553290Y-69515000D01*
X72136000Y-69515000D01*
X72237113Y-69494887D01*
X72217000Y-69596000D01*
X72217000Y-76454000D01*
X72288173Y-76811809D01*
X72490855Y-77115145D01*
X77316855Y-81941145D01*
X77620191Y-82143827D01*
X77747421Y-82169135D01*
X77729474Y-82187082D01*
X77844723Y-82302331D01*
X77608958Y-82364169D01*
X77432581Y-82865122D01*
X77461336Y-83395440D01*
X77608958Y-83751831D01*
X77844725Y-83813669D01*
X78600395Y-83058000D01*
X78586252Y-83043858D01*
X78765858Y-82864252D01*
X78780000Y-82878395D01*
X78794142Y-82864252D01*
X78973748Y-83043858D01*
X78959605Y-83058000D01*
X79715275Y-83813669D01*
X79951042Y-83751831D01*
X80029793Y-83528158D01*
X80147582Y-83813229D01*
X80522796Y-84189098D01*
X81013287Y-84392768D01*
X81544383Y-84393231D01*
X82035229Y-84190418D01*
X82123000Y-84102800D01*
X82123000Y-86988710D01*
X80872855Y-88238855D01*
X80670173Y-88542191D01*
X80599000Y-88900000D01*
X80599000Y-89013977D01*
X80483946Y-89090853D01*
X80264000Y-89420026D01*
X80044054Y-89090853D01*
X79562285Y-88768946D01*
X78994000Y-88655907D01*
X78834019Y-88687729D01*
X77623145Y-87476855D01*
X77319809Y-87274173D01*
X76962000Y-87203000D01*
X71628000Y-87203000D01*
X71270191Y-87274173D01*
X70966855Y-87476855D01*
X64890710Y-93553000D01*
X49409290Y-93553000D01*
X49136946Y-93280656D01*
X49137118Y-93082745D01*
X52551861Y-93082745D01*
X52625995Y-93328864D01*
X53163223Y-93521965D01*
X53733454Y-93494778D01*
X54134005Y-93328864D01*
X54208139Y-93082745D01*
X53380000Y-92254605D01*
X52551861Y-93082745D01*
X49137118Y-93082745D01*
X49137240Y-92943715D01*
X48926831Y-92434485D01*
X48537564Y-92044539D01*
X48088866Y-91858223D01*
X51933035Y-91858223D01*
X51960222Y-92428454D01*
X52126136Y-92829005D01*
X52372255Y-92903139D01*
X53200395Y-92075000D01*
X53559605Y-92075000D01*
X54387745Y-92903139D01*
X54435167Y-92888855D01*
X54476838Y-93110317D01*
X54615910Y-93326441D01*
X54828110Y-93471431D01*
X55080000Y-93522440D01*
X56680000Y-93522440D01*
X56915317Y-93478162D01*
X57131441Y-93339090D01*
X57276431Y-93126890D01*
X57327440Y-92875000D01*
X57327440Y-91275000D01*
X57283162Y-91039683D01*
X57144090Y-90823559D01*
X56931890Y-90678569D01*
X56680000Y-90627560D01*
X55080000Y-90627560D01*
X54844683Y-90671838D01*
X54628559Y-90810910D01*
X54483569Y-91023110D01*
X54435354Y-91261201D01*
X54387745Y-91246861D01*
X53559605Y-92075000D01*
X53200395Y-92075000D01*
X52372255Y-91246861D01*
X52126136Y-91320995D01*
X51933035Y-91858223D01*
X48088866Y-91858223D01*
X48028702Y-91833241D01*
X47477715Y-91832760D01*
X46968485Y-92043169D01*
X46578539Y-92432436D01*
X46367241Y-92941298D01*
X46366760Y-93492285D01*
X46577169Y-94001515D01*
X46966436Y-94391461D01*
X47475298Y-94602759D01*
X47814765Y-94603055D01*
X48360855Y-95149145D01*
X48362135Y-95150000D01*
X40712391Y-95150000D01*
X38982751Y-94805953D01*
X37577804Y-93867197D01*
X36639047Y-92462249D01*
X36397442Y-91247619D01*
X38404613Y-91247619D01*
X38744155Y-92069372D01*
X39372321Y-92698636D01*
X40193481Y-93039611D01*
X41082619Y-93040387D01*
X41904372Y-92700845D01*
X42533636Y-92072679D01*
X42874611Y-91251519D01*
X42874771Y-91067255D01*
X52551861Y-91067255D01*
X53380000Y-91895395D01*
X54208139Y-91067255D01*
X54134005Y-90821136D01*
X53596777Y-90628035D01*
X53026546Y-90655222D01*
X52625995Y-90821136D01*
X52551861Y-91067255D01*
X42874771Y-91067255D01*
X42875387Y-90362381D01*
X42576002Y-89637815D01*
X61804630Y-89637815D01*
X62128980Y-90422800D01*
X62729041Y-91023909D01*
X63513459Y-91349628D01*
X64362815Y-91350370D01*
X65147800Y-91026020D01*
X65748909Y-90425959D01*
X66074628Y-89641541D01*
X66075370Y-88792185D01*
X65751020Y-88007200D01*
X65150959Y-87406091D01*
X64366541Y-87080372D01*
X63517185Y-87079630D01*
X62732200Y-87403980D01*
X62131091Y-88004041D01*
X61805372Y-88788459D01*
X61804630Y-89637815D01*
X42576002Y-89637815D01*
X42535845Y-89540628D01*
X41907679Y-88911364D01*
X41086519Y-88570389D01*
X40197381Y-88569613D01*
X39375628Y-88909155D01*
X38746364Y-89537321D01*
X38405389Y-90358481D01*
X38404613Y-91247619D01*
X36397442Y-91247619D01*
X36295000Y-90732610D01*
X36295000Y-34560260D01*
X45398964Y-34560260D01*
X45519622Y-34798000D01*
X46863000Y-34798000D01*
X46863000Y-33549865D01*
X47117000Y-33549865D01*
X47117000Y-34798000D01*
X48460378Y-34798000D01*
X48581036Y-34560260D01*
X48346809Y-34045248D01*
X47914474Y-33631255D01*
X47356620Y-33414223D01*
X47117000Y-33549865D01*
X46863000Y-33549865D01*
X46623380Y-33414223D01*
X46065526Y-33631255D01*
X45633191Y-34045248D01*
X45398964Y-34560260D01*
X36295000Y-34560260D01*
X36295000Y-32649383D01*
X53909769Y-32649383D01*
X54112582Y-33140229D01*
X54487796Y-33516098D01*
X54978287Y-33719768D01*
X55509383Y-33720231D01*
X56000229Y-33517418D01*
X56376098Y-33142204D01*
X56579768Y-32651713D01*
X56579770Y-32649383D01*
X60259769Y-32649383D01*
X60462582Y-33140229D01*
X60837796Y-33516098D01*
X61328287Y-33719768D01*
X61859383Y-33720231D01*
X62350229Y-33517418D01*
X62726098Y-33142204D01*
X62929768Y-32651713D01*
X62929770Y-32649383D01*
X66609769Y-32649383D01*
X66812582Y-33140229D01*
X67187796Y-33516098D01*
X67678287Y-33719768D01*
X68209383Y-33720231D01*
X68700229Y-33517418D01*
X69076098Y-33142204D01*
X69279768Y-32651713D01*
X69280231Y-32120617D01*
X69077418Y-31629771D01*
X68702204Y-31253902D01*
X68211713Y-31050232D01*
X67680617Y-31049769D01*
X67189771Y-31252582D01*
X66813902Y-31627796D01*
X66610232Y-32118287D01*
X66609769Y-32649383D01*
X62929770Y-32649383D01*
X62930231Y-32120617D01*
X62727418Y-31629771D01*
X62352204Y-31253902D01*
X61861713Y-31050232D01*
X61330617Y-31049769D01*
X60839771Y-31252582D01*
X60463902Y-31627796D01*
X60260232Y-32118287D01*
X60259769Y-32649383D01*
X56579770Y-32649383D01*
X56580231Y-32120617D01*
X56377418Y-31629771D01*
X56002204Y-31253902D01*
X55511713Y-31050232D01*
X54980617Y-31049769D01*
X54489771Y-31252582D01*
X54113902Y-31627796D01*
X53910232Y-32118287D01*
X53909769Y-32649383D01*
X36295000Y-32649383D01*
X36295000Y-29017619D01*
X38404613Y-29017619D01*
X38744155Y-29839372D01*
X39372321Y-30468636D01*
X40193481Y-30809611D01*
X41082619Y-30810387D01*
X41904372Y-30470845D01*
X42533636Y-29842679D01*
X42874611Y-29021519D01*
X42875387Y-28132381D01*
X42651590Y-27590750D01*
X51170000Y-27590750D01*
X51170000Y-28331310D01*
X51266673Y-28564699D01*
X51445302Y-28743327D01*
X51678691Y-28840000D01*
X52419250Y-28840000D01*
X52578000Y-28681250D01*
X52578000Y-27432000D01*
X51328750Y-27432000D01*
X51170000Y-27590750D01*
X42651590Y-27590750D01*
X42535845Y-27310628D01*
X41907679Y-26681364D01*
X41086519Y-26340389D01*
X40197381Y-26339613D01*
X39375628Y-26679155D01*
X38746364Y-27307321D01*
X38405389Y-28128481D01*
X38404613Y-29017619D01*
X36295000Y-29017619D01*
X36295000Y-28647390D01*
X36639047Y-26917751D01*
X37066054Y-26278690D01*
X51170000Y-26278690D01*
X51170000Y-27019250D01*
X51328750Y-27178000D01*
X52578000Y-27178000D01*
X52578000Y-25928750D01*
X52832000Y-25928750D01*
X52832000Y-27178000D01*
X52852000Y-27178000D01*
X52852000Y-27432000D01*
X52832000Y-27432000D01*
X52832000Y-28681250D01*
X52990750Y-28840000D01*
X53731309Y-28840000D01*
X53964698Y-28743327D01*
X54143327Y-28564699D01*
X54199119Y-28430006D01*
X54374357Y-28605551D01*
X54938330Y-28839733D01*
X55548991Y-28840265D01*
X56113371Y-28607068D01*
X56545551Y-28175643D01*
X56779733Y-27611670D01*
X56779751Y-27590750D01*
X57520000Y-27590750D01*
X57520000Y-28331310D01*
X57616673Y-28564699D01*
X57795302Y-28743327D01*
X58028691Y-28840000D01*
X58769250Y-28840000D01*
X58928000Y-28681250D01*
X58928000Y-27432000D01*
X57678750Y-27432000D01*
X57520000Y-27590750D01*
X56779751Y-27590750D01*
X56780265Y-27001009D01*
X56547068Y-26436629D01*
X56389405Y-26278690D01*
X57520000Y-26278690D01*
X57520000Y-27019250D01*
X57678750Y-27178000D01*
X58928000Y-27178000D01*
X58928000Y-25928750D01*
X59182000Y-25928750D01*
X59182000Y-27178000D01*
X59202000Y-27178000D01*
X59202000Y-27432000D01*
X59182000Y-27432000D01*
X59182000Y-28681250D01*
X59340750Y-28840000D01*
X60081309Y-28840000D01*
X60314698Y-28743327D01*
X60493327Y-28564699D01*
X60549119Y-28430006D01*
X60724357Y-28605551D01*
X61288330Y-28839733D01*
X61898991Y-28840265D01*
X62463371Y-28607068D01*
X62895551Y-28175643D01*
X63129733Y-27611670D01*
X63129751Y-27590750D01*
X63870000Y-27590750D01*
X63870000Y-28331310D01*
X63966673Y-28564699D01*
X64145302Y-28743327D01*
X64378691Y-28840000D01*
X65119250Y-28840000D01*
X65278000Y-28681250D01*
X65278000Y-27432000D01*
X64028750Y-27432000D01*
X63870000Y-27590750D01*
X63129751Y-27590750D01*
X63130265Y-27001009D01*
X62897068Y-26436629D01*
X62739405Y-26278690D01*
X63870000Y-26278690D01*
X63870000Y-27019250D01*
X64028750Y-27178000D01*
X65278000Y-27178000D01*
X65278000Y-25928750D01*
X65532000Y-25928750D01*
X65532000Y-27178000D01*
X65552000Y-27178000D01*
X65552000Y-27432000D01*
X65532000Y-27432000D01*
X65532000Y-28681250D01*
X65690750Y-28840000D01*
X66431309Y-28840000D01*
X66664698Y-28743327D01*
X66843327Y-28564699D01*
X66899119Y-28430006D01*
X67074357Y-28605551D01*
X67638330Y-28839733D01*
X68248991Y-28840265D01*
X68813371Y-28607068D01*
X69245551Y-28175643D01*
X69479733Y-27611670D01*
X69480265Y-27001009D01*
X69247068Y-26436629D01*
X68815643Y-26004449D01*
X68251670Y-25770267D01*
X67641009Y-25769735D01*
X67076629Y-26002932D01*
X66899159Y-26180092D01*
X66843327Y-26045301D01*
X66664698Y-25866673D01*
X66431309Y-25770000D01*
X65690750Y-25770000D01*
X65532000Y-25928750D01*
X65278000Y-25928750D01*
X65119250Y-25770000D01*
X64378691Y-25770000D01*
X64145302Y-25866673D01*
X63966673Y-26045301D01*
X63870000Y-26278690D01*
X62739405Y-26278690D01*
X62465643Y-26004449D01*
X61901670Y-25770267D01*
X61291009Y-25769735D01*
X60726629Y-26002932D01*
X60549159Y-26180092D01*
X60493327Y-26045301D01*
X60314698Y-25866673D01*
X60081309Y-25770000D01*
X59340750Y-25770000D01*
X59182000Y-25928750D01*
X58928000Y-25928750D01*
X58769250Y-25770000D01*
X58028691Y-25770000D01*
X57795302Y-25866673D01*
X57616673Y-26045301D01*
X57520000Y-26278690D01*
X56389405Y-26278690D01*
X56115643Y-26004449D01*
X55551670Y-25770267D01*
X54941009Y-25769735D01*
X54376629Y-26002932D01*
X54199159Y-26180092D01*
X54143327Y-26045301D01*
X53964698Y-25866673D01*
X53731309Y-25770000D01*
X52990750Y-25770000D01*
X52832000Y-25928750D01*
X52578000Y-25928750D01*
X52419250Y-25770000D01*
X51678691Y-25770000D01*
X51445302Y-25866673D01*
X51266673Y-26045301D01*
X51170000Y-26278690D01*
X37066054Y-26278690D01*
X37577804Y-25512803D01*
X38982751Y-24574047D01*
X40712391Y-24230000D01*
X77089000Y-24230000D01*
X77089000Y-34798000D01*
X77089000Y-34798000D01*
G37*
X77089000Y-34798000D02*
X77099006Y-34847410D01*
X77127447Y-34889035D01*
X77169841Y-34916315D01*
X77216000Y-34925000D01*
X106934000Y-34925000D01*
X106983410Y-34914994D01*
X107025035Y-34886553D01*
X107052315Y-34844159D01*
X107061000Y-34798000D01*
X107061000Y-34560260D01*
X108898964Y-34560260D01*
X109019622Y-34798000D01*
X110363000Y-34798000D01*
X110363000Y-33549865D01*
X110617000Y-33549865D01*
X110617000Y-34798000D01*
X111960378Y-34798000D01*
X112081036Y-34560260D01*
X111846809Y-34045248D01*
X111414474Y-33631255D01*
X110856620Y-33414223D01*
X110617000Y-33549865D01*
X110363000Y-33549865D01*
X110123380Y-33414223D01*
X109565526Y-33631255D01*
X109133191Y-34045248D01*
X108898964Y-34560260D01*
X107061000Y-34560260D01*
X107061000Y-32893000D01*
X114835000Y-32893000D01*
X114835000Y-90732609D01*
X114490953Y-92462249D01*
X113552197Y-93867196D01*
X112147249Y-94805953D01*
X110417610Y-95150000D01*
X100482290Y-95150000D01*
X104384671Y-91247619D01*
X108254613Y-91247619D01*
X108594155Y-92069372D01*
X109222321Y-92698636D01*
X110043481Y-93039611D01*
X110932619Y-93040387D01*
X111754372Y-92700845D01*
X112383636Y-92072679D01*
X112724611Y-91251519D01*
X112725387Y-90362381D01*
X112385845Y-89540628D01*
X111757679Y-88911364D01*
X110936519Y-88570389D01*
X110047381Y-88569613D01*
X109225628Y-88909155D01*
X108596364Y-89537321D01*
X108255389Y-90358481D01*
X108254613Y-91247619D01*
X104384671Y-91247619D01*
X106579145Y-89053145D01*
X106613434Y-89001827D01*
X106781827Y-88749809D01*
X106817516Y-88570389D01*
X106853001Y-88392000D01*
X106853000Y-88391995D01*
X106853000Y-83549740D01*
X108898964Y-83549740D01*
X109133191Y-84064752D01*
X109565526Y-84478745D01*
X110123380Y-84695777D01*
X110363000Y-84560135D01*
X110363000Y-83312000D01*
X110617000Y-83312000D01*
X110617000Y-84560135D01*
X110856620Y-84695777D01*
X111414474Y-84478745D01*
X111846809Y-84064752D01*
X112081036Y-83549740D01*
X111960378Y-83312000D01*
X110617000Y-83312000D01*
X110363000Y-83312000D01*
X109019622Y-83312000D01*
X108898964Y-83549740D01*
X106853000Y-83549740D01*
X106853000Y-80143290D01*
X107956290Y-79040000D01*
X109172059Y-79040000D01*
X109272559Y-79190409D01*
X109548819Y-79375000D01*
X109272559Y-79559591D01*
X108939813Y-80057581D01*
X108822968Y-80645000D01*
X108939813Y-81232419D01*
X109272559Y-81730409D01*
X109544054Y-81911816D01*
X109133191Y-82305248D01*
X108898964Y-82820260D01*
X109019622Y-83058000D01*
X110363000Y-83058000D01*
X110363000Y-83038000D01*
X110617000Y-83038000D01*
X110617000Y-83058000D01*
X111960378Y-83058000D01*
X112081036Y-82820260D01*
X111846809Y-82305248D01*
X111435946Y-81911816D01*
X111707441Y-81730409D01*
X112040187Y-81232419D01*
X112157032Y-80645000D01*
X112040187Y-80057581D01*
X111707441Y-79559591D01*
X111431181Y-79375000D01*
X111707441Y-79190409D01*
X112040187Y-78692419D01*
X112157032Y-78105000D01*
X112040187Y-77517581D01*
X111707441Y-77019591D01*
X111431181Y-76835000D01*
X111707441Y-76650409D01*
X112040187Y-76152419D01*
X112157032Y-75565000D01*
X112040187Y-74977581D01*
X111707441Y-74479591D01*
X111431181Y-74295000D01*
X111707441Y-74110409D01*
X112040187Y-73612419D01*
X112157032Y-73025000D01*
X112040187Y-72437581D01*
X111707441Y-71939591D01*
X111431181Y-71755000D01*
X111707441Y-71570409D01*
X112040187Y-71072419D01*
X112157032Y-70485000D01*
X112040187Y-69897581D01*
X111707441Y-69399591D01*
X111431181Y-69215000D01*
X111707441Y-69030409D01*
X112040187Y-68532419D01*
X112157032Y-67945000D01*
X112040187Y-67357581D01*
X111707441Y-66859591D01*
X111431181Y-66675000D01*
X111707441Y-66490409D01*
X112040187Y-65992419D01*
X112157032Y-65405000D01*
X112040187Y-64817581D01*
X111707441Y-64319591D01*
X111431181Y-64135000D01*
X111707441Y-63950409D01*
X112040187Y-63452419D01*
X112157032Y-62865000D01*
X112040187Y-62277581D01*
X111707441Y-61779591D01*
X111435946Y-61598184D01*
X111846809Y-61204752D01*
X112081036Y-60689740D01*
X111960378Y-60452000D01*
X110617000Y-60452000D01*
X110617000Y-60472000D01*
X110363000Y-60472000D01*
X110363000Y-60452000D01*
X109019622Y-60452000D01*
X108898964Y-60689740D01*
X109133191Y-61204752D01*
X109544054Y-61598184D01*
X109272559Y-61779591D01*
X108939813Y-62277581D01*
X108822968Y-62865000D01*
X108939813Y-63452419D01*
X109272559Y-63950409D01*
X109548819Y-64135000D01*
X109272559Y-64319591D01*
X108939813Y-64817581D01*
X108822968Y-65405000D01*
X108939813Y-65992419D01*
X109272559Y-66490409D01*
X109548819Y-66675000D01*
X109272559Y-66859591D01*
X109172059Y-67010000D01*
X107702290Y-67010000D01*
X104801145Y-64108855D01*
X104497809Y-63906173D01*
X104140000Y-63835000D01*
X90049289Y-63835000D01*
X89239290Y-63025000D01*
X91072000Y-63025000D01*
X91429809Y-62953827D01*
X91733145Y-62751145D01*
X93288308Y-61195982D01*
X93440169Y-61563515D01*
X93829436Y-61953461D01*
X94338298Y-62164759D01*
X94889285Y-62165240D01*
X95398515Y-61954831D01*
X95788461Y-61565564D01*
X95999759Y-61056702D01*
X96000240Y-60505715D01*
X95789831Y-59996485D01*
X95656578Y-59863000D01*
X98904291Y-59863000D01*
X98563902Y-60202796D01*
X98360232Y-60693287D01*
X98359769Y-61224383D01*
X98562582Y-61715229D01*
X98937796Y-62091098D01*
X99428287Y-62294768D01*
X99959383Y-62295231D01*
X100450229Y-62092418D01*
X100647716Y-61895275D01*
X101439331Y-61895275D01*
X101501169Y-62131042D01*
X102002122Y-62307419D01*
X102532440Y-62278664D01*
X102888831Y-62131042D01*
X102950669Y-61895275D01*
X102195000Y-61139605D01*
X101439331Y-61895275D01*
X100647716Y-61895275D01*
X100826098Y-61717204D01*
X100938291Y-61447013D01*
X101023958Y-61653831D01*
X101259725Y-61715669D01*
X102015395Y-60960000D01*
X102374605Y-60960000D01*
X103130275Y-61715669D01*
X103366042Y-61653831D01*
X103542419Y-61152878D01*
X103513664Y-60622560D01*
X103366042Y-60266169D01*
X103130275Y-60204331D01*
X102374605Y-60960000D01*
X102015395Y-60960000D01*
X101259725Y-60204331D01*
X101023958Y-60266169D01*
X100945207Y-60489842D01*
X100827418Y-60204771D01*
X100486243Y-59863000D01*
X101481749Y-59863000D01*
X101439331Y-60024725D01*
X102195000Y-60780395D01*
X102950669Y-60024725D01*
X102908251Y-59863000D01*
X107188000Y-59863000D01*
X107545809Y-59791827D01*
X107849145Y-59589145D01*
X108718290Y-58720000D01*
X109172059Y-58720000D01*
X109272559Y-58870409D01*
X109544054Y-59051816D01*
X109133191Y-59445248D01*
X108898964Y-59960260D01*
X109019622Y-60198000D01*
X110363000Y-60198000D01*
X110363000Y-60178000D01*
X110617000Y-60178000D01*
X110617000Y-60198000D01*
X111960378Y-60198000D01*
X112081036Y-59960260D01*
X111846809Y-59445248D01*
X111435946Y-59051816D01*
X111707441Y-58870409D01*
X112040187Y-58372419D01*
X112157032Y-57785000D01*
X112040187Y-57197581D01*
X111707441Y-56699591D01*
X111431181Y-56515000D01*
X111707441Y-56330409D01*
X112040187Y-55832419D01*
X112157032Y-55245000D01*
X112040187Y-54657581D01*
X111707441Y-54159591D01*
X111431181Y-53975000D01*
X111707441Y-53790409D01*
X112040187Y-53292419D01*
X112157032Y-52705000D01*
X112040187Y-52117581D01*
X111707441Y-51619591D01*
X111431181Y-51435000D01*
X111707441Y-51250409D01*
X112040187Y-50752419D01*
X112157032Y-50165000D01*
X112040187Y-49577581D01*
X111707441Y-49079591D01*
X111431181Y-48895000D01*
X111707441Y-48710409D01*
X112040187Y-48212419D01*
X112157032Y-47625000D01*
X112040187Y-47037581D01*
X111707441Y-46539591D01*
X111431181Y-46355000D01*
X111707441Y-46170409D01*
X112040187Y-45672419D01*
X112157032Y-45085000D01*
X112040187Y-44497581D01*
X111707441Y-43999591D01*
X111431181Y-43815000D01*
X111707441Y-43630409D01*
X112040187Y-43132419D01*
X112157032Y-42545000D01*
X112040187Y-41957581D01*
X111707441Y-41459591D01*
X111431181Y-41275000D01*
X111707441Y-41090409D01*
X112040187Y-40592419D01*
X112157032Y-40005000D01*
X112040187Y-39417581D01*
X111707441Y-38919591D01*
X111431181Y-38735000D01*
X111707441Y-38550409D01*
X112040187Y-38052419D01*
X112157032Y-37465000D01*
X112040187Y-36877581D01*
X111707441Y-36379591D01*
X111435946Y-36198184D01*
X111846809Y-35804752D01*
X112081036Y-35289740D01*
X111960378Y-35052000D01*
X110617000Y-35052000D01*
X110617000Y-35072000D01*
X110363000Y-35072000D01*
X110363000Y-35052000D01*
X109019622Y-35052000D01*
X108898964Y-35289740D01*
X109133191Y-35804752D01*
X109544054Y-36198184D01*
X109272559Y-36379591D01*
X109172059Y-36530000D01*
X82677000Y-36530000D01*
X82319191Y-36601173D01*
X82015855Y-36803855D01*
X80784478Y-38035232D01*
X80253617Y-38034769D01*
X79762771Y-38237582D01*
X79386902Y-38612796D01*
X79345708Y-38712002D01*
X76920525Y-41137185D01*
X76404009Y-41136735D01*
X75839629Y-41369932D01*
X75471919Y-41737000D01*
X64014290Y-41737000D01*
X62824753Y-40547463D01*
X62828379Y-40542036D01*
X62930000Y-40031154D01*
X62930000Y-39978846D01*
X66610000Y-39978846D01*
X66610000Y-40031154D01*
X66711621Y-40542036D01*
X67001012Y-40975142D01*
X67434118Y-41264533D01*
X67945000Y-41366154D01*
X68455882Y-41264533D01*
X68888988Y-40975142D01*
X69178379Y-40542036D01*
X69280000Y-40031154D01*
X69280000Y-39978846D01*
X69178379Y-39467964D01*
X68888988Y-39034858D01*
X68455882Y-38745467D01*
X67945000Y-38643846D01*
X67434118Y-38745467D01*
X67001012Y-39034858D01*
X66711621Y-39467964D01*
X66610000Y-39978846D01*
X62930000Y-39978846D01*
X62828379Y-39467964D01*
X62538988Y-39034858D01*
X62105882Y-38745467D01*
X61595000Y-38643846D01*
X61084118Y-38745467D01*
X60651012Y-39034858D01*
X60361621Y-39467964D01*
X60260000Y-39978846D01*
X60260000Y-40031154D01*
X60361621Y-40542036D01*
X60651012Y-40975142D01*
X60768466Y-41053622D01*
X60933855Y-41301145D01*
X62965855Y-43333145D01*
X63269191Y-43535827D01*
X63627000Y-43607000D01*
X75472445Y-43607000D01*
X75837357Y-43972551D01*
X76214539Y-44129171D01*
X68680855Y-51662855D01*
X68478173Y-51966191D01*
X68407000Y-52324000D01*
X68407000Y-56388000D01*
X68478173Y-56745809D01*
X68680855Y-57049145D01*
X68786710Y-57155000D01*
X48511735Y-57155000D01*
X48207441Y-56699591D01*
X47931181Y-56515000D01*
X48207441Y-56330409D01*
X48540187Y-55832419D01*
X48657032Y-55245000D01*
X48540187Y-54657581D01*
X48207441Y-54159591D01*
X47931181Y-53975000D01*
X48207441Y-53790409D01*
X48540187Y-53292419D01*
X48657032Y-52705000D01*
X48540187Y-52117581D01*
X48207441Y-51619591D01*
X47931181Y-51435000D01*
X48207441Y-51250409D01*
X48540187Y-50752419D01*
X48657032Y-50165000D01*
X48540187Y-49577581D01*
X48207441Y-49079591D01*
X47931181Y-48895000D01*
X48207441Y-48710409D01*
X48540187Y-48212419D01*
X48657032Y-47625000D01*
X48540187Y-47037581D01*
X48207441Y-46539591D01*
X47931181Y-46355000D01*
X48207441Y-46170409D01*
X48540187Y-45672419D01*
X48657032Y-45085000D01*
X48540187Y-44497581D01*
X48207441Y-43999591D01*
X47931181Y-43815000D01*
X48207441Y-43630409D01*
X48540187Y-43132419D01*
X48657032Y-42545000D01*
X48540187Y-41957581D01*
X48207441Y-41459591D01*
X47931181Y-41275000D01*
X48207441Y-41090409D01*
X48540187Y-40592419D01*
X48657032Y-40005000D01*
X48651830Y-39978846D01*
X53910000Y-39978846D01*
X53910000Y-40031154D01*
X54011621Y-40542036D01*
X54301012Y-40975142D01*
X54734118Y-41264533D01*
X55245000Y-41366154D01*
X55755882Y-41264533D01*
X56188988Y-40975142D01*
X56478379Y-40542036D01*
X56580000Y-40031154D01*
X56580000Y-39978846D01*
X56478379Y-39467964D01*
X56188988Y-39034858D01*
X55755882Y-38745467D01*
X55245000Y-38643846D01*
X54734118Y-38745467D01*
X54301012Y-39034858D01*
X54011621Y-39467964D01*
X53910000Y-39978846D01*
X48651830Y-39978846D01*
X48540187Y-39417581D01*
X48207441Y-38919591D01*
X47931181Y-38735000D01*
X48207441Y-38550409D01*
X48540187Y-38052419D01*
X48657032Y-37465000D01*
X48540187Y-36877581D01*
X48207441Y-36379591D01*
X47935946Y-36198184D01*
X48346809Y-35804752D01*
X48581036Y-35289740D01*
X48460378Y-35052000D01*
X47117000Y-35052000D01*
X47117000Y-35072000D01*
X46863000Y-35072000D01*
X46863000Y-35052000D01*
X45519622Y-35052000D01*
X45398964Y-35289740D01*
X45633191Y-35804752D01*
X46044054Y-36198184D01*
X45772559Y-36379591D01*
X45439813Y-36877581D01*
X45322968Y-37465000D01*
X45439813Y-38052419D01*
X45772559Y-38550409D01*
X46048819Y-38735000D01*
X45772559Y-38919591D01*
X45439813Y-39417581D01*
X45322968Y-40005000D01*
X45439813Y-40592419D01*
X45772559Y-41090409D01*
X46048819Y-41275000D01*
X45772559Y-41459591D01*
X45439813Y-41957581D01*
X45322968Y-42545000D01*
X45439813Y-43132419D01*
X45772559Y-43630409D01*
X46048819Y-43815000D01*
X45772559Y-43999591D01*
X45672059Y-44150000D01*
X45085000Y-44150000D01*
X44727191Y-44221173D01*
X44423855Y-44423855D01*
X43534855Y-45312855D01*
X43332173Y-45616191D01*
X43261000Y-45974000D01*
X43261000Y-83820000D01*
X43332173Y-84177809D01*
X43534855Y-84481145D01*
X45566855Y-86513145D01*
X45870191Y-86715827D01*
X46228000Y-86787000D01*
X48006000Y-86787000D01*
X48363809Y-86715827D01*
X48667145Y-86513145D01*
X49230907Y-85949383D01*
X54544769Y-85949383D01*
X54747582Y-86440229D01*
X55122796Y-86816098D01*
X55613287Y-87019768D01*
X56144383Y-87020231D01*
X56635229Y-86817418D01*
X57011098Y-86442204D01*
X57214768Y-85951713D01*
X57214770Y-85949383D01*
X70419769Y-85949383D01*
X70622582Y-86440229D01*
X70997796Y-86816098D01*
X71488287Y-87019768D01*
X72019383Y-87020231D01*
X72510229Y-86817418D01*
X72886098Y-86442204D01*
X73089768Y-85951713D01*
X73090231Y-85420617D01*
X72887418Y-84929771D01*
X72512204Y-84553902D01*
X72242013Y-84441709D01*
X72448831Y-84356042D01*
X72510669Y-84120275D01*
X72383670Y-83993275D01*
X78024331Y-83993275D01*
X78086169Y-84229042D01*
X78587122Y-84405419D01*
X79117440Y-84376664D01*
X79473831Y-84229042D01*
X79535669Y-83993275D01*
X78780000Y-83237605D01*
X78024331Y-83993275D01*
X72383670Y-83993275D01*
X71755000Y-83364605D01*
X70999331Y-84120275D01*
X71061169Y-84356042D01*
X71284842Y-84434793D01*
X70999771Y-84552582D01*
X70623902Y-84927796D01*
X70420232Y-85418287D01*
X70419769Y-85949383D01*
X57214770Y-85949383D01*
X57215231Y-85420617D01*
X57012418Y-84929771D01*
X56637204Y-84553902D01*
X56367013Y-84441709D01*
X56573831Y-84356042D01*
X56635669Y-84120275D01*
X55880000Y-83364605D01*
X55124331Y-84120275D01*
X55186169Y-84356042D01*
X55409842Y-84434793D01*
X55124771Y-84552582D01*
X54748902Y-84927796D01*
X54545232Y-85418287D01*
X54544769Y-85949383D01*
X49230907Y-85949383D01*
X50445145Y-84735145D01*
X50647827Y-84431809D01*
X50719000Y-84074000D01*
X50719000Y-82992122D01*
X54532581Y-82992122D01*
X54561336Y-83522440D01*
X54708958Y-83878831D01*
X54944725Y-83940669D01*
X55700395Y-83185000D01*
X56059605Y-83185000D01*
X56815275Y-83940669D01*
X57051042Y-83878831D01*
X57227419Y-83377878D01*
X57198664Y-82847560D01*
X57051042Y-82491169D01*
X56815275Y-82429331D01*
X56059605Y-83185000D01*
X55700395Y-83185000D01*
X54944725Y-82429331D01*
X54708958Y-82491169D01*
X54532581Y-82992122D01*
X50719000Y-82992122D01*
X50719000Y-82249725D01*
X55124331Y-82249725D01*
X55880000Y-83005395D01*
X56547579Y-82337815D01*
X59704630Y-82337815D01*
X60028980Y-83122800D01*
X60629041Y-83723909D01*
X61413459Y-84049628D01*
X62262815Y-84050370D01*
X63047800Y-83726020D01*
X63648909Y-83125959D01*
X63905000Y-82509224D01*
X63905000Y-83541310D01*
X64001673Y-83774699D01*
X64180302Y-83953327D01*
X64413691Y-84050000D01*
X65754250Y-84050000D01*
X65913000Y-83891250D01*
X65913000Y-82042000D01*
X66167000Y-82042000D01*
X66167000Y-83891250D01*
X66325750Y-84050000D01*
X67666309Y-84050000D01*
X67899698Y-83953327D01*
X68078327Y-83774699D01*
X68175000Y-83541310D01*
X68175000Y-82992122D01*
X70407581Y-82992122D01*
X70436336Y-83522440D01*
X70583958Y-83878831D01*
X70819725Y-83940669D01*
X71575395Y-83185000D01*
X71934605Y-83185000D01*
X72690275Y-83940669D01*
X72926042Y-83878831D01*
X73102419Y-83377878D01*
X73073664Y-82847560D01*
X72926042Y-82491169D01*
X72690275Y-82429331D01*
X71934605Y-83185000D01*
X71575395Y-83185000D01*
X70819725Y-82429331D01*
X70583958Y-82491169D01*
X70407581Y-82992122D01*
X68175000Y-82992122D01*
X68175000Y-82249725D01*
X70999331Y-82249725D01*
X71755000Y-83005395D01*
X72510669Y-82249725D01*
X72448831Y-82013958D01*
X71947878Y-81837581D01*
X71417560Y-81866336D01*
X71061169Y-82013958D01*
X70999331Y-82249725D01*
X68175000Y-82249725D01*
X68175000Y-82200750D01*
X68016250Y-82042000D01*
X66167000Y-82042000D01*
X65913000Y-82042000D01*
X65893000Y-82042000D01*
X65893000Y-81788000D01*
X65913000Y-81788000D01*
X65913000Y-79938750D01*
X66167000Y-79938750D01*
X66167000Y-81788000D01*
X68016250Y-81788000D01*
X68175000Y-81629250D01*
X68175000Y-80288690D01*
X68078327Y-80055301D01*
X67899698Y-79876673D01*
X67666309Y-79780000D01*
X66325750Y-79780000D01*
X66167000Y-79938750D01*
X65913000Y-79938750D01*
X65754250Y-79780000D01*
X64413691Y-79780000D01*
X64180302Y-79876673D01*
X64001673Y-80055301D01*
X63905000Y-80288690D01*
X63905000Y-81321877D01*
X63651020Y-80707200D01*
X63050959Y-80106091D01*
X62266541Y-79780372D01*
X61417185Y-79779630D01*
X60632200Y-80103980D01*
X60031091Y-80704041D01*
X59705372Y-81488459D01*
X59704630Y-82337815D01*
X56547579Y-82337815D01*
X56635669Y-82249725D01*
X56573831Y-82013958D01*
X56072878Y-81837581D01*
X55542560Y-81866336D01*
X55186169Y-82013958D01*
X55124331Y-82249725D01*
X50719000Y-82249725D01*
X50719000Y-77349290D01*
X51230475Y-76837815D01*
X59704630Y-76837815D01*
X60028980Y-77622800D01*
X60629041Y-78223909D01*
X61413459Y-78549628D01*
X62262815Y-78550370D01*
X63047800Y-78226020D01*
X63648909Y-77625959D01*
X63940314Y-76924177D01*
X64228980Y-77622800D01*
X64829041Y-78223909D01*
X65613459Y-78549628D01*
X66462815Y-78550370D01*
X67247800Y-78226020D01*
X67848909Y-77625959D01*
X68174628Y-76841541D01*
X68175370Y-75992185D01*
X67851020Y-75207200D01*
X67250959Y-74606091D01*
X66466541Y-74280372D01*
X65617185Y-74279630D01*
X64832200Y-74603980D01*
X64231091Y-75204041D01*
X63939686Y-75905823D01*
X63651020Y-75207200D01*
X63050959Y-74606091D01*
X62266541Y-74280372D01*
X61417185Y-74279630D01*
X60632200Y-74603980D01*
X60031091Y-75204041D01*
X59705372Y-75988459D01*
X59704630Y-76837815D01*
X51230475Y-76837815D01*
X58553290Y-69515000D01*
X72136000Y-69515000D01*
X72237113Y-69494887D01*
X72217000Y-69596000D01*
X72217000Y-76454000D01*
X72288173Y-76811809D01*
X72490855Y-77115145D01*
X77316855Y-81941145D01*
X77620191Y-82143827D01*
X77747421Y-82169135D01*
X77729474Y-82187082D01*
X77844723Y-82302331D01*
X77608958Y-82364169D01*
X77432581Y-82865122D01*
X77461336Y-83395440D01*
X77608958Y-83751831D01*
X77844725Y-83813669D01*
X78600395Y-83058000D01*
X78586252Y-83043858D01*
X78765858Y-82864252D01*
X78780000Y-82878395D01*
X78794142Y-82864252D01*
X78973748Y-83043858D01*
X78959605Y-83058000D01*
X79715275Y-83813669D01*
X79951042Y-83751831D01*
X80029793Y-83528158D01*
X80147582Y-83813229D01*
X80522796Y-84189098D01*
X81013287Y-84392768D01*
X81544383Y-84393231D01*
X82035229Y-84190418D01*
X82123000Y-84102800D01*
X82123000Y-86988710D01*
X80872855Y-88238855D01*
X80670173Y-88542191D01*
X80599000Y-88900000D01*
X80599000Y-89013977D01*
X80483946Y-89090853D01*
X80264000Y-89420026D01*
X80044054Y-89090853D01*
X79562285Y-88768946D01*
X78994000Y-88655907D01*
X78834019Y-88687729D01*
X77623145Y-87476855D01*
X77319809Y-87274173D01*
X76962000Y-87203000D01*
X71628000Y-87203000D01*
X71270191Y-87274173D01*
X70966855Y-87476855D01*
X64890710Y-93553000D01*
X49409290Y-93553000D01*
X49136946Y-93280656D01*
X49137118Y-93082745D01*
X52551861Y-93082745D01*
X52625995Y-93328864D01*
X53163223Y-93521965D01*
X53733454Y-93494778D01*
X54134005Y-93328864D01*
X54208139Y-93082745D01*
X53380000Y-92254605D01*
X52551861Y-93082745D01*
X49137118Y-93082745D01*
X49137240Y-92943715D01*
X48926831Y-92434485D01*
X48537564Y-92044539D01*
X48088866Y-91858223D01*
X51933035Y-91858223D01*
X51960222Y-92428454D01*
X52126136Y-92829005D01*
X52372255Y-92903139D01*
X53200395Y-92075000D01*
X53559605Y-92075000D01*
X54387745Y-92903139D01*
X54435167Y-92888855D01*
X54476838Y-93110317D01*
X54615910Y-93326441D01*
X54828110Y-93471431D01*
X55080000Y-93522440D01*
X56680000Y-93522440D01*
X56915317Y-93478162D01*
X57131441Y-93339090D01*
X57276431Y-93126890D01*
X57327440Y-92875000D01*
X57327440Y-91275000D01*
X57283162Y-91039683D01*
X57144090Y-90823559D01*
X56931890Y-90678569D01*
X56680000Y-90627560D01*
X55080000Y-90627560D01*
X54844683Y-90671838D01*
X54628559Y-90810910D01*
X54483569Y-91023110D01*
X54435354Y-91261201D01*
X54387745Y-91246861D01*
X53559605Y-92075000D01*
X53200395Y-92075000D01*
X52372255Y-91246861D01*
X52126136Y-91320995D01*
X51933035Y-91858223D01*
X48088866Y-91858223D01*
X48028702Y-91833241D01*
X47477715Y-91832760D01*
X46968485Y-92043169D01*
X46578539Y-92432436D01*
X46367241Y-92941298D01*
X46366760Y-93492285D01*
X46577169Y-94001515D01*
X46966436Y-94391461D01*
X47475298Y-94602759D01*
X47814765Y-94603055D01*
X48360855Y-95149145D01*
X48362135Y-95150000D01*
X40712391Y-95150000D01*
X38982751Y-94805953D01*
X37577804Y-93867197D01*
X36639047Y-92462249D01*
X36397442Y-91247619D01*
X38404613Y-91247619D01*
X38744155Y-92069372D01*
X39372321Y-92698636D01*
X40193481Y-93039611D01*
X41082619Y-93040387D01*
X41904372Y-92700845D01*
X42533636Y-92072679D01*
X42874611Y-91251519D01*
X42874771Y-91067255D01*
X52551861Y-91067255D01*
X53380000Y-91895395D01*
X54208139Y-91067255D01*
X54134005Y-90821136D01*
X53596777Y-90628035D01*
X53026546Y-90655222D01*
X52625995Y-90821136D01*
X52551861Y-91067255D01*
X42874771Y-91067255D01*
X42875387Y-90362381D01*
X42576002Y-89637815D01*
X61804630Y-89637815D01*
X62128980Y-90422800D01*
X62729041Y-91023909D01*
X63513459Y-91349628D01*
X64362815Y-91350370D01*
X65147800Y-91026020D01*
X65748909Y-90425959D01*
X66074628Y-89641541D01*
X66075370Y-88792185D01*
X65751020Y-88007200D01*
X65150959Y-87406091D01*
X64366541Y-87080372D01*
X63517185Y-87079630D01*
X62732200Y-87403980D01*
X62131091Y-88004041D01*
X61805372Y-88788459D01*
X61804630Y-89637815D01*
X42576002Y-89637815D01*
X42535845Y-89540628D01*
X41907679Y-88911364D01*
X41086519Y-88570389D01*
X40197381Y-88569613D01*
X39375628Y-88909155D01*
X38746364Y-89537321D01*
X38405389Y-90358481D01*
X38404613Y-91247619D01*
X36397442Y-91247619D01*
X36295000Y-90732610D01*
X36295000Y-34560260D01*
X45398964Y-34560260D01*
X45519622Y-34798000D01*
X46863000Y-34798000D01*
X46863000Y-33549865D01*
X47117000Y-33549865D01*
X47117000Y-34798000D01*
X48460378Y-34798000D01*
X48581036Y-34560260D01*
X48346809Y-34045248D01*
X47914474Y-33631255D01*
X47356620Y-33414223D01*
X47117000Y-33549865D01*
X46863000Y-33549865D01*
X46623380Y-33414223D01*
X46065526Y-33631255D01*
X45633191Y-34045248D01*
X45398964Y-34560260D01*
X36295000Y-34560260D01*
X36295000Y-32649383D01*
X53909769Y-32649383D01*
X54112582Y-33140229D01*
X54487796Y-33516098D01*
X54978287Y-33719768D01*
X55509383Y-33720231D01*
X56000229Y-33517418D01*
X56376098Y-33142204D01*
X56579768Y-32651713D01*
X56579770Y-32649383D01*
X60259769Y-32649383D01*
X60462582Y-33140229D01*
X60837796Y-33516098D01*
X61328287Y-33719768D01*
X61859383Y-33720231D01*
X62350229Y-33517418D01*
X62726098Y-33142204D01*
X62929768Y-32651713D01*
X62929770Y-32649383D01*
X66609769Y-32649383D01*
X66812582Y-33140229D01*
X67187796Y-33516098D01*
X67678287Y-33719768D01*
X68209383Y-33720231D01*
X68700229Y-33517418D01*
X69076098Y-33142204D01*
X69279768Y-32651713D01*
X69280231Y-32120617D01*
X69077418Y-31629771D01*
X68702204Y-31253902D01*
X68211713Y-31050232D01*
X67680617Y-31049769D01*
X67189771Y-31252582D01*
X66813902Y-31627796D01*
X66610232Y-32118287D01*
X66609769Y-32649383D01*
X62929770Y-32649383D01*
X62930231Y-32120617D01*
X62727418Y-31629771D01*
X62352204Y-31253902D01*
X61861713Y-31050232D01*
X61330617Y-31049769D01*
X60839771Y-31252582D01*
X60463902Y-31627796D01*
X60260232Y-32118287D01*
X60259769Y-32649383D01*
X56579770Y-32649383D01*
X56580231Y-32120617D01*
X56377418Y-31629771D01*
X56002204Y-31253902D01*
X55511713Y-31050232D01*
X54980617Y-31049769D01*
X54489771Y-31252582D01*
X54113902Y-31627796D01*
X53910232Y-32118287D01*
X53909769Y-32649383D01*
X36295000Y-32649383D01*
X36295000Y-29017619D01*
X38404613Y-29017619D01*
X38744155Y-29839372D01*
X39372321Y-30468636D01*
X40193481Y-30809611D01*
X41082619Y-30810387D01*
X41904372Y-30470845D01*
X42533636Y-29842679D01*
X42874611Y-29021519D01*
X42875387Y-28132381D01*
X42651590Y-27590750D01*
X51170000Y-27590750D01*
X51170000Y-28331310D01*
X51266673Y-28564699D01*
X51445302Y-28743327D01*
X51678691Y-28840000D01*
X52419250Y-28840000D01*
X52578000Y-28681250D01*
X52578000Y-27432000D01*
X51328750Y-27432000D01*
X51170000Y-27590750D01*
X42651590Y-27590750D01*
X42535845Y-27310628D01*
X41907679Y-26681364D01*
X41086519Y-26340389D01*
X40197381Y-26339613D01*
X39375628Y-26679155D01*
X38746364Y-27307321D01*
X38405389Y-28128481D01*
X38404613Y-29017619D01*
X36295000Y-29017619D01*
X36295000Y-28647390D01*
X36639047Y-26917751D01*
X37066054Y-26278690D01*
X51170000Y-26278690D01*
X51170000Y-27019250D01*
X51328750Y-27178000D01*
X52578000Y-27178000D01*
X52578000Y-25928750D01*
X52832000Y-25928750D01*
X52832000Y-27178000D01*
X52852000Y-27178000D01*
X52852000Y-27432000D01*
X52832000Y-27432000D01*
X52832000Y-28681250D01*
X52990750Y-28840000D01*
X53731309Y-28840000D01*
X53964698Y-28743327D01*
X54143327Y-28564699D01*
X54199119Y-28430006D01*
X54374357Y-28605551D01*
X54938330Y-28839733D01*
X55548991Y-28840265D01*
X56113371Y-28607068D01*
X56545551Y-28175643D01*
X56779733Y-27611670D01*
X56779751Y-27590750D01*
X57520000Y-27590750D01*
X57520000Y-28331310D01*
X57616673Y-28564699D01*
X57795302Y-28743327D01*
X58028691Y-28840000D01*
X58769250Y-28840000D01*
X58928000Y-28681250D01*
X58928000Y-27432000D01*
X57678750Y-27432000D01*
X57520000Y-27590750D01*
X56779751Y-27590750D01*
X56780265Y-27001009D01*
X56547068Y-26436629D01*
X56389405Y-26278690D01*
X57520000Y-26278690D01*
X57520000Y-27019250D01*
X57678750Y-27178000D01*
X58928000Y-27178000D01*
X58928000Y-25928750D01*
X59182000Y-25928750D01*
X59182000Y-27178000D01*
X59202000Y-27178000D01*
X59202000Y-27432000D01*
X59182000Y-27432000D01*
X59182000Y-28681250D01*
X59340750Y-28840000D01*
X60081309Y-28840000D01*
X60314698Y-28743327D01*
X60493327Y-28564699D01*
X60549119Y-28430006D01*
X60724357Y-28605551D01*
X61288330Y-28839733D01*
X61898991Y-28840265D01*
X62463371Y-28607068D01*
X62895551Y-28175643D01*
X63129733Y-27611670D01*
X63129751Y-27590750D01*
X63870000Y-27590750D01*
X63870000Y-28331310D01*
X63966673Y-28564699D01*
X64145302Y-28743327D01*
X64378691Y-28840000D01*
X65119250Y-28840000D01*
X65278000Y-28681250D01*
X65278000Y-27432000D01*
X64028750Y-27432000D01*
X63870000Y-27590750D01*
X63129751Y-27590750D01*
X63130265Y-27001009D01*
X62897068Y-26436629D01*
X62739405Y-26278690D01*
X63870000Y-26278690D01*
X63870000Y-27019250D01*
X64028750Y-27178000D01*
X65278000Y-27178000D01*
X65278000Y-25928750D01*
X65532000Y-25928750D01*
X65532000Y-27178000D01*
X65552000Y-27178000D01*
X65552000Y-27432000D01*
X65532000Y-27432000D01*
X65532000Y-28681250D01*
X65690750Y-28840000D01*
X66431309Y-28840000D01*
X66664698Y-28743327D01*
X66843327Y-28564699D01*
X66899119Y-28430006D01*
X67074357Y-28605551D01*
X67638330Y-28839733D01*
X68248991Y-28840265D01*
X68813371Y-28607068D01*
X69245551Y-28175643D01*
X69479733Y-27611670D01*
X69480265Y-27001009D01*
X69247068Y-26436629D01*
X68815643Y-26004449D01*
X68251670Y-25770267D01*
X67641009Y-25769735D01*
X67076629Y-26002932D01*
X66899159Y-26180092D01*
X66843327Y-26045301D01*
X66664698Y-25866673D01*
X66431309Y-25770000D01*
X65690750Y-25770000D01*
X65532000Y-25928750D01*
X65278000Y-25928750D01*
X65119250Y-25770000D01*
X64378691Y-25770000D01*
X64145302Y-25866673D01*
X63966673Y-26045301D01*
X63870000Y-26278690D01*
X62739405Y-26278690D01*
X62465643Y-26004449D01*
X61901670Y-25770267D01*
X61291009Y-25769735D01*
X60726629Y-26002932D01*
X60549159Y-26180092D01*
X60493327Y-26045301D01*
X60314698Y-25866673D01*
X60081309Y-25770000D01*
X59340750Y-25770000D01*
X59182000Y-25928750D01*
X58928000Y-25928750D01*
X58769250Y-25770000D01*
X58028691Y-25770000D01*
X57795302Y-25866673D01*
X57616673Y-26045301D01*
X57520000Y-26278690D01*
X56389405Y-26278690D01*
X56115643Y-26004449D01*
X55551670Y-25770267D01*
X54941009Y-25769735D01*
X54376629Y-26002932D01*
X54199159Y-26180092D01*
X54143327Y-26045301D01*
X53964698Y-25866673D01*
X53731309Y-25770000D01*
X52990750Y-25770000D01*
X52832000Y-25928750D01*
X52578000Y-25928750D01*
X52419250Y-25770000D01*
X51678691Y-25770000D01*
X51445302Y-25866673D01*
X51266673Y-26045301D01*
X51170000Y-26278690D01*
X37066054Y-26278690D01*
X37577804Y-25512803D01*
X38982751Y-24574047D01*
X40712391Y-24230000D01*
X77089000Y-24230000D01*
X77089000Y-34798000D01*
G36*
X109272559Y-76650409D02*
X109548819Y-76835000D01*
X109272559Y-77019591D01*
X109172059Y-77170000D01*
X107569005Y-77170000D01*
X107569000Y-77169999D01*
X107270556Y-77229364D01*
X107211191Y-77241173D01*
X107096470Y-77317827D01*
X106907855Y-77443855D01*
X105256855Y-79094855D01*
X105054173Y-79398191D01*
X104983000Y-79756000D01*
X104983000Y-88004710D01*
X98672710Y-94315000D01*
X69099151Y-94315000D01*
X69099265Y-94184009D01*
X68866068Y-93619629D01*
X68434643Y-93187449D01*
X68057461Y-93030829D01*
X69813290Y-91275000D01*
X70307560Y-91275000D01*
X70307560Y-92875000D01*
X70351838Y-93110317D01*
X70490910Y-93326441D01*
X70703110Y-93471431D01*
X70955000Y-93522440D01*
X72555000Y-93522440D01*
X72790317Y-93478162D01*
X73006441Y-93339090D01*
X73151431Y-93126890D01*
X73160370Y-93082745D01*
X73426861Y-93082745D01*
X73500995Y-93328864D01*
X74038223Y-93521965D01*
X74608454Y-93494778D01*
X75009005Y-93328864D01*
X75083139Y-93082745D01*
X74255000Y-92254605D01*
X73426861Y-93082745D01*
X73160370Y-93082745D01*
X73199646Y-92888799D01*
X73247255Y-92903139D01*
X74075395Y-92075000D01*
X74434605Y-92075000D01*
X75262745Y-92903139D01*
X75508864Y-92829005D01*
X75701965Y-92291777D01*
X75674778Y-91721546D01*
X75508864Y-91320995D01*
X75262745Y-91246861D01*
X74434605Y-92075000D01*
X74075395Y-92075000D01*
X73247255Y-91246861D01*
X73199833Y-91261145D01*
X73163351Y-91067255D01*
X73426861Y-91067255D01*
X74255000Y-91895395D01*
X75083139Y-91067255D01*
X75009005Y-90821136D01*
X74471777Y-90628035D01*
X73901546Y-90655222D01*
X73500995Y-90821136D01*
X73426861Y-91067255D01*
X73163351Y-91067255D01*
X73158162Y-91039683D01*
X73019090Y-90823559D01*
X72806890Y-90678569D01*
X72555000Y-90627560D01*
X70955000Y-90627560D01*
X70719683Y-90671838D01*
X70503559Y-90810910D01*
X70358569Y-91023110D01*
X70307560Y-91275000D01*
X69813290Y-91275000D01*
X72015290Y-89073000D01*
X76574710Y-89073000D01*
X77531169Y-90029459D01*
X77509000Y-90140907D01*
X77509000Y-90199093D01*
X77622039Y-90767378D01*
X77943946Y-91249147D01*
X78229578Y-91440000D01*
X77943946Y-91630853D01*
X77622039Y-92112622D01*
X77509000Y-92680907D01*
X77509000Y-92739093D01*
X77622039Y-93307378D01*
X77943946Y-93789147D01*
X78425715Y-94111054D01*
X78994000Y-94224093D01*
X79562285Y-94111054D01*
X80044054Y-93789147D01*
X80264000Y-93459974D01*
X80483946Y-93789147D01*
X80965715Y-94111054D01*
X81534000Y-94224093D01*
X82102285Y-94111054D01*
X82584054Y-93789147D01*
X82811702Y-93448447D01*
X82878817Y-93591358D01*
X83307076Y-93981645D01*
X83717110Y-94151476D01*
X83947000Y-94030155D01*
X83947000Y-92837000D01*
X83927000Y-92837000D01*
X83927000Y-92583000D01*
X83947000Y-92583000D01*
X83947000Y-92563000D01*
X84201000Y-92563000D01*
X84201000Y-92583000D01*
X84221000Y-92583000D01*
X84221000Y-92837000D01*
X84201000Y-92837000D01*
X84201000Y-94030155D01*
X84430890Y-94151476D01*
X84840924Y-93981645D01*
X85269183Y-93591358D01*
X85336298Y-93448447D01*
X85563946Y-93789147D01*
X86045715Y-94111054D01*
X86614000Y-94224093D01*
X87182285Y-94111054D01*
X87664054Y-93789147D01*
X87884000Y-93459974D01*
X88103946Y-93789147D01*
X88585715Y-94111054D01*
X89154000Y-94224093D01*
X89722285Y-94111054D01*
X90204054Y-93789147D01*
X90300370Y-93645000D01*
X90678000Y-93645000D01*
X91035809Y-93573827D01*
X91339145Y-93371145D01*
X92101145Y-92609145D01*
X92303827Y-92305809D01*
X92375000Y-91948000D01*
X92375000Y-86030757D01*
X92521610Y-86130931D01*
X92773500Y-86181940D01*
X94678500Y-86181940D01*
X94913817Y-86137662D01*
X95129941Y-85998590D01*
X95254716Y-85815976D01*
X95365579Y-85927032D01*
X95948841Y-86169224D01*
X96580388Y-86169775D01*
X97164072Y-85928602D01*
X97611032Y-85482421D01*
X97853224Y-84899159D01*
X97853775Y-84267612D01*
X97612602Y-83683928D01*
X97558269Y-83629500D01*
X98476060Y-83629500D01*
X98476060Y-85534500D01*
X98520338Y-85769817D01*
X98659410Y-85985941D01*
X98871610Y-86130931D01*
X99123500Y-86181940D01*
X101028500Y-86181940D01*
X101263817Y-86137662D01*
X101479941Y-85998590D01*
X101604716Y-85815976D01*
X101715579Y-85927032D01*
X102298841Y-86169224D01*
X102930388Y-86169775D01*
X103514072Y-85928602D01*
X103961032Y-85482421D01*
X104203224Y-84899159D01*
X104203775Y-84267612D01*
X103962602Y-83683928D01*
X103516421Y-83236968D01*
X102933159Y-82994776D01*
X102301612Y-82994225D01*
X101717928Y-83235398D01*
X101603190Y-83349936D01*
X101492590Y-83178059D01*
X101280390Y-83033069D01*
X101028500Y-82982060D01*
X99123500Y-82982060D01*
X98888183Y-83026338D01*
X98672059Y-83165410D01*
X98527069Y-83377610D01*
X98476060Y-83629500D01*
X97558269Y-83629500D01*
X97166421Y-83236968D01*
X96583159Y-82994776D01*
X95951612Y-82994225D01*
X95367928Y-83235398D01*
X95253190Y-83349936D01*
X95142590Y-83178059D01*
X94930390Y-83033069D01*
X94678500Y-82982060D01*
X92773500Y-82982060D01*
X92538183Y-83026338D01*
X92375000Y-83131343D01*
X92375000Y-83058000D01*
X92303827Y-82700191D01*
X92101145Y-82396855D01*
X88109290Y-78405000D01*
X102396445Y-78405000D01*
X102761357Y-78770551D01*
X103325330Y-79004733D01*
X103935991Y-79005265D01*
X104500371Y-78772068D01*
X104932551Y-78340643D01*
X105166733Y-77776670D01*
X105167265Y-77166009D01*
X104934068Y-76601629D01*
X104832617Y-76500000D01*
X109172059Y-76500000D01*
X109272559Y-76650409D01*
X109272559Y-76650409D01*
G37*
X109272559Y-76650409D02*
X109548819Y-76835000D01*
X109272559Y-77019591D01*
X109172059Y-77170000D01*
X107569005Y-77170000D01*
X107569000Y-77169999D01*
X107270556Y-77229364D01*
X107211191Y-77241173D01*
X107096470Y-77317827D01*
X106907855Y-77443855D01*
X105256855Y-79094855D01*
X105054173Y-79398191D01*
X104983000Y-79756000D01*
X104983000Y-88004710D01*
X98672710Y-94315000D01*
X69099151Y-94315000D01*
X69099265Y-94184009D01*
X68866068Y-93619629D01*
X68434643Y-93187449D01*
X68057461Y-93030829D01*
X69813290Y-91275000D01*
X70307560Y-91275000D01*
X70307560Y-92875000D01*
X70351838Y-93110317D01*
X70490910Y-93326441D01*
X70703110Y-93471431D01*
X70955000Y-93522440D01*
X72555000Y-93522440D01*
X72790317Y-93478162D01*
X73006441Y-93339090D01*
X73151431Y-93126890D01*
X73160370Y-93082745D01*
X73426861Y-93082745D01*
X73500995Y-93328864D01*
X74038223Y-93521965D01*
X74608454Y-93494778D01*
X75009005Y-93328864D01*
X75083139Y-93082745D01*
X74255000Y-92254605D01*
X73426861Y-93082745D01*
X73160370Y-93082745D01*
X73199646Y-92888799D01*
X73247255Y-92903139D01*
X74075395Y-92075000D01*
X74434605Y-92075000D01*
X75262745Y-92903139D01*
X75508864Y-92829005D01*
X75701965Y-92291777D01*
X75674778Y-91721546D01*
X75508864Y-91320995D01*
X75262745Y-91246861D01*
X74434605Y-92075000D01*
X74075395Y-92075000D01*
X73247255Y-91246861D01*
X73199833Y-91261145D01*
X73163351Y-91067255D01*
X73426861Y-91067255D01*
X74255000Y-91895395D01*
X75083139Y-91067255D01*
X75009005Y-90821136D01*
X74471777Y-90628035D01*
X73901546Y-90655222D01*
X73500995Y-90821136D01*
X73426861Y-91067255D01*
X73163351Y-91067255D01*
X73158162Y-91039683D01*
X73019090Y-90823559D01*
X72806890Y-90678569D01*
X72555000Y-90627560D01*
X70955000Y-90627560D01*
X70719683Y-90671838D01*
X70503559Y-90810910D01*
X70358569Y-91023110D01*
X70307560Y-91275000D01*
X69813290Y-91275000D01*
X72015290Y-89073000D01*
X76574710Y-89073000D01*
X77531169Y-90029459D01*
X77509000Y-90140907D01*
X77509000Y-90199093D01*
X77622039Y-90767378D01*
X77943946Y-91249147D01*
X78229578Y-91440000D01*
X77943946Y-91630853D01*
X77622039Y-92112622D01*
X77509000Y-92680907D01*
X77509000Y-92739093D01*
X77622039Y-93307378D01*
X77943946Y-93789147D01*
X78425715Y-94111054D01*
X78994000Y-94224093D01*
X79562285Y-94111054D01*
X80044054Y-93789147D01*
X80264000Y-93459974D01*
X80483946Y-93789147D01*
X80965715Y-94111054D01*
X81534000Y-94224093D01*
X82102285Y-94111054D01*
X82584054Y-93789147D01*
X82811702Y-93448447D01*
X82878817Y-93591358D01*
X83307076Y-93981645D01*
X83717110Y-94151476D01*
X83947000Y-94030155D01*
X83947000Y-92837000D01*
X83927000Y-92837000D01*
X83927000Y-92583000D01*
X83947000Y-92583000D01*
X83947000Y-92563000D01*
X84201000Y-92563000D01*
X84201000Y-92583000D01*
X84221000Y-92583000D01*
X84221000Y-92837000D01*
X84201000Y-92837000D01*
X84201000Y-94030155D01*
X84430890Y-94151476D01*
X84840924Y-93981645D01*
X85269183Y-93591358D01*
X85336298Y-93448447D01*
X85563946Y-93789147D01*
X86045715Y-94111054D01*
X86614000Y-94224093D01*
X87182285Y-94111054D01*
X87664054Y-93789147D01*
X87884000Y-93459974D01*
X88103946Y-93789147D01*
X88585715Y-94111054D01*
X89154000Y-94224093D01*
X89722285Y-94111054D01*
X90204054Y-93789147D01*
X90300370Y-93645000D01*
X90678000Y-93645000D01*
X91035809Y-93573827D01*
X91339145Y-93371145D01*
X92101145Y-92609145D01*
X92303827Y-92305809D01*
X92375000Y-91948000D01*
X92375000Y-86030757D01*
X92521610Y-86130931D01*
X92773500Y-86181940D01*
X94678500Y-86181940D01*
X94913817Y-86137662D01*
X95129941Y-85998590D01*
X95254716Y-85815976D01*
X95365579Y-85927032D01*
X95948841Y-86169224D01*
X96580388Y-86169775D01*
X97164072Y-85928602D01*
X97611032Y-85482421D01*
X97853224Y-84899159D01*
X97853775Y-84267612D01*
X97612602Y-83683928D01*
X97558269Y-83629500D01*
X98476060Y-83629500D01*
X98476060Y-85534500D01*
X98520338Y-85769817D01*
X98659410Y-85985941D01*
X98871610Y-86130931D01*
X99123500Y-86181940D01*
X101028500Y-86181940D01*
X101263817Y-86137662D01*
X101479941Y-85998590D01*
X101604716Y-85815976D01*
X101715579Y-85927032D01*
X102298841Y-86169224D01*
X102930388Y-86169775D01*
X103514072Y-85928602D01*
X103961032Y-85482421D01*
X104203224Y-84899159D01*
X104203775Y-84267612D01*
X103962602Y-83683928D01*
X103516421Y-83236968D01*
X102933159Y-82994776D01*
X102301612Y-82994225D01*
X101717928Y-83235398D01*
X101603190Y-83349936D01*
X101492590Y-83178059D01*
X101280390Y-83033069D01*
X101028500Y-82982060D01*
X99123500Y-82982060D01*
X98888183Y-83026338D01*
X98672059Y-83165410D01*
X98527069Y-83377610D01*
X98476060Y-83629500D01*
X97558269Y-83629500D01*
X97166421Y-83236968D01*
X96583159Y-82994776D01*
X95951612Y-82994225D01*
X95367928Y-83235398D01*
X95253190Y-83349936D01*
X95142590Y-83178059D01*
X94930390Y-83033069D01*
X94678500Y-82982060D01*
X92773500Y-82982060D01*
X92538183Y-83026338D01*
X92375000Y-83131343D01*
X92375000Y-83058000D01*
X92303827Y-82700191D01*
X92101145Y-82396855D01*
X88109290Y-78405000D01*
X102396445Y-78405000D01*
X102761357Y-78770551D01*
X103325330Y-79004733D01*
X103935991Y-79005265D01*
X104500371Y-78772068D01*
X104932551Y-78340643D01*
X105166733Y-77776670D01*
X105167265Y-77166009D01*
X104934068Y-76601629D01*
X104832617Y-76500000D01*
X109172059Y-76500000D01*
X109272559Y-76650409D01*
G36*
X77170000Y-69585181D02*
X76658009Y-69584735D01*
X76093629Y-69817932D01*
X75661449Y-70249357D01*
X75427267Y-70813330D01*
X75426735Y-71423991D01*
X75659932Y-71988371D01*
X76091357Y-72420551D01*
X76655330Y-72654733D01*
X76844368Y-72654898D01*
X76643232Y-73139287D01*
X76642769Y-73670383D01*
X76845582Y-74161229D01*
X77220796Y-74537098D01*
X77711287Y-74740768D01*
X78242383Y-74741231D01*
X78733229Y-74538418D01*
X79109098Y-74163204D01*
X79312768Y-73672713D01*
X79313012Y-73393278D01*
X79381290Y-73325000D01*
X80384710Y-73325000D01*
X90505000Y-83445290D01*
X90505000Y-88925919D01*
X90468090Y-88868559D01*
X90255890Y-88723569D01*
X90004000Y-88672560D01*
X88304000Y-88672560D01*
X88068683Y-88716838D01*
X87852559Y-88855910D01*
X87707569Y-89068110D01*
X87693914Y-89135541D01*
X87664054Y-89090853D01*
X87182285Y-88768946D01*
X86614000Y-88655907D01*
X86045715Y-88768946D01*
X85563946Y-89090853D01*
X85344000Y-89420026D01*
X85124054Y-89090853D01*
X85009000Y-89013977D01*
X85009000Y-81534000D01*
X84937827Y-81176191D01*
X84735145Y-80872855D01*
X83465145Y-79602855D01*
X83161809Y-79400173D01*
X82804000Y-79329000D01*
X78619290Y-79329000D01*
X77859949Y-78569659D01*
X77951861Y-78477747D01*
X78025995Y-78723864D01*
X78563223Y-78916965D01*
X79133454Y-78889778D01*
X79534005Y-78723864D01*
X79608139Y-78477745D01*
X78780000Y-77649605D01*
X78765858Y-77663748D01*
X78586252Y-77484142D01*
X78600395Y-77470000D01*
X78959605Y-77470000D01*
X79787745Y-78298139D01*
X79835167Y-78283855D01*
X79876838Y-78505317D01*
X80015910Y-78721441D01*
X80228110Y-78866431D01*
X80480000Y-78917440D01*
X82080000Y-78917440D01*
X82315317Y-78873162D01*
X82531441Y-78734090D01*
X82676431Y-78521890D01*
X82727440Y-78270000D01*
X82727440Y-76670000D01*
X82683162Y-76434683D01*
X82544090Y-76218559D01*
X82331890Y-76073569D01*
X82080000Y-76022560D01*
X80480000Y-76022560D01*
X80244683Y-76066838D01*
X80028559Y-76205910D01*
X79883569Y-76418110D01*
X79835354Y-76656201D01*
X79787745Y-76641861D01*
X78959605Y-77470000D01*
X78600395Y-77470000D01*
X77772255Y-76641861D01*
X77526136Y-76715995D01*
X77333035Y-77253223D01*
X77360222Y-77823454D01*
X77526136Y-78224005D01*
X77772253Y-78298139D01*
X77680341Y-78390051D01*
X75752545Y-76462255D01*
X77951861Y-76462255D01*
X78780000Y-77290395D01*
X79608139Y-76462255D01*
X79534005Y-76216136D01*
X78996777Y-76023035D01*
X78426546Y-76050222D01*
X78025995Y-76216136D01*
X77951861Y-76462255D01*
X75752545Y-76462255D01*
X75103000Y-75812710D01*
X75103000Y-70491290D01*
X77093147Y-68501143D01*
X77170000Y-68386124D01*
X77170000Y-69585181D01*
X77170000Y-69585181D01*
G37*
X77170000Y-69585181D02*
X76658009Y-69584735D01*
X76093629Y-69817932D01*
X75661449Y-70249357D01*
X75427267Y-70813330D01*
X75426735Y-71423991D01*
X75659932Y-71988371D01*
X76091357Y-72420551D01*
X76655330Y-72654733D01*
X76844368Y-72654898D01*
X76643232Y-73139287D01*
X76642769Y-73670383D01*
X76845582Y-74161229D01*
X77220796Y-74537098D01*
X77711287Y-74740768D01*
X78242383Y-74741231D01*
X78733229Y-74538418D01*
X79109098Y-74163204D01*
X79312768Y-73672713D01*
X79313012Y-73393278D01*
X79381290Y-73325000D01*
X80384710Y-73325000D01*
X90505000Y-83445290D01*
X90505000Y-88925919D01*
X90468090Y-88868559D01*
X90255890Y-88723569D01*
X90004000Y-88672560D01*
X88304000Y-88672560D01*
X88068683Y-88716838D01*
X87852559Y-88855910D01*
X87707569Y-89068110D01*
X87693914Y-89135541D01*
X87664054Y-89090853D01*
X87182285Y-88768946D01*
X86614000Y-88655907D01*
X86045715Y-88768946D01*
X85563946Y-89090853D01*
X85344000Y-89420026D01*
X85124054Y-89090853D01*
X85009000Y-89013977D01*
X85009000Y-81534000D01*
X84937827Y-81176191D01*
X84735145Y-80872855D01*
X83465145Y-79602855D01*
X83161809Y-79400173D01*
X82804000Y-79329000D01*
X78619290Y-79329000D01*
X77859949Y-78569659D01*
X77951861Y-78477747D01*
X78025995Y-78723864D01*
X78563223Y-78916965D01*
X79133454Y-78889778D01*
X79534005Y-78723864D01*
X79608139Y-78477745D01*
X78780000Y-77649605D01*
X78765858Y-77663748D01*
X78586252Y-77484142D01*
X78600395Y-77470000D01*
X78959605Y-77470000D01*
X79787745Y-78298139D01*
X79835167Y-78283855D01*
X79876838Y-78505317D01*
X80015910Y-78721441D01*
X80228110Y-78866431D01*
X80480000Y-78917440D01*
X82080000Y-78917440D01*
X82315317Y-78873162D01*
X82531441Y-78734090D01*
X82676431Y-78521890D01*
X82727440Y-78270000D01*
X82727440Y-76670000D01*
X82683162Y-76434683D01*
X82544090Y-76218559D01*
X82331890Y-76073569D01*
X82080000Y-76022560D01*
X80480000Y-76022560D01*
X80244683Y-76066838D01*
X80028559Y-76205910D01*
X79883569Y-76418110D01*
X79835354Y-76656201D01*
X79787745Y-76641861D01*
X78959605Y-77470000D01*
X78600395Y-77470000D01*
X77772255Y-76641861D01*
X77526136Y-76715995D01*
X77333035Y-77253223D01*
X77360222Y-77823454D01*
X77526136Y-78224005D01*
X77772253Y-78298139D01*
X77680341Y-78390051D01*
X75752545Y-76462255D01*
X77951861Y-76462255D01*
X78780000Y-77290395D01*
X79608139Y-76462255D01*
X79534005Y-76216136D01*
X78996777Y-76023035D01*
X78426546Y-76050222D01*
X78025995Y-76216136D01*
X77951861Y-76462255D01*
X75752545Y-76462255D01*
X75103000Y-75812710D01*
X75103000Y-70491290D01*
X77093147Y-68501143D01*
X77170000Y-68386124D01*
X77170000Y-69585181D01*
G36*
X45772559Y-46170409D02*
X46048819Y-46355000D01*
X45772559Y-46539591D01*
X45439813Y-47037581D01*
X45322968Y-47625000D01*
X45439813Y-48212419D01*
X45772559Y-48710409D01*
X46048819Y-48895000D01*
X45772559Y-49079591D01*
X45439813Y-49577581D01*
X45322968Y-50165000D01*
X45439813Y-50752419D01*
X45772559Y-51250409D01*
X46048819Y-51435000D01*
X45772559Y-51619591D01*
X45439813Y-52117581D01*
X45322968Y-52705000D01*
X45439813Y-53292419D01*
X45772559Y-53790409D01*
X46048819Y-53975000D01*
X45772559Y-54159591D01*
X45439813Y-54657581D01*
X45322968Y-55245000D01*
X45439813Y-55832419D01*
X45772559Y-56330409D01*
X46048819Y-56515000D01*
X45772559Y-56699591D01*
X45439813Y-57197581D01*
X45322968Y-57785000D01*
X45439813Y-58372419D01*
X45772559Y-58870409D01*
X46044054Y-59051816D01*
X45633191Y-59445248D01*
X45398964Y-59960260D01*
X45519622Y-60198000D01*
X46863000Y-60198000D01*
X46863000Y-60178000D01*
X47117000Y-60178000D01*
X47117000Y-60198000D01*
X48460378Y-60198000D01*
X48581036Y-59960260D01*
X48346809Y-59445248D01*
X47935946Y-59051816D01*
X47976079Y-59025000D01*
X51199557Y-59025000D01*
X50769449Y-59454357D01*
X50535267Y-60018330D01*
X50534735Y-60628991D01*
X50767932Y-61193371D01*
X51199357Y-61625551D01*
X51763330Y-61859733D01*
X52373991Y-61860265D01*
X52381275Y-61857255D01*
X60171861Y-61857255D01*
X61000000Y-62685395D01*
X61828139Y-61857255D01*
X61754005Y-61611136D01*
X61216777Y-61418035D01*
X60646546Y-61445222D01*
X60245995Y-61611136D01*
X60171861Y-61857255D01*
X52381275Y-61857255D01*
X52938371Y-61627068D01*
X53370551Y-61195643D01*
X53604733Y-60631670D01*
X53605186Y-60112104D01*
X53892290Y-59825000D01*
X63820710Y-59825000D01*
X62838855Y-60806855D01*
X62636173Y-61110191D01*
X62570174Y-61441988D01*
X62464683Y-61461838D01*
X62248559Y-61600910D01*
X62103569Y-61813110D01*
X62055354Y-62051201D01*
X62007745Y-62036861D01*
X61179605Y-62865000D01*
X62007745Y-63693139D01*
X62055167Y-63678855D01*
X62096838Y-63900317D01*
X62235910Y-64116441D01*
X62448110Y-64261431D01*
X62700000Y-64312440D01*
X64300000Y-64312440D01*
X64535317Y-64268162D01*
X64751441Y-64129090D01*
X64896431Y-63916890D01*
X64947440Y-63665000D01*
X64947440Y-62736692D01*
X64991932Y-62844371D01*
X65423357Y-63276551D01*
X65987330Y-63510733D01*
X66283212Y-63510991D01*
X66282735Y-64057991D01*
X66452974Y-64470000D01*
X60144234Y-64470000D01*
X60208733Y-64314670D01*
X60209011Y-63996079D01*
X60245995Y-64118864D01*
X60783223Y-64311965D01*
X61353454Y-64284778D01*
X61754005Y-64118864D01*
X61828139Y-63872745D01*
X61000000Y-63044605D01*
X60985858Y-63058748D01*
X60806252Y-62879142D01*
X60820395Y-62865000D01*
X59992255Y-62036861D01*
X59746136Y-62110995D01*
X59553035Y-62648223D01*
X59556421Y-62719248D01*
X59544643Y-62707449D01*
X58980670Y-62473267D01*
X58461104Y-62472814D01*
X58192145Y-62203855D01*
X57888809Y-62001173D01*
X57531000Y-61930000D01*
X48307941Y-61930000D01*
X48207441Y-61779591D01*
X47935946Y-61598184D01*
X48346809Y-61204752D01*
X48581036Y-60689740D01*
X48460378Y-60452000D01*
X47117000Y-60452000D01*
X47117000Y-60472000D01*
X46863000Y-60472000D01*
X46863000Y-60452000D01*
X45519622Y-60452000D01*
X45398964Y-60689740D01*
X45633191Y-61204752D01*
X46044054Y-61598184D01*
X45772559Y-61779591D01*
X45439813Y-62277581D01*
X45322968Y-62865000D01*
X45439813Y-63452419D01*
X45772559Y-63950409D01*
X46048819Y-64135000D01*
X45772559Y-64319591D01*
X45439813Y-64817581D01*
X45322968Y-65405000D01*
X45439813Y-65992419D01*
X45772559Y-66490409D01*
X46048819Y-66675000D01*
X45772559Y-66859591D01*
X45439813Y-67357581D01*
X45322968Y-67945000D01*
X45439813Y-68532419D01*
X45772559Y-69030409D01*
X46048819Y-69215000D01*
X45772559Y-69399591D01*
X45439813Y-69897581D01*
X45322968Y-70485000D01*
X45439813Y-71072419D01*
X45772559Y-71570409D01*
X46048819Y-71755000D01*
X45772559Y-71939591D01*
X45439813Y-72437581D01*
X45322968Y-73025000D01*
X45439813Y-73612419D01*
X45772559Y-74110409D01*
X46048819Y-74295000D01*
X45772559Y-74479591D01*
X45439813Y-74977581D01*
X45322968Y-75565000D01*
X45439813Y-76152419D01*
X45772559Y-76650409D01*
X46048819Y-76835000D01*
X45772559Y-77019591D01*
X45439813Y-77517581D01*
X45322968Y-78105000D01*
X45439813Y-78692419D01*
X45772559Y-79190409D01*
X46048819Y-79375000D01*
X45772559Y-79559591D01*
X45439813Y-80057581D01*
X45322968Y-80645000D01*
X45439813Y-81232419D01*
X45772559Y-81730409D01*
X46044054Y-81911816D01*
X45633191Y-82305248D01*
X45398964Y-82820260D01*
X45519622Y-83058000D01*
X46863000Y-83058000D01*
X46863000Y-83038000D01*
X47117000Y-83038000D01*
X47117000Y-83058000D01*
X48460378Y-83058000D01*
X48581036Y-82820260D01*
X48346809Y-82305248D01*
X47935946Y-81911816D01*
X48207441Y-81730409D01*
X48540187Y-81232419D01*
X48657032Y-80645000D01*
X48540187Y-80057581D01*
X48207441Y-79559591D01*
X47931181Y-79375000D01*
X48207441Y-79190409D01*
X48540187Y-78692419D01*
X48657032Y-78105000D01*
X48540187Y-77517581D01*
X48207441Y-77019591D01*
X47931181Y-76835000D01*
X48207441Y-76650409D01*
X48540187Y-76152419D01*
X48657032Y-75565000D01*
X48540187Y-74977581D01*
X48207441Y-74479591D01*
X47931181Y-74295000D01*
X48207441Y-74110409D01*
X48540187Y-73612419D01*
X48657032Y-73025000D01*
X48540187Y-72437581D01*
X48207441Y-71939591D01*
X47931181Y-71755000D01*
X48207441Y-71570409D01*
X48540187Y-71072419D01*
X48657032Y-70485000D01*
X48540187Y-69897581D01*
X48207441Y-69399591D01*
X47931181Y-69215000D01*
X48207441Y-69030409D01*
X48540187Y-68532419D01*
X48657032Y-67945000D01*
X48540187Y-67357581D01*
X48207441Y-66859591D01*
X47931181Y-66675000D01*
X48207441Y-66490409D01*
X48307941Y-66340000D01*
X58727766Y-66340000D01*
X58663267Y-66495330D01*
X58662735Y-67105991D01*
X58885449Y-67645000D01*
X58166000Y-67645000D01*
X57808191Y-67716173D01*
X57504855Y-67918855D01*
X49122855Y-76300855D01*
X48920173Y-76604191D01*
X48849000Y-76962000D01*
X48849000Y-83686710D01*
X47618710Y-84917000D01*
X46615290Y-84917000D01*
X46248043Y-84549753D01*
X46623380Y-84695777D01*
X46863000Y-84560135D01*
X46863000Y-83312000D01*
X47117000Y-83312000D01*
X47117000Y-84560135D01*
X47356620Y-84695777D01*
X47914474Y-84478745D01*
X48346809Y-84064752D01*
X48581036Y-83549740D01*
X48460378Y-83312000D01*
X47117000Y-83312000D01*
X46863000Y-83312000D01*
X45519622Y-83312000D01*
X45398964Y-83549740D01*
X45524871Y-83826581D01*
X45131000Y-83432710D01*
X45131000Y-46361290D01*
X45472290Y-46020000D01*
X45672059Y-46020000D01*
X45772559Y-46170409D01*
X45772559Y-46170409D01*
G37*
X45772559Y-46170409D02*
X46048819Y-46355000D01*
X45772559Y-46539591D01*
X45439813Y-47037581D01*
X45322968Y-47625000D01*
X45439813Y-48212419D01*
X45772559Y-48710409D01*
X46048819Y-48895000D01*
X45772559Y-49079591D01*
X45439813Y-49577581D01*
X45322968Y-50165000D01*
X45439813Y-50752419D01*
X45772559Y-51250409D01*
X46048819Y-51435000D01*
X45772559Y-51619591D01*
X45439813Y-52117581D01*
X45322968Y-52705000D01*
X45439813Y-53292419D01*
X45772559Y-53790409D01*
X46048819Y-53975000D01*
X45772559Y-54159591D01*
X45439813Y-54657581D01*
X45322968Y-55245000D01*
X45439813Y-55832419D01*
X45772559Y-56330409D01*
X46048819Y-56515000D01*
X45772559Y-56699591D01*
X45439813Y-57197581D01*
X45322968Y-57785000D01*
X45439813Y-58372419D01*
X45772559Y-58870409D01*
X46044054Y-59051816D01*
X45633191Y-59445248D01*
X45398964Y-59960260D01*
X45519622Y-60198000D01*
X46863000Y-60198000D01*
X46863000Y-60178000D01*
X47117000Y-60178000D01*
X47117000Y-60198000D01*
X48460378Y-60198000D01*
X48581036Y-59960260D01*
X48346809Y-59445248D01*
X47935946Y-59051816D01*
X47976079Y-59025000D01*
X51199557Y-59025000D01*
X50769449Y-59454357D01*
X50535267Y-60018330D01*
X50534735Y-60628991D01*
X50767932Y-61193371D01*
X51199357Y-61625551D01*
X51763330Y-61859733D01*
X52373991Y-61860265D01*
X52381275Y-61857255D01*
X60171861Y-61857255D01*
X61000000Y-62685395D01*
X61828139Y-61857255D01*
X61754005Y-61611136D01*
X61216777Y-61418035D01*
X60646546Y-61445222D01*
X60245995Y-61611136D01*
X60171861Y-61857255D01*
X52381275Y-61857255D01*
X52938371Y-61627068D01*
X53370551Y-61195643D01*
X53604733Y-60631670D01*
X53605186Y-60112104D01*
X53892290Y-59825000D01*
X63820710Y-59825000D01*
X62838855Y-60806855D01*
X62636173Y-61110191D01*
X62570174Y-61441988D01*
X62464683Y-61461838D01*
X62248559Y-61600910D01*
X62103569Y-61813110D01*
X62055354Y-62051201D01*
X62007745Y-62036861D01*
X61179605Y-62865000D01*
X62007745Y-63693139D01*
X62055167Y-63678855D01*
X62096838Y-63900317D01*
X62235910Y-64116441D01*
X62448110Y-64261431D01*
X62700000Y-64312440D01*
X64300000Y-64312440D01*
X64535317Y-64268162D01*
X64751441Y-64129090D01*
X64896431Y-63916890D01*
X64947440Y-63665000D01*
X64947440Y-62736692D01*
X64991932Y-62844371D01*
X65423357Y-63276551D01*
X65987330Y-63510733D01*
X66283212Y-63510991D01*
X66282735Y-64057991D01*
X66452974Y-64470000D01*
X60144234Y-64470000D01*
X60208733Y-64314670D01*
X60209011Y-63996079D01*
X60245995Y-64118864D01*
X60783223Y-64311965D01*
X61353454Y-64284778D01*
X61754005Y-64118864D01*
X61828139Y-63872745D01*
X61000000Y-63044605D01*
X60985858Y-63058748D01*
X60806252Y-62879142D01*
X60820395Y-62865000D01*
X59992255Y-62036861D01*
X59746136Y-62110995D01*
X59553035Y-62648223D01*
X59556421Y-62719248D01*
X59544643Y-62707449D01*
X58980670Y-62473267D01*
X58461104Y-62472814D01*
X58192145Y-62203855D01*
X57888809Y-62001173D01*
X57531000Y-61930000D01*
X48307941Y-61930000D01*
X48207441Y-61779591D01*
X47935946Y-61598184D01*
X48346809Y-61204752D01*
X48581036Y-60689740D01*
X48460378Y-60452000D01*
X47117000Y-60452000D01*
X47117000Y-60472000D01*
X46863000Y-60472000D01*
X46863000Y-60452000D01*
X45519622Y-60452000D01*
X45398964Y-60689740D01*
X45633191Y-61204752D01*
X46044054Y-61598184D01*
X45772559Y-61779591D01*
X45439813Y-62277581D01*
X45322968Y-62865000D01*
X45439813Y-63452419D01*
X45772559Y-63950409D01*
X46048819Y-64135000D01*
X45772559Y-64319591D01*
X45439813Y-64817581D01*
X45322968Y-65405000D01*
X45439813Y-65992419D01*
X45772559Y-66490409D01*
X46048819Y-66675000D01*
X45772559Y-66859591D01*
X45439813Y-67357581D01*
X45322968Y-67945000D01*
X45439813Y-68532419D01*
X45772559Y-69030409D01*
X46048819Y-69215000D01*
X45772559Y-69399591D01*
X45439813Y-69897581D01*
X45322968Y-70485000D01*
X45439813Y-71072419D01*
X45772559Y-71570409D01*
X46048819Y-71755000D01*
X45772559Y-71939591D01*
X45439813Y-72437581D01*
X45322968Y-73025000D01*
X45439813Y-73612419D01*
X45772559Y-74110409D01*
X46048819Y-74295000D01*
X45772559Y-74479591D01*
X45439813Y-74977581D01*
X45322968Y-75565000D01*
X45439813Y-76152419D01*
X45772559Y-76650409D01*
X46048819Y-76835000D01*
X45772559Y-77019591D01*
X45439813Y-77517581D01*
X45322968Y-78105000D01*
X45439813Y-78692419D01*
X45772559Y-79190409D01*
X46048819Y-79375000D01*
X45772559Y-79559591D01*
X45439813Y-80057581D01*
X45322968Y-80645000D01*
X45439813Y-81232419D01*
X45772559Y-81730409D01*
X46044054Y-81911816D01*
X45633191Y-82305248D01*
X45398964Y-82820260D01*
X45519622Y-83058000D01*
X46863000Y-83058000D01*
X46863000Y-83038000D01*
X47117000Y-83038000D01*
X47117000Y-83058000D01*
X48460378Y-83058000D01*
X48581036Y-82820260D01*
X48346809Y-82305248D01*
X47935946Y-81911816D01*
X48207441Y-81730409D01*
X48540187Y-81232419D01*
X48657032Y-80645000D01*
X48540187Y-80057581D01*
X48207441Y-79559591D01*
X47931181Y-79375000D01*
X48207441Y-79190409D01*
X48540187Y-78692419D01*
X48657032Y-78105000D01*
X48540187Y-77517581D01*
X48207441Y-77019591D01*
X47931181Y-76835000D01*
X48207441Y-76650409D01*
X48540187Y-76152419D01*
X48657032Y-75565000D01*
X48540187Y-74977581D01*
X48207441Y-74479591D01*
X47931181Y-74295000D01*
X48207441Y-74110409D01*
X48540187Y-73612419D01*
X48657032Y-73025000D01*
X48540187Y-72437581D01*
X48207441Y-71939591D01*
X47931181Y-71755000D01*
X48207441Y-71570409D01*
X48540187Y-71072419D01*
X48657032Y-70485000D01*
X48540187Y-69897581D01*
X48207441Y-69399591D01*
X47931181Y-69215000D01*
X48207441Y-69030409D01*
X48540187Y-68532419D01*
X48657032Y-67945000D01*
X48540187Y-67357581D01*
X48207441Y-66859591D01*
X47931181Y-66675000D01*
X48207441Y-66490409D01*
X48307941Y-66340000D01*
X58727766Y-66340000D01*
X58663267Y-66495330D01*
X58662735Y-67105991D01*
X58885449Y-67645000D01*
X58166000Y-67645000D01*
X57808191Y-67716173D01*
X57504855Y-67918855D01*
X49122855Y-76300855D01*
X48920173Y-76604191D01*
X48849000Y-76962000D01*
X48849000Y-83686710D01*
X47618710Y-84917000D01*
X46615290Y-84917000D01*
X46248043Y-84549753D01*
X46623380Y-84695777D01*
X46863000Y-84560135D01*
X46863000Y-83312000D01*
X47117000Y-83312000D01*
X47117000Y-84560135D01*
X47356620Y-84695777D01*
X47914474Y-84478745D01*
X48346809Y-84064752D01*
X48581036Y-83549740D01*
X48460378Y-83312000D01*
X47117000Y-83312000D01*
X46863000Y-83312000D01*
X45519622Y-83312000D01*
X45398964Y-83549740D01*
X45524871Y-83826581D01*
X45131000Y-83432710D01*
X45131000Y-46361290D01*
X45472290Y-46020000D01*
X45672059Y-46020000D01*
X45772559Y-46170409D01*
G36*
X83055000Y-64612440D02*
X83741857Y-64612440D01*
X83805000Y-64625000D01*
X85095870Y-64625000D01*
X85059449Y-64661357D01*
X84825267Y-65225330D01*
X84824735Y-65835991D01*
X85057932Y-66400371D01*
X85489357Y-66832551D01*
X86053330Y-67066733D01*
X86572896Y-67067186D01*
X86714855Y-67209145D01*
X87018191Y-67411827D01*
X87376000Y-67483000D01*
X92283000Y-67483000D01*
X92283000Y-67829008D01*
X92093559Y-67950910D01*
X91948569Y-68163110D01*
X91897560Y-68415000D01*
X91897560Y-70015000D01*
X91941838Y-70250317D01*
X92080910Y-70466441D01*
X92293110Y-70611431D01*
X92545000Y-70662440D01*
X94145000Y-70662440D01*
X94380317Y-70618162D01*
X94596441Y-70479090D01*
X94741431Y-70266890D01*
X94750370Y-70222745D01*
X95016861Y-70222745D01*
X95090995Y-70468864D01*
X95628223Y-70661965D01*
X96198454Y-70634778D01*
X96599005Y-70468864D01*
X96664290Y-70252122D01*
X99617581Y-70252122D01*
X99646336Y-70782440D01*
X99793958Y-71138831D01*
X100029725Y-71200669D01*
X100785395Y-70445000D01*
X101144605Y-70445000D01*
X101900275Y-71200669D01*
X102136042Y-71138831D01*
X102312419Y-70637878D01*
X102283664Y-70107560D01*
X102136042Y-69751169D01*
X101900275Y-69689331D01*
X101144605Y-70445000D01*
X100785395Y-70445000D01*
X100029725Y-69689331D01*
X99793958Y-69751169D01*
X99617581Y-70252122D01*
X96664290Y-70252122D01*
X96673139Y-70222745D01*
X95845000Y-69394605D01*
X95016861Y-70222745D01*
X94750370Y-70222745D01*
X94789646Y-70028799D01*
X94837255Y-70043139D01*
X95665395Y-69215000D01*
X96024605Y-69215000D01*
X96852745Y-70043139D01*
X97098864Y-69969005D01*
X97291965Y-69431777D01*
X97264778Y-68861546D01*
X97098864Y-68460995D01*
X96852745Y-68386861D01*
X96024605Y-69215000D01*
X95665395Y-69215000D01*
X94837255Y-68386861D01*
X94789833Y-68401145D01*
X94753351Y-68207255D01*
X95016861Y-68207255D01*
X95845000Y-69035395D01*
X96673139Y-68207255D01*
X96599005Y-67961136D01*
X96061777Y-67768035D01*
X95491546Y-67795222D01*
X95090995Y-67961136D01*
X95016861Y-68207255D01*
X94753351Y-68207255D01*
X94748162Y-68179683D01*
X94609090Y-67963559D01*
X94396890Y-67818569D01*
X94153000Y-67769180D01*
X94153000Y-67483000D01*
X99180710Y-67483000D01*
X99630011Y-67932301D01*
X99629769Y-68209383D01*
X99832582Y-68700229D01*
X100207796Y-69076098D01*
X100477987Y-69188291D01*
X100271169Y-69273958D01*
X100209331Y-69509725D01*
X100965000Y-70265395D01*
X101720669Y-69509725D01*
X101658831Y-69273958D01*
X101435158Y-69195207D01*
X101720229Y-69077418D01*
X102096098Y-68702204D01*
X102299768Y-68211713D01*
X102300231Y-67680617D01*
X102097418Y-67189771D01*
X101722204Y-66813902D01*
X101498472Y-66721000D01*
X103498710Y-66721000D01*
X107923855Y-71146145D01*
X108227191Y-71348827D01*
X108286556Y-71360636D01*
X108585000Y-71420001D01*
X108585005Y-71420000D01*
X109172059Y-71420000D01*
X109272559Y-71570409D01*
X109548819Y-71755000D01*
X109272559Y-71939591D01*
X109172059Y-72090000D01*
X92208290Y-72090000D01*
X91498565Y-71380275D01*
X100209331Y-71380275D01*
X100271169Y-71616042D01*
X100772122Y-71792419D01*
X101302440Y-71763664D01*
X101658831Y-71616042D01*
X101720669Y-71380275D01*
X100965000Y-70624605D01*
X100209331Y-71380275D01*
X91498565Y-71380275D01*
X88799145Y-68680855D01*
X88495809Y-68478173D01*
X88138000Y-68407000D01*
X83699290Y-68407000D01*
X83040000Y-67747710D01*
X83040000Y-65390000D01*
X83027440Y-65326857D01*
X83027440Y-64640000D01*
X83020957Y-64605546D01*
X83055000Y-64612440D01*
X83055000Y-64612440D01*
G37*
X83055000Y-64612440D02*
X83741857Y-64612440D01*
X83805000Y-64625000D01*
X85095870Y-64625000D01*
X85059449Y-64661357D01*
X84825267Y-65225330D01*
X84824735Y-65835991D01*
X85057932Y-66400371D01*
X85489357Y-66832551D01*
X86053330Y-67066733D01*
X86572896Y-67067186D01*
X86714855Y-67209145D01*
X87018191Y-67411827D01*
X87376000Y-67483000D01*
X92283000Y-67483000D01*
X92283000Y-67829008D01*
X92093559Y-67950910D01*
X91948569Y-68163110D01*
X91897560Y-68415000D01*
X91897560Y-70015000D01*
X91941838Y-70250317D01*
X92080910Y-70466441D01*
X92293110Y-70611431D01*
X92545000Y-70662440D01*
X94145000Y-70662440D01*
X94380317Y-70618162D01*
X94596441Y-70479090D01*
X94741431Y-70266890D01*
X94750370Y-70222745D01*
X95016861Y-70222745D01*
X95090995Y-70468864D01*
X95628223Y-70661965D01*
X96198454Y-70634778D01*
X96599005Y-70468864D01*
X96664290Y-70252122D01*
X99617581Y-70252122D01*
X99646336Y-70782440D01*
X99793958Y-71138831D01*
X100029725Y-71200669D01*
X100785395Y-70445000D01*
X101144605Y-70445000D01*
X101900275Y-71200669D01*
X102136042Y-71138831D01*
X102312419Y-70637878D01*
X102283664Y-70107560D01*
X102136042Y-69751169D01*
X101900275Y-69689331D01*
X101144605Y-70445000D01*
X100785395Y-70445000D01*
X100029725Y-69689331D01*
X99793958Y-69751169D01*
X99617581Y-70252122D01*
X96664290Y-70252122D01*
X96673139Y-70222745D01*
X95845000Y-69394605D01*
X95016861Y-70222745D01*
X94750370Y-70222745D01*
X94789646Y-70028799D01*
X94837255Y-70043139D01*
X95665395Y-69215000D01*
X96024605Y-69215000D01*
X96852745Y-70043139D01*
X97098864Y-69969005D01*
X97291965Y-69431777D01*
X97264778Y-68861546D01*
X97098864Y-68460995D01*
X96852745Y-68386861D01*
X96024605Y-69215000D01*
X95665395Y-69215000D01*
X94837255Y-68386861D01*
X94789833Y-68401145D01*
X94753351Y-68207255D01*
X95016861Y-68207255D01*
X95845000Y-69035395D01*
X96673139Y-68207255D01*
X96599005Y-67961136D01*
X96061777Y-67768035D01*
X95491546Y-67795222D01*
X95090995Y-67961136D01*
X95016861Y-68207255D01*
X94753351Y-68207255D01*
X94748162Y-68179683D01*
X94609090Y-67963559D01*
X94396890Y-67818569D01*
X94153000Y-67769180D01*
X94153000Y-67483000D01*
X99180710Y-67483000D01*
X99630011Y-67932301D01*
X99629769Y-68209383D01*
X99832582Y-68700229D01*
X100207796Y-69076098D01*
X100477987Y-69188291D01*
X100271169Y-69273958D01*
X100209331Y-69509725D01*
X100965000Y-70265395D01*
X101720669Y-69509725D01*
X101658831Y-69273958D01*
X101435158Y-69195207D01*
X101720229Y-69077418D01*
X102096098Y-68702204D01*
X102299768Y-68211713D01*
X102300231Y-67680617D01*
X102097418Y-67189771D01*
X101722204Y-66813902D01*
X101498472Y-66721000D01*
X103498710Y-66721000D01*
X107923855Y-71146145D01*
X108227191Y-71348827D01*
X108286556Y-71360636D01*
X108585000Y-71420001D01*
X108585005Y-71420000D01*
X109172059Y-71420000D01*
X109272559Y-71570409D01*
X109548819Y-71755000D01*
X109272559Y-71939591D01*
X109172059Y-72090000D01*
X92208290Y-72090000D01*
X91498565Y-71380275D01*
X100209331Y-71380275D01*
X100271169Y-71616042D01*
X100772122Y-71792419D01*
X101302440Y-71763664D01*
X101658831Y-71616042D01*
X101720669Y-71380275D01*
X100965000Y-70624605D01*
X100209331Y-71380275D01*
X91498565Y-71380275D01*
X88799145Y-68680855D01*
X88495809Y-68478173D01*
X88138000Y-68407000D01*
X83699290Y-68407000D01*
X83040000Y-67747710D01*
X83040000Y-65390000D01*
X83027440Y-65326857D01*
X83027440Y-64640000D01*
X83020957Y-64605546D01*
X83055000Y-64612440D01*
G36*
X91775000Y-57270710D02*
X89528710Y-59517000D01*
X87122000Y-59517000D01*
X86930962Y-59555000D01*
X85202440Y-59555000D01*
X85202440Y-59415000D01*
X85182550Y-59309295D01*
X85190000Y-59291310D01*
X85190000Y-59175750D01*
X85093599Y-59079349D01*
X85058626Y-59025000D01*
X86436000Y-59025000D01*
X86793809Y-58953827D01*
X86816397Y-58938734D01*
X87425991Y-58939265D01*
X87990371Y-58706068D01*
X88422551Y-58274643D01*
X88656733Y-57710670D01*
X88657265Y-57100009D01*
X88539502Y-56815000D01*
X89188445Y-56815000D01*
X89553357Y-57180551D01*
X90117330Y-57414733D01*
X90727991Y-57415265D01*
X91292371Y-57182068D01*
X91724551Y-56750643D01*
X91775000Y-56629148D01*
X91775000Y-57270710D01*
X91775000Y-57270710D01*
G37*
X91775000Y-57270710D02*
X89528710Y-59517000D01*
X87122000Y-59517000D01*
X86930962Y-59555000D01*
X85202440Y-59555000D01*
X85202440Y-59415000D01*
X85182550Y-59309295D01*
X85190000Y-59291310D01*
X85190000Y-59175750D01*
X85093599Y-59079349D01*
X85058626Y-59025000D01*
X86436000Y-59025000D01*
X86793809Y-58953827D01*
X86816397Y-58938734D01*
X87425991Y-58939265D01*
X87990371Y-58706068D01*
X88422551Y-58274643D01*
X88656733Y-57710670D01*
X88657265Y-57100009D01*
X88539502Y-56815000D01*
X89188445Y-56815000D01*
X89553357Y-57180551D01*
X90117330Y-57414733D01*
X90727991Y-57415265D01*
X91292371Y-57182068D01*
X91724551Y-56750643D01*
X91775000Y-56629148D01*
X91775000Y-57270710D01*
G36*
X109272559Y-53790409D02*
X109548819Y-53975000D01*
X109272559Y-54159591D01*
X109172059Y-54310000D01*
X108839000Y-54310000D01*
X108481191Y-54381173D01*
X108177855Y-54583855D01*
X106102210Y-56659500D01*
X103154108Y-56659500D01*
X103130277Y-56635669D01*
X103366042Y-56573831D01*
X103542419Y-56072878D01*
X103513664Y-55542560D01*
X103366042Y-55186169D01*
X103130275Y-55124331D01*
X102374605Y-55880000D01*
X102388748Y-55894142D01*
X102209142Y-56073748D01*
X102195000Y-56059605D01*
X102180858Y-56073748D01*
X102001252Y-55894142D01*
X102015395Y-55880000D01*
X101259725Y-55124331D01*
X101023958Y-55186169D01*
X100945207Y-55409842D01*
X100827418Y-55124771D01*
X100647686Y-54944725D01*
X101439331Y-54944725D01*
X102195000Y-55700395D01*
X102950669Y-54944725D01*
X102888831Y-54708958D01*
X102387878Y-54532581D01*
X101857560Y-54561336D01*
X101501169Y-54708958D01*
X101439331Y-54944725D01*
X100647686Y-54944725D01*
X100452204Y-54748902D01*
X99961713Y-54545232D01*
X99430617Y-54544769D01*
X98939771Y-54747582D01*
X98563902Y-55122796D01*
X98360232Y-55613287D01*
X98359769Y-56144383D01*
X98562582Y-56635229D01*
X98586811Y-56659500D01*
X95790979Y-56659500D01*
X95999759Y-56156702D01*
X96000240Y-55605715D01*
X95789831Y-55096485D01*
X95400564Y-54706539D01*
X94891702Y-54495241D01*
X94401477Y-54494813D01*
X95256290Y-53640000D01*
X109172059Y-53640000D01*
X109272559Y-53790409D01*
X109272559Y-53790409D01*
G37*
X109272559Y-53790409D02*
X109548819Y-53975000D01*
X109272559Y-54159591D01*
X109172059Y-54310000D01*
X108839000Y-54310000D01*
X108481191Y-54381173D01*
X108177855Y-54583855D01*
X106102210Y-56659500D01*
X103154108Y-56659500D01*
X103130277Y-56635669D01*
X103366042Y-56573831D01*
X103542419Y-56072878D01*
X103513664Y-55542560D01*
X103366042Y-55186169D01*
X103130275Y-55124331D01*
X102374605Y-55880000D01*
X102388748Y-55894142D01*
X102209142Y-56073748D01*
X102195000Y-56059605D01*
X102180858Y-56073748D01*
X102001252Y-55894142D01*
X102015395Y-55880000D01*
X101259725Y-55124331D01*
X101023958Y-55186169D01*
X100945207Y-55409842D01*
X100827418Y-55124771D01*
X100647686Y-54944725D01*
X101439331Y-54944725D01*
X102195000Y-55700395D01*
X102950669Y-54944725D01*
X102888831Y-54708958D01*
X102387878Y-54532581D01*
X101857560Y-54561336D01*
X101501169Y-54708958D01*
X101439331Y-54944725D01*
X100647686Y-54944725D01*
X100452204Y-54748902D01*
X99961713Y-54545232D01*
X99430617Y-54544769D01*
X98939771Y-54747582D01*
X98563902Y-55122796D01*
X98360232Y-55613287D01*
X98359769Y-56144383D01*
X98562582Y-56635229D01*
X98586811Y-56659500D01*
X95790979Y-56659500D01*
X95999759Y-56156702D01*
X96000240Y-55605715D01*
X95789831Y-55096485D01*
X95400564Y-54706539D01*
X94891702Y-54495241D01*
X94401477Y-54494813D01*
X95256290Y-53640000D01*
X109172059Y-53640000D01*
X109272559Y-53790409D01*
G36*
X109272559Y-43630409D02*
X109548819Y-43815000D01*
X109272559Y-43999591D01*
X109145244Y-44190132D01*
X108989191Y-44221173D01*
X108685855Y-44423855D01*
X106038710Y-47071000D01*
X81026000Y-47071000D01*
X80668191Y-47142173D01*
X80364855Y-47344855D01*
X78243855Y-49465855D01*
X78240000Y-49471624D01*
X78240000Y-48050290D01*
X79889290Y-46401000D01*
X82143962Y-46401000D01*
X82162838Y-46501317D01*
X82301910Y-46717441D01*
X82514110Y-46862431D01*
X82766000Y-46913440D01*
X84366000Y-46913440D01*
X84601317Y-46869162D01*
X84817441Y-46730090D01*
X84962431Y-46517890D01*
X84971370Y-46473745D01*
X85237861Y-46473745D01*
X85311995Y-46719864D01*
X85849223Y-46912965D01*
X86419454Y-46885778D01*
X86820005Y-46719864D01*
X86894139Y-46473745D01*
X86066000Y-45645605D01*
X85237861Y-46473745D01*
X84971370Y-46473745D01*
X85010646Y-46279799D01*
X85058255Y-46294139D01*
X85886395Y-45466000D01*
X86245605Y-45466000D01*
X87073745Y-46294139D01*
X87319864Y-46220005D01*
X87512965Y-45682777D01*
X87485778Y-45112546D01*
X87319864Y-44711995D01*
X87073745Y-44637861D01*
X86245605Y-45466000D01*
X85886395Y-45466000D01*
X85058255Y-44637861D01*
X85010833Y-44652145D01*
X84974351Y-44458255D01*
X85237861Y-44458255D01*
X86066000Y-45286395D01*
X86894139Y-44458255D01*
X86820005Y-44212136D01*
X86282777Y-44019035D01*
X85712546Y-44046222D01*
X85311995Y-44212136D01*
X85237861Y-44458255D01*
X84974351Y-44458255D01*
X84969162Y-44430683D01*
X84830090Y-44214559D01*
X84617890Y-44069569D01*
X84366000Y-44018560D01*
X82766000Y-44018560D01*
X82530683Y-44062838D01*
X82314559Y-44201910D01*
X82169569Y-44414110D01*
X82145898Y-44531000D01*
X79727290Y-44531000D01*
X80778290Y-43480000D01*
X109172059Y-43480000D01*
X109272559Y-43630409D01*
X109272559Y-43630409D01*
G37*
X109272559Y-43630409D02*
X109548819Y-43815000D01*
X109272559Y-43999591D01*
X109145244Y-44190132D01*
X108989191Y-44221173D01*
X108685855Y-44423855D01*
X106038710Y-47071000D01*
X81026000Y-47071000D01*
X80668191Y-47142173D01*
X80364855Y-47344855D01*
X78243855Y-49465855D01*
X78240000Y-49471624D01*
X78240000Y-48050290D01*
X79889290Y-46401000D01*
X82143962Y-46401000D01*
X82162838Y-46501317D01*
X82301910Y-46717441D01*
X82514110Y-46862431D01*
X82766000Y-46913440D01*
X84366000Y-46913440D01*
X84601317Y-46869162D01*
X84817441Y-46730090D01*
X84962431Y-46517890D01*
X84971370Y-46473745D01*
X85237861Y-46473745D01*
X85311995Y-46719864D01*
X85849223Y-46912965D01*
X86419454Y-46885778D01*
X86820005Y-46719864D01*
X86894139Y-46473745D01*
X86066000Y-45645605D01*
X85237861Y-46473745D01*
X84971370Y-46473745D01*
X85010646Y-46279799D01*
X85058255Y-46294139D01*
X85886395Y-45466000D01*
X86245605Y-45466000D01*
X87073745Y-46294139D01*
X87319864Y-46220005D01*
X87512965Y-45682777D01*
X87485778Y-45112546D01*
X87319864Y-44711995D01*
X87073745Y-44637861D01*
X86245605Y-45466000D01*
X85886395Y-45466000D01*
X85058255Y-44637861D01*
X85010833Y-44652145D01*
X84974351Y-44458255D01*
X85237861Y-44458255D01*
X86066000Y-45286395D01*
X86894139Y-44458255D01*
X86820005Y-44212136D01*
X86282777Y-44019035D01*
X85712546Y-44046222D01*
X85311995Y-44212136D01*
X85237861Y-44458255D01*
X84974351Y-44458255D01*
X84969162Y-44430683D01*
X84830090Y-44214559D01*
X84617890Y-44069569D01*
X84366000Y-44018560D01*
X82766000Y-44018560D01*
X82530683Y-44062838D01*
X82314559Y-44201910D01*
X82169569Y-44414110D01*
X82145898Y-44531000D01*
X79727290Y-44531000D01*
X80778290Y-43480000D01*
X109172059Y-43480000D01*
X109272559Y-43630409D01*
G36*
X109272559Y-38550409D02*
X109548819Y-38735000D01*
X109272559Y-38919591D01*
X109172059Y-39070000D01*
X109093000Y-39070000D01*
X108735191Y-39141173D01*
X108431855Y-39343855D01*
X107308710Y-40467000D01*
X83731251Y-40467000D01*
X83773669Y-40305275D01*
X83018000Y-39549605D01*
X82262331Y-40305275D01*
X82304749Y-40467000D01*
X81308709Y-40467000D01*
X81649098Y-40127204D01*
X81761291Y-39857013D01*
X81846958Y-40063831D01*
X82082725Y-40125669D01*
X82838395Y-39370000D01*
X83197605Y-39370000D01*
X83953275Y-40125669D01*
X84189042Y-40063831D01*
X84365419Y-39562878D01*
X84336664Y-39032560D01*
X84189042Y-38676169D01*
X83953275Y-38614331D01*
X83197605Y-39370000D01*
X82838395Y-39370000D01*
X82824252Y-39355858D01*
X83003858Y-39176252D01*
X83018000Y-39190395D01*
X83773669Y-38434725D01*
X83764561Y-38400000D01*
X109172059Y-38400000D01*
X109272559Y-38550409D01*
X109272559Y-38550409D01*
G37*
X109272559Y-38550409D02*
X109548819Y-38735000D01*
X109272559Y-38919591D01*
X109172059Y-39070000D01*
X109093000Y-39070000D01*
X108735191Y-39141173D01*
X108431855Y-39343855D01*
X107308710Y-40467000D01*
X83731251Y-40467000D01*
X83773669Y-40305275D01*
X83018000Y-39549605D01*
X82262331Y-40305275D01*
X82304749Y-40467000D01*
X81308709Y-40467000D01*
X81649098Y-40127204D01*
X81761291Y-39857013D01*
X81846958Y-40063831D01*
X82082725Y-40125669D01*
X82838395Y-39370000D01*
X83197605Y-39370000D01*
X83953275Y-40125669D01*
X84189042Y-40063831D01*
X84365419Y-39562878D01*
X84336664Y-39032560D01*
X84189042Y-38676169D01*
X83953275Y-38614331D01*
X83197605Y-39370000D01*
X82838395Y-39370000D01*
X82824252Y-39355858D01*
X83003858Y-39176252D01*
X83018000Y-39190395D01*
X83773669Y-38434725D01*
X83764561Y-38400000D01*
X109172059Y-38400000D01*
X109272559Y-38550409D01*
M02*
