G04 #@! TF.FileFunction,Copper,L2,Bot,Signal*
%FSLAX46Y46*%
G04 Gerber Fmt 4.6, Leading zero omitted, Abs format (unit mm)*
G04 Created by KiCad (PCBNEW 4.0.7) date Wed Apr 18 20:52:35 2018*
%MOMM*%
%LPD*%
G01*
G04 APERTURE LIST*
%ADD10C,0.100000*%
%ADD11R,1.800000X1.800000*%
%ADD12C,1.800000*%
%ADD13C,1.500000*%
%ADD14R,3.000000X3.000000*%
%ADD15C,3.000000*%
%ADD16R,1.700000X1.700000*%
%ADD17O,1.700000X1.700000*%
%ADD18R,1.905000X1.905000*%
%ADD19C,1.905000*%
%ADD20C,1.400000*%
%ADD21O,1.400000X1.400000*%
%ADD22R,1.600000X1.600000*%
%ADD23C,1.600000*%
%ADD24O,2.400000X1.600000*%
%ADD25C,0.600000*%
%ADD26C,0.254000*%
G04 APERTURE END LIST*
D10*
D11*
X52705000Y-27305000D03*
D12*
X55245000Y-27305000D03*
D11*
X59055000Y-27305000D03*
D12*
X61595000Y-27305000D03*
D11*
X65405000Y-27305000D03*
D12*
X67945000Y-27305000D03*
D13*
X47752000Y-93218000D03*
D14*
X66040000Y-81915000D03*
D15*
X61840000Y-81915000D03*
X66040000Y-76415000D03*
X61840000Y-76415000D03*
D16*
X89154000Y-90170000D03*
D17*
X89154000Y-92710000D03*
X86614000Y-90170000D03*
X86614000Y-92710000D03*
X84074000Y-90170000D03*
X84074000Y-92710000D03*
X81534000Y-90170000D03*
X81534000Y-92710000D03*
X78994000Y-90170000D03*
X78994000Y-92710000D03*
D18*
X93726000Y-84582000D03*
D19*
X96266000Y-84582000D03*
D18*
X100076000Y-84582000D03*
D19*
X102616000Y-84582000D03*
D20*
X77978000Y-73406000D03*
D21*
X85598000Y-73406000D03*
D20*
X55245000Y-32385000D03*
D21*
X55245000Y-40005000D03*
D20*
X61595000Y-32385000D03*
D21*
X61595000Y-40005000D03*
D20*
X67945000Y-32385000D03*
D21*
X67945000Y-40005000D03*
D13*
X94615000Y-55880000D03*
X94615000Y-60780000D03*
D20*
X99695000Y-60960000D03*
X102195000Y-60960000D03*
X99695000Y-55880000D03*
X102195000Y-55880000D03*
X55880000Y-83185000D03*
X55880000Y-85685000D03*
D22*
X55880000Y-92075000D03*
D23*
X53380000Y-92075000D03*
D20*
X71755000Y-83185000D03*
X71755000Y-85685000D03*
D22*
X71755000Y-92075000D03*
D23*
X74255000Y-92075000D03*
D22*
X63500000Y-62865000D03*
D23*
X61000000Y-62865000D03*
D20*
X81280000Y-83058000D03*
X78780000Y-83058000D03*
D22*
X81280000Y-77470000D03*
D23*
X78780000Y-77470000D03*
D20*
X100965000Y-67945000D03*
X100965000Y-70445000D03*
D22*
X93345000Y-69215000D03*
D23*
X95845000Y-69215000D03*
D20*
X80518000Y-39370000D03*
X83018000Y-39370000D03*
D22*
X83566000Y-45466000D03*
D23*
X86066000Y-45466000D03*
D24*
X110490000Y-73025000D03*
X110490000Y-75565000D03*
X110490000Y-78105000D03*
X110490000Y-80645000D03*
X110490000Y-83185000D03*
X110490000Y-70485000D03*
X110490000Y-67945000D03*
X110490000Y-65405000D03*
X110490000Y-62865000D03*
X110490000Y-60325000D03*
X110490000Y-34925000D03*
X110490000Y-37465000D03*
X110490000Y-40005000D03*
X110490000Y-42545000D03*
X110490000Y-45085000D03*
X110490000Y-57785000D03*
X110490000Y-55245000D03*
X110490000Y-52705000D03*
X110490000Y-50165000D03*
X110490000Y-47625000D03*
X46990000Y-47625000D03*
X46990000Y-50165000D03*
X46990000Y-52705000D03*
X46990000Y-55245000D03*
X46990000Y-57785000D03*
X46990000Y-45085000D03*
X46990000Y-42545000D03*
X46990000Y-40005000D03*
X46990000Y-37465000D03*
X46990000Y-34925000D03*
X46990000Y-60325000D03*
X46990000Y-62865000D03*
X46990000Y-65405000D03*
X46990000Y-67945000D03*
X46990000Y-70485000D03*
X46990000Y-83185000D03*
X46990000Y-80645000D03*
X46990000Y-78105000D03*
X46990000Y-75565000D03*
X46990000Y-73025000D03*
D12*
X87122000Y-57404000D03*
X89154000Y-58928000D03*
X75692000Y-73660000D03*
X90424000Y-55880000D03*
X67564000Y-94488000D03*
X76708000Y-42672000D03*
X86360000Y-65532000D03*
X76962000Y-71120000D03*
X66294000Y-61976000D03*
X67818000Y-63754000D03*
X75692000Y-51562000D03*
X72390000Y-52832000D03*
X90678000Y-51816000D03*
X74676000Y-59436000D03*
X103632000Y-77470000D03*
X74422000Y-57404000D03*
X91186000Y-75946000D03*
X58674000Y-64008000D03*
X60198000Y-66802000D03*
X79756000Y-60706000D03*
X76708000Y-59944000D03*
X76708000Y-63246000D03*
X81280000Y-57404000D03*
X88392000Y-51816000D03*
X52070000Y-60325000D03*
D25*
X94615000Y-60780000D02*
X94615000Y-57404000D01*
X94742000Y-57531000D02*
X94742000Y-57404000D01*
X94615000Y-57404000D02*
X94742000Y-57531000D01*
X94742000Y-57404000D02*
X98552000Y-57404000D01*
X98552000Y-57404000D02*
X99695000Y-58547000D01*
X99695000Y-58547000D02*
X99695000Y-60960000D01*
X87122000Y-57404000D02*
X94742000Y-57404000D01*
X99515000Y-60780000D02*
X99695000Y-60960000D01*
X102195000Y-60960000D02*
X102195000Y-62397000D01*
X101854000Y-62738000D02*
X92964000Y-62738000D01*
X102195000Y-62397000D02*
X101854000Y-62738000D01*
X83018000Y-39370000D02*
X84582000Y-39370000D01*
X86066000Y-40854000D02*
X86066000Y-45466000D01*
X84582000Y-39370000D02*
X86066000Y-40854000D01*
X89154000Y-58928000D02*
X92964000Y-62738000D01*
X78780000Y-76748000D02*
X78780000Y-77470000D01*
X75692000Y-73660000D02*
X78780000Y-76748000D01*
X90424000Y-55880000D02*
X94615000Y-55880000D01*
X94615000Y-55880000D02*
X99695000Y-55880000D01*
X46990000Y-78105000D02*
X44450000Y-78105000D01*
X44450000Y-78105000D02*
X44450000Y-77978000D01*
X44450000Y-84836000D02*
X44450000Y-77978000D01*
X44450000Y-77978000D02*
X44450000Y-38862000D01*
X44450000Y-38862000D02*
X45847000Y-37465000D01*
X45847000Y-37465000D02*
X46990000Y-37465000D01*
X60111000Y-91607000D02*
X62992000Y-94488000D01*
X62992000Y-94488000D02*
X67564000Y-94488000D01*
X60111000Y-85685000D02*
X60111000Y-91607000D01*
X45299000Y-85685000D02*
X55880000Y-85685000D01*
X44450000Y-84836000D02*
X45299000Y-85685000D01*
X55880000Y-85685000D02*
X55880000Y-92075000D01*
X55880000Y-85685000D02*
X60111000Y-85685000D01*
X61840000Y-83956000D02*
X61840000Y-81915000D01*
X60111000Y-85685000D02*
X61840000Y-83956000D01*
X55245000Y-40005000D02*
X52705000Y-40005000D01*
X52705000Y-40005000D02*
X50165000Y-37465000D01*
X50165000Y-37465000D02*
X46990000Y-37465000D01*
X76708000Y-42672000D02*
X82296000Y-42672000D01*
X82296000Y-42672000D02*
X83566000Y-43942000D01*
X83566000Y-43942000D02*
X83566000Y-45466000D01*
X105410000Y-89408000D02*
X105410000Y-81534000D01*
X104394000Y-90424000D02*
X105410000Y-89408000D01*
X106299000Y-80645000D02*
X110490000Y-80645000D01*
X105410000Y-81534000D02*
X106299000Y-80645000D01*
X91440000Y-90424000D02*
X104394000Y-90424000D01*
X83820000Y-68072000D02*
X83820000Y-71120000D01*
X86360000Y-65532000D02*
X83820000Y-68072000D01*
X86614000Y-92710000D02*
X86614000Y-95250000D01*
X81280000Y-83058000D02*
X81280000Y-83312000D01*
X81280000Y-83312000D02*
X85344000Y-87376000D01*
X85344000Y-87376000D02*
X89916000Y-87376000D01*
X89916000Y-87376000D02*
X91440000Y-88900000D01*
X91440000Y-88900000D02*
X91440000Y-90424000D01*
X91440000Y-90424000D02*
X91440000Y-93218000D01*
X91440000Y-93218000D02*
X89408000Y-95250000D01*
X89408000Y-95250000D02*
X86614000Y-95250000D01*
X86614000Y-95250000D02*
X72644000Y-95250000D01*
X71755000Y-92075000D02*
X71755000Y-94361000D01*
X71755000Y-94361000D02*
X72644000Y-95250000D01*
X81280000Y-77470000D02*
X81534000Y-77470000D01*
X81534000Y-77470000D02*
X85598000Y-73406000D01*
X76962000Y-71120000D02*
X83820000Y-71120000D01*
X83820000Y-71120000D02*
X85598000Y-72898000D01*
X85598000Y-72898000D02*
X85598000Y-73406000D01*
X82804000Y-45466000D02*
X83566000Y-45466000D01*
X46990000Y-80645000D02*
X50419000Y-80645000D01*
X62523000Y-72898000D02*
X66040000Y-76415000D01*
X58166000Y-72898000D02*
X62523000Y-72898000D01*
X50419000Y-80645000D02*
X58166000Y-72898000D01*
X81280000Y-83058000D02*
X81280000Y-77470000D01*
X71755000Y-85685000D02*
X71755000Y-92075000D01*
X66040000Y-76415000D02*
X67779000Y-76415000D01*
X69342000Y-83272000D02*
X71755000Y-85685000D01*
X69342000Y-77978000D02*
X69342000Y-83272000D01*
X67779000Y-76415000D02*
X69342000Y-77978000D01*
X55245000Y-32385000D02*
X55245000Y-27305000D01*
X61595000Y-32385000D02*
X61595000Y-27305000D01*
X67945000Y-32385000D02*
X67945000Y-27305000D01*
X80518000Y-94234000D02*
X81534000Y-93218000D01*
X81534000Y-93218000D02*
X81534000Y-92710000D01*
X77978000Y-94234000D02*
X80518000Y-94234000D01*
X66294000Y-61976000D02*
X66294000Y-70104000D01*
X76200000Y-92456000D02*
X77978000Y-94234000D01*
X75184000Y-88392000D02*
X75184000Y-78994000D01*
X75184000Y-78994000D02*
X66294000Y-70104000D01*
X75184000Y-88392000D02*
X76200000Y-89408000D01*
X76200000Y-92456000D02*
X76200000Y-89408000D01*
X78740000Y-92710000D02*
X77343000Y-91313000D01*
X78994000Y-92710000D02*
X78740000Y-92710000D01*
X77343000Y-91313000D02*
X77343000Y-89027000D01*
X76454000Y-88138000D02*
X77343000Y-89027000D01*
X67818000Y-69850000D02*
X76454000Y-78486000D01*
X76454000Y-78486000D02*
X76454000Y-88138000D01*
X67818000Y-63754000D02*
X67818000Y-69850000D01*
X84455000Y-58547000D02*
X84455000Y-53213000D01*
X82804000Y-51562000D02*
X75692000Y-51562000D01*
X84455000Y-53213000D02*
X82804000Y-51562000D01*
X88138000Y-77724000D02*
X88138000Y-62230000D01*
X88138000Y-62230000D02*
X84455000Y-58547000D01*
X100076000Y-84582000D02*
X100076000Y-85598000D01*
X100076000Y-85598000D02*
X98806000Y-86868000D01*
X93726000Y-84582000D02*
X93726000Y-86106000D01*
X93726000Y-86106000D02*
X94488000Y-86868000D01*
X94488000Y-86868000D02*
X98806000Y-86868000D01*
X93726000Y-83312000D02*
X93726000Y-84582000D01*
X88138000Y-77724000D02*
X93726000Y-83312000D01*
X74676000Y-50038000D02*
X83312000Y-50038000D01*
X83312000Y-50038000D02*
X85344000Y-52070000D01*
X85344000Y-58166000D02*
X85344000Y-52070000D01*
X89281000Y-77343000D02*
X89281000Y-62103000D01*
X85344000Y-58166000D02*
X89281000Y-62103000D01*
X96266000Y-84582000D02*
X96266000Y-81534000D01*
X93472000Y-81534000D02*
X96266000Y-81534000D01*
X96266000Y-81534000D02*
X101600000Y-81534000D01*
X101600000Y-81534000D02*
X102616000Y-82550000D01*
X102616000Y-82550000D02*
X102616000Y-84582000D01*
X89281000Y-77343000D02*
X93472000Y-81534000D01*
X72390000Y-52832000D02*
X72390000Y-52324000D01*
X72390000Y-52324000D02*
X74676000Y-50038000D01*
X75692000Y-43942000D02*
X69596000Y-43942000D01*
X67945000Y-42291000D02*
X67945000Y-40005000D01*
X69596000Y-43942000D02*
X67945000Y-42291000D01*
X86868000Y-48006000D02*
X79756000Y-48006000D01*
X90678000Y-51816000D02*
X86868000Y-48006000D01*
X79756000Y-48006000D02*
X75692000Y-43942000D01*
X74676000Y-59436000D02*
X74168000Y-59436000D01*
X74168000Y-59436000D02*
X73152000Y-58420000D01*
X59436000Y-58420000D02*
X49530000Y-68326000D01*
X73152000Y-58420000D02*
X59436000Y-58420000D01*
X49530000Y-68326000D02*
X49530000Y-69596000D01*
X49530000Y-69596000D02*
X48641000Y-70485000D01*
X46990000Y-70485000D02*
X48641000Y-70485000D01*
X103632000Y-77470000D02*
X106172000Y-74930000D01*
X106172000Y-67310000D02*
X108077000Y-65405000D01*
X106172000Y-74930000D02*
X106172000Y-67310000D01*
X110490000Y-65405000D02*
X108077000Y-65405000D01*
X48641000Y-67945000D02*
X59182000Y-57404000D01*
X59182000Y-57404000D02*
X74422000Y-57404000D01*
X48641000Y-67945000D02*
X46990000Y-67945000D01*
X91186000Y-75946000D02*
X103124000Y-75946000D01*
X105156000Y-73914000D02*
X105156000Y-66548000D01*
X103124000Y-75946000D02*
X105156000Y-73914000D01*
X105156000Y-66548000D02*
X108839000Y-62865000D01*
X108839000Y-62865000D02*
X110490000Y-62865000D01*
X58674000Y-65278000D02*
X58674000Y-64008000D01*
X60198000Y-66802000D02*
X58674000Y-65278000D01*
X79248000Y-61468000D02*
X79756000Y-60706000D01*
X74168000Y-62230000D02*
X75692000Y-62230000D01*
X75692000Y-62230000D02*
X76454000Y-61468000D01*
X74168000Y-62230000D02*
X72136000Y-60198000D01*
X72136000Y-60198000D02*
X60198000Y-60198000D01*
X60198000Y-60198000D02*
X51816000Y-68580000D01*
X46990000Y-75565000D02*
X48895000Y-75565000D01*
X51816000Y-72644000D02*
X48895000Y-75565000D01*
X51816000Y-68580000D02*
X51816000Y-72644000D01*
X76454000Y-61468000D02*
X79248000Y-61468000D01*
X59690000Y-59436000D02*
X72644000Y-59436000D01*
X72644000Y-59436000D02*
X74422000Y-61214000D01*
X74422000Y-61214000D02*
X75438000Y-61214000D01*
X75438000Y-61214000D02*
X76708000Y-59944000D01*
X74422000Y-61214000D02*
X75438000Y-61214000D01*
X75438000Y-61214000D02*
X76708000Y-59944000D01*
X72644000Y-59436000D02*
X74422000Y-61214000D01*
X59690000Y-59436000D02*
X50800000Y-68326000D01*
X50800000Y-68326000D02*
X50800000Y-71628000D01*
X50800000Y-71628000D02*
X49403000Y-73025000D01*
X49403000Y-73025000D02*
X46990000Y-73025000D01*
X79756000Y-63246000D02*
X81534000Y-61468000D01*
X81534000Y-61468000D02*
X81534000Y-59944000D01*
X79756000Y-63246000D02*
X76708000Y-63246000D01*
X64262000Y-55880000D02*
X61087000Y-52705000D01*
X46990000Y-52705000D02*
X61087000Y-52705000D01*
X77470000Y-55880000D02*
X64262000Y-55880000D01*
X81534000Y-59944000D02*
X77470000Y-55880000D01*
X65278000Y-55118000D02*
X60325000Y-50165000D01*
X60325000Y-50165000D02*
X46990000Y-50165000D01*
X78994000Y-55118000D02*
X81280000Y-57404000D01*
X65278000Y-55118000D02*
X78994000Y-55118000D01*
X88392000Y-51816000D02*
X85725000Y-49149000D01*
X85725000Y-49149000D02*
X79629000Y-49149000D01*
X79629000Y-49149000D02*
X75438000Y-44958000D01*
X52578000Y-44958000D02*
X49911000Y-47625000D01*
X75438000Y-44958000D02*
X52578000Y-44958000D01*
X49911000Y-47625000D02*
X46990000Y-47625000D01*
X49530000Y-55245000D02*
X52070000Y-57785000D01*
X52070000Y-60325000D02*
X52070000Y-57785000D01*
X49530000Y-55245000D02*
X46990000Y-55245000D01*
D26*
G36*
X77089000Y-34798000D02*
X77099006Y-34847410D01*
X77127447Y-34889035D01*
X77169841Y-34916315D01*
X77216000Y-34925000D01*
X106934000Y-34925000D01*
X106983410Y-34914994D01*
X107025035Y-34886553D01*
X107052315Y-34844159D01*
X107061000Y-34798000D01*
X107061000Y-34575961D01*
X108698096Y-34575961D01*
X108820085Y-34798000D01*
X110363000Y-34798000D01*
X110363000Y-33490000D01*
X110617000Y-33490000D01*
X110617000Y-34798000D01*
X112159915Y-34798000D01*
X112281904Y-34575961D01*
X112264367Y-34493181D01*
X111994500Y-34000104D01*
X111556483Y-33647834D01*
X111017000Y-33490000D01*
X110617000Y-33490000D01*
X110363000Y-33490000D01*
X109963000Y-33490000D01*
X109423517Y-33647834D01*
X108985500Y-34000104D01*
X108715633Y-34493181D01*
X108698096Y-34575961D01*
X107061000Y-34575961D01*
X107061000Y-32893000D01*
X114835000Y-32893000D01*
X114835000Y-90732609D01*
X114490953Y-92462249D01*
X113552197Y-93867196D01*
X112147249Y-94805953D01*
X110417610Y-95150000D01*
X90830290Y-95150000D01*
X92101145Y-93879145D01*
X92303827Y-93575809D01*
X92375000Y-93218000D01*
X92375000Y-91359000D01*
X104394000Y-91359000D01*
X104751809Y-91287827D01*
X104811984Y-91247619D01*
X108254613Y-91247619D01*
X108594155Y-92069372D01*
X109222321Y-92698636D01*
X110043481Y-93039611D01*
X110932619Y-93040387D01*
X111754372Y-92700845D01*
X112383636Y-92072679D01*
X112724611Y-91251519D01*
X112725387Y-90362381D01*
X112385845Y-89540628D01*
X111757679Y-88911364D01*
X110936519Y-88570389D01*
X110047381Y-88569613D01*
X109225628Y-88909155D01*
X108596364Y-89537321D01*
X108255389Y-90358481D01*
X108254613Y-91247619D01*
X104811984Y-91247619D01*
X105055145Y-91085145D01*
X106071145Y-90069145D01*
X106273827Y-89765809D01*
X106345000Y-89408000D01*
X106345000Y-83534039D01*
X108698096Y-83534039D01*
X108715633Y-83616819D01*
X108985500Y-84109896D01*
X109423517Y-84462166D01*
X109963000Y-84620000D01*
X110363000Y-84620000D01*
X110363000Y-83312000D01*
X110617000Y-83312000D01*
X110617000Y-84620000D01*
X111017000Y-84620000D01*
X111556483Y-84462166D01*
X111994500Y-84109896D01*
X112264367Y-83616819D01*
X112281904Y-83534039D01*
X112159915Y-83312000D01*
X110617000Y-83312000D01*
X110363000Y-83312000D01*
X108820085Y-83312000D01*
X108698096Y-83534039D01*
X106345000Y-83534039D01*
X106345000Y-81921290D01*
X106686290Y-81580000D01*
X108986099Y-81580000D01*
X109039352Y-81659698D01*
X109417707Y-81912507D01*
X108985500Y-82260104D01*
X108715633Y-82753181D01*
X108698096Y-82835961D01*
X108820085Y-83058000D01*
X110363000Y-83058000D01*
X110363000Y-83038000D01*
X110617000Y-83038000D01*
X110617000Y-83058000D01*
X112159915Y-83058000D01*
X112281904Y-82835961D01*
X112264367Y-82753181D01*
X111994500Y-82260104D01*
X111562293Y-81912507D01*
X111940648Y-81659698D01*
X112251717Y-81194151D01*
X112360950Y-80645000D01*
X112251717Y-80095849D01*
X111940648Y-79630302D01*
X111558562Y-79375000D01*
X111940648Y-79119698D01*
X112251717Y-78654151D01*
X112360950Y-78105000D01*
X112251717Y-77555849D01*
X111940648Y-77090302D01*
X111558562Y-76835000D01*
X111940648Y-76579698D01*
X112251717Y-76114151D01*
X112360950Y-75565000D01*
X112251717Y-75015849D01*
X111940648Y-74550302D01*
X111558562Y-74295000D01*
X111940648Y-74039698D01*
X112251717Y-73574151D01*
X112360950Y-73025000D01*
X112251717Y-72475849D01*
X111940648Y-72010302D01*
X111558562Y-71755000D01*
X111940648Y-71499698D01*
X112251717Y-71034151D01*
X112360950Y-70485000D01*
X112251717Y-69935849D01*
X111940648Y-69470302D01*
X111558562Y-69215000D01*
X111940648Y-68959698D01*
X112251717Y-68494151D01*
X112360950Y-67945000D01*
X112251717Y-67395849D01*
X111940648Y-66930302D01*
X111558562Y-66675000D01*
X111940648Y-66419698D01*
X112251717Y-65954151D01*
X112360950Y-65405000D01*
X112251717Y-64855849D01*
X111940648Y-64390302D01*
X111558562Y-64135000D01*
X111940648Y-63879698D01*
X112251717Y-63414151D01*
X112360950Y-62865000D01*
X112251717Y-62315849D01*
X111940648Y-61850302D01*
X111562293Y-61597493D01*
X111994500Y-61249896D01*
X112264367Y-60756819D01*
X112281904Y-60674039D01*
X112159915Y-60452000D01*
X110617000Y-60452000D01*
X110617000Y-60472000D01*
X110363000Y-60472000D01*
X110363000Y-60452000D01*
X108820085Y-60452000D01*
X108698096Y-60674039D01*
X108715633Y-60756819D01*
X108985500Y-61249896D01*
X109417707Y-61597493D01*
X109039352Y-61850302D01*
X108986099Y-61930000D01*
X108839005Y-61930000D01*
X108839000Y-61929999D01*
X108554228Y-61986645D01*
X108481191Y-62001173D01*
X108235647Y-62165240D01*
X108177855Y-62203855D01*
X104494855Y-65886855D01*
X104292173Y-66190191D01*
X104221000Y-66548000D01*
X104221000Y-73526710D01*
X102736710Y-75011000D01*
X92421555Y-75011000D01*
X92056643Y-74645449D01*
X91492670Y-74411267D01*
X90882009Y-74410735D01*
X90317629Y-74643932D01*
X90216000Y-74745383D01*
X90216000Y-71380275D01*
X100209331Y-71380275D01*
X100271169Y-71616042D01*
X100772122Y-71792419D01*
X101302440Y-71763664D01*
X101658831Y-71616042D01*
X101720669Y-71380275D01*
X100965000Y-70624605D01*
X100209331Y-71380275D01*
X90216000Y-71380275D01*
X90216000Y-68415000D01*
X91897560Y-68415000D01*
X91897560Y-70015000D01*
X91941838Y-70250317D01*
X92080910Y-70466441D01*
X92293110Y-70611431D01*
X92545000Y-70662440D01*
X94145000Y-70662440D01*
X94380317Y-70618162D01*
X94596441Y-70479090D01*
X94741431Y-70266890D01*
X94750370Y-70222745D01*
X95016861Y-70222745D01*
X95090995Y-70468864D01*
X95628223Y-70661965D01*
X96198454Y-70634778D01*
X96599005Y-70468864D01*
X96664290Y-70252122D01*
X99617581Y-70252122D01*
X99646336Y-70782440D01*
X99793958Y-71138831D01*
X100029725Y-71200669D01*
X100785395Y-70445000D01*
X101144605Y-70445000D01*
X101900275Y-71200669D01*
X102136042Y-71138831D01*
X102312419Y-70637878D01*
X102283664Y-70107560D01*
X102136042Y-69751169D01*
X101900275Y-69689331D01*
X101144605Y-70445000D01*
X100785395Y-70445000D01*
X100029725Y-69689331D01*
X99793958Y-69751169D01*
X99617581Y-70252122D01*
X96664290Y-70252122D01*
X96673139Y-70222745D01*
X95845000Y-69394605D01*
X95016861Y-70222745D01*
X94750370Y-70222745D01*
X94789646Y-70028799D01*
X94837255Y-70043139D01*
X95665395Y-69215000D01*
X96024605Y-69215000D01*
X96852745Y-70043139D01*
X97098864Y-69969005D01*
X97291965Y-69431777D01*
X97264778Y-68861546D01*
X97098864Y-68460995D01*
X96852745Y-68386861D01*
X96024605Y-69215000D01*
X95665395Y-69215000D01*
X94837255Y-68386861D01*
X94789833Y-68401145D01*
X94753351Y-68207255D01*
X95016861Y-68207255D01*
X95845000Y-69035395D01*
X96671011Y-68209383D01*
X99629769Y-68209383D01*
X99832582Y-68700229D01*
X100207796Y-69076098D01*
X100477987Y-69188291D01*
X100271169Y-69273958D01*
X100209331Y-69509725D01*
X100965000Y-70265395D01*
X101720669Y-69509725D01*
X101658831Y-69273958D01*
X101435158Y-69195207D01*
X101720229Y-69077418D01*
X102096098Y-68702204D01*
X102299768Y-68211713D01*
X102300231Y-67680617D01*
X102097418Y-67189771D01*
X101722204Y-66813902D01*
X101231713Y-66610232D01*
X100700617Y-66609769D01*
X100209771Y-66812582D01*
X99833902Y-67187796D01*
X99630232Y-67678287D01*
X99629769Y-68209383D01*
X96671011Y-68209383D01*
X96673139Y-68207255D01*
X96599005Y-67961136D01*
X96061777Y-67768035D01*
X95491546Y-67795222D01*
X95090995Y-67961136D01*
X95016861Y-68207255D01*
X94753351Y-68207255D01*
X94748162Y-68179683D01*
X94609090Y-67963559D01*
X94396890Y-67818569D01*
X94145000Y-67767560D01*
X92545000Y-67767560D01*
X92309683Y-67811838D01*
X92093559Y-67950910D01*
X91948569Y-68163110D01*
X91897560Y-68415000D01*
X90216000Y-68415000D01*
X90216000Y-62103000D01*
X90144827Y-61745191D01*
X89942145Y-61441855D01*
X87435589Y-58935299D01*
X87990371Y-58706068D01*
X88358081Y-58339000D01*
X93680000Y-58339000D01*
X93680000Y-59756390D01*
X93441539Y-59994436D01*
X93230241Y-60503298D01*
X93229760Y-61054285D01*
X93440169Y-61563515D01*
X93829436Y-61953461D01*
X94338298Y-62164759D01*
X94889285Y-62165240D01*
X95398515Y-61954831D01*
X95788461Y-61565564D01*
X95999759Y-61056702D01*
X96000240Y-60505715D01*
X95789831Y-59996485D01*
X95550000Y-59756236D01*
X95550000Y-58339000D01*
X98164710Y-58339000D01*
X98760000Y-58934290D01*
X98760000Y-60007040D01*
X98563902Y-60202796D01*
X98360232Y-60693287D01*
X98359769Y-61224383D01*
X98562582Y-61715229D01*
X98937796Y-62091098D01*
X99428287Y-62294768D01*
X99959383Y-62295231D01*
X100450229Y-62092418D01*
X100647716Y-61895275D01*
X101439331Y-61895275D01*
X101501169Y-62131042D01*
X102002122Y-62307419D01*
X102532440Y-62278664D01*
X102888831Y-62131042D01*
X102950669Y-61895275D01*
X102195000Y-61139605D01*
X101439331Y-61895275D01*
X100647716Y-61895275D01*
X100826098Y-61717204D01*
X100938291Y-61447013D01*
X101023958Y-61653831D01*
X101259725Y-61715669D01*
X102015395Y-60960000D01*
X102374605Y-60960000D01*
X103130275Y-61715669D01*
X103366042Y-61653831D01*
X103542419Y-61152878D01*
X103513664Y-60622560D01*
X103366042Y-60266169D01*
X103130275Y-60204331D01*
X102374605Y-60960000D01*
X102015395Y-60960000D01*
X101259725Y-60204331D01*
X101023958Y-60266169D01*
X100945207Y-60489842D01*
X100827418Y-60204771D01*
X100647687Y-60024725D01*
X101439331Y-60024725D01*
X102195000Y-60780395D01*
X102950669Y-60024725D01*
X102888831Y-59788958D01*
X102387878Y-59612581D01*
X101857560Y-59641336D01*
X101501169Y-59788958D01*
X101439331Y-60024725D01*
X100647687Y-60024725D01*
X100630000Y-60007008D01*
X100630000Y-58547000D01*
X100558827Y-58189191D01*
X100356145Y-57885855D01*
X99685282Y-57214992D01*
X99959383Y-57215231D01*
X100450229Y-57012418D01*
X100647716Y-56815275D01*
X101439331Y-56815275D01*
X101501169Y-57051042D01*
X102002122Y-57227419D01*
X102532440Y-57198664D01*
X102888831Y-57051042D01*
X102950669Y-56815275D01*
X102195000Y-56059605D01*
X101439331Y-56815275D01*
X100647716Y-56815275D01*
X100826098Y-56637204D01*
X100938291Y-56367013D01*
X101023958Y-56573831D01*
X101259725Y-56635669D01*
X102015395Y-55880000D01*
X102374605Y-55880000D01*
X103130275Y-56635669D01*
X103366042Y-56573831D01*
X103542419Y-56072878D01*
X103513664Y-55542560D01*
X103366042Y-55186169D01*
X103130275Y-55124331D01*
X102374605Y-55880000D01*
X102015395Y-55880000D01*
X101259725Y-55124331D01*
X101023958Y-55186169D01*
X100945207Y-55409842D01*
X100827418Y-55124771D01*
X100647686Y-54944725D01*
X101439331Y-54944725D01*
X102195000Y-55700395D01*
X102950669Y-54944725D01*
X102888831Y-54708958D01*
X102387878Y-54532581D01*
X101857560Y-54561336D01*
X101501169Y-54708958D01*
X101439331Y-54944725D01*
X100647686Y-54944725D01*
X100452204Y-54748902D01*
X99961713Y-54545232D01*
X99430617Y-54544769D01*
X98939771Y-54747582D01*
X98742008Y-54945000D01*
X95638610Y-54945000D01*
X95400564Y-54706539D01*
X94891702Y-54495241D01*
X94340715Y-54494760D01*
X93831485Y-54705169D01*
X93591236Y-54945000D01*
X91659555Y-54945000D01*
X91294643Y-54579449D01*
X90730670Y-54345267D01*
X90120009Y-54344735D01*
X89555629Y-54577932D01*
X89123449Y-55009357D01*
X88889267Y-55573330D01*
X88888735Y-56183991D01*
X89006498Y-56469000D01*
X88357555Y-56469000D01*
X87992643Y-56103449D01*
X87428670Y-55869267D01*
X86818009Y-55868735D01*
X86279000Y-56091449D01*
X86279000Y-52070000D01*
X86207827Y-51712191D01*
X86005145Y-51408855D01*
X84680290Y-50084000D01*
X85337710Y-50084000D01*
X86857185Y-51603475D01*
X86856735Y-52119991D01*
X87089932Y-52684371D01*
X87521357Y-53116551D01*
X88085330Y-53350733D01*
X88695991Y-53351265D01*
X89260371Y-53118068D01*
X89535101Y-52843818D01*
X89807357Y-53116551D01*
X90371330Y-53350733D01*
X90981991Y-53351265D01*
X91546371Y-53118068D01*
X91978551Y-52686643D01*
X92212733Y-52122670D01*
X92213265Y-51512009D01*
X91980068Y-50947629D01*
X91548643Y-50515449D01*
X90984670Y-50281267D01*
X90465104Y-50280814D01*
X87529145Y-47344855D01*
X87225809Y-47142173D01*
X86868000Y-47071000D01*
X80143290Y-47071000D01*
X77201324Y-44129034D01*
X77576371Y-43974068D01*
X77944081Y-43607000D01*
X81908710Y-43607000D01*
X82429596Y-44127886D01*
X82314559Y-44201910D01*
X82169569Y-44414110D01*
X82118560Y-44666000D01*
X82118560Y-44841215D01*
X81940173Y-45108191D01*
X81869000Y-45466000D01*
X81940173Y-45823809D01*
X82118560Y-46090785D01*
X82118560Y-46266000D01*
X82162838Y-46501317D01*
X82301910Y-46717441D01*
X82514110Y-46862431D01*
X82766000Y-46913440D01*
X84366000Y-46913440D01*
X84601317Y-46869162D01*
X84817441Y-46730090D01*
X84962431Y-46517890D01*
X84971370Y-46473745D01*
X85237861Y-46473745D01*
X85311995Y-46719864D01*
X85849223Y-46912965D01*
X86419454Y-46885778D01*
X86820005Y-46719864D01*
X86894139Y-46473745D01*
X86066000Y-45645605D01*
X85237861Y-46473745D01*
X84971370Y-46473745D01*
X85010646Y-46279799D01*
X85058255Y-46294139D01*
X85886395Y-45466000D01*
X86245605Y-45466000D01*
X87073745Y-46294139D01*
X87319864Y-46220005D01*
X87512965Y-45682777D01*
X87485778Y-45112546D01*
X87319864Y-44711995D01*
X87073745Y-44637861D01*
X86245605Y-45466000D01*
X85886395Y-45466000D01*
X85058255Y-44637861D01*
X85010833Y-44652145D01*
X84974351Y-44458255D01*
X85237861Y-44458255D01*
X86066000Y-45286395D01*
X86894139Y-44458255D01*
X86820005Y-44212136D01*
X86282777Y-44019035D01*
X85712546Y-44046222D01*
X85311995Y-44212136D01*
X85237861Y-44458255D01*
X84974351Y-44458255D01*
X84969162Y-44430683D01*
X84830090Y-44214559D01*
X84617890Y-44069569D01*
X84501000Y-44045898D01*
X84501000Y-43942000D01*
X84429827Y-43584191D01*
X84227145Y-43280855D01*
X82957145Y-42010855D01*
X82653809Y-41808173D01*
X82296000Y-41737000D01*
X77943555Y-41737000D01*
X77578643Y-41371449D01*
X77014670Y-41137267D01*
X76404009Y-41136735D01*
X75839629Y-41369932D01*
X75407449Y-41801357D01*
X75173267Y-42365330D01*
X75172735Y-42975991D01*
X75185548Y-43007000D01*
X69983290Y-43007000D01*
X68880000Y-41903710D01*
X68880000Y-40981148D01*
X68888988Y-40975142D01*
X69178379Y-40542036D01*
X69280000Y-40031154D01*
X69280000Y-39978846D01*
X69211482Y-39634383D01*
X79182769Y-39634383D01*
X79385582Y-40125229D01*
X79760796Y-40501098D01*
X80251287Y-40704768D01*
X80782383Y-40705231D01*
X81273229Y-40502418D01*
X81470716Y-40305275D01*
X82262331Y-40305275D01*
X82324169Y-40541042D01*
X82825122Y-40717419D01*
X83355440Y-40688664D01*
X83711831Y-40541042D01*
X83773669Y-40305275D01*
X83018000Y-39549605D01*
X82262331Y-40305275D01*
X81470716Y-40305275D01*
X81649098Y-40127204D01*
X81761291Y-39857013D01*
X81846958Y-40063831D01*
X82082725Y-40125669D01*
X82838395Y-39370000D01*
X83197605Y-39370000D01*
X83953275Y-40125669D01*
X84189042Y-40063831D01*
X84365419Y-39562878D01*
X84336664Y-39032560D01*
X84189042Y-38676169D01*
X83953275Y-38614331D01*
X83197605Y-39370000D01*
X82838395Y-39370000D01*
X82082725Y-38614331D01*
X81846958Y-38676169D01*
X81768207Y-38899842D01*
X81650418Y-38614771D01*
X81470686Y-38434725D01*
X82262331Y-38434725D01*
X83018000Y-39190395D01*
X83773669Y-38434725D01*
X83711831Y-38198958D01*
X83210878Y-38022581D01*
X82680560Y-38051336D01*
X82324169Y-38198958D01*
X82262331Y-38434725D01*
X81470686Y-38434725D01*
X81275204Y-38238902D01*
X80784713Y-38035232D01*
X80253617Y-38034769D01*
X79762771Y-38237582D01*
X79386902Y-38612796D01*
X79183232Y-39103287D01*
X79182769Y-39634383D01*
X69211482Y-39634383D01*
X69178379Y-39467964D01*
X68888988Y-39034858D01*
X68455882Y-38745467D01*
X67945000Y-38643846D01*
X67434118Y-38745467D01*
X67001012Y-39034858D01*
X66711621Y-39467964D01*
X66610000Y-39978846D01*
X66610000Y-40031154D01*
X66711621Y-40542036D01*
X67001012Y-40975142D01*
X67010000Y-40981148D01*
X67010000Y-42291000D01*
X67081173Y-42648809D01*
X67283855Y-42952145D01*
X68354710Y-44023000D01*
X52578005Y-44023000D01*
X52578000Y-44022999D01*
X52279556Y-44082364D01*
X52220191Y-44094173D01*
X52040020Y-44214559D01*
X51916855Y-44296855D01*
X49523710Y-46690000D01*
X48493901Y-46690000D01*
X48440648Y-46610302D01*
X48058562Y-46355000D01*
X48440648Y-46099698D01*
X48751717Y-45634151D01*
X48860950Y-45085000D01*
X48751717Y-44535849D01*
X48440648Y-44070302D01*
X48058562Y-43815000D01*
X48440648Y-43559698D01*
X48751717Y-43094151D01*
X48860950Y-42545000D01*
X48751717Y-41995849D01*
X48440648Y-41530302D01*
X48058562Y-41275000D01*
X48440648Y-41019698D01*
X48751717Y-40554151D01*
X48860950Y-40005000D01*
X48751717Y-39455849D01*
X48440648Y-38990302D01*
X48058562Y-38735000D01*
X48440648Y-38479698D01*
X48493901Y-38400000D01*
X49777710Y-38400000D01*
X52043855Y-40666145D01*
X52347191Y-40868827D01*
X52705000Y-40940000D01*
X54277531Y-40940000D01*
X54301012Y-40975142D01*
X54734118Y-41264533D01*
X55245000Y-41366154D01*
X55755882Y-41264533D01*
X56188988Y-40975142D01*
X56478379Y-40542036D01*
X56580000Y-40031154D01*
X56580000Y-39978846D01*
X60260000Y-39978846D01*
X60260000Y-40031154D01*
X60361621Y-40542036D01*
X60651012Y-40975142D01*
X61084118Y-41264533D01*
X61595000Y-41366154D01*
X62105882Y-41264533D01*
X62538988Y-40975142D01*
X62828379Y-40542036D01*
X62930000Y-40031154D01*
X62930000Y-39978846D01*
X62828379Y-39467964D01*
X62538988Y-39034858D01*
X62105882Y-38745467D01*
X61595000Y-38643846D01*
X61084118Y-38745467D01*
X60651012Y-39034858D01*
X60361621Y-39467964D01*
X60260000Y-39978846D01*
X56580000Y-39978846D01*
X56478379Y-39467964D01*
X56188988Y-39034858D01*
X55755882Y-38745467D01*
X55245000Y-38643846D01*
X54734118Y-38745467D01*
X54301012Y-39034858D01*
X54277531Y-39070000D01*
X53092290Y-39070000D01*
X51487290Y-37465000D01*
X108619050Y-37465000D01*
X108728283Y-38014151D01*
X109039352Y-38479698D01*
X109421438Y-38735000D01*
X109039352Y-38990302D01*
X108728283Y-39455849D01*
X108619050Y-40005000D01*
X108728283Y-40554151D01*
X109039352Y-41019698D01*
X109421438Y-41275000D01*
X109039352Y-41530302D01*
X108728283Y-41995849D01*
X108619050Y-42545000D01*
X108728283Y-43094151D01*
X109039352Y-43559698D01*
X109421438Y-43815000D01*
X109039352Y-44070302D01*
X108728283Y-44535849D01*
X108619050Y-45085000D01*
X108728283Y-45634151D01*
X109039352Y-46099698D01*
X109421438Y-46355000D01*
X109039352Y-46610302D01*
X108728283Y-47075849D01*
X108619050Y-47625000D01*
X108728283Y-48174151D01*
X109039352Y-48639698D01*
X109421438Y-48895000D01*
X109039352Y-49150302D01*
X108728283Y-49615849D01*
X108619050Y-50165000D01*
X108728283Y-50714151D01*
X109039352Y-51179698D01*
X109421438Y-51435000D01*
X109039352Y-51690302D01*
X108728283Y-52155849D01*
X108619050Y-52705000D01*
X108728283Y-53254151D01*
X109039352Y-53719698D01*
X109421438Y-53975000D01*
X109039352Y-54230302D01*
X108728283Y-54695849D01*
X108619050Y-55245000D01*
X108728283Y-55794151D01*
X109039352Y-56259698D01*
X109421438Y-56515000D01*
X109039352Y-56770302D01*
X108728283Y-57235849D01*
X108619050Y-57785000D01*
X108728283Y-58334151D01*
X109039352Y-58799698D01*
X109417707Y-59052507D01*
X108985500Y-59400104D01*
X108715633Y-59893181D01*
X108698096Y-59975961D01*
X108820085Y-60198000D01*
X110363000Y-60198000D01*
X110363000Y-60178000D01*
X110617000Y-60178000D01*
X110617000Y-60198000D01*
X112159915Y-60198000D01*
X112281904Y-59975961D01*
X112264367Y-59893181D01*
X111994500Y-59400104D01*
X111562293Y-59052507D01*
X111940648Y-58799698D01*
X112251717Y-58334151D01*
X112360950Y-57785000D01*
X112251717Y-57235849D01*
X111940648Y-56770302D01*
X111558562Y-56515000D01*
X111940648Y-56259698D01*
X112251717Y-55794151D01*
X112360950Y-55245000D01*
X112251717Y-54695849D01*
X111940648Y-54230302D01*
X111558562Y-53975000D01*
X111940648Y-53719698D01*
X112251717Y-53254151D01*
X112360950Y-52705000D01*
X112251717Y-52155849D01*
X111940648Y-51690302D01*
X111558562Y-51435000D01*
X111940648Y-51179698D01*
X112251717Y-50714151D01*
X112360950Y-50165000D01*
X112251717Y-49615849D01*
X111940648Y-49150302D01*
X111558562Y-48895000D01*
X111940648Y-48639698D01*
X112251717Y-48174151D01*
X112360950Y-47625000D01*
X112251717Y-47075849D01*
X111940648Y-46610302D01*
X111558562Y-46355000D01*
X111940648Y-46099698D01*
X112251717Y-45634151D01*
X112360950Y-45085000D01*
X112251717Y-44535849D01*
X111940648Y-44070302D01*
X111558562Y-43815000D01*
X111940648Y-43559698D01*
X112251717Y-43094151D01*
X112360950Y-42545000D01*
X112251717Y-41995849D01*
X111940648Y-41530302D01*
X111558562Y-41275000D01*
X111940648Y-41019698D01*
X112251717Y-40554151D01*
X112360950Y-40005000D01*
X112251717Y-39455849D01*
X111940648Y-38990302D01*
X111558562Y-38735000D01*
X111940648Y-38479698D01*
X112251717Y-38014151D01*
X112360950Y-37465000D01*
X112251717Y-36915849D01*
X111940648Y-36450302D01*
X111562293Y-36197493D01*
X111994500Y-35849896D01*
X112264367Y-35356819D01*
X112281904Y-35274039D01*
X112159915Y-35052000D01*
X110617000Y-35052000D01*
X110617000Y-35072000D01*
X110363000Y-35072000D01*
X110363000Y-35052000D01*
X108820085Y-35052000D01*
X108698096Y-35274039D01*
X108715633Y-35356819D01*
X108985500Y-35849896D01*
X109417707Y-36197493D01*
X109039352Y-36450302D01*
X108728283Y-36915849D01*
X108619050Y-37465000D01*
X51487290Y-37465000D01*
X50826145Y-36803855D01*
X50522809Y-36601173D01*
X50165000Y-36530000D01*
X48493901Y-36530000D01*
X48440648Y-36450302D01*
X48062293Y-36197493D01*
X48494500Y-35849896D01*
X48764367Y-35356819D01*
X48781904Y-35274039D01*
X48659915Y-35052000D01*
X47117000Y-35052000D01*
X47117000Y-35072000D01*
X46863000Y-35072000D01*
X46863000Y-35052000D01*
X45320085Y-35052000D01*
X45198096Y-35274039D01*
X45215633Y-35356819D01*
X45485500Y-35849896D01*
X45917707Y-36197493D01*
X45539352Y-36450302D01*
X45397692Y-36662310D01*
X45185855Y-36803855D01*
X43788855Y-38200855D01*
X43586173Y-38504191D01*
X43515000Y-38862000D01*
X43515000Y-84836000D01*
X43586173Y-85193809D01*
X43788855Y-85497145D01*
X44637855Y-86346145D01*
X44941191Y-86548827D01*
X45299000Y-86620000D01*
X54927040Y-86620000D01*
X54945000Y-86637992D01*
X54945000Y-90652962D01*
X54844683Y-90671838D01*
X54628559Y-90810910D01*
X54483569Y-91023110D01*
X54435354Y-91261201D01*
X54387745Y-91246861D01*
X53559605Y-92075000D01*
X54387745Y-92903139D01*
X54435167Y-92888855D01*
X54476838Y-93110317D01*
X54615910Y-93326441D01*
X54828110Y-93471431D01*
X55080000Y-93522440D01*
X56680000Y-93522440D01*
X56915317Y-93478162D01*
X57131441Y-93339090D01*
X57276431Y-93126890D01*
X57327440Y-92875000D01*
X57327440Y-91275000D01*
X57283162Y-91039683D01*
X57144090Y-90823559D01*
X56931890Y-90678569D01*
X56815000Y-90654898D01*
X56815000Y-86637960D01*
X56832992Y-86620000D01*
X59176000Y-86620000D01*
X59176000Y-91607000D01*
X59247173Y-91964809D01*
X59449855Y-92268145D01*
X62330855Y-95149145D01*
X62332135Y-95150000D01*
X40712391Y-95150000D01*
X38982751Y-94805953D01*
X37577804Y-93867197D01*
X37327296Y-93492285D01*
X46366760Y-93492285D01*
X46577169Y-94001515D01*
X46966436Y-94391461D01*
X47475298Y-94602759D01*
X48026285Y-94603240D01*
X48535515Y-94392831D01*
X48925461Y-94003564D01*
X49136759Y-93494702D01*
X49137118Y-93082745D01*
X52551861Y-93082745D01*
X52625995Y-93328864D01*
X53163223Y-93521965D01*
X53733454Y-93494778D01*
X54134005Y-93328864D01*
X54208139Y-93082745D01*
X53380000Y-92254605D01*
X52551861Y-93082745D01*
X49137118Y-93082745D01*
X49137240Y-92943715D01*
X48926831Y-92434485D01*
X48537564Y-92044539D01*
X48088866Y-91858223D01*
X51933035Y-91858223D01*
X51960222Y-92428454D01*
X52126136Y-92829005D01*
X52372255Y-92903139D01*
X53200395Y-92075000D01*
X52372255Y-91246861D01*
X52126136Y-91320995D01*
X51933035Y-91858223D01*
X48088866Y-91858223D01*
X48028702Y-91833241D01*
X47477715Y-91832760D01*
X46968485Y-92043169D01*
X46578539Y-92432436D01*
X46367241Y-92941298D01*
X46366760Y-93492285D01*
X37327296Y-93492285D01*
X36639047Y-92462249D01*
X36397442Y-91247619D01*
X38404613Y-91247619D01*
X38744155Y-92069372D01*
X39372321Y-92698636D01*
X40193481Y-93039611D01*
X41082619Y-93040387D01*
X41904372Y-92700845D01*
X42533636Y-92072679D01*
X42874611Y-91251519D01*
X42874771Y-91067255D01*
X52551861Y-91067255D01*
X53380000Y-91895395D01*
X54208139Y-91067255D01*
X54134005Y-90821136D01*
X53596777Y-90628035D01*
X53026546Y-90655222D01*
X52625995Y-90821136D01*
X52551861Y-91067255D01*
X42874771Y-91067255D01*
X42875387Y-90362381D01*
X42535845Y-89540628D01*
X41907679Y-88911364D01*
X41086519Y-88570389D01*
X40197381Y-88569613D01*
X39375628Y-88909155D01*
X38746364Y-89537321D01*
X38405389Y-90358481D01*
X38404613Y-91247619D01*
X36397442Y-91247619D01*
X36295000Y-90732610D01*
X36295000Y-34575961D01*
X45198096Y-34575961D01*
X45320085Y-34798000D01*
X46863000Y-34798000D01*
X46863000Y-33490000D01*
X47117000Y-33490000D01*
X47117000Y-34798000D01*
X48659915Y-34798000D01*
X48781904Y-34575961D01*
X48764367Y-34493181D01*
X48494500Y-34000104D01*
X48056483Y-33647834D01*
X47517000Y-33490000D01*
X47117000Y-33490000D01*
X46863000Y-33490000D01*
X46463000Y-33490000D01*
X45923517Y-33647834D01*
X45485500Y-34000104D01*
X45215633Y-34493181D01*
X45198096Y-34575961D01*
X36295000Y-34575961D01*
X36295000Y-29017619D01*
X38404613Y-29017619D01*
X38744155Y-29839372D01*
X39372321Y-30468636D01*
X40193481Y-30809611D01*
X41082619Y-30810387D01*
X41904372Y-30470845D01*
X42533636Y-29842679D01*
X42874611Y-29021519D01*
X42875387Y-28132381D01*
X42651590Y-27590750D01*
X51170000Y-27590750D01*
X51170000Y-28331310D01*
X51266673Y-28564699D01*
X51445302Y-28743327D01*
X51678691Y-28840000D01*
X52419250Y-28840000D01*
X52578000Y-28681250D01*
X52578000Y-27432000D01*
X51328750Y-27432000D01*
X51170000Y-27590750D01*
X42651590Y-27590750D01*
X42535845Y-27310628D01*
X41907679Y-26681364D01*
X41086519Y-26340389D01*
X40197381Y-26339613D01*
X39375628Y-26679155D01*
X38746364Y-27307321D01*
X38405389Y-28128481D01*
X38404613Y-29017619D01*
X36295000Y-29017619D01*
X36295000Y-28647390D01*
X36639047Y-26917751D01*
X37066054Y-26278690D01*
X51170000Y-26278690D01*
X51170000Y-27019250D01*
X51328750Y-27178000D01*
X52578000Y-27178000D01*
X52578000Y-25928750D01*
X52832000Y-25928750D01*
X52832000Y-27178000D01*
X52852000Y-27178000D01*
X52852000Y-27432000D01*
X52832000Y-27432000D01*
X52832000Y-28681250D01*
X52990750Y-28840000D01*
X53731309Y-28840000D01*
X53964698Y-28743327D01*
X54143327Y-28564699D01*
X54199119Y-28430006D01*
X54310000Y-28541081D01*
X54310000Y-31432040D01*
X54113902Y-31627796D01*
X53910232Y-32118287D01*
X53909769Y-32649383D01*
X54112582Y-33140229D01*
X54487796Y-33516098D01*
X54978287Y-33719768D01*
X55509383Y-33720231D01*
X56000229Y-33517418D01*
X56376098Y-33142204D01*
X56579768Y-32651713D01*
X56580231Y-32120617D01*
X56377418Y-31629771D01*
X56180000Y-31432008D01*
X56180000Y-28540555D01*
X56545551Y-28175643D01*
X56779733Y-27611670D01*
X56779751Y-27590750D01*
X57520000Y-27590750D01*
X57520000Y-28331310D01*
X57616673Y-28564699D01*
X57795302Y-28743327D01*
X58028691Y-28840000D01*
X58769250Y-28840000D01*
X58928000Y-28681250D01*
X58928000Y-27432000D01*
X57678750Y-27432000D01*
X57520000Y-27590750D01*
X56779751Y-27590750D01*
X56780265Y-27001009D01*
X56547068Y-26436629D01*
X56389405Y-26278690D01*
X57520000Y-26278690D01*
X57520000Y-27019250D01*
X57678750Y-27178000D01*
X58928000Y-27178000D01*
X58928000Y-25928750D01*
X59182000Y-25928750D01*
X59182000Y-27178000D01*
X59202000Y-27178000D01*
X59202000Y-27432000D01*
X59182000Y-27432000D01*
X59182000Y-28681250D01*
X59340750Y-28840000D01*
X60081309Y-28840000D01*
X60314698Y-28743327D01*
X60493327Y-28564699D01*
X60549119Y-28430006D01*
X60660000Y-28541081D01*
X60660000Y-31432040D01*
X60463902Y-31627796D01*
X60260232Y-32118287D01*
X60259769Y-32649383D01*
X60462582Y-33140229D01*
X60837796Y-33516098D01*
X61328287Y-33719768D01*
X61859383Y-33720231D01*
X62350229Y-33517418D01*
X62726098Y-33142204D01*
X62929768Y-32651713D01*
X62930231Y-32120617D01*
X62727418Y-31629771D01*
X62530000Y-31432008D01*
X62530000Y-28540555D01*
X62895551Y-28175643D01*
X63129733Y-27611670D01*
X63129751Y-27590750D01*
X63870000Y-27590750D01*
X63870000Y-28331310D01*
X63966673Y-28564699D01*
X64145302Y-28743327D01*
X64378691Y-28840000D01*
X65119250Y-28840000D01*
X65278000Y-28681250D01*
X65278000Y-27432000D01*
X64028750Y-27432000D01*
X63870000Y-27590750D01*
X63129751Y-27590750D01*
X63130265Y-27001009D01*
X62897068Y-26436629D01*
X62739405Y-26278690D01*
X63870000Y-26278690D01*
X63870000Y-27019250D01*
X64028750Y-27178000D01*
X65278000Y-27178000D01*
X65278000Y-25928750D01*
X65532000Y-25928750D01*
X65532000Y-27178000D01*
X65552000Y-27178000D01*
X65552000Y-27432000D01*
X65532000Y-27432000D01*
X65532000Y-28681250D01*
X65690750Y-28840000D01*
X66431309Y-28840000D01*
X66664698Y-28743327D01*
X66843327Y-28564699D01*
X66899119Y-28430006D01*
X67010000Y-28541081D01*
X67010000Y-31432040D01*
X66813902Y-31627796D01*
X66610232Y-32118287D01*
X66609769Y-32649383D01*
X66812582Y-33140229D01*
X67187796Y-33516098D01*
X67678287Y-33719768D01*
X68209383Y-33720231D01*
X68700229Y-33517418D01*
X69076098Y-33142204D01*
X69279768Y-32651713D01*
X69280231Y-32120617D01*
X69077418Y-31629771D01*
X68880000Y-31432008D01*
X68880000Y-28540555D01*
X69245551Y-28175643D01*
X69479733Y-27611670D01*
X69480265Y-27001009D01*
X69247068Y-26436629D01*
X68815643Y-26004449D01*
X68251670Y-25770267D01*
X67641009Y-25769735D01*
X67076629Y-26002932D01*
X66899159Y-26180092D01*
X66843327Y-26045301D01*
X66664698Y-25866673D01*
X66431309Y-25770000D01*
X65690750Y-25770000D01*
X65532000Y-25928750D01*
X65278000Y-25928750D01*
X65119250Y-25770000D01*
X64378691Y-25770000D01*
X64145302Y-25866673D01*
X63966673Y-26045301D01*
X63870000Y-26278690D01*
X62739405Y-26278690D01*
X62465643Y-26004449D01*
X61901670Y-25770267D01*
X61291009Y-25769735D01*
X60726629Y-26002932D01*
X60549159Y-26180092D01*
X60493327Y-26045301D01*
X60314698Y-25866673D01*
X60081309Y-25770000D01*
X59340750Y-25770000D01*
X59182000Y-25928750D01*
X58928000Y-25928750D01*
X58769250Y-25770000D01*
X58028691Y-25770000D01*
X57795302Y-25866673D01*
X57616673Y-26045301D01*
X57520000Y-26278690D01*
X56389405Y-26278690D01*
X56115643Y-26004449D01*
X55551670Y-25770267D01*
X54941009Y-25769735D01*
X54376629Y-26002932D01*
X54199159Y-26180092D01*
X54143327Y-26045301D01*
X53964698Y-25866673D01*
X53731309Y-25770000D01*
X52990750Y-25770000D01*
X52832000Y-25928750D01*
X52578000Y-25928750D01*
X52419250Y-25770000D01*
X51678691Y-25770000D01*
X51445302Y-25866673D01*
X51266673Y-26045301D01*
X51170000Y-26278690D01*
X37066054Y-26278690D01*
X37577804Y-25512803D01*
X38982751Y-24574047D01*
X40712391Y-24230000D01*
X77089000Y-24230000D01*
X77089000Y-34798000D01*
X77089000Y-34798000D01*
G37*
X77089000Y-34798000D02*
X77099006Y-34847410D01*
X77127447Y-34889035D01*
X77169841Y-34916315D01*
X77216000Y-34925000D01*
X106934000Y-34925000D01*
X106983410Y-34914994D01*
X107025035Y-34886553D01*
X107052315Y-34844159D01*
X107061000Y-34798000D01*
X107061000Y-34575961D01*
X108698096Y-34575961D01*
X108820085Y-34798000D01*
X110363000Y-34798000D01*
X110363000Y-33490000D01*
X110617000Y-33490000D01*
X110617000Y-34798000D01*
X112159915Y-34798000D01*
X112281904Y-34575961D01*
X112264367Y-34493181D01*
X111994500Y-34000104D01*
X111556483Y-33647834D01*
X111017000Y-33490000D01*
X110617000Y-33490000D01*
X110363000Y-33490000D01*
X109963000Y-33490000D01*
X109423517Y-33647834D01*
X108985500Y-34000104D01*
X108715633Y-34493181D01*
X108698096Y-34575961D01*
X107061000Y-34575961D01*
X107061000Y-32893000D01*
X114835000Y-32893000D01*
X114835000Y-90732609D01*
X114490953Y-92462249D01*
X113552197Y-93867196D01*
X112147249Y-94805953D01*
X110417610Y-95150000D01*
X90830290Y-95150000D01*
X92101145Y-93879145D01*
X92303827Y-93575809D01*
X92375000Y-93218000D01*
X92375000Y-91359000D01*
X104394000Y-91359000D01*
X104751809Y-91287827D01*
X104811984Y-91247619D01*
X108254613Y-91247619D01*
X108594155Y-92069372D01*
X109222321Y-92698636D01*
X110043481Y-93039611D01*
X110932619Y-93040387D01*
X111754372Y-92700845D01*
X112383636Y-92072679D01*
X112724611Y-91251519D01*
X112725387Y-90362381D01*
X112385845Y-89540628D01*
X111757679Y-88911364D01*
X110936519Y-88570389D01*
X110047381Y-88569613D01*
X109225628Y-88909155D01*
X108596364Y-89537321D01*
X108255389Y-90358481D01*
X108254613Y-91247619D01*
X104811984Y-91247619D01*
X105055145Y-91085145D01*
X106071145Y-90069145D01*
X106273827Y-89765809D01*
X106345000Y-89408000D01*
X106345000Y-83534039D01*
X108698096Y-83534039D01*
X108715633Y-83616819D01*
X108985500Y-84109896D01*
X109423517Y-84462166D01*
X109963000Y-84620000D01*
X110363000Y-84620000D01*
X110363000Y-83312000D01*
X110617000Y-83312000D01*
X110617000Y-84620000D01*
X111017000Y-84620000D01*
X111556483Y-84462166D01*
X111994500Y-84109896D01*
X112264367Y-83616819D01*
X112281904Y-83534039D01*
X112159915Y-83312000D01*
X110617000Y-83312000D01*
X110363000Y-83312000D01*
X108820085Y-83312000D01*
X108698096Y-83534039D01*
X106345000Y-83534039D01*
X106345000Y-81921290D01*
X106686290Y-81580000D01*
X108986099Y-81580000D01*
X109039352Y-81659698D01*
X109417707Y-81912507D01*
X108985500Y-82260104D01*
X108715633Y-82753181D01*
X108698096Y-82835961D01*
X108820085Y-83058000D01*
X110363000Y-83058000D01*
X110363000Y-83038000D01*
X110617000Y-83038000D01*
X110617000Y-83058000D01*
X112159915Y-83058000D01*
X112281904Y-82835961D01*
X112264367Y-82753181D01*
X111994500Y-82260104D01*
X111562293Y-81912507D01*
X111940648Y-81659698D01*
X112251717Y-81194151D01*
X112360950Y-80645000D01*
X112251717Y-80095849D01*
X111940648Y-79630302D01*
X111558562Y-79375000D01*
X111940648Y-79119698D01*
X112251717Y-78654151D01*
X112360950Y-78105000D01*
X112251717Y-77555849D01*
X111940648Y-77090302D01*
X111558562Y-76835000D01*
X111940648Y-76579698D01*
X112251717Y-76114151D01*
X112360950Y-75565000D01*
X112251717Y-75015849D01*
X111940648Y-74550302D01*
X111558562Y-74295000D01*
X111940648Y-74039698D01*
X112251717Y-73574151D01*
X112360950Y-73025000D01*
X112251717Y-72475849D01*
X111940648Y-72010302D01*
X111558562Y-71755000D01*
X111940648Y-71499698D01*
X112251717Y-71034151D01*
X112360950Y-70485000D01*
X112251717Y-69935849D01*
X111940648Y-69470302D01*
X111558562Y-69215000D01*
X111940648Y-68959698D01*
X112251717Y-68494151D01*
X112360950Y-67945000D01*
X112251717Y-67395849D01*
X111940648Y-66930302D01*
X111558562Y-66675000D01*
X111940648Y-66419698D01*
X112251717Y-65954151D01*
X112360950Y-65405000D01*
X112251717Y-64855849D01*
X111940648Y-64390302D01*
X111558562Y-64135000D01*
X111940648Y-63879698D01*
X112251717Y-63414151D01*
X112360950Y-62865000D01*
X112251717Y-62315849D01*
X111940648Y-61850302D01*
X111562293Y-61597493D01*
X111994500Y-61249896D01*
X112264367Y-60756819D01*
X112281904Y-60674039D01*
X112159915Y-60452000D01*
X110617000Y-60452000D01*
X110617000Y-60472000D01*
X110363000Y-60472000D01*
X110363000Y-60452000D01*
X108820085Y-60452000D01*
X108698096Y-60674039D01*
X108715633Y-60756819D01*
X108985500Y-61249896D01*
X109417707Y-61597493D01*
X109039352Y-61850302D01*
X108986099Y-61930000D01*
X108839005Y-61930000D01*
X108839000Y-61929999D01*
X108554228Y-61986645D01*
X108481191Y-62001173D01*
X108235647Y-62165240D01*
X108177855Y-62203855D01*
X104494855Y-65886855D01*
X104292173Y-66190191D01*
X104221000Y-66548000D01*
X104221000Y-73526710D01*
X102736710Y-75011000D01*
X92421555Y-75011000D01*
X92056643Y-74645449D01*
X91492670Y-74411267D01*
X90882009Y-74410735D01*
X90317629Y-74643932D01*
X90216000Y-74745383D01*
X90216000Y-71380275D01*
X100209331Y-71380275D01*
X100271169Y-71616042D01*
X100772122Y-71792419D01*
X101302440Y-71763664D01*
X101658831Y-71616042D01*
X101720669Y-71380275D01*
X100965000Y-70624605D01*
X100209331Y-71380275D01*
X90216000Y-71380275D01*
X90216000Y-68415000D01*
X91897560Y-68415000D01*
X91897560Y-70015000D01*
X91941838Y-70250317D01*
X92080910Y-70466441D01*
X92293110Y-70611431D01*
X92545000Y-70662440D01*
X94145000Y-70662440D01*
X94380317Y-70618162D01*
X94596441Y-70479090D01*
X94741431Y-70266890D01*
X94750370Y-70222745D01*
X95016861Y-70222745D01*
X95090995Y-70468864D01*
X95628223Y-70661965D01*
X96198454Y-70634778D01*
X96599005Y-70468864D01*
X96664290Y-70252122D01*
X99617581Y-70252122D01*
X99646336Y-70782440D01*
X99793958Y-71138831D01*
X100029725Y-71200669D01*
X100785395Y-70445000D01*
X101144605Y-70445000D01*
X101900275Y-71200669D01*
X102136042Y-71138831D01*
X102312419Y-70637878D01*
X102283664Y-70107560D01*
X102136042Y-69751169D01*
X101900275Y-69689331D01*
X101144605Y-70445000D01*
X100785395Y-70445000D01*
X100029725Y-69689331D01*
X99793958Y-69751169D01*
X99617581Y-70252122D01*
X96664290Y-70252122D01*
X96673139Y-70222745D01*
X95845000Y-69394605D01*
X95016861Y-70222745D01*
X94750370Y-70222745D01*
X94789646Y-70028799D01*
X94837255Y-70043139D01*
X95665395Y-69215000D01*
X96024605Y-69215000D01*
X96852745Y-70043139D01*
X97098864Y-69969005D01*
X97291965Y-69431777D01*
X97264778Y-68861546D01*
X97098864Y-68460995D01*
X96852745Y-68386861D01*
X96024605Y-69215000D01*
X95665395Y-69215000D01*
X94837255Y-68386861D01*
X94789833Y-68401145D01*
X94753351Y-68207255D01*
X95016861Y-68207255D01*
X95845000Y-69035395D01*
X96671011Y-68209383D01*
X99629769Y-68209383D01*
X99832582Y-68700229D01*
X100207796Y-69076098D01*
X100477987Y-69188291D01*
X100271169Y-69273958D01*
X100209331Y-69509725D01*
X100965000Y-70265395D01*
X101720669Y-69509725D01*
X101658831Y-69273958D01*
X101435158Y-69195207D01*
X101720229Y-69077418D01*
X102096098Y-68702204D01*
X102299768Y-68211713D01*
X102300231Y-67680617D01*
X102097418Y-67189771D01*
X101722204Y-66813902D01*
X101231713Y-66610232D01*
X100700617Y-66609769D01*
X100209771Y-66812582D01*
X99833902Y-67187796D01*
X99630232Y-67678287D01*
X99629769Y-68209383D01*
X96671011Y-68209383D01*
X96673139Y-68207255D01*
X96599005Y-67961136D01*
X96061777Y-67768035D01*
X95491546Y-67795222D01*
X95090995Y-67961136D01*
X95016861Y-68207255D01*
X94753351Y-68207255D01*
X94748162Y-68179683D01*
X94609090Y-67963559D01*
X94396890Y-67818569D01*
X94145000Y-67767560D01*
X92545000Y-67767560D01*
X92309683Y-67811838D01*
X92093559Y-67950910D01*
X91948569Y-68163110D01*
X91897560Y-68415000D01*
X90216000Y-68415000D01*
X90216000Y-62103000D01*
X90144827Y-61745191D01*
X89942145Y-61441855D01*
X87435589Y-58935299D01*
X87990371Y-58706068D01*
X88358081Y-58339000D01*
X93680000Y-58339000D01*
X93680000Y-59756390D01*
X93441539Y-59994436D01*
X93230241Y-60503298D01*
X93229760Y-61054285D01*
X93440169Y-61563515D01*
X93829436Y-61953461D01*
X94338298Y-62164759D01*
X94889285Y-62165240D01*
X95398515Y-61954831D01*
X95788461Y-61565564D01*
X95999759Y-61056702D01*
X96000240Y-60505715D01*
X95789831Y-59996485D01*
X95550000Y-59756236D01*
X95550000Y-58339000D01*
X98164710Y-58339000D01*
X98760000Y-58934290D01*
X98760000Y-60007040D01*
X98563902Y-60202796D01*
X98360232Y-60693287D01*
X98359769Y-61224383D01*
X98562582Y-61715229D01*
X98937796Y-62091098D01*
X99428287Y-62294768D01*
X99959383Y-62295231D01*
X100450229Y-62092418D01*
X100647716Y-61895275D01*
X101439331Y-61895275D01*
X101501169Y-62131042D01*
X102002122Y-62307419D01*
X102532440Y-62278664D01*
X102888831Y-62131042D01*
X102950669Y-61895275D01*
X102195000Y-61139605D01*
X101439331Y-61895275D01*
X100647716Y-61895275D01*
X100826098Y-61717204D01*
X100938291Y-61447013D01*
X101023958Y-61653831D01*
X101259725Y-61715669D01*
X102015395Y-60960000D01*
X102374605Y-60960000D01*
X103130275Y-61715669D01*
X103366042Y-61653831D01*
X103542419Y-61152878D01*
X103513664Y-60622560D01*
X103366042Y-60266169D01*
X103130275Y-60204331D01*
X102374605Y-60960000D01*
X102015395Y-60960000D01*
X101259725Y-60204331D01*
X101023958Y-60266169D01*
X100945207Y-60489842D01*
X100827418Y-60204771D01*
X100647687Y-60024725D01*
X101439331Y-60024725D01*
X102195000Y-60780395D01*
X102950669Y-60024725D01*
X102888831Y-59788958D01*
X102387878Y-59612581D01*
X101857560Y-59641336D01*
X101501169Y-59788958D01*
X101439331Y-60024725D01*
X100647687Y-60024725D01*
X100630000Y-60007008D01*
X100630000Y-58547000D01*
X100558827Y-58189191D01*
X100356145Y-57885855D01*
X99685282Y-57214992D01*
X99959383Y-57215231D01*
X100450229Y-57012418D01*
X100647716Y-56815275D01*
X101439331Y-56815275D01*
X101501169Y-57051042D01*
X102002122Y-57227419D01*
X102532440Y-57198664D01*
X102888831Y-57051042D01*
X102950669Y-56815275D01*
X102195000Y-56059605D01*
X101439331Y-56815275D01*
X100647716Y-56815275D01*
X100826098Y-56637204D01*
X100938291Y-56367013D01*
X101023958Y-56573831D01*
X101259725Y-56635669D01*
X102015395Y-55880000D01*
X102374605Y-55880000D01*
X103130275Y-56635669D01*
X103366042Y-56573831D01*
X103542419Y-56072878D01*
X103513664Y-55542560D01*
X103366042Y-55186169D01*
X103130275Y-55124331D01*
X102374605Y-55880000D01*
X102015395Y-55880000D01*
X101259725Y-55124331D01*
X101023958Y-55186169D01*
X100945207Y-55409842D01*
X100827418Y-55124771D01*
X100647686Y-54944725D01*
X101439331Y-54944725D01*
X102195000Y-55700395D01*
X102950669Y-54944725D01*
X102888831Y-54708958D01*
X102387878Y-54532581D01*
X101857560Y-54561336D01*
X101501169Y-54708958D01*
X101439331Y-54944725D01*
X100647686Y-54944725D01*
X100452204Y-54748902D01*
X99961713Y-54545232D01*
X99430617Y-54544769D01*
X98939771Y-54747582D01*
X98742008Y-54945000D01*
X95638610Y-54945000D01*
X95400564Y-54706539D01*
X94891702Y-54495241D01*
X94340715Y-54494760D01*
X93831485Y-54705169D01*
X93591236Y-54945000D01*
X91659555Y-54945000D01*
X91294643Y-54579449D01*
X90730670Y-54345267D01*
X90120009Y-54344735D01*
X89555629Y-54577932D01*
X89123449Y-55009357D01*
X88889267Y-55573330D01*
X88888735Y-56183991D01*
X89006498Y-56469000D01*
X88357555Y-56469000D01*
X87992643Y-56103449D01*
X87428670Y-55869267D01*
X86818009Y-55868735D01*
X86279000Y-56091449D01*
X86279000Y-52070000D01*
X86207827Y-51712191D01*
X86005145Y-51408855D01*
X84680290Y-50084000D01*
X85337710Y-50084000D01*
X86857185Y-51603475D01*
X86856735Y-52119991D01*
X87089932Y-52684371D01*
X87521357Y-53116551D01*
X88085330Y-53350733D01*
X88695991Y-53351265D01*
X89260371Y-53118068D01*
X89535101Y-52843818D01*
X89807357Y-53116551D01*
X90371330Y-53350733D01*
X90981991Y-53351265D01*
X91546371Y-53118068D01*
X91978551Y-52686643D01*
X92212733Y-52122670D01*
X92213265Y-51512009D01*
X91980068Y-50947629D01*
X91548643Y-50515449D01*
X90984670Y-50281267D01*
X90465104Y-50280814D01*
X87529145Y-47344855D01*
X87225809Y-47142173D01*
X86868000Y-47071000D01*
X80143290Y-47071000D01*
X77201324Y-44129034D01*
X77576371Y-43974068D01*
X77944081Y-43607000D01*
X81908710Y-43607000D01*
X82429596Y-44127886D01*
X82314559Y-44201910D01*
X82169569Y-44414110D01*
X82118560Y-44666000D01*
X82118560Y-44841215D01*
X81940173Y-45108191D01*
X81869000Y-45466000D01*
X81940173Y-45823809D01*
X82118560Y-46090785D01*
X82118560Y-46266000D01*
X82162838Y-46501317D01*
X82301910Y-46717441D01*
X82514110Y-46862431D01*
X82766000Y-46913440D01*
X84366000Y-46913440D01*
X84601317Y-46869162D01*
X84817441Y-46730090D01*
X84962431Y-46517890D01*
X84971370Y-46473745D01*
X85237861Y-46473745D01*
X85311995Y-46719864D01*
X85849223Y-46912965D01*
X86419454Y-46885778D01*
X86820005Y-46719864D01*
X86894139Y-46473745D01*
X86066000Y-45645605D01*
X85237861Y-46473745D01*
X84971370Y-46473745D01*
X85010646Y-46279799D01*
X85058255Y-46294139D01*
X85886395Y-45466000D01*
X86245605Y-45466000D01*
X87073745Y-46294139D01*
X87319864Y-46220005D01*
X87512965Y-45682777D01*
X87485778Y-45112546D01*
X87319864Y-44711995D01*
X87073745Y-44637861D01*
X86245605Y-45466000D01*
X85886395Y-45466000D01*
X85058255Y-44637861D01*
X85010833Y-44652145D01*
X84974351Y-44458255D01*
X85237861Y-44458255D01*
X86066000Y-45286395D01*
X86894139Y-44458255D01*
X86820005Y-44212136D01*
X86282777Y-44019035D01*
X85712546Y-44046222D01*
X85311995Y-44212136D01*
X85237861Y-44458255D01*
X84974351Y-44458255D01*
X84969162Y-44430683D01*
X84830090Y-44214559D01*
X84617890Y-44069569D01*
X84501000Y-44045898D01*
X84501000Y-43942000D01*
X84429827Y-43584191D01*
X84227145Y-43280855D01*
X82957145Y-42010855D01*
X82653809Y-41808173D01*
X82296000Y-41737000D01*
X77943555Y-41737000D01*
X77578643Y-41371449D01*
X77014670Y-41137267D01*
X76404009Y-41136735D01*
X75839629Y-41369932D01*
X75407449Y-41801357D01*
X75173267Y-42365330D01*
X75172735Y-42975991D01*
X75185548Y-43007000D01*
X69983290Y-43007000D01*
X68880000Y-41903710D01*
X68880000Y-40981148D01*
X68888988Y-40975142D01*
X69178379Y-40542036D01*
X69280000Y-40031154D01*
X69280000Y-39978846D01*
X69211482Y-39634383D01*
X79182769Y-39634383D01*
X79385582Y-40125229D01*
X79760796Y-40501098D01*
X80251287Y-40704768D01*
X80782383Y-40705231D01*
X81273229Y-40502418D01*
X81470716Y-40305275D01*
X82262331Y-40305275D01*
X82324169Y-40541042D01*
X82825122Y-40717419D01*
X83355440Y-40688664D01*
X83711831Y-40541042D01*
X83773669Y-40305275D01*
X83018000Y-39549605D01*
X82262331Y-40305275D01*
X81470716Y-40305275D01*
X81649098Y-40127204D01*
X81761291Y-39857013D01*
X81846958Y-40063831D01*
X82082725Y-40125669D01*
X82838395Y-39370000D01*
X83197605Y-39370000D01*
X83953275Y-40125669D01*
X84189042Y-40063831D01*
X84365419Y-39562878D01*
X84336664Y-39032560D01*
X84189042Y-38676169D01*
X83953275Y-38614331D01*
X83197605Y-39370000D01*
X82838395Y-39370000D01*
X82082725Y-38614331D01*
X81846958Y-38676169D01*
X81768207Y-38899842D01*
X81650418Y-38614771D01*
X81470686Y-38434725D01*
X82262331Y-38434725D01*
X83018000Y-39190395D01*
X83773669Y-38434725D01*
X83711831Y-38198958D01*
X83210878Y-38022581D01*
X82680560Y-38051336D01*
X82324169Y-38198958D01*
X82262331Y-38434725D01*
X81470686Y-38434725D01*
X81275204Y-38238902D01*
X80784713Y-38035232D01*
X80253617Y-38034769D01*
X79762771Y-38237582D01*
X79386902Y-38612796D01*
X79183232Y-39103287D01*
X79182769Y-39634383D01*
X69211482Y-39634383D01*
X69178379Y-39467964D01*
X68888988Y-39034858D01*
X68455882Y-38745467D01*
X67945000Y-38643846D01*
X67434118Y-38745467D01*
X67001012Y-39034858D01*
X66711621Y-39467964D01*
X66610000Y-39978846D01*
X66610000Y-40031154D01*
X66711621Y-40542036D01*
X67001012Y-40975142D01*
X67010000Y-40981148D01*
X67010000Y-42291000D01*
X67081173Y-42648809D01*
X67283855Y-42952145D01*
X68354710Y-44023000D01*
X52578005Y-44023000D01*
X52578000Y-44022999D01*
X52279556Y-44082364D01*
X52220191Y-44094173D01*
X52040020Y-44214559D01*
X51916855Y-44296855D01*
X49523710Y-46690000D01*
X48493901Y-46690000D01*
X48440648Y-46610302D01*
X48058562Y-46355000D01*
X48440648Y-46099698D01*
X48751717Y-45634151D01*
X48860950Y-45085000D01*
X48751717Y-44535849D01*
X48440648Y-44070302D01*
X48058562Y-43815000D01*
X48440648Y-43559698D01*
X48751717Y-43094151D01*
X48860950Y-42545000D01*
X48751717Y-41995849D01*
X48440648Y-41530302D01*
X48058562Y-41275000D01*
X48440648Y-41019698D01*
X48751717Y-40554151D01*
X48860950Y-40005000D01*
X48751717Y-39455849D01*
X48440648Y-38990302D01*
X48058562Y-38735000D01*
X48440648Y-38479698D01*
X48493901Y-38400000D01*
X49777710Y-38400000D01*
X52043855Y-40666145D01*
X52347191Y-40868827D01*
X52705000Y-40940000D01*
X54277531Y-40940000D01*
X54301012Y-40975142D01*
X54734118Y-41264533D01*
X55245000Y-41366154D01*
X55755882Y-41264533D01*
X56188988Y-40975142D01*
X56478379Y-40542036D01*
X56580000Y-40031154D01*
X56580000Y-39978846D01*
X60260000Y-39978846D01*
X60260000Y-40031154D01*
X60361621Y-40542036D01*
X60651012Y-40975142D01*
X61084118Y-41264533D01*
X61595000Y-41366154D01*
X62105882Y-41264533D01*
X62538988Y-40975142D01*
X62828379Y-40542036D01*
X62930000Y-40031154D01*
X62930000Y-39978846D01*
X62828379Y-39467964D01*
X62538988Y-39034858D01*
X62105882Y-38745467D01*
X61595000Y-38643846D01*
X61084118Y-38745467D01*
X60651012Y-39034858D01*
X60361621Y-39467964D01*
X60260000Y-39978846D01*
X56580000Y-39978846D01*
X56478379Y-39467964D01*
X56188988Y-39034858D01*
X55755882Y-38745467D01*
X55245000Y-38643846D01*
X54734118Y-38745467D01*
X54301012Y-39034858D01*
X54277531Y-39070000D01*
X53092290Y-39070000D01*
X51487290Y-37465000D01*
X108619050Y-37465000D01*
X108728283Y-38014151D01*
X109039352Y-38479698D01*
X109421438Y-38735000D01*
X109039352Y-38990302D01*
X108728283Y-39455849D01*
X108619050Y-40005000D01*
X108728283Y-40554151D01*
X109039352Y-41019698D01*
X109421438Y-41275000D01*
X109039352Y-41530302D01*
X108728283Y-41995849D01*
X108619050Y-42545000D01*
X108728283Y-43094151D01*
X109039352Y-43559698D01*
X109421438Y-43815000D01*
X109039352Y-44070302D01*
X108728283Y-44535849D01*
X108619050Y-45085000D01*
X108728283Y-45634151D01*
X109039352Y-46099698D01*
X109421438Y-46355000D01*
X109039352Y-46610302D01*
X108728283Y-47075849D01*
X108619050Y-47625000D01*
X108728283Y-48174151D01*
X109039352Y-48639698D01*
X109421438Y-48895000D01*
X109039352Y-49150302D01*
X108728283Y-49615849D01*
X108619050Y-50165000D01*
X108728283Y-50714151D01*
X109039352Y-51179698D01*
X109421438Y-51435000D01*
X109039352Y-51690302D01*
X108728283Y-52155849D01*
X108619050Y-52705000D01*
X108728283Y-53254151D01*
X109039352Y-53719698D01*
X109421438Y-53975000D01*
X109039352Y-54230302D01*
X108728283Y-54695849D01*
X108619050Y-55245000D01*
X108728283Y-55794151D01*
X109039352Y-56259698D01*
X109421438Y-56515000D01*
X109039352Y-56770302D01*
X108728283Y-57235849D01*
X108619050Y-57785000D01*
X108728283Y-58334151D01*
X109039352Y-58799698D01*
X109417707Y-59052507D01*
X108985500Y-59400104D01*
X108715633Y-59893181D01*
X108698096Y-59975961D01*
X108820085Y-60198000D01*
X110363000Y-60198000D01*
X110363000Y-60178000D01*
X110617000Y-60178000D01*
X110617000Y-60198000D01*
X112159915Y-60198000D01*
X112281904Y-59975961D01*
X112264367Y-59893181D01*
X111994500Y-59400104D01*
X111562293Y-59052507D01*
X111940648Y-58799698D01*
X112251717Y-58334151D01*
X112360950Y-57785000D01*
X112251717Y-57235849D01*
X111940648Y-56770302D01*
X111558562Y-56515000D01*
X111940648Y-56259698D01*
X112251717Y-55794151D01*
X112360950Y-55245000D01*
X112251717Y-54695849D01*
X111940648Y-54230302D01*
X111558562Y-53975000D01*
X111940648Y-53719698D01*
X112251717Y-53254151D01*
X112360950Y-52705000D01*
X112251717Y-52155849D01*
X111940648Y-51690302D01*
X111558562Y-51435000D01*
X111940648Y-51179698D01*
X112251717Y-50714151D01*
X112360950Y-50165000D01*
X112251717Y-49615849D01*
X111940648Y-49150302D01*
X111558562Y-48895000D01*
X111940648Y-48639698D01*
X112251717Y-48174151D01*
X112360950Y-47625000D01*
X112251717Y-47075849D01*
X111940648Y-46610302D01*
X111558562Y-46355000D01*
X111940648Y-46099698D01*
X112251717Y-45634151D01*
X112360950Y-45085000D01*
X112251717Y-44535849D01*
X111940648Y-44070302D01*
X111558562Y-43815000D01*
X111940648Y-43559698D01*
X112251717Y-43094151D01*
X112360950Y-42545000D01*
X112251717Y-41995849D01*
X111940648Y-41530302D01*
X111558562Y-41275000D01*
X111940648Y-41019698D01*
X112251717Y-40554151D01*
X112360950Y-40005000D01*
X112251717Y-39455849D01*
X111940648Y-38990302D01*
X111558562Y-38735000D01*
X111940648Y-38479698D01*
X112251717Y-38014151D01*
X112360950Y-37465000D01*
X112251717Y-36915849D01*
X111940648Y-36450302D01*
X111562293Y-36197493D01*
X111994500Y-35849896D01*
X112264367Y-35356819D01*
X112281904Y-35274039D01*
X112159915Y-35052000D01*
X110617000Y-35052000D01*
X110617000Y-35072000D01*
X110363000Y-35072000D01*
X110363000Y-35052000D01*
X108820085Y-35052000D01*
X108698096Y-35274039D01*
X108715633Y-35356819D01*
X108985500Y-35849896D01*
X109417707Y-36197493D01*
X109039352Y-36450302D01*
X108728283Y-36915849D01*
X108619050Y-37465000D01*
X51487290Y-37465000D01*
X50826145Y-36803855D01*
X50522809Y-36601173D01*
X50165000Y-36530000D01*
X48493901Y-36530000D01*
X48440648Y-36450302D01*
X48062293Y-36197493D01*
X48494500Y-35849896D01*
X48764367Y-35356819D01*
X48781904Y-35274039D01*
X48659915Y-35052000D01*
X47117000Y-35052000D01*
X47117000Y-35072000D01*
X46863000Y-35072000D01*
X46863000Y-35052000D01*
X45320085Y-35052000D01*
X45198096Y-35274039D01*
X45215633Y-35356819D01*
X45485500Y-35849896D01*
X45917707Y-36197493D01*
X45539352Y-36450302D01*
X45397692Y-36662310D01*
X45185855Y-36803855D01*
X43788855Y-38200855D01*
X43586173Y-38504191D01*
X43515000Y-38862000D01*
X43515000Y-84836000D01*
X43586173Y-85193809D01*
X43788855Y-85497145D01*
X44637855Y-86346145D01*
X44941191Y-86548827D01*
X45299000Y-86620000D01*
X54927040Y-86620000D01*
X54945000Y-86637992D01*
X54945000Y-90652962D01*
X54844683Y-90671838D01*
X54628559Y-90810910D01*
X54483569Y-91023110D01*
X54435354Y-91261201D01*
X54387745Y-91246861D01*
X53559605Y-92075000D01*
X54387745Y-92903139D01*
X54435167Y-92888855D01*
X54476838Y-93110317D01*
X54615910Y-93326441D01*
X54828110Y-93471431D01*
X55080000Y-93522440D01*
X56680000Y-93522440D01*
X56915317Y-93478162D01*
X57131441Y-93339090D01*
X57276431Y-93126890D01*
X57327440Y-92875000D01*
X57327440Y-91275000D01*
X57283162Y-91039683D01*
X57144090Y-90823559D01*
X56931890Y-90678569D01*
X56815000Y-90654898D01*
X56815000Y-86637960D01*
X56832992Y-86620000D01*
X59176000Y-86620000D01*
X59176000Y-91607000D01*
X59247173Y-91964809D01*
X59449855Y-92268145D01*
X62330855Y-95149145D01*
X62332135Y-95150000D01*
X40712391Y-95150000D01*
X38982751Y-94805953D01*
X37577804Y-93867197D01*
X37327296Y-93492285D01*
X46366760Y-93492285D01*
X46577169Y-94001515D01*
X46966436Y-94391461D01*
X47475298Y-94602759D01*
X48026285Y-94603240D01*
X48535515Y-94392831D01*
X48925461Y-94003564D01*
X49136759Y-93494702D01*
X49137118Y-93082745D01*
X52551861Y-93082745D01*
X52625995Y-93328864D01*
X53163223Y-93521965D01*
X53733454Y-93494778D01*
X54134005Y-93328864D01*
X54208139Y-93082745D01*
X53380000Y-92254605D01*
X52551861Y-93082745D01*
X49137118Y-93082745D01*
X49137240Y-92943715D01*
X48926831Y-92434485D01*
X48537564Y-92044539D01*
X48088866Y-91858223D01*
X51933035Y-91858223D01*
X51960222Y-92428454D01*
X52126136Y-92829005D01*
X52372255Y-92903139D01*
X53200395Y-92075000D01*
X52372255Y-91246861D01*
X52126136Y-91320995D01*
X51933035Y-91858223D01*
X48088866Y-91858223D01*
X48028702Y-91833241D01*
X47477715Y-91832760D01*
X46968485Y-92043169D01*
X46578539Y-92432436D01*
X46367241Y-92941298D01*
X46366760Y-93492285D01*
X37327296Y-93492285D01*
X36639047Y-92462249D01*
X36397442Y-91247619D01*
X38404613Y-91247619D01*
X38744155Y-92069372D01*
X39372321Y-92698636D01*
X40193481Y-93039611D01*
X41082619Y-93040387D01*
X41904372Y-92700845D01*
X42533636Y-92072679D01*
X42874611Y-91251519D01*
X42874771Y-91067255D01*
X52551861Y-91067255D01*
X53380000Y-91895395D01*
X54208139Y-91067255D01*
X54134005Y-90821136D01*
X53596777Y-90628035D01*
X53026546Y-90655222D01*
X52625995Y-90821136D01*
X52551861Y-91067255D01*
X42874771Y-91067255D01*
X42875387Y-90362381D01*
X42535845Y-89540628D01*
X41907679Y-88911364D01*
X41086519Y-88570389D01*
X40197381Y-88569613D01*
X39375628Y-88909155D01*
X38746364Y-89537321D01*
X38405389Y-90358481D01*
X38404613Y-91247619D01*
X36397442Y-91247619D01*
X36295000Y-90732610D01*
X36295000Y-34575961D01*
X45198096Y-34575961D01*
X45320085Y-34798000D01*
X46863000Y-34798000D01*
X46863000Y-33490000D01*
X47117000Y-33490000D01*
X47117000Y-34798000D01*
X48659915Y-34798000D01*
X48781904Y-34575961D01*
X48764367Y-34493181D01*
X48494500Y-34000104D01*
X48056483Y-33647834D01*
X47517000Y-33490000D01*
X47117000Y-33490000D01*
X46863000Y-33490000D01*
X46463000Y-33490000D01*
X45923517Y-33647834D01*
X45485500Y-34000104D01*
X45215633Y-34493181D01*
X45198096Y-34575961D01*
X36295000Y-34575961D01*
X36295000Y-29017619D01*
X38404613Y-29017619D01*
X38744155Y-29839372D01*
X39372321Y-30468636D01*
X40193481Y-30809611D01*
X41082619Y-30810387D01*
X41904372Y-30470845D01*
X42533636Y-29842679D01*
X42874611Y-29021519D01*
X42875387Y-28132381D01*
X42651590Y-27590750D01*
X51170000Y-27590750D01*
X51170000Y-28331310D01*
X51266673Y-28564699D01*
X51445302Y-28743327D01*
X51678691Y-28840000D01*
X52419250Y-28840000D01*
X52578000Y-28681250D01*
X52578000Y-27432000D01*
X51328750Y-27432000D01*
X51170000Y-27590750D01*
X42651590Y-27590750D01*
X42535845Y-27310628D01*
X41907679Y-26681364D01*
X41086519Y-26340389D01*
X40197381Y-26339613D01*
X39375628Y-26679155D01*
X38746364Y-27307321D01*
X38405389Y-28128481D01*
X38404613Y-29017619D01*
X36295000Y-29017619D01*
X36295000Y-28647390D01*
X36639047Y-26917751D01*
X37066054Y-26278690D01*
X51170000Y-26278690D01*
X51170000Y-27019250D01*
X51328750Y-27178000D01*
X52578000Y-27178000D01*
X52578000Y-25928750D01*
X52832000Y-25928750D01*
X52832000Y-27178000D01*
X52852000Y-27178000D01*
X52852000Y-27432000D01*
X52832000Y-27432000D01*
X52832000Y-28681250D01*
X52990750Y-28840000D01*
X53731309Y-28840000D01*
X53964698Y-28743327D01*
X54143327Y-28564699D01*
X54199119Y-28430006D01*
X54310000Y-28541081D01*
X54310000Y-31432040D01*
X54113902Y-31627796D01*
X53910232Y-32118287D01*
X53909769Y-32649383D01*
X54112582Y-33140229D01*
X54487796Y-33516098D01*
X54978287Y-33719768D01*
X55509383Y-33720231D01*
X56000229Y-33517418D01*
X56376098Y-33142204D01*
X56579768Y-32651713D01*
X56580231Y-32120617D01*
X56377418Y-31629771D01*
X56180000Y-31432008D01*
X56180000Y-28540555D01*
X56545551Y-28175643D01*
X56779733Y-27611670D01*
X56779751Y-27590750D01*
X57520000Y-27590750D01*
X57520000Y-28331310D01*
X57616673Y-28564699D01*
X57795302Y-28743327D01*
X58028691Y-28840000D01*
X58769250Y-28840000D01*
X58928000Y-28681250D01*
X58928000Y-27432000D01*
X57678750Y-27432000D01*
X57520000Y-27590750D01*
X56779751Y-27590750D01*
X56780265Y-27001009D01*
X56547068Y-26436629D01*
X56389405Y-26278690D01*
X57520000Y-26278690D01*
X57520000Y-27019250D01*
X57678750Y-27178000D01*
X58928000Y-27178000D01*
X58928000Y-25928750D01*
X59182000Y-25928750D01*
X59182000Y-27178000D01*
X59202000Y-27178000D01*
X59202000Y-27432000D01*
X59182000Y-27432000D01*
X59182000Y-28681250D01*
X59340750Y-28840000D01*
X60081309Y-28840000D01*
X60314698Y-28743327D01*
X60493327Y-28564699D01*
X60549119Y-28430006D01*
X60660000Y-28541081D01*
X60660000Y-31432040D01*
X60463902Y-31627796D01*
X60260232Y-32118287D01*
X60259769Y-32649383D01*
X60462582Y-33140229D01*
X60837796Y-33516098D01*
X61328287Y-33719768D01*
X61859383Y-33720231D01*
X62350229Y-33517418D01*
X62726098Y-33142204D01*
X62929768Y-32651713D01*
X62930231Y-32120617D01*
X62727418Y-31629771D01*
X62530000Y-31432008D01*
X62530000Y-28540555D01*
X62895551Y-28175643D01*
X63129733Y-27611670D01*
X63129751Y-27590750D01*
X63870000Y-27590750D01*
X63870000Y-28331310D01*
X63966673Y-28564699D01*
X64145302Y-28743327D01*
X64378691Y-28840000D01*
X65119250Y-28840000D01*
X65278000Y-28681250D01*
X65278000Y-27432000D01*
X64028750Y-27432000D01*
X63870000Y-27590750D01*
X63129751Y-27590750D01*
X63130265Y-27001009D01*
X62897068Y-26436629D01*
X62739405Y-26278690D01*
X63870000Y-26278690D01*
X63870000Y-27019250D01*
X64028750Y-27178000D01*
X65278000Y-27178000D01*
X65278000Y-25928750D01*
X65532000Y-25928750D01*
X65532000Y-27178000D01*
X65552000Y-27178000D01*
X65552000Y-27432000D01*
X65532000Y-27432000D01*
X65532000Y-28681250D01*
X65690750Y-28840000D01*
X66431309Y-28840000D01*
X66664698Y-28743327D01*
X66843327Y-28564699D01*
X66899119Y-28430006D01*
X67010000Y-28541081D01*
X67010000Y-31432040D01*
X66813902Y-31627796D01*
X66610232Y-32118287D01*
X66609769Y-32649383D01*
X66812582Y-33140229D01*
X67187796Y-33516098D01*
X67678287Y-33719768D01*
X68209383Y-33720231D01*
X68700229Y-33517418D01*
X69076098Y-33142204D01*
X69279768Y-32651713D01*
X69280231Y-32120617D01*
X69077418Y-31629771D01*
X68880000Y-31432008D01*
X68880000Y-28540555D01*
X69245551Y-28175643D01*
X69479733Y-27611670D01*
X69480265Y-27001009D01*
X69247068Y-26436629D01*
X68815643Y-26004449D01*
X68251670Y-25770267D01*
X67641009Y-25769735D01*
X67076629Y-26002932D01*
X66899159Y-26180092D01*
X66843327Y-26045301D01*
X66664698Y-25866673D01*
X66431309Y-25770000D01*
X65690750Y-25770000D01*
X65532000Y-25928750D01*
X65278000Y-25928750D01*
X65119250Y-25770000D01*
X64378691Y-25770000D01*
X64145302Y-25866673D01*
X63966673Y-26045301D01*
X63870000Y-26278690D01*
X62739405Y-26278690D01*
X62465643Y-26004449D01*
X61901670Y-25770267D01*
X61291009Y-25769735D01*
X60726629Y-26002932D01*
X60549159Y-26180092D01*
X60493327Y-26045301D01*
X60314698Y-25866673D01*
X60081309Y-25770000D01*
X59340750Y-25770000D01*
X59182000Y-25928750D01*
X58928000Y-25928750D01*
X58769250Y-25770000D01*
X58028691Y-25770000D01*
X57795302Y-25866673D01*
X57616673Y-26045301D01*
X57520000Y-26278690D01*
X56389405Y-26278690D01*
X56115643Y-26004449D01*
X55551670Y-25770267D01*
X54941009Y-25769735D01*
X54376629Y-26002932D01*
X54199159Y-26180092D01*
X54143327Y-26045301D01*
X53964698Y-25866673D01*
X53731309Y-25770000D01*
X52990750Y-25770000D01*
X52832000Y-25928750D01*
X52578000Y-25928750D01*
X52419250Y-25770000D01*
X51678691Y-25770000D01*
X51445302Y-25866673D01*
X51266673Y-26045301D01*
X51170000Y-26278690D01*
X37066054Y-26278690D01*
X37577804Y-25512803D01*
X38982751Y-24574047D01*
X40712391Y-24230000D01*
X77089000Y-24230000D01*
X77089000Y-34798000D01*
G36*
X62807856Y-74505146D02*
X62266541Y-74280372D01*
X61417185Y-74279630D01*
X60632200Y-74603980D01*
X60031091Y-75204041D01*
X59705372Y-75988459D01*
X59704630Y-76837815D01*
X60028980Y-77622800D01*
X60629041Y-78223909D01*
X61413459Y-78549628D01*
X62262815Y-78550370D01*
X63047800Y-78226020D01*
X63648909Y-77625959D01*
X63940314Y-76924177D01*
X64228980Y-77622800D01*
X64829041Y-78223909D01*
X65613459Y-78549628D01*
X66462815Y-78550370D01*
X67247800Y-78226020D01*
X67758210Y-77716500D01*
X68407000Y-78365290D01*
X68407000Y-83272000D01*
X68478173Y-83629809D01*
X68680855Y-83933145D01*
X70420011Y-85672301D01*
X70419769Y-85949383D01*
X70622582Y-86440229D01*
X70820000Y-86637992D01*
X70820000Y-90652962D01*
X70719683Y-90671838D01*
X70503559Y-90810910D01*
X70358569Y-91023110D01*
X70307560Y-91275000D01*
X70307560Y-92875000D01*
X70351838Y-93110317D01*
X70490910Y-93326441D01*
X70703110Y-93471431D01*
X70820000Y-93495102D01*
X70820000Y-94361000D01*
X70891173Y-94718809D01*
X71093855Y-95022145D01*
X71221710Y-95150000D01*
X68951187Y-95150000D01*
X69098733Y-94794670D01*
X69099265Y-94184009D01*
X68866068Y-93619629D01*
X68434643Y-93187449D01*
X67870670Y-92953267D01*
X67260009Y-92952735D01*
X66695629Y-93185932D01*
X66327919Y-93553000D01*
X63379290Y-93553000D01*
X61046000Y-91219710D01*
X61046000Y-89637815D01*
X61804630Y-89637815D01*
X62128980Y-90422800D01*
X62729041Y-91023909D01*
X63513459Y-91349628D01*
X64362815Y-91350370D01*
X65147800Y-91026020D01*
X65748909Y-90425959D01*
X66074628Y-89641541D01*
X66075370Y-88792185D01*
X65751020Y-88007200D01*
X65150959Y-87406091D01*
X64366541Y-87080372D01*
X63517185Y-87079630D01*
X62732200Y-87403980D01*
X62131091Y-88004041D01*
X61805372Y-88788459D01*
X61804630Y-89637815D01*
X61046000Y-89637815D01*
X61046000Y-86072290D01*
X62501145Y-84617145D01*
X62703827Y-84313809D01*
X62775000Y-83956000D01*
X62775000Y-83838739D01*
X63047800Y-83726020D01*
X63648909Y-83125959D01*
X63905000Y-82509224D01*
X63905000Y-83541310D01*
X64001673Y-83774699D01*
X64180302Y-83953327D01*
X64413691Y-84050000D01*
X65754250Y-84050000D01*
X65913000Y-83891250D01*
X65913000Y-82042000D01*
X66167000Y-82042000D01*
X66167000Y-83891250D01*
X66325750Y-84050000D01*
X67666309Y-84050000D01*
X67899698Y-83953327D01*
X68078327Y-83774699D01*
X68175000Y-83541310D01*
X68175000Y-82200750D01*
X68016250Y-82042000D01*
X66167000Y-82042000D01*
X65913000Y-82042000D01*
X65893000Y-82042000D01*
X65893000Y-81788000D01*
X65913000Y-81788000D01*
X65913000Y-79938750D01*
X66167000Y-79938750D01*
X66167000Y-81788000D01*
X68016250Y-81788000D01*
X68175000Y-81629250D01*
X68175000Y-80288690D01*
X68078327Y-80055301D01*
X67899698Y-79876673D01*
X67666309Y-79780000D01*
X66325750Y-79780000D01*
X66167000Y-79938750D01*
X65913000Y-79938750D01*
X65754250Y-79780000D01*
X64413691Y-79780000D01*
X64180302Y-79876673D01*
X64001673Y-80055301D01*
X63905000Y-80288690D01*
X63905000Y-81321877D01*
X63651020Y-80707200D01*
X63050959Y-80106091D01*
X62266541Y-79780372D01*
X61417185Y-79779630D01*
X60632200Y-80103980D01*
X60031091Y-80704041D01*
X59705372Y-81488459D01*
X59704630Y-82337815D01*
X60028980Y-83122800D01*
X60629041Y-83723909D01*
X60714369Y-83759341D01*
X59723710Y-84750000D01*
X56832960Y-84750000D01*
X56637204Y-84553902D01*
X56367013Y-84441709D01*
X56573831Y-84356042D01*
X56635669Y-84120275D01*
X55880000Y-83364605D01*
X55124331Y-84120275D01*
X55186169Y-84356042D01*
X55409842Y-84434793D01*
X55124771Y-84552582D01*
X54927008Y-84750000D01*
X45686290Y-84750000D01*
X45385000Y-84448710D01*
X45385000Y-83926271D01*
X45485500Y-84109896D01*
X45923517Y-84462166D01*
X46463000Y-84620000D01*
X46863000Y-84620000D01*
X46863000Y-83312000D01*
X47117000Y-83312000D01*
X47117000Y-84620000D01*
X47517000Y-84620000D01*
X48056483Y-84462166D01*
X48494500Y-84109896D01*
X48764367Y-83616819D01*
X48781904Y-83534039D01*
X48659915Y-83312000D01*
X47117000Y-83312000D01*
X46863000Y-83312000D01*
X46843000Y-83312000D01*
X46843000Y-83058000D01*
X46863000Y-83058000D01*
X46863000Y-83038000D01*
X47117000Y-83038000D01*
X47117000Y-83058000D01*
X48659915Y-83058000D01*
X48696108Y-82992122D01*
X54532581Y-82992122D01*
X54561336Y-83522440D01*
X54708958Y-83878831D01*
X54944725Y-83940669D01*
X55700395Y-83185000D01*
X56059605Y-83185000D01*
X56815275Y-83940669D01*
X57051042Y-83878831D01*
X57227419Y-83377878D01*
X57198664Y-82847560D01*
X57051042Y-82491169D01*
X56815275Y-82429331D01*
X56059605Y-83185000D01*
X55700395Y-83185000D01*
X54944725Y-82429331D01*
X54708958Y-82491169D01*
X54532581Y-82992122D01*
X48696108Y-82992122D01*
X48781904Y-82835961D01*
X48764367Y-82753181D01*
X48494500Y-82260104D01*
X48481595Y-82249725D01*
X55124331Y-82249725D01*
X55880000Y-83005395D01*
X56635669Y-82249725D01*
X56573831Y-82013958D01*
X56072878Y-81837581D01*
X55542560Y-81866336D01*
X55186169Y-82013958D01*
X55124331Y-82249725D01*
X48481595Y-82249725D01*
X48062293Y-81912507D01*
X48440648Y-81659698D01*
X48493901Y-81580000D01*
X50419000Y-81580000D01*
X50776809Y-81508827D01*
X51080145Y-81306145D01*
X58553290Y-73833000D01*
X62135710Y-73833000D01*
X62807856Y-74505146D01*
X62807856Y-74505146D01*
G37*
X62807856Y-74505146D02*
X62266541Y-74280372D01*
X61417185Y-74279630D01*
X60632200Y-74603980D01*
X60031091Y-75204041D01*
X59705372Y-75988459D01*
X59704630Y-76837815D01*
X60028980Y-77622800D01*
X60629041Y-78223909D01*
X61413459Y-78549628D01*
X62262815Y-78550370D01*
X63047800Y-78226020D01*
X63648909Y-77625959D01*
X63940314Y-76924177D01*
X64228980Y-77622800D01*
X64829041Y-78223909D01*
X65613459Y-78549628D01*
X66462815Y-78550370D01*
X67247800Y-78226020D01*
X67758210Y-77716500D01*
X68407000Y-78365290D01*
X68407000Y-83272000D01*
X68478173Y-83629809D01*
X68680855Y-83933145D01*
X70420011Y-85672301D01*
X70419769Y-85949383D01*
X70622582Y-86440229D01*
X70820000Y-86637992D01*
X70820000Y-90652962D01*
X70719683Y-90671838D01*
X70503559Y-90810910D01*
X70358569Y-91023110D01*
X70307560Y-91275000D01*
X70307560Y-92875000D01*
X70351838Y-93110317D01*
X70490910Y-93326441D01*
X70703110Y-93471431D01*
X70820000Y-93495102D01*
X70820000Y-94361000D01*
X70891173Y-94718809D01*
X71093855Y-95022145D01*
X71221710Y-95150000D01*
X68951187Y-95150000D01*
X69098733Y-94794670D01*
X69099265Y-94184009D01*
X68866068Y-93619629D01*
X68434643Y-93187449D01*
X67870670Y-92953267D01*
X67260009Y-92952735D01*
X66695629Y-93185932D01*
X66327919Y-93553000D01*
X63379290Y-93553000D01*
X61046000Y-91219710D01*
X61046000Y-89637815D01*
X61804630Y-89637815D01*
X62128980Y-90422800D01*
X62729041Y-91023909D01*
X63513459Y-91349628D01*
X64362815Y-91350370D01*
X65147800Y-91026020D01*
X65748909Y-90425959D01*
X66074628Y-89641541D01*
X66075370Y-88792185D01*
X65751020Y-88007200D01*
X65150959Y-87406091D01*
X64366541Y-87080372D01*
X63517185Y-87079630D01*
X62732200Y-87403980D01*
X62131091Y-88004041D01*
X61805372Y-88788459D01*
X61804630Y-89637815D01*
X61046000Y-89637815D01*
X61046000Y-86072290D01*
X62501145Y-84617145D01*
X62703827Y-84313809D01*
X62775000Y-83956000D01*
X62775000Y-83838739D01*
X63047800Y-83726020D01*
X63648909Y-83125959D01*
X63905000Y-82509224D01*
X63905000Y-83541310D01*
X64001673Y-83774699D01*
X64180302Y-83953327D01*
X64413691Y-84050000D01*
X65754250Y-84050000D01*
X65913000Y-83891250D01*
X65913000Y-82042000D01*
X66167000Y-82042000D01*
X66167000Y-83891250D01*
X66325750Y-84050000D01*
X67666309Y-84050000D01*
X67899698Y-83953327D01*
X68078327Y-83774699D01*
X68175000Y-83541310D01*
X68175000Y-82200750D01*
X68016250Y-82042000D01*
X66167000Y-82042000D01*
X65913000Y-82042000D01*
X65893000Y-82042000D01*
X65893000Y-81788000D01*
X65913000Y-81788000D01*
X65913000Y-79938750D01*
X66167000Y-79938750D01*
X66167000Y-81788000D01*
X68016250Y-81788000D01*
X68175000Y-81629250D01*
X68175000Y-80288690D01*
X68078327Y-80055301D01*
X67899698Y-79876673D01*
X67666309Y-79780000D01*
X66325750Y-79780000D01*
X66167000Y-79938750D01*
X65913000Y-79938750D01*
X65754250Y-79780000D01*
X64413691Y-79780000D01*
X64180302Y-79876673D01*
X64001673Y-80055301D01*
X63905000Y-80288690D01*
X63905000Y-81321877D01*
X63651020Y-80707200D01*
X63050959Y-80106091D01*
X62266541Y-79780372D01*
X61417185Y-79779630D01*
X60632200Y-80103980D01*
X60031091Y-80704041D01*
X59705372Y-81488459D01*
X59704630Y-82337815D01*
X60028980Y-83122800D01*
X60629041Y-83723909D01*
X60714369Y-83759341D01*
X59723710Y-84750000D01*
X56832960Y-84750000D01*
X56637204Y-84553902D01*
X56367013Y-84441709D01*
X56573831Y-84356042D01*
X56635669Y-84120275D01*
X55880000Y-83364605D01*
X55124331Y-84120275D01*
X55186169Y-84356042D01*
X55409842Y-84434793D01*
X55124771Y-84552582D01*
X54927008Y-84750000D01*
X45686290Y-84750000D01*
X45385000Y-84448710D01*
X45385000Y-83926271D01*
X45485500Y-84109896D01*
X45923517Y-84462166D01*
X46463000Y-84620000D01*
X46863000Y-84620000D01*
X46863000Y-83312000D01*
X47117000Y-83312000D01*
X47117000Y-84620000D01*
X47517000Y-84620000D01*
X48056483Y-84462166D01*
X48494500Y-84109896D01*
X48764367Y-83616819D01*
X48781904Y-83534039D01*
X48659915Y-83312000D01*
X47117000Y-83312000D01*
X46863000Y-83312000D01*
X46843000Y-83312000D01*
X46843000Y-83058000D01*
X46863000Y-83058000D01*
X46863000Y-83038000D01*
X47117000Y-83038000D01*
X47117000Y-83058000D01*
X48659915Y-83058000D01*
X48696108Y-82992122D01*
X54532581Y-82992122D01*
X54561336Y-83522440D01*
X54708958Y-83878831D01*
X54944725Y-83940669D01*
X55700395Y-83185000D01*
X56059605Y-83185000D01*
X56815275Y-83940669D01*
X57051042Y-83878831D01*
X57227419Y-83377878D01*
X57198664Y-82847560D01*
X57051042Y-82491169D01*
X56815275Y-82429331D01*
X56059605Y-83185000D01*
X55700395Y-83185000D01*
X54944725Y-82429331D01*
X54708958Y-82491169D01*
X54532581Y-82992122D01*
X48696108Y-82992122D01*
X48781904Y-82835961D01*
X48764367Y-82753181D01*
X48494500Y-82260104D01*
X48481595Y-82249725D01*
X55124331Y-82249725D01*
X55880000Y-83005395D01*
X56635669Y-82249725D01*
X56573831Y-82013958D01*
X56072878Y-81837581D01*
X55542560Y-81866336D01*
X55186169Y-82013958D01*
X55124331Y-82249725D01*
X48481595Y-82249725D01*
X48062293Y-81912507D01*
X48440648Y-81659698D01*
X48493901Y-81580000D01*
X50419000Y-81580000D01*
X50776809Y-81508827D01*
X51080145Y-81306145D01*
X58553290Y-73833000D01*
X62135710Y-73833000D01*
X62807856Y-74505146D01*
G36*
X84201000Y-92583000D02*
X84221000Y-92583000D01*
X84221000Y-92837000D01*
X84201000Y-92837000D01*
X84201000Y-94030155D01*
X84430890Y-94151476D01*
X84840924Y-93981645D01*
X85269183Y-93591358D01*
X85336298Y-93448447D01*
X85563946Y-93789147D01*
X85679000Y-93866023D01*
X85679000Y-94315000D01*
X81759290Y-94315000D01*
X81928710Y-94145580D01*
X82102285Y-94111054D01*
X82584054Y-93789147D01*
X82811702Y-93448447D01*
X82878817Y-93591358D01*
X83307076Y-93981645D01*
X83717110Y-94151476D01*
X83947000Y-94030155D01*
X83947000Y-92837000D01*
X83927000Y-92837000D01*
X83927000Y-92583000D01*
X83947000Y-92583000D01*
X83947000Y-92563000D01*
X84201000Y-92563000D01*
X84201000Y-92583000D01*
X84201000Y-92583000D01*
G37*
X84201000Y-92583000D02*
X84221000Y-92583000D01*
X84221000Y-92837000D01*
X84201000Y-92837000D01*
X84201000Y-94030155D01*
X84430890Y-94151476D01*
X84840924Y-93981645D01*
X85269183Y-93591358D01*
X85336298Y-93448447D01*
X85563946Y-93789147D01*
X85679000Y-93866023D01*
X85679000Y-94315000D01*
X81759290Y-94315000D01*
X81928710Y-94145580D01*
X82102285Y-94111054D01*
X82584054Y-93789147D01*
X82811702Y-93448447D01*
X82878817Y-93591358D01*
X83307076Y-93981645D01*
X83717110Y-94151476D01*
X83947000Y-94030155D01*
X83947000Y-92837000D01*
X83927000Y-92837000D01*
X83927000Y-92583000D01*
X83947000Y-92583000D01*
X83947000Y-92563000D01*
X84201000Y-92563000D01*
X84201000Y-92583000D01*
G36*
X64775234Y-61630877D02*
X64764090Y-61613559D01*
X64551890Y-61468569D01*
X64300000Y-61417560D01*
X62700000Y-61417560D01*
X62464683Y-61461838D01*
X62248559Y-61600910D01*
X62103569Y-61813110D01*
X62055354Y-62051201D01*
X62007745Y-62036861D01*
X61179605Y-62865000D01*
X62007745Y-63693139D01*
X62055167Y-63678855D01*
X62096838Y-63900317D01*
X62235910Y-64116441D01*
X62448110Y-64261431D01*
X62700000Y-64312440D01*
X64300000Y-64312440D01*
X64535317Y-64268162D01*
X64751441Y-64129090D01*
X64896431Y-63916890D01*
X64947440Y-63665000D01*
X64947440Y-62736692D01*
X64991932Y-62844371D01*
X65359000Y-63212081D01*
X65359000Y-70104000D01*
X65430173Y-70461809D01*
X65632855Y-70765145D01*
X74249000Y-79381290D01*
X74249000Y-88392000D01*
X74320173Y-88749809D01*
X74522855Y-89053145D01*
X75265000Y-89795290D01*
X75265000Y-91019364D01*
X75198014Y-90952378D01*
X75083139Y-91067253D01*
X75009005Y-90821136D01*
X74471777Y-90628035D01*
X73901546Y-90655222D01*
X73500995Y-90821136D01*
X73426861Y-91067255D01*
X74255000Y-91895395D01*
X74269142Y-91881252D01*
X74448748Y-92060858D01*
X74434605Y-92075000D01*
X75262745Y-92903139D01*
X75373559Y-92869761D01*
X75538855Y-93117145D01*
X76736710Y-94315000D01*
X73031290Y-94315000D01*
X72690000Y-93973710D01*
X72690000Y-93497038D01*
X72790317Y-93478162D01*
X73006441Y-93339090D01*
X73151431Y-93126890D01*
X73160370Y-93082745D01*
X73426861Y-93082745D01*
X73500995Y-93328864D01*
X74038223Y-93521965D01*
X74608454Y-93494778D01*
X75009005Y-93328864D01*
X75083139Y-93082745D01*
X74255000Y-92254605D01*
X73426861Y-93082745D01*
X73160370Y-93082745D01*
X73199646Y-92888799D01*
X73247255Y-92903139D01*
X74075395Y-92075000D01*
X73247255Y-91246861D01*
X73199833Y-91261145D01*
X73158162Y-91039683D01*
X73019090Y-90823559D01*
X72806890Y-90678569D01*
X72690000Y-90654898D01*
X72690000Y-86637960D01*
X72886098Y-86442204D01*
X73089768Y-85951713D01*
X73090231Y-85420617D01*
X72887418Y-84929771D01*
X72512204Y-84553902D01*
X72242013Y-84441709D01*
X72448831Y-84356042D01*
X72510669Y-84120275D01*
X71755000Y-83364605D01*
X71740858Y-83378748D01*
X71561252Y-83199142D01*
X71575395Y-83185000D01*
X71934605Y-83185000D01*
X72690275Y-83940669D01*
X72926042Y-83878831D01*
X73102419Y-83377878D01*
X73073664Y-82847560D01*
X72926042Y-82491169D01*
X72690275Y-82429331D01*
X71934605Y-83185000D01*
X71575395Y-83185000D01*
X70819725Y-82429331D01*
X70583958Y-82491169D01*
X70407581Y-82992122D01*
X70408909Y-83016619D01*
X70277000Y-82884710D01*
X70277000Y-82249725D01*
X70999331Y-82249725D01*
X71755000Y-83005395D01*
X72510669Y-82249725D01*
X72448831Y-82013958D01*
X71947878Y-81837581D01*
X71417560Y-81866336D01*
X71061169Y-82013958D01*
X70999331Y-82249725D01*
X70277000Y-82249725D01*
X70277000Y-77978000D01*
X70205827Y-77620191D01*
X70003145Y-77316855D01*
X68440145Y-75753855D01*
X68136809Y-75551173D01*
X67980282Y-75520038D01*
X67851020Y-75207200D01*
X67250959Y-74606091D01*
X66466541Y-74280372D01*
X65617185Y-74279630D01*
X65341027Y-74393737D01*
X63184145Y-72236855D01*
X62880809Y-72034173D01*
X62523000Y-71963000D01*
X58166000Y-71963000D01*
X57808191Y-72034173D01*
X57504855Y-72236855D01*
X50031710Y-79710000D01*
X48493901Y-79710000D01*
X48440648Y-79630302D01*
X48058562Y-79375000D01*
X48440648Y-79119698D01*
X48751717Y-78654151D01*
X48860950Y-78105000D01*
X48751717Y-77555849D01*
X48440648Y-77090302D01*
X48058562Y-76835000D01*
X48440648Y-76579698D01*
X48493901Y-76500000D01*
X48895000Y-76500000D01*
X49252809Y-76428827D01*
X49556145Y-76226145D01*
X52477145Y-73305145D01*
X52679827Y-73001809D01*
X52751000Y-72644000D01*
X52751000Y-68967290D01*
X57216966Y-64501324D01*
X57371932Y-64876371D01*
X57739000Y-65244081D01*
X57739000Y-65278000D01*
X57810173Y-65635809D01*
X58012855Y-65939145D01*
X58663185Y-66589475D01*
X58662735Y-67105991D01*
X58895932Y-67670371D01*
X59327357Y-68102551D01*
X59891330Y-68336733D01*
X60501991Y-68337265D01*
X61066371Y-68104068D01*
X61498551Y-67672643D01*
X61732733Y-67108670D01*
X61733265Y-66498009D01*
X61500068Y-65933629D01*
X61068643Y-65501449D01*
X60504670Y-65267267D01*
X59985104Y-65266814D01*
X59785577Y-65067287D01*
X59974551Y-64878643D01*
X60208733Y-64314670D01*
X60209011Y-63996079D01*
X60245995Y-64118864D01*
X60783223Y-64311965D01*
X61353454Y-64284778D01*
X61754005Y-64118864D01*
X61828139Y-63872745D01*
X61000000Y-63044605D01*
X60985858Y-63058748D01*
X60806252Y-62879142D01*
X60820395Y-62865000D01*
X59992255Y-62036861D01*
X59746136Y-62110995D01*
X59553035Y-62648223D01*
X59556421Y-62719248D01*
X59544643Y-62707449D01*
X59167461Y-62550829D01*
X59861035Y-61857255D01*
X60171861Y-61857255D01*
X61000000Y-62685395D01*
X61828139Y-61857255D01*
X61754005Y-61611136D01*
X61216777Y-61418035D01*
X60646546Y-61445222D01*
X60245995Y-61611136D01*
X60171861Y-61857255D01*
X59861035Y-61857255D01*
X60585290Y-61133000D01*
X64981971Y-61133000D01*
X64775234Y-61630877D01*
X64775234Y-61630877D01*
G37*
X64775234Y-61630877D02*
X64764090Y-61613559D01*
X64551890Y-61468569D01*
X64300000Y-61417560D01*
X62700000Y-61417560D01*
X62464683Y-61461838D01*
X62248559Y-61600910D01*
X62103569Y-61813110D01*
X62055354Y-62051201D01*
X62007745Y-62036861D01*
X61179605Y-62865000D01*
X62007745Y-63693139D01*
X62055167Y-63678855D01*
X62096838Y-63900317D01*
X62235910Y-64116441D01*
X62448110Y-64261431D01*
X62700000Y-64312440D01*
X64300000Y-64312440D01*
X64535317Y-64268162D01*
X64751441Y-64129090D01*
X64896431Y-63916890D01*
X64947440Y-63665000D01*
X64947440Y-62736692D01*
X64991932Y-62844371D01*
X65359000Y-63212081D01*
X65359000Y-70104000D01*
X65430173Y-70461809D01*
X65632855Y-70765145D01*
X74249000Y-79381290D01*
X74249000Y-88392000D01*
X74320173Y-88749809D01*
X74522855Y-89053145D01*
X75265000Y-89795290D01*
X75265000Y-91019364D01*
X75198014Y-90952378D01*
X75083139Y-91067253D01*
X75009005Y-90821136D01*
X74471777Y-90628035D01*
X73901546Y-90655222D01*
X73500995Y-90821136D01*
X73426861Y-91067255D01*
X74255000Y-91895395D01*
X74269142Y-91881252D01*
X74448748Y-92060858D01*
X74434605Y-92075000D01*
X75262745Y-92903139D01*
X75373559Y-92869761D01*
X75538855Y-93117145D01*
X76736710Y-94315000D01*
X73031290Y-94315000D01*
X72690000Y-93973710D01*
X72690000Y-93497038D01*
X72790317Y-93478162D01*
X73006441Y-93339090D01*
X73151431Y-93126890D01*
X73160370Y-93082745D01*
X73426861Y-93082745D01*
X73500995Y-93328864D01*
X74038223Y-93521965D01*
X74608454Y-93494778D01*
X75009005Y-93328864D01*
X75083139Y-93082745D01*
X74255000Y-92254605D01*
X73426861Y-93082745D01*
X73160370Y-93082745D01*
X73199646Y-92888799D01*
X73247255Y-92903139D01*
X74075395Y-92075000D01*
X73247255Y-91246861D01*
X73199833Y-91261145D01*
X73158162Y-91039683D01*
X73019090Y-90823559D01*
X72806890Y-90678569D01*
X72690000Y-90654898D01*
X72690000Y-86637960D01*
X72886098Y-86442204D01*
X73089768Y-85951713D01*
X73090231Y-85420617D01*
X72887418Y-84929771D01*
X72512204Y-84553902D01*
X72242013Y-84441709D01*
X72448831Y-84356042D01*
X72510669Y-84120275D01*
X71755000Y-83364605D01*
X71740858Y-83378748D01*
X71561252Y-83199142D01*
X71575395Y-83185000D01*
X71934605Y-83185000D01*
X72690275Y-83940669D01*
X72926042Y-83878831D01*
X73102419Y-83377878D01*
X73073664Y-82847560D01*
X72926042Y-82491169D01*
X72690275Y-82429331D01*
X71934605Y-83185000D01*
X71575395Y-83185000D01*
X70819725Y-82429331D01*
X70583958Y-82491169D01*
X70407581Y-82992122D01*
X70408909Y-83016619D01*
X70277000Y-82884710D01*
X70277000Y-82249725D01*
X70999331Y-82249725D01*
X71755000Y-83005395D01*
X72510669Y-82249725D01*
X72448831Y-82013958D01*
X71947878Y-81837581D01*
X71417560Y-81866336D01*
X71061169Y-82013958D01*
X70999331Y-82249725D01*
X70277000Y-82249725D01*
X70277000Y-77978000D01*
X70205827Y-77620191D01*
X70003145Y-77316855D01*
X68440145Y-75753855D01*
X68136809Y-75551173D01*
X67980282Y-75520038D01*
X67851020Y-75207200D01*
X67250959Y-74606091D01*
X66466541Y-74280372D01*
X65617185Y-74279630D01*
X65341027Y-74393737D01*
X63184145Y-72236855D01*
X62880809Y-72034173D01*
X62523000Y-71963000D01*
X58166000Y-71963000D01*
X57808191Y-72034173D01*
X57504855Y-72236855D01*
X50031710Y-79710000D01*
X48493901Y-79710000D01*
X48440648Y-79630302D01*
X48058562Y-79375000D01*
X48440648Y-79119698D01*
X48751717Y-78654151D01*
X48860950Y-78105000D01*
X48751717Y-77555849D01*
X48440648Y-77090302D01*
X48058562Y-76835000D01*
X48440648Y-76579698D01*
X48493901Y-76500000D01*
X48895000Y-76500000D01*
X49252809Y-76428827D01*
X49556145Y-76226145D01*
X52477145Y-73305145D01*
X52679827Y-73001809D01*
X52751000Y-72644000D01*
X52751000Y-68967290D01*
X57216966Y-64501324D01*
X57371932Y-64876371D01*
X57739000Y-65244081D01*
X57739000Y-65278000D01*
X57810173Y-65635809D01*
X58012855Y-65939145D01*
X58663185Y-66589475D01*
X58662735Y-67105991D01*
X58895932Y-67670371D01*
X59327357Y-68102551D01*
X59891330Y-68336733D01*
X60501991Y-68337265D01*
X61066371Y-68104068D01*
X61498551Y-67672643D01*
X61732733Y-67108670D01*
X61733265Y-66498009D01*
X61500068Y-65933629D01*
X61068643Y-65501449D01*
X60504670Y-65267267D01*
X59985104Y-65266814D01*
X59785577Y-65067287D01*
X59974551Y-64878643D01*
X60208733Y-64314670D01*
X60209011Y-63996079D01*
X60245995Y-64118864D01*
X60783223Y-64311965D01*
X61353454Y-64284778D01*
X61754005Y-64118864D01*
X61828139Y-63872745D01*
X61000000Y-63044605D01*
X60985858Y-63058748D01*
X60806252Y-62879142D01*
X60820395Y-62865000D01*
X59992255Y-62036861D01*
X59746136Y-62110995D01*
X59553035Y-62648223D01*
X59556421Y-62719248D01*
X59544643Y-62707449D01*
X59167461Y-62550829D01*
X59861035Y-61857255D01*
X60171861Y-61857255D01*
X61000000Y-62685395D01*
X61828139Y-61857255D01*
X61754005Y-61611136D01*
X61216777Y-61418035D01*
X60646546Y-61445222D01*
X60245995Y-61611136D01*
X60171861Y-61857255D01*
X59861035Y-61857255D01*
X60585290Y-61133000D01*
X64981971Y-61133000D01*
X64775234Y-61630877D01*
G36*
X74389932Y-52430371D02*
X74821357Y-52862551D01*
X75385330Y-53096733D01*
X75995991Y-53097265D01*
X76560371Y-52864068D01*
X76928081Y-52497000D01*
X82416710Y-52497000D01*
X83520000Y-53600290D01*
X83520000Y-58547000D01*
X83591173Y-58904809D01*
X83793855Y-59208145D01*
X87203000Y-62617290D01*
X87203000Y-64219971D01*
X86666670Y-63997267D01*
X86056009Y-63996735D01*
X85491629Y-64229932D01*
X85059449Y-64661357D01*
X84825267Y-65225330D01*
X84824814Y-65744896D01*
X83158855Y-67410855D01*
X82956173Y-67714191D01*
X82885000Y-68072000D01*
X82885000Y-70185000D01*
X78197555Y-70185000D01*
X77832643Y-69819449D01*
X77268670Y-69585267D01*
X76658009Y-69584735D01*
X76093629Y-69817932D01*
X75661449Y-70249357D01*
X75427267Y-70813330D01*
X75426735Y-71423991D01*
X75659932Y-71988371D01*
X76091357Y-72420551D01*
X76655330Y-72654733D01*
X76844368Y-72654898D01*
X76643232Y-73139287D01*
X76642769Y-73670383D01*
X76845582Y-74161229D01*
X77220796Y-74537098D01*
X77711287Y-74740768D01*
X78242383Y-74741231D01*
X78733229Y-74538418D01*
X79109098Y-74163204D01*
X79312768Y-73672713D01*
X79313231Y-73141617D01*
X79110418Y-72650771D01*
X78735204Y-72274902D01*
X78244713Y-72071232D01*
X78181876Y-72071177D01*
X78198081Y-72055000D01*
X83432710Y-72055000D01*
X84327577Y-72949867D01*
X84236846Y-73406000D01*
X84243294Y-73438416D01*
X81659150Y-76022560D01*
X80480000Y-76022560D01*
X80244683Y-76066838D01*
X80028559Y-76205910D01*
X79883569Y-76418110D01*
X79835354Y-76656201D01*
X79787745Y-76641861D01*
X78959605Y-77470000D01*
X79787745Y-78298139D01*
X79835167Y-78283855D01*
X79876838Y-78505317D01*
X80015910Y-78721441D01*
X80228110Y-78866431D01*
X80345000Y-78890102D01*
X80345000Y-82105040D01*
X80148902Y-82300796D01*
X80036709Y-82570987D01*
X79951042Y-82364169D01*
X79715275Y-82302331D01*
X78959605Y-83058000D01*
X79715275Y-83813669D01*
X79951042Y-83751831D01*
X80029793Y-83528158D01*
X80147582Y-83813229D01*
X80522796Y-84189098D01*
X81013287Y-84392768D01*
X81038500Y-84392790D01*
X84682855Y-88037145D01*
X84986191Y-88239827D01*
X85344000Y-88311000D01*
X89528710Y-88311000D01*
X89890270Y-88672560D01*
X88304000Y-88672560D01*
X88068683Y-88716838D01*
X87852559Y-88855910D01*
X87707569Y-89068110D01*
X87693914Y-89135541D01*
X87664054Y-89090853D01*
X87182285Y-88768946D01*
X86614000Y-88655907D01*
X86045715Y-88768946D01*
X85563946Y-89090853D01*
X85344000Y-89420026D01*
X85124054Y-89090853D01*
X84642285Y-88768946D01*
X84074000Y-88655907D01*
X83505715Y-88768946D01*
X83023946Y-89090853D01*
X82804000Y-89420026D01*
X82584054Y-89090853D01*
X82102285Y-88768946D01*
X81534000Y-88655907D01*
X80965715Y-88768946D01*
X80483946Y-89090853D01*
X80264000Y-89420026D01*
X80044054Y-89090853D01*
X79562285Y-88768946D01*
X78994000Y-88655907D01*
X78425715Y-88768946D01*
X78250021Y-88886341D01*
X78206827Y-88669191D01*
X78004145Y-88365855D01*
X77389000Y-87750710D01*
X77389000Y-83993275D01*
X78024331Y-83993275D01*
X78086169Y-84229042D01*
X78587122Y-84405419D01*
X79117440Y-84376664D01*
X79473831Y-84229042D01*
X79535669Y-83993275D01*
X78780000Y-83237605D01*
X78024331Y-83993275D01*
X77389000Y-83993275D01*
X77389000Y-82865122D01*
X77432581Y-82865122D01*
X77461336Y-83395440D01*
X77608958Y-83751831D01*
X77844725Y-83813669D01*
X78600395Y-83058000D01*
X77844725Y-82302331D01*
X77608958Y-82364169D01*
X77432581Y-82865122D01*
X77389000Y-82865122D01*
X77389000Y-82122725D01*
X78024331Y-82122725D01*
X78780000Y-82878395D01*
X79535669Y-82122725D01*
X79473831Y-81886958D01*
X78972878Y-81710581D01*
X78442560Y-81739336D01*
X78086169Y-81886958D01*
X78024331Y-82122725D01*
X77389000Y-82122725D01*
X77389000Y-78486000D01*
X77387358Y-78477745D01*
X77951861Y-78477745D01*
X78025995Y-78723864D01*
X78563223Y-78916965D01*
X79133454Y-78889778D01*
X79534005Y-78723864D01*
X79608139Y-78477745D01*
X78780000Y-77649605D01*
X77951861Y-78477745D01*
X77387358Y-78477745D01*
X77317827Y-78128191D01*
X77115145Y-77824855D01*
X76543513Y-77253223D01*
X77333035Y-77253223D01*
X77360222Y-77823454D01*
X77526136Y-78224005D01*
X77772255Y-78298139D01*
X78600395Y-77470000D01*
X77772255Y-76641861D01*
X77526136Y-76715995D01*
X77333035Y-77253223D01*
X76543513Y-77253223D01*
X75752545Y-76462255D01*
X77951861Y-76462255D01*
X78780000Y-77290395D01*
X79608139Y-76462255D01*
X79534005Y-76216136D01*
X78996777Y-76023035D01*
X78426546Y-76050222D01*
X78025995Y-76216136D01*
X77951861Y-76462255D01*
X75752545Y-76462255D01*
X68753000Y-69462710D01*
X68753000Y-64989555D01*
X69118551Y-64624643D01*
X69352733Y-64060670D01*
X69353265Y-63450009D01*
X69120068Y-62885629D01*
X68688643Y-62453449D01*
X68124670Y-62219267D01*
X67828788Y-62219009D01*
X67829265Y-61672009D01*
X67606551Y-61133000D01*
X71748710Y-61133000D01*
X73506855Y-62891145D01*
X73810191Y-63093827D01*
X74168000Y-63165000D01*
X75173070Y-63165000D01*
X75172735Y-63549991D01*
X75405932Y-64114371D01*
X75837357Y-64546551D01*
X76401330Y-64780733D01*
X77011991Y-64781265D01*
X77576371Y-64548068D01*
X77944081Y-64181000D01*
X79756000Y-64181000D01*
X80113809Y-64109827D01*
X80417145Y-63907145D01*
X82195145Y-62129145D01*
X82397827Y-61825809D01*
X82469000Y-61468000D01*
X82469000Y-59944000D01*
X82397827Y-59586191D01*
X82195145Y-59282855D01*
X81773324Y-58861034D01*
X82148371Y-58706068D01*
X82580551Y-58274643D01*
X82814733Y-57710670D01*
X82815265Y-57100009D01*
X82582068Y-56535629D01*
X82150643Y-56103449D01*
X81586670Y-55869267D01*
X81067104Y-55868814D01*
X79655145Y-54456855D01*
X79351809Y-54254173D01*
X78994000Y-54183000D01*
X73139946Y-54183000D01*
X73258371Y-54134068D01*
X73690551Y-53702643D01*
X73924733Y-53138670D01*
X73925265Y-52528009D01*
X73803346Y-52232944D01*
X74160701Y-51875589D01*
X74389932Y-52430371D01*
X74389932Y-52430371D01*
G37*
X74389932Y-52430371D02*
X74821357Y-52862551D01*
X75385330Y-53096733D01*
X75995991Y-53097265D01*
X76560371Y-52864068D01*
X76928081Y-52497000D01*
X82416710Y-52497000D01*
X83520000Y-53600290D01*
X83520000Y-58547000D01*
X83591173Y-58904809D01*
X83793855Y-59208145D01*
X87203000Y-62617290D01*
X87203000Y-64219971D01*
X86666670Y-63997267D01*
X86056009Y-63996735D01*
X85491629Y-64229932D01*
X85059449Y-64661357D01*
X84825267Y-65225330D01*
X84824814Y-65744896D01*
X83158855Y-67410855D01*
X82956173Y-67714191D01*
X82885000Y-68072000D01*
X82885000Y-70185000D01*
X78197555Y-70185000D01*
X77832643Y-69819449D01*
X77268670Y-69585267D01*
X76658009Y-69584735D01*
X76093629Y-69817932D01*
X75661449Y-70249357D01*
X75427267Y-70813330D01*
X75426735Y-71423991D01*
X75659932Y-71988371D01*
X76091357Y-72420551D01*
X76655330Y-72654733D01*
X76844368Y-72654898D01*
X76643232Y-73139287D01*
X76642769Y-73670383D01*
X76845582Y-74161229D01*
X77220796Y-74537098D01*
X77711287Y-74740768D01*
X78242383Y-74741231D01*
X78733229Y-74538418D01*
X79109098Y-74163204D01*
X79312768Y-73672713D01*
X79313231Y-73141617D01*
X79110418Y-72650771D01*
X78735204Y-72274902D01*
X78244713Y-72071232D01*
X78181876Y-72071177D01*
X78198081Y-72055000D01*
X83432710Y-72055000D01*
X84327577Y-72949867D01*
X84236846Y-73406000D01*
X84243294Y-73438416D01*
X81659150Y-76022560D01*
X80480000Y-76022560D01*
X80244683Y-76066838D01*
X80028559Y-76205910D01*
X79883569Y-76418110D01*
X79835354Y-76656201D01*
X79787745Y-76641861D01*
X78959605Y-77470000D01*
X79787745Y-78298139D01*
X79835167Y-78283855D01*
X79876838Y-78505317D01*
X80015910Y-78721441D01*
X80228110Y-78866431D01*
X80345000Y-78890102D01*
X80345000Y-82105040D01*
X80148902Y-82300796D01*
X80036709Y-82570987D01*
X79951042Y-82364169D01*
X79715275Y-82302331D01*
X78959605Y-83058000D01*
X79715275Y-83813669D01*
X79951042Y-83751831D01*
X80029793Y-83528158D01*
X80147582Y-83813229D01*
X80522796Y-84189098D01*
X81013287Y-84392768D01*
X81038500Y-84392790D01*
X84682855Y-88037145D01*
X84986191Y-88239827D01*
X85344000Y-88311000D01*
X89528710Y-88311000D01*
X89890270Y-88672560D01*
X88304000Y-88672560D01*
X88068683Y-88716838D01*
X87852559Y-88855910D01*
X87707569Y-89068110D01*
X87693914Y-89135541D01*
X87664054Y-89090853D01*
X87182285Y-88768946D01*
X86614000Y-88655907D01*
X86045715Y-88768946D01*
X85563946Y-89090853D01*
X85344000Y-89420026D01*
X85124054Y-89090853D01*
X84642285Y-88768946D01*
X84074000Y-88655907D01*
X83505715Y-88768946D01*
X83023946Y-89090853D01*
X82804000Y-89420026D01*
X82584054Y-89090853D01*
X82102285Y-88768946D01*
X81534000Y-88655907D01*
X80965715Y-88768946D01*
X80483946Y-89090853D01*
X80264000Y-89420026D01*
X80044054Y-89090853D01*
X79562285Y-88768946D01*
X78994000Y-88655907D01*
X78425715Y-88768946D01*
X78250021Y-88886341D01*
X78206827Y-88669191D01*
X78004145Y-88365855D01*
X77389000Y-87750710D01*
X77389000Y-83993275D01*
X78024331Y-83993275D01*
X78086169Y-84229042D01*
X78587122Y-84405419D01*
X79117440Y-84376664D01*
X79473831Y-84229042D01*
X79535669Y-83993275D01*
X78780000Y-83237605D01*
X78024331Y-83993275D01*
X77389000Y-83993275D01*
X77389000Y-82865122D01*
X77432581Y-82865122D01*
X77461336Y-83395440D01*
X77608958Y-83751831D01*
X77844725Y-83813669D01*
X78600395Y-83058000D01*
X77844725Y-82302331D01*
X77608958Y-82364169D01*
X77432581Y-82865122D01*
X77389000Y-82865122D01*
X77389000Y-82122725D01*
X78024331Y-82122725D01*
X78780000Y-82878395D01*
X79535669Y-82122725D01*
X79473831Y-81886958D01*
X78972878Y-81710581D01*
X78442560Y-81739336D01*
X78086169Y-81886958D01*
X78024331Y-82122725D01*
X77389000Y-82122725D01*
X77389000Y-78486000D01*
X77387358Y-78477745D01*
X77951861Y-78477745D01*
X78025995Y-78723864D01*
X78563223Y-78916965D01*
X79133454Y-78889778D01*
X79534005Y-78723864D01*
X79608139Y-78477745D01*
X78780000Y-77649605D01*
X77951861Y-78477745D01*
X77387358Y-78477745D01*
X77317827Y-78128191D01*
X77115145Y-77824855D01*
X76543513Y-77253223D01*
X77333035Y-77253223D01*
X77360222Y-77823454D01*
X77526136Y-78224005D01*
X77772255Y-78298139D01*
X78600395Y-77470000D01*
X77772255Y-76641861D01*
X77526136Y-76715995D01*
X77333035Y-77253223D01*
X76543513Y-77253223D01*
X75752545Y-76462255D01*
X77951861Y-76462255D01*
X78780000Y-77290395D01*
X79608139Y-76462255D01*
X79534005Y-76216136D01*
X78996777Y-76023035D01*
X78426546Y-76050222D01*
X78025995Y-76216136D01*
X77951861Y-76462255D01*
X75752545Y-76462255D01*
X68753000Y-69462710D01*
X68753000Y-64989555D01*
X69118551Y-64624643D01*
X69352733Y-64060670D01*
X69353265Y-63450009D01*
X69120068Y-62885629D01*
X68688643Y-62453449D01*
X68124670Y-62219267D01*
X67828788Y-62219009D01*
X67829265Y-61672009D01*
X67606551Y-61133000D01*
X71748710Y-61133000D01*
X73506855Y-62891145D01*
X73810191Y-63093827D01*
X74168000Y-63165000D01*
X75173070Y-63165000D01*
X75172735Y-63549991D01*
X75405932Y-64114371D01*
X75837357Y-64546551D01*
X76401330Y-64780733D01*
X77011991Y-64781265D01*
X77576371Y-64548068D01*
X77944081Y-64181000D01*
X79756000Y-64181000D01*
X80113809Y-64109827D01*
X80417145Y-63907145D01*
X82195145Y-62129145D01*
X82397827Y-61825809D01*
X82469000Y-61468000D01*
X82469000Y-59944000D01*
X82397827Y-59586191D01*
X82195145Y-59282855D01*
X81773324Y-58861034D01*
X82148371Y-58706068D01*
X82580551Y-58274643D01*
X82814733Y-57710670D01*
X82815265Y-57100009D01*
X82582068Y-56535629D01*
X82150643Y-56103449D01*
X81586670Y-55869267D01*
X81067104Y-55868814D01*
X79655145Y-54456855D01*
X79351809Y-54254173D01*
X78994000Y-54183000D01*
X73139946Y-54183000D01*
X73258371Y-54134068D01*
X73690551Y-53702643D01*
X73924733Y-53138670D01*
X73925265Y-52528009D01*
X73803346Y-52232944D01*
X74160701Y-51875589D01*
X74389932Y-52430371D01*
G36*
X63528710Y-56469000D02*
X59182000Y-56469000D01*
X58824191Y-56540173D01*
X58520855Y-56742855D01*
X48376362Y-66887348D01*
X48058562Y-66675000D01*
X48440648Y-66419698D01*
X48751717Y-65954151D01*
X48860950Y-65405000D01*
X48751717Y-64855849D01*
X48440648Y-64390302D01*
X48058562Y-64135000D01*
X48440648Y-63879698D01*
X48751717Y-63414151D01*
X48860950Y-62865000D01*
X48751717Y-62315849D01*
X48440648Y-61850302D01*
X48062293Y-61597493D01*
X48494500Y-61249896D01*
X48764367Y-60756819D01*
X48781904Y-60674039D01*
X48659915Y-60452000D01*
X47117000Y-60452000D01*
X47117000Y-60472000D01*
X46863000Y-60472000D01*
X46863000Y-60452000D01*
X46843000Y-60452000D01*
X46843000Y-60198000D01*
X46863000Y-60198000D01*
X46863000Y-60178000D01*
X47117000Y-60178000D01*
X47117000Y-60198000D01*
X48659915Y-60198000D01*
X48781904Y-59975961D01*
X48764367Y-59893181D01*
X48494500Y-59400104D01*
X48062293Y-59052507D01*
X48440648Y-58799698D01*
X48751717Y-58334151D01*
X48860950Y-57785000D01*
X48751717Y-57235849D01*
X48440648Y-56770302D01*
X48058562Y-56515000D01*
X48440648Y-56259698D01*
X48493901Y-56180000D01*
X49142710Y-56180000D01*
X51135000Y-58172290D01*
X51135000Y-59089445D01*
X50769449Y-59454357D01*
X50535267Y-60018330D01*
X50534735Y-60628991D01*
X50767932Y-61193371D01*
X51199357Y-61625551D01*
X51763330Y-61859733D01*
X52373991Y-61860265D01*
X52938371Y-61627068D01*
X53370551Y-61195643D01*
X53604733Y-60631670D01*
X53605265Y-60021009D01*
X53372068Y-59456629D01*
X53005000Y-59088919D01*
X53005000Y-57785000D01*
X52933827Y-57427191D01*
X52731145Y-57123855D01*
X50191145Y-54583855D01*
X49887809Y-54381173D01*
X49530000Y-54310000D01*
X48493901Y-54310000D01*
X48440648Y-54230302D01*
X48058562Y-53975000D01*
X48440648Y-53719698D01*
X48493901Y-53640000D01*
X60699710Y-53640000D01*
X63528710Y-56469000D01*
X63528710Y-56469000D01*
G37*
X63528710Y-56469000D02*
X59182000Y-56469000D01*
X58824191Y-56540173D01*
X58520855Y-56742855D01*
X48376362Y-66887348D01*
X48058562Y-66675000D01*
X48440648Y-66419698D01*
X48751717Y-65954151D01*
X48860950Y-65405000D01*
X48751717Y-64855849D01*
X48440648Y-64390302D01*
X48058562Y-64135000D01*
X48440648Y-63879698D01*
X48751717Y-63414151D01*
X48860950Y-62865000D01*
X48751717Y-62315849D01*
X48440648Y-61850302D01*
X48062293Y-61597493D01*
X48494500Y-61249896D01*
X48764367Y-60756819D01*
X48781904Y-60674039D01*
X48659915Y-60452000D01*
X47117000Y-60452000D01*
X47117000Y-60472000D01*
X46863000Y-60472000D01*
X46863000Y-60452000D01*
X46843000Y-60452000D01*
X46843000Y-60198000D01*
X46863000Y-60198000D01*
X46863000Y-60178000D01*
X47117000Y-60178000D01*
X47117000Y-60198000D01*
X48659915Y-60198000D01*
X48781904Y-59975961D01*
X48764367Y-59893181D01*
X48494500Y-59400104D01*
X48062293Y-59052507D01*
X48440648Y-58799698D01*
X48751717Y-58334151D01*
X48860950Y-57785000D01*
X48751717Y-57235849D01*
X48440648Y-56770302D01*
X48058562Y-56515000D01*
X48440648Y-56259698D01*
X48493901Y-56180000D01*
X49142710Y-56180000D01*
X51135000Y-58172290D01*
X51135000Y-59089445D01*
X50769449Y-59454357D01*
X50535267Y-60018330D01*
X50534735Y-60628991D01*
X50767932Y-61193371D01*
X51199357Y-61625551D01*
X51763330Y-61859733D01*
X52373991Y-61860265D01*
X52938371Y-61627068D01*
X53370551Y-61195643D01*
X53604733Y-60631670D01*
X53605265Y-60021009D01*
X53372068Y-59456629D01*
X53005000Y-59088919D01*
X53005000Y-57785000D01*
X52933827Y-57427191D01*
X52731145Y-57123855D01*
X50191145Y-54583855D01*
X49887809Y-54381173D01*
X49530000Y-54310000D01*
X48493901Y-54310000D01*
X48440648Y-54230302D01*
X48058562Y-53975000D01*
X48440648Y-53719698D01*
X48493901Y-53640000D01*
X60699710Y-53640000D01*
X63528710Y-56469000D01*
M02*
