G04 #@! TF.FileFunction,Soldermask,Bot*
%FSLAX46Y46*%
G04 Gerber Fmt 4.6, Leading zero omitted, Abs format (unit mm)*
G04 Created by KiCad (PCBNEW 4.0.7) date Wed Apr 18 20:42:23 2018*
%MOMM*%
%LPD*%
G01*
G04 APERTURE LIST*
%ADD10C,0.100000*%
%ADD11R,2.200000X2.200000*%
%ADD12C,2.200000*%
%ADD13C,1.900000*%
%ADD14R,3.400000X3.400000*%
%ADD15C,3.400000*%
%ADD16R,2.100000X2.100000*%
%ADD17O,2.100000X2.100000*%
%ADD18R,2.305000X2.305000*%
%ADD19C,2.305000*%
%ADD20C,1.800000*%
%ADD21O,1.800000X1.800000*%
%ADD22R,2.000000X2.000000*%
%ADD23C,2.000000*%
%ADD24C,3.600000*%
%ADD25O,2.400000X2.200000*%
G04 APERTURE END LIST*
D10*
D11*
X52705000Y-27305000D03*
D12*
X55245000Y-27305000D03*
D11*
X59055000Y-27305000D03*
D12*
X61595000Y-27305000D03*
D11*
X65405000Y-27305000D03*
D12*
X67945000Y-27305000D03*
D13*
X47752000Y-93218000D03*
D14*
X66040000Y-81915000D03*
D15*
X61840000Y-81915000D03*
X66040000Y-76415000D03*
X61840000Y-76415000D03*
X63940000Y-89215000D03*
D16*
X89154000Y-90170000D03*
D17*
X89154000Y-92710000D03*
X86614000Y-90170000D03*
X86614000Y-92710000D03*
X84074000Y-90170000D03*
X84074000Y-92710000D03*
X81534000Y-90170000D03*
X81534000Y-92710000D03*
X78994000Y-90170000D03*
X78994000Y-92710000D03*
D18*
X93726000Y-84582000D03*
D19*
X96266000Y-84582000D03*
D18*
X100076000Y-84582000D03*
D19*
X102616000Y-84582000D03*
D20*
X77978000Y-73406000D03*
D21*
X85598000Y-73406000D03*
D20*
X55245000Y-32385000D03*
D21*
X55245000Y-40005000D03*
D20*
X61595000Y-32385000D03*
D21*
X61595000Y-40005000D03*
D20*
X67945000Y-32385000D03*
D21*
X67945000Y-40005000D03*
D13*
X94615000Y-55880000D03*
X94615000Y-60780000D03*
D20*
X99695000Y-60960000D03*
X102195000Y-60960000D03*
X99695000Y-55880000D03*
X102195000Y-55880000D03*
X55880000Y-83185000D03*
X55880000Y-85685000D03*
D22*
X55880000Y-92075000D03*
D23*
X53380000Y-92075000D03*
D20*
X71755000Y-83185000D03*
X71755000Y-85685000D03*
D22*
X71755000Y-92075000D03*
D23*
X74255000Y-92075000D03*
D22*
X63500000Y-62865000D03*
D23*
X61000000Y-62865000D03*
D20*
X81280000Y-83058000D03*
X78780000Y-83058000D03*
D22*
X81280000Y-77470000D03*
D23*
X78780000Y-77470000D03*
D20*
X100965000Y-67945000D03*
X100965000Y-70445000D03*
D22*
X93345000Y-69215000D03*
D23*
X95845000Y-69215000D03*
D20*
X80518000Y-39370000D03*
X83018000Y-39370000D03*
D22*
X83566000Y-45466000D03*
D23*
X86066000Y-45466000D03*
D24*
X40640000Y-28575000D03*
X40640000Y-90805000D03*
X110490000Y-90805000D03*
D25*
X110490000Y-73025000D03*
X110490000Y-75565000D03*
X110490000Y-78105000D03*
X110490000Y-80645000D03*
X110490000Y-83185000D03*
X110490000Y-70485000D03*
X110490000Y-67945000D03*
X110490000Y-65405000D03*
X110490000Y-62865000D03*
X110490000Y-60325000D03*
X110490000Y-34925000D03*
X110490000Y-37465000D03*
X110490000Y-40005000D03*
X110490000Y-42545000D03*
X110490000Y-45085000D03*
X110490000Y-57785000D03*
X110490000Y-55245000D03*
X110490000Y-52705000D03*
X110490000Y-50165000D03*
X110490000Y-47625000D03*
X46990000Y-47625000D03*
X46990000Y-50165000D03*
X46990000Y-52705000D03*
X46990000Y-55245000D03*
X46990000Y-57785000D03*
X46990000Y-45085000D03*
X46990000Y-42545000D03*
X46990000Y-40005000D03*
X46990000Y-37465000D03*
X46990000Y-34925000D03*
X46990000Y-60325000D03*
X46990000Y-62865000D03*
X46990000Y-65405000D03*
X46990000Y-67945000D03*
X46990000Y-70485000D03*
X46990000Y-83185000D03*
X46990000Y-80645000D03*
X46990000Y-78105000D03*
X46990000Y-75565000D03*
X46990000Y-73025000D03*
D24*
X110490000Y-28575000D03*
M02*
