G04 #@! TF.FileFunction,Legend,Top*
%FSLAX46Y46*%
G04 Gerber Fmt 4.6, Leading zero omitted, Abs format (unit mm)*
G04 Created by KiCad (PCBNEW 4.0.7) date Wed Apr 18 20:52:35 2018*
%MOMM*%
%LPD*%
G01*
G04 APERTURE LIST*
%ADD10C,0.100000*%
%ADD11C,0.250000*%
%ADD12C,0.300000*%
%ADD13C,0.150000*%
%ADD14C,0.120000*%
%ADD15C,0.381000*%
%ADD16C,1.016000*%
%ADD17C,0.127000*%
%ADD18C,0.203200*%
%ADD19C,0.152400*%
G04 APERTURE END LIST*
D10*
D11*
X96972381Y-82780000D02*
X95972381Y-82780000D01*
X95972381Y-82541905D01*
X96020000Y-82399047D01*
X96115238Y-82303809D01*
X96210476Y-82256190D01*
X96400952Y-82208571D01*
X96543810Y-82208571D01*
X96734286Y-82256190D01*
X96829524Y-82303809D01*
X96924762Y-82399047D01*
X96972381Y-82541905D01*
X96972381Y-82780000D01*
X96686667Y-81827619D02*
X96686667Y-81351428D01*
X96972381Y-81922857D02*
X95972381Y-81589524D01*
X96972381Y-81256190D01*
X95972381Y-81065714D02*
X95972381Y-80494285D01*
X96972381Y-80780000D02*
X95972381Y-80780000D01*
X96686667Y-80208571D02*
X96686667Y-79732380D01*
X96972381Y-80303809D02*
X95972381Y-79970476D01*
X96972381Y-79637142D01*
X103322381Y-82780000D02*
X102322381Y-82780000D01*
X102322381Y-82541905D01*
X102370000Y-82399047D01*
X102465238Y-82303809D01*
X102560476Y-82256190D01*
X102750952Y-82208571D01*
X102893810Y-82208571D01*
X103084286Y-82256190D01*
X103179524Y-82303809D01*
X103274762Y-82399047D01*
X103322381Y-82541905D01*
X103322381Y-82780000D01*
X103036667Y-81827619D02*
X103036667Y-81351428D01*
X103322381Y-81922857D02*
X102322381Y-81589524D01*
X103322381Y-81256190D01*
X102322381Y-81065714D02*
X102322381Y-80494285D01*
X103322381Y-80780000D02*
X102322381Y-80780000D01*
X103036667Y-80208571D02*
X103036667Y-79732380D01*
X103322381Y-80303809D02*
X102322381Y-79970476D01*
X103322381Y-79637142D01*
D12*
X100865714Y-82172857D02*
X100937143Y-82244286D01*
X101008571Y-82458572D01*
X101008571Y-82601429D01*
X100937143Y-82815714D01*
X100794286Y-82958572D01*
X100651429Y-83030000D01*
X100365714Y-83101429D01*
X100151429Y-83101429D01*
X99865714Y-83030000D01*
X99722857Y-82958572D01*
X99580000Y-82815714D01*
X99508571Y-82601429D01*
X99508571Y-82458572D01*
X99580000Y-82244286D01*
X99651429Y-82172857D01*
X101008571Y-80815714D02*
X101008571Y-81530000D01*
X99508571Y-81530000D01*
X101008571Y-80315714D02*
X99508571Y-80315714D01*
X101008571Y-79458571D02*
X100151429Y-80101428D01*
X99508571Y-79458571D02*
X100365714Y-80315714D01*
X94515714Y-82172857D02*
X94587143Y-82244286D01*
X94658571Y-82458572D01*
X94658571Y-82601429D01*
X94587143Y-82815714D01*
X94444286Y-82958572D01*
X94301429Y-83030000D01*
X94015714Y-83101429D01*
X93801429Y-83101429D01*
X93515714Y-83030000D01*
X93372857Y-82958572D01*
X93230000Y-82815714D01*
X93158571Y-82601429D01*
X93158571Y-82458572D01*
X93230000Y-82244286D01*
X93301429Y-82172857D01*
X94658571Y-80815714D02*
X94658571Y-81530000D01*
X93158571Y-81530000D01*
X94658571Y-80315714D02*
X93158571Y-80315714D01*
X94658571Y-79458571D02*
X93801429Y-80101428D01*
X93158571Y-79458571D02*
X94015714Y-80315714D01*
X40109286Y-37856431D02*
X40037857Y-37785002D01*
X39966429Y-37570716D01*
X39966429Y-37427859D01*
X40037857Y-37213574D01*
X40180714Y-37070716D01*
X40323571Y-36999288D01*
X40609286Y-36927859D01*
X40823571Y-36927859D01*
X41109286Y-36999288D01*
X41252143Y-37070716D01*
X41395000Y-37213574D01*
X41466429Y-37427859D01*
X41466429Y-37570716D01*
X41395000Y-37785002D01*
X41323571Y-37856431D01*
X39966429Y-39142145D02*
X40752143Y-39142145D01*
X40895000Y-39070716D01*
X40966429Y-38927859D01*
X40966429Y-38642145D01*
X40895000Y-38499288D01*
X40037857Y-39142145D02*
X39966429Y-38999288D01*
X39966429Y-38642145D01*
X40037857Y-38499288D01*
X40180714Y-38427859D01*
X40323571Y-38427859D01*
X40466429Y-38499288D01*
X40537857Y-38642145D01*
X40537857Y-38999288D01*
X40609286Y-39142145D01*
X39966429Y-39856431D02*
X40966429Y-39856431D01*
X40680714Y-39856431D02*
X40823571Y-39927859D01*
X40895000Y-39999288D01*
X40966429Y-40142145D01*
X40966429Y-40285002D01*
X40966429Y-40570716D02*
X40966429Y-41142145D01*
X41466429Y-40785002D02*
X40180714Y-40785002D01*
X40037857Y-40856430D01*
X39966429Y-40999288D01*
X39966429Y-41142145D01*
X40037857Y-42213573D02*
X39966429Y-42070716D01*
X39966429Y-41785002D01*
X40037857Y-41642145D01*
X40180714Y-41570716D01*
X40752143Y-41570716D01*
X40895000Y-41642145D01*
X40966429Y-41785002D01*
X40966429Y-42070716D01*
X40895000Y-42213573D01*
X40752143Y-42285002D01*
X40609286Y-42285002D01*
X40466429Y-41570716D01*
X40966429Y-44070716D02*
X39466429Y-44070716D01*
X40895000Y-44070716D02*
X40966429Y-44213573D01*
X40966429Y-44499287D01*
X40895000Y-44642144D01*
X40823571Y-44713573D01*
X40680714Y-44785002D01*
X40252143Y-44785002D01*
X40109286Y-44713573D01*
X40037857Y-44642144D01*
X39966429Y-44499287D01*
X39966429Y-44213573D01*
X40037857Y-44070716D01*
X40037857Y-45999287D02*
X39966429Y-45856430D01*
X39966429Y-45570716D01*
X40037857Y-45427859D01*
X40180714Y-45356430D01*
X40752143Y-45356430D01*
X40895000Y-45427859D01*
X40966429Y-45570716D01*
X40966429Y-45856430D01*
X40895000Y-45999287D01*
X40752143Y-46070716D01*
X40609286Y-46070716D01*
X40466429Y-45356430D01*
X41537857Y-45856430D02*
X41323571Y-45642145D01*
X39966429Y-46713573D02*
X40966429Y-46713573D01*
X40680714Y-46713573D02*
X40823571Y-46785001D01*
X40895000Y-46856430D01*
X40966429Y-46999287D01*
X40966429Y-47142144D01*
X39966429Y-47642144D02*
X40966429Y-47642144D01*
X41466429Y-47642144D02*
X41395000Y-47570715D01*
X41323571Y-47642144D01*
X41395000Y-47713572D01*
X41466429Y-47642144D01*
X41323571Y-47642144D01*
X40966429Y-48356430D02*
X39466429Y-48356430D01*
X40895000Y-48356430D02*
X40966429Y-48499287D01*
X40966429Y-48785001D01*
X40895000Y-48927858D01*
X40823571Y-48999287D01*
X40680714Y-49070716D01*
X40252143Y-49070716D01*
X40109286Y-48999287D01*
X40037857Y-48927858D01*
X39966429Y-48785001D01*
X39966429Y-48499287D01*
X40037857Y-48356430D01*
X39966429Y-49713573D02*
X41466429Y-49713573D01*
X39966429Y-50356430D02*
X40752143Y-50356430D01*
X40895000Y-50285001D01*
X40966429Y-50142144D01*
X40966429Y-49927859D01*
X40895000Y-49785001D01*
X40823571Y-49713573D01*
X40037857Y-51642144D02*
X39966429Y-51499287D01*
X39966429Y-51213573D01*
X40037857Y-51070716D01*
X40180714Y-50999287D01*
X40752143Y-50999287D01*
X40895000Y-51070716D01*
X40966429Y-51213573D01*
X40966429Y-51499287D01*
X40895000Y-51642144D01*
X40752143Y-51713573D01*
X40609286Y-51713573D01*
X40466429Y-50999287D01*
X41537857Y-51499287D02*
X41323571Y-51285002D01*
X39966429Y-52356430D02*
X40966429Y-52356430D01*
X40680714Y-52356430D02*
X40823571Y-52427858D01*
X40895000Y-52499287D01*
X40966429Y-52642144D01*
X40966429Y-52785001D01*
X39966429Y-53285001D02*
X40966429Y-53285001D01*
X41466429Y-53285001D02*
X41395000Y-53213572D01*
X41323571Y-53285001D01*
X41395000Y-53356429D01*
X41466429Y-53285001D01*
X41323571Y-53285001D01*
X40966429Y-54642144D02*
X39466429Y-54642144D01*
X40037857Y-54642144D02*
X39966429Y-54499287D01*
X39966429Y-54213573D01*
X40037857Y-54070715D01*
X40109286Y-53999287D01*
X40252143Y-53927858D01*
X40680714Y-53927858D01*
X40823571Y-53999287D01*
X40895000Y-54070715D01*
X40966429Y-54213573D01*
X40966429Y-54499287D01*
X40895000Y-54642144D01*
X40966429Y-55999287D02*
X39966429Y-55999287D01*
X40966429Y-55356430D02*
X40180714Y-55356430D01*
X40037857Y-55427858D01*
X39966429Y-55570716D01*
X39966429Y-55785001D01*
X40037857Y-55927858D01*
X40109286Y-55999287D01*
X40037857Y-57285001D02*
X39966429Y-57142144D01*
X39966429Y-56856430D01*
X40037857Y-56713573D01*
X40180714Y-56642144D01*
X40752143Y-56642144D01*
X40895000Y-56713573D01*
X40966429Y-56856430D01*
X40966429Y-57142144D01*
X40895000Y-57285001D01*
X40752143Y-57356430D01*
X40609286Y-57356430D01*
X40466429Y-56642144D01*
X40537857Y-59142144D02*
X40537857Y-60285001D01*
X39966429Y-62999287D02*
X40680714Y-62499287D01*
X39966429Y-62142144D02*
X41466429Y-62142144D01*
X41466429Y-62713572D01*
X41395000Y-62856430D01*
X41323571Y-62927858D01*
X41180714Y-62999287D01*
X40966429Y-62999287D01*
X40823571Y-62927858D01*
X40752143Y-62856430D01*
X40680714Y-62713572D01*
X40680714Y-62142144D01*
X39966429Y-63856430D02*
X40037857Y-63713572D01*
X40109286Y-63642144D01*
X40252143Y-63570715D01*
X40680714Y-63570715D01*
X40823571Y-63642144D01*
X40895000Y-63713572D01*
X40966429Y-63856430D01*
X40966429Y-64070715D01*
X40895000Y-64213572D01*
X40823571Y-64285001D01*
X40680714Y-64356430D01*
X40252143Y-64356430D01*
X40109286Y-64285001D01*
X40037857Y-64213572D01*
X39966429Y-64070715D01*
X39966429Y-63856430D01*
X39966429Y-64999287D02*
X41466429Y-64999287D01*
X40895000Y-64999287D02*
X40966429Y-65142144D01*
X40966429Y-65427858D01*
X40895000Y-65570715D01*
X40823571Y-65642144D01*
X40680714Y-65713573D01*
X40252143Y-65713573D01*
X40109286Y-65642144D01*
X40037857Y-65570715D01*
X39966429Y-65427858D01*
X39966429Y-65142144D01*
X40037857Y-64999287D01*
X39966429Y-66570716D02*
X40037857Y-66427858D01*
X40109286Y-66356430D01*
X40252143Y-66285001D01*
X40680714Y-66285001D01*
X40823571Y-66356430D01*
X40895000Y-66427858D01*
X40966429Y-66570716D01*
X40966429Y-66785001D01*
X40895000Y-66927858D01*
X40823571Y-66999287D01*
X40680714Y-67070716D01*
X40252143Y-67070716D01*
X40109286Y-66999287D01*
X40037857Y-66927858D01*
X39966429Y-66785001D01*
X39966429Y-66570716D01*
X40966429Y-67499287D02*
X40966429Y-68070716D01*
X41466429Y-67713573D02*
X40180714Y-67713573D01*
X40037857Y-67785001D01*
X39966429Y-67927859D01*
X39966429Y-68070716D01*
X41323571Y-69642144D02*
X41395000Y-69713573D01*
X41466429Y-69856430D01*
X41466429Y-70213573D01*
X41395000Y-70356430D01*
X41323571Y-70427859D01*
X41180714Y-70499287D01*
X41037857Y-70499287D01*
X40823571Y-70427859D01*
X39966429Y-69570716D01*
X39966429Y-70499287D01*
X40395000Y-71070715D02*
X40395000Y-71785001D01*
X39966429Y-70927858D02*
X41466429Y-71427858D01*
X39966429Y-71927858D01*
X41323571Y-73499286D02*
X41395000Y-73570715D01*
X41466429Y-73713572D01*
X41466429Y-74070715D01*
X41395000Y-74213572D01*
X41323571Y-74285001D01*
X41180714Y-74356429D01*
X41037857Y-74356429D01*
X40823571Y-74285001D01*
X39966429Y-73427858D01*
X39966429Y-74356429D01*
X41466429Y-75285000D02*
X41466429Y-75427857D01*
X41395000Y-75570714D01*
X41323571Y-75642143D01*
X41180714Y-75713572D01*
X40895000Y-75785000D01*
X40537857Y-75785000D01*
X40252143Y-75713572D01*
X40109286Y-75642143D01*
X40037857Y-75570714D01*
X39966429Y-75427857D01*
X39966429Y-75285000D01*
X40037857Y-75142143D01*
X40109286Y-75070714D01*
X40252143Y-74999286D01*
X40537857Y-74927857D01*
X40895000Y-74927857D01*
X41180714Y-74999286D01*
X41323571Y-75070714D01*
X41395000Y-75142143D01*
X41466429Y-75285000D01*
X39966429Y-77213571D02*
X39966429Y-76356428D01*
X39966429Y-76785000D02*
X41466429Y-76785000D01*
X41252143Y-76642143D01*
X41109286Y-76499285D01*
X41037857Y-76356428D01*
X40823571Y-78070714D02*
X40895000Y-77927856D01*
X40966429Y-77856428D01*
X41109286Y-77784999D01*
X41180714Y-77784999D01*
X41323571Y-77856428D01*
X41395000Y-77927856D01*
X41466429Y-78070714D01*
X41466429Y-78356428D01*
X41395000Y-78499285D01*
X41323571Y-78570714D01*
X41180714Y-78642142D01*
X41109286Y-78642142D01*
X40966429Y-78570714D01*
X40895000Y-78499285D01*
X40823571Y-78356428D01*
X40823571Y-78070714D01*
X40752143Y-77927856D01*
X40680714Y-77856428D01*
X40537857Y-77784999D01*
X40252143Y-77784999D01*
X40109286Y-77856428D01*
X40037857Y-77927856D01*
X39966429Y-78070714D01*
X39966429Y-78356428D01*
X40037857Y-78499285D01*
X40109286Y-78570714D01*
X40252143Y-78642142D01*
X40537857Y-78642142D01*
X40680714Y-78570714D01*
X40752143Y-78499285D01*
X40823571Y-78356428D01*
X38916429Y-51713571D02*
X37416429Y-52213571D01*
X38916429Y-52713571D01*
X37487857Y-53784999D02*
X37416429Y-53642142D01*
X37416429Y-53356428D01*
X37487857Y-53213571D01*
X37630714Y-53142142D01*
X38202143Y-53142142D01*
X38345000Y-53213571D01*
X38416429Y-53356428D01*
X38416429Y-53642142D01*
X38345000Y-53784999D01*
X38202143Y-53856428D01*
X38059286Y-53856428D01*
X37916429Y-53142142D01*
X37416429Y-54499285D02*
X38416429Y-54499285D01*
X38130714Y-54499285D02*
X38273571Y-54570713D01*
X38345000Y-54642142D01*
X38416429Y-54784999D01*
X38416429Y-54927856D01*
X37487857Y-55356427D02*
X37416429Y-55499284D01*
X37416429Y-55784999D01*
X37487857Y-55927856D01*
X37630714Y-55999284D01*
X37702143Y-55999284D01*
X37845000Y-55927856D01*
X37916429Y-55784999D01*
X37916429Y-55570713D01*
X37987857Y-55427856D01*
X38130714Y-55356427D01*
X38202143Y-55356427D01*
X38345000Y-55427856D01*
X38416429Y-55570713D01*
X38416429Y-55784999D01*
X38345000Y-55927856D01*
X37416429Y-56642142D02*
X38416429Y-56642142D01*
X38916429Y-56642142D02*
X38845000Y-56570713D01*
X38773571Y-56642142D01*
X38845000Y-56713570D01*
X38916429Y-56642142D01*
X38773571Y-56642142D01*
X37416429Y-57570714D02*
X37487857Y-57427856D01*
X37559286Y-57356428D01*
X37702143Y-57284999D01*
X38130714Y-57284999D01*
X38273571Y-57356428D01*
X38345000Y-57427856D01*
X38416429Y-57570714D01*
X38416429Y-57784999D01*
X38345000Y-57927856D01*
X38273571Y-57999285D01*
X38130714Y-58070714D01*
X37702143Y-58070714D01*
X37559286Y-57999285D01*
X37487857Y-57927856D01*
X37416429Y-57784999D01*
X37416429Y-57570714D01*
X38416429Y-58713571D02*
X37416429Y-58713571D01*
X38273571Y-58713571D02*
X38345000Y-58784999D01*
X38416429Y-58927857D01*
X38416429Y-59142142D01*
X38345000Y-59284999D01*
X38202143Y-59356428D01*
X37416429Y-59356428D01*
X37416429Y-61070714D02*
X38416429Y-61856428D01*
X38416429Y-61070714D02*
X37416429Y-61856428D01*
X37559286Y-62427857D02*
X37487857Y-62499285D01*
X37416429Y-62427857D01*
X37487857Y-62356428D01*
X37559286Y-62427857D01*
X37416429Y-62427857D01*
X37416429Y-62999286D02*
X38416429Y-63785000D01*
X38416429Y-62999286D02*
X37416429Y-63785000D01*
D13*
X72930000Y-54515000D02*
X72930000Y-55090000D01*
X83280000Y-54515000D02*
X83280000Y-55190000D01*
X83280000Y-64865000D02*
X83280000Y-64190000D01*
X72930000Y-64865000D02*
X72930000Y-64190000D01*
X72930000Y-54515000D02*
X73605000Y-54515000D01*
X72930000Y-64865000D02*
X73605000Y-64865000D01*
X83280000Y-64865000D02*
X82605000Y-64865000D01*
X83280000Y-54515000D02*
X82605000Y-54515000D01*
X72930000Y-55090000D02*
X71655000Y-55090000D01*
D14*
X55647335Y-26226392D02*
G75*
G03X52415000Y-26069484I-1672335J-1078608D01*
G01*
X55647335Y-28383608D02*
G75*
G02X52415000Y-28540516I-1672335J1078608D01*
G01*
X55016130Y-26225163D02*
G75*
G03X52934039Y-26225000I-1041130J-1079837D01*
G01*
X55016130Y-28384837D02*
G75*
G02X52934039Y-28385000I-1041130J1079837D01*
G01*
X52415000Y-26069000D02*
X52415000Y-26225000D01*
X52415000Y-28385000D02*
X52415000Y-28541000D01*
X61997335Y-26226392D02*
G75*
G03X58765000Y-26069484I-1672335J-1078608D01*
G01*
X61997335Y-28383608D02*
G75*
G02X58765000Y-28540516I-1672335J1078608D01*
G01*
X61366130Y-26225163D02*
G75*
G03X59284039Y-26225000I-1041130J-1079837D01*
G01*
X61366130Y-28384837D02*
G75*
G02X59284039Y-28385000I-1041130J1079837D01*
G01*
X58765000Y-26069000D02*
X58765000Y-26225000D01*
X58765000Y-28385000D02*
X58765000Y-28541000D01*
X68347335Y-26226392D02*
G75*
G03X65115000Y-26069484I-1672335J-1078608D01*
G01*
X68347335Y-28383608D02*
G75*
G02X65115000Y-28540516I-1672335J1078608D01*
G01*
X67716130Y-26225163D02*
G75*
G03X65634039Y-26225000I-1041130J-1079837D01*
G01*
X67716130Y-28384837D02*
G75*
G02X65634039Y-28385000I-1041130J1079837D01*
G01*
X65115000Y-26069000D02*
X65115000Y-26225000D01*
X65115000Y-28385000D02*
X65115000Y-28541000D01*
X68040000Y-82865000D02*
X68890000Y-82865000D01*
X68890000Y-82865000D02*
X68890000Y-95965000D01*
X68890000Y-95965000D02*
X63940000Y-95965000D01*
X59840000Y-82865000D02*
X58990000Y-82865000D01*
X58990000Y-82865000D02*
X58990000Y-95965000D01*
X58990000Y-95965000D02*
X63940000Y-95965000D01*
X66340000Y-80115000D02*
X66340000Y-78215000D01*
X65740000Y-80115000D02*
X65740000Y-78215000D01*
X62140000Y-80115000D02*
X62140000Y-78215000D01*
X61540000Y-80115000D02*
X61540000Y-78215000D01*
X64240000Y-82915000D02*
X63640000Y-82915000D01*
X68040000Y-81915000D02*
X68640000Y-81615000D01*
X68640000Y-81615000D02*
X68640000Y-82215000D01*
X68640000Y-82215000D02*
X68040000Y-81915000D01*
X77664000Y-88840000D02*
X77664000Y-94040000D01*
X87884000Y-88840000D02*
X77664000Y-88840000D01*
X90484000Y-94040000D02*
X77664000Y-94040000D01*
X87884000Y-88840000D02*
X87884000Y-91440000D01*
X87884000Y-91440000D02*
X90484000Y-91440000D01*
X90484000Y-91440000D02*
X90484000Y-94040000D01*
X89154000Y-88840000D02*
X90484000Y-88840000D01*
X90484000Y-88840000D02*
X90484000Y-90170000D01*
D15*
X95948500Y-87122000D02*
X95948500Y-87566500D01*
X95948500Y-87566500D02*
X96583500Y-87566500D01*
X96583500Y-87566500D02*
X96583500Y-87185500D01*
X93408500Y-87122000D02*
X93408500Y-87566500D01*
X93408500Y-87566500D02*
X94043500Y-87566500D01*
X94043500Y-87566500D02*
X94043500Y-87122000D01*
D16*
X96266000Y-84582000D02*
X96266000Y-87122000D01*
X93726000Y-84582000D02*
X93726000Y-87122000D01*
D17*
X93726000Y-94107000D02*
X96266000Y-94107000D01*
X93726000Y-95377000D02*
X96266000Y-95377000D01*
D15*
X93726000Y-90932000D02*
X93726000Y-96012000D01*
X93726000Y-96012000D02*
X96266000Y-96012000D01*
X96266000Y-96012000D02*
X96266000Y-90932000D01*
X92456000Y-87757000D02*
X92456000Y-90932000D01*
X92456000Y-90932000D02*
X97536000Y-90932000D01*
X97536000Y-90932000D02*
X97536000Y-87757000D01*
X92456000Y-87757000D02*
X97536000Y-87757000D01*
X102298500Y-87122000D02*
X102298500Y-87566500D01*
X102298500Y-87566500D02*
X102933500Y-87566500D01*
X102933500Y-87566500D02*
X102933500Y-87185500D01*
X99758500Y-87122000D02*
X99758500Y-87566500D01*
X99758500Y-87566500D02*
X100393500Y-87566500D01*
X100393500Y-87566500D02*
X100393500Y-87122000D01*
D16*
X102616000Y-84582000D02*
X102616000Y-87122000D01*
X100076000Y-84582000D02*
X100076000Y-87122000D01*
D17*
X100076000Y-94107000D02*
X102616000Y-94107000D01*
X100076000Y-95377000D02*
X102616000Y-95377000D01*
D15*
X100076000Y-90932000D02*
X100076000Y-96012000D01*
X100076000Y-96012000D02*
X102616000Y-96012000D01*
X102616000Y-96012000D02*
X102616000Y-90932000D01*
X98806000Y-87757000D02*
X98806000Y-90932000D01*
X98806000Y-90932000D02*
X103886000Y-90932000D01*
X103886000Y-90932000D02*
X103886000Y-87757000D01*
X98806000Y-87757000D02*
X103886000Y-87757000D01*
D14*
X79928000Y-72546000D02*
X79928000Y-74266000D01*
X79928000Y-74266000D02*
X83648000Y-74266000D01*
X83648000Y-74266000D02*
X83648000Y-72546000D01*
X83648000Y-72546000D02*
X79928000Y-72546000D01*
X78858000Y-73406000D02*
X79928000Y-73406000D01*
X84718000Y-73406000D02*
X83648000Y-73406000D01*
X56105000Y-34335000D02*
X54385000Y-34335000D01*
X54385000Y-34335000D02*
X54385000Y-38055000D01*
X54385000Y-38055000D02*
X56105000Y-38055000D01*
X56105000Y-38055000D02*
X56105000Y-34335000D01*
X55245000Y-33265000D02*
X55245000Y-34335000D01*
X55245000Y-39125000D02*
X55245000Y-38055000D01*
X62455000Y-34335000D02*
X60735000Y-34335000D01*
X60735000Y-34335000D02*
X60735000Y-38055000D01*
X60735000Y-38055000D02*
X62455000Y-38055000D01*
X62455000Y-38055000D02*
X62455000Y-34335000D01*
X61595000Y-33265000D02*
X61595000Y-34335000D01*
X61595000Y-39125000D02*
X61595000Y-38055000D01*
X68805000Y-34335000D02*
X67085000Y-34335000D01*
X67085000Y-34335000D02*
X67085000Y-38055000D01*
X67085000Y-38055000D02*
X68805000Y-38055000D01*
X68805000Y-38055000D02*
X68805000Y-34335000D01*
X67945000Y-33265000D02*
X67945000Y-34335000D01*
X67945000Y-39125000D02*
X67945000Y-38055000D01*
X97140000Y-55205000D02*
X97140000Y-61455000D01*
X92090000Y-55205000D02*
X92090000Y-61455000D01*
X92090000Y-55205000D02*
G75*
G02X97140000Y-55205000I2525000J0D01*
G01*
X92090000Y-61455000D02*
G75*
G03X97140000Y-61455000I2525000J0D01*
G01*
X98585000Y-59900000D02*
X103305000Y-59900000D01*
X98585000Y-62020000D02*
X103305000Y-62020000D01*
X98585000Y-59900000D02*
X98585000Y-62020000D01*
X103305000Y-59900000D02*
X103305000Y-62020000D01*
X98585000Y-54820000D02*
X103305000Y-54820000D01*
X98585000Y-56940000D02*
X103305000Y-56940000D01*
X98585000Y-54820000D02*
X98585000Y-56940000D01*
X103305000Y-54820000D02*
X103305000Y-56940000D01*
X56940000Y-82075000D02*
X56940000Y-86795000D01*
X54820000Y-82075000D02*
X54820000Y-86795000D01*
X56940000Y-82075000D02*
X54820000Y-82075000D01*
X56940000Y-86795000D02*
X54820000Y-86795000D01*
X52324278Y-93254723D02*
G75*
G03X56935580Y-93255000I2305722J1179723D01*
G01*
X52324278Y-90895277D02*
G75*
G02X56935580Y-90895000I2305722J-1179723D01*
G01*
X52324278Y-90895277D02*
G75*
G03X52324420Y-93255000I2305722J-1179723D01*
G01*
X54630000Y-94625000D02*
X54630000Y-89525000D01*
X54590000Y-94625000D02*
X54590000Y-89525000D01*
X54550000Y-94624000D02*
X54550000Y-89526000D01*
X54510000Y-94623000D02*
X54510000Y-89527000D01*
X54470000Y-94621000D02*
X54470000Y-89529000D01*
X54430000Y-94618000D02*
X54430000Y-89532000D01*
X54390000Y-94614000D02*
X54390000Y-89536000D01*
X54350000Y-94610000D02*
X54350000Y-93055000D01*
X54350000Y-91095000D02*
X54350000Y-89540000D01*
X54310000Y-94606000D02*
X54310000Y-93055000D01*
X54310000Y-91095000D02*
X54310000Y-89544000D01*
X54270000Y-94600000D02*
X54270000Y-93055000D01*
X54270000Y-91095000D02*
X54270000Y-89550000D01*
X54230000Y-94594000D02*
X54230000Y-93055000D01*
X54230000Y-91095000D02*
X54230000Y-89556000D01*
X54190000Y-94588000D02*
X54190000Y-93055000D01*
X54190000Y-91095000D02*
X54190000Y-89562000D01*
X54150000Y-94581000D02*
X54150000Y-93055000D01*
X54150000Y-91095000D02*
X54150000Y-89569000D01*
X54110000Y-94573000D02*
X54110000Y-93055000D01*
X54110000Y-91095000D02*
X54110000Y-89577000D01*
X54070000Y-94564000D02*
X54070000Y-93055000D01*
X54070000Y-91095000D02*
X54070000Y-89586000D01*
X54030000Y-94555000D02*
X54030000Y-93055000D01*
X54030000Y-91095000D02*
X54030000Y-89595000D01*
X53990000Y-94545000D02*
X53990000Y-93055000D01*
X53990000Y-91095000D02*
X53990000Y-89605000D01*
X53950000Y-94535000D02*
X53950000Y-93055000D01*
X53950000Y-91095000D02*
X53950000Y-89615000D01*
X53909000Y-94523000D02*
X53909000Y-93055000D01*
X53909000Y-91095000D02*
X53909000Y-89627000D01*
X53869000Y-94511000D02*
X53869000Y-93055000D01*
X53869000Y-91095000D02*
X53869000Y-89639000D01*
X53829000Y-94499000D02*
X53829000Y-93055000D01*
X53829000Y-91095000D02*
X53829000Y-89651000D01*
X53789000Y-94485000D02*
X53789000Y-93055000D01*
X53789000Y-91095000D02*
X53789000Y-89665000D01*
X53749000Y-94471000D02*
X53749000Y-93055000D01*
X53749000Y-91095000D02*
X53749000Y-89679000D01*
X53709000Y-94457000D02*
X53709000Y-93055000D01*
X53709000Y-91095000D02*
X53709000Y-89693000D01*
X53669000Y-94441000D02*
X53669000Y-93055000D01*
X53669000Y-91095000D02*
X53669000Y-89709000D01*
X53629000Y-94425000D02*
X53629000Y-93055000D01*
X53629000Y-91095000D02*
X53629000Y-89725000D01*
X53589000Y-94408000D02*
X53589000Y-93055000D01*
X53589000Y-91095000D02*
X53589000Y-89742000D01*
X53549000Y-94390000D02*
X53549000Y-93055000D01*
X53549000Y-91095000D02*
X53549000Y-89760000D01*
X53509000Y-94371000D02*
X53509000Y-93055000D01*
X53509000Y-91095000D02*
X53509000Y-89779000D01*
X53469000Y-94351000D02*
X53469000Y-93055000D01*
X53469000Y-91095000D02*
X53469000Y-89799000D01*
X53429000Y-94331000D02*
X53429000Y-93055000D01*
X53429000Y-91095000D02*
X53429000Y-89819000D01*
X53389000Y-94309000D02*
X53389000Y-93055000D01*
X53389000Y-91095000D02*
X53389000Y-89841000D01*
X53349000Y-94287000D02*
X53349000Y-93055000D01*
X53349000Y-91095000D02*
X53349000Y-89863000D01*
X53309000Y-94264000D02*
X53309000Y-93055000D01*
X53309000Y-91095000D02*
X53309000Y-89886000D01*
X53269000Y-94240000D02*
X53269000Y-93055000D01*
X53269000Y-91095000D02*
X53269000Y-89910000D01*
X53229000Y-94215000D02*
X53229000Y-93055000D01*
X53229000Y-91095000D02*
X53229000Y-89935000D01*
X53189000Y-94188000D02*
X53189000Y-93055000D01*
X53189000Y-91095000D02*
X53189000Y-89962000D01*
X53149000Y-94161000D02*
X53149000Y-93055000D01*
X53149000Y-91095000D02*
X53149000Y-89989000D01*
X53109000Y-94133000D02*
X53109000Y-93055000D01*
X53109000Y-91095000D02*
X53109000Y-90017000D01*
X53069000Y-94103000D02*
X53069000Y-93055000D01*
X53069000Y-91095000D02*
X53069000Y-90047000D01*
X53029000Y-94072000D02*
X53029000Y-93055000D01*
X53029000Y-91095000D02*
X53029000Y-90078000D01*
X52989000Y-94040000D02*
X52989000Y-93055000D01*
X52989000Y-91095000D02*
X52989000Y-90110000D01*
X52949000Y-94007000D02*
X52949000Y-93055000D01*
X52949000Y-91095000D02*
X52949000Y-90143000D01*
X52909000Y-93972000D02*
X52909000Y-93055000D01*
X52909000Y-91095000D02*
X52909000Y-90178000D01*
X52869000Y-93936000D02*
X52869000Y-93055000D01*
X52869000Y-91095000D02*
X52869000Y-90214000D01*
X52829000Y-93898000D02*
X52829000Y-93055000D01*
X52829000Y-91095000D02*
X52829000Y-90252000D01*
X52789000Y-93858000D02*
X52789000Y-93055000D01*
X52789000Y-91095000D02*
X52789000Y-90292000D01*
X52749000Y-93817000D02*
X52749000Y-93055000D01*
X52749000Y-91095000D02*
X52749000Y-90333000D01*
X52709000Y-93774000D02*
X52709000Y-93055000D01*
X52709000Y-91095000D02*
X52709000Y-90376000D01*
X52669000Y-93729000D02*
X52669000Y-93055000D01*
X52669000Y-91095000D02*
X52669000Y-90421000D01*
X52629000Y-93681000D02*
X52629000Y-93055000D01*
X52629000Y-91095000D02*
X52629000Y-90469000D01*
X52589000Y-93631000D02*
X52589000Y-93055000D01*
X52589000Y-91095000D02*
X52589000Y-90519000D01*
X52549000Y-93579000D02*
X52549000Y-93055000D01*
X52549000Y-91095000D02*
X52549000Y-90571000D01*
X52509000Y-93523000D02*
X52509000Y-93055000D01*
X52509000Y-91095000D02*
X52509000Y-90627000D01*
X52469000Y-93465000D02*
X52469000Y-93055000D01*
X52469000Y-91095000D02*
X52469000Y-90685000D01*
X52429000Y-93402000D02*
X52429000Y-93055000D01*
X52429000Y-91095000D02*
X52429000Y-90748000D01*
X52389000Y-93336000D02*
X52389000Y-90814000D01*
X52349000Y-93264000D02*
X52349000Y-90886000D01*
X52309000Y-93187000D02*
X52309000Y-90963000D01*
X52269000Y-93103000D02*
X52269000Y-91047000D01*
X52229000Y-93009000D02*
X52229000Y-91141000D01*
X52189000Y-92904000D02*
X52189000Y-91246000D01*
X52149000Y-92782000D02*
X52149000Y-91368000D01*
X52109000Y-92634000D02*
X52109000Y-91516000D01*
X52069000Y-92429000D02*
X52069000Y-91721000D01*
X58080000Y-92075000D02*
X56880000Y-92075000D01*
X57480000Y-92725000D02*
X57480000Y-91425000D01*
X72815000Y-82075000D02*
X72815000Y-86795000D01*
X70695000Y-82075000D02*
X70695000Y-86795000D01*
X72815000Y-82075000D02*
X70695000Y-82075000D01*
X72815000Y-86795000D02*
X70695000Y-86795000D01*
X75310722Y-90895277D02*
G75*
G03X70699420Y-90895000I-2305722J-1179723D01*
G01*
X75310722Y-93254723D02*
G75*
G02X70699420Y-93255000I-2305722J1179723D01*
G01*
X75310722Y-93254723D02*
G75*
G03X75310580Y-90895000I-2305722J1179723D01*
G01*
X73005000Y-89525000D02*
X73005000Y-94625000D01*
X73045000Y-89525000D02*
X73045000Y-94625000D01*
X73085000Y-89526000D02*
X73085000Y-94624000D01*
X73125000Y-89527000D02*
X73125000Y-94623000D01*
X73165000Y-89529000D02*
X73165000Y-94621000D01*
X73205000Y-89532000D02*
X73205000Y-94618000D01*
X73245000Y-89536000D02*
X73245000Y-94614000D01*
X73285000Y-89540000D02*
X73285000Y-91095000D01*
X73285000Y-93055000D02*
X73285000Y-94610000D01*
X73325000Y-89544000D02*
X73325000Y-91095000D01*
X73325000Y-93055000D02*
X73325000Y-94606000D01*
X73365000Y-89550000D02*
X73365000Y-91095000D01*
X73365000Y-93055000D02*
X73365000Y-94600000D01*
X73405000Y-89556000D02*
X73405000Y-91095000D01*
X73405000Y-93055000D02*
X73405000Y-94594000D01*
X73445000Y-89562000D02*
X73445000Y-91095000D01*
X73445000Y-93055000D02*
X73445000Y-94588000D01*
X73485000Y-89569000D02*
X73485000Y-91095000D01*
X73485000Y-93055000D02*
X73485000Y-94581000D01*
X73525000Y-89577000D02*
X73525000Y-91095000D01*
X73525000Y-93055000D02*
X73525000Y-94573000D01*
X73565000Y-89586000D02*
X73565000Y-91095000D01*
X73565000Y-93055000D02*
X73565000Y-94564000D01*
X73605000Y-89595000D02*
X73605000Y-91095000D01*
X73605000Y-93055000D02*
X73605000Y-94555000D01*
X73645000Y-89605000D02*
X73645000Y-91095000D01*
X73645000Y-93055000D02*
X73645000Y-94545000D01*
X73685000Y-89615000D02*
X73685000Y-91095000D01*
X73685000Y-93055000D02*
X73685000Y-94535000D01*
X73726000Y-89627000D02*
X73726000Y-91095000D01*
X73726000Y-93055000D02*
X73726000Y-94523000D01*
X73766000Y-89639000D02*
X73766000Y-91095000D01*
X73766000Y-93055000D02*
X73766000Y-94511000D01*
X73806000Y-89651000D02*
X73806000Y-91095000D01*
X73806000Y-93055000D02*
X73806000Y-94499000D01*
X73846000Y-89665000D02*
X73846000Y-91095000D01*
X73846000Y-93055000D02*
X73846000Y-94485000D01*
X73886000Y-89679000D02*
X73886000Y-91095000D01*
X73886000Y-93055000D02*
X73886000Y-94471000D01*
X73926000Y-89693000D02*
X73926000Y-91095000D01*
X73926000Y-93055000D02*
X73926000Y-94457000D01*
X73966000Y-89709000D02*
X73966000Y-91095000D01*
X73966000Y-93055000D02*
X73966000Y-94441000D01*
X74006000Y-89725000D02*
X74006000Y-91095000D01*
X74006000Y-93055000D02*
X74006000Y-94425000D01*
X74046000Y-89742000D02*
X74046000Y-91095000D01*
X74046000Y-93055000D02*
X74046000Y-94408000D01*
X74086000Y-89760000D02*
X74086000Y-91095000D01*
X74086000Y-93055000D02*
X74086000Y-94390000D01*
X74126000Y-89779000D02*
X74126000Y-91095000D01*
X74126000Y-93055000D02*
X74126000Y-94371000D01*
X74166000Y-89799000D02*
X74166000Y-91095000D01*
X74166000Y-93055000D02*
X74166000Y-94351000D01*
X74206000Y-89819000D02*
X74206000Y-91095000D01*
X74206000Y-93055000D02*
X74206000Y-94331000D01*
X74246000Y-89841000D02*
X74246000Y-91095000D01*
X74246000Y-93055000D02*
X74246000Y-94309000D01*
X74286000Y-89863000D02*
X74286000Y-91095000D01*
X74286000Y-93055000D02*
X74286000Y-94287000D01*
X74326000Y-89886000D02*
X74326000Y-91095000D01*
X74326000Y-93055000D02*
X74326000Y-94264000D01*
X74366000Y-89910000D02*
X74366000Y-91095000D01*
X74366000Y-93055000D02*
X74366000Y-94240000D01*
X74406000Y-89935000D02*
X74406000Y-91095000D01*
X74406000Y-93055000D02*
X74406000Y-94215000D01*
X74446000Y-89962000D02*
X74446000Y-91095000D01*
X74446000Y-93055000D02*
X74446000Y-94188000D01*
X74486000Y-89989000D02*
X74486000Y-91095000D01*
X74486000Y-93055000D02*
X74486000Y-94161000D01*
X74526000Y-90017000D02*
X74526000Y-91095000D01*
X74526000Y-93055000D02*
X74526000Y-94133000D01*
X74566000Y-90047000D02*
X74566000Y-91095000D01*
X74566000Y-93055000D02*
X74566000Y-94103000D01*
X74606000Y-90078000D02*
X74606000Y-91095000D01*
X74606000Y-93055000D02*
X74606000Y-94072000D01*
X74646000Y-90110000D02*
X74646000Y-91095000D01*
X74646000Y-93055000D02*
X74646000Y-94040000D01*
X74686000Y-90143000D02*
X74686000Y-91095000D01*
X74686000Y-93055000D02*
X74686000Y-94007000D01*
X74726000Y-90178000D02*
X74726000Y-91095000D01*
X74726000Y-93055000D02*
X74726000Y-93972000D01*
X74766000Y-90214000D02*
X74766000Y-91095000D01*
X74766000Y-93055000D02*
X74766000Y-93936000D01*
X74806000Y-90252000D02*
X74806000Y-91095000D01*
X74806000Y-93055000D02*
X74806000Y-93898000D01*
X74846000Y-90292000D02*
X74846000Y-91095000D01*
X74846000Y-93055000D02*
X74846000Y-93858000D01*
X74886000Y-90333000D02*
X74886000Y-91095000D01*
X74886000Y-93055000D02*
X74886000Y-93817000D01*
X74926000Y-90376000D02*
X74926000Y-91095000D01*
X74926000Y-93055000D02*
X74926000Y-93774000D01*
X74966000Y-90421000D02*
X74966000Y-91095000D01*
X74966000Y-93055000D02*
X74966000Y-93729000D01*
X75006000Y-90469000D02*
X75006000Y-91095000D01*
X75006000Y-93055000D02*
X75006000Y-93681000D01*
X75046000Y-90519000D02*
X75046000Y-91095000D01*
X75046000Y-93055000D02*
X75046000Y-93631000D01*
X75086000Y-90571000D02*
X75086000Y-91095000D01*
X75086000Y-93055000D02*
X75086000Y-93579000D01*
X75126000Y-90627000D02*
X75126000Y-91095000D01*
X75126000Y-93055000D02*
X75126000Y-93523000D01*
X75166000Y-90685000D02*
X75166000Y-91095000D01*
X75166000Y-93055000D02*
X75166000Y-93465000D01*
X75206000Y-90748000D02*
X75206000Y-91095000D01*
X75206000Y-93055000D02*
X75206000Y-93402000D01*
X75246000Y-90814000D02*
X75246000Y-93336000D01*
X75286000Y-90886000D02*
X75286000Y-93264000D01*
X75326000Y-90963000D02*
X75326000Y-93187000D01*
X75366000Y-91047000D02*
X75366000Y-93103000D01*
X75406000Y-91141000D02*
X75406000Y-93009000D01*
X75446000Y-91246000D02*
X75446000Y-92904000D01*
X75486000Y-91368000D02*
X75486000Y-92782000D01*
X75526000Y-91516000D02*
X75526000Y-92634000D01*
X75566000Y-91721000D02*
X75566000Y-92429000D01*
X69555000Y-92075000D02*
X70755000Y-92075000D01*
X70155000Y-91425000D02*
X70155000Y-92725000D01*
X59944278Y-64044723D02*
G75*
G03X64555580Y-64045000I2305722J1179723D01*
G01*
X59944278Y-61685277D02*
G75*
G02X64555580Y-61685000I2305722J-1179723D01*
G01*
X59944278Y-61685277D02*
G75*
G03X59944420Y-64045000I2305722J-1179723D01*
G01*
X62250000Y-65415000D02*
X62250000Y-60315000D01*
X62210000Y-65415000D02*
X62210000Y-60315000D01*
X62170000Y-65414000D02*
X62170000Y-60316000D01*
X62130000Y-65413000D02*
X62130000Y-60317000D01*
X62090000Y-65411000D02*
X62090000Y-60319000D01*
X62050000Y-65408000D02*
X62050000Y-60322000D01*
X62010000Y-65404000D02*
X62010000Y-60326000D01*
X61970000Y-65400000D02*
X61970000Y-63845000D01*
X61970000Y-61885000D02*
X61970000Y-60330000D01*
X61930000Y-65396000D02*
X61930000Y-63845000D01*
X61930000Y-61885000D02*
X61930000Y-60334000D01*
X61890000Y-65390000D02*
X61890000Y-63845000D01*
X61890000Y-61885000D02*
X61890000Y-60340000D01*
X61850000Y-65384000D02*
X61850000Y-63845000D01*
X61850000Y-61885000D02*
X61850000Y-60346000D01*
X61810000Y-65378000D02*
X61810000Y-63845000D01*
X61810000Y-61885000D02*
X61810000Y-60352000D01*
X61770000Y-65371000D02*
X61770000Y-63845000D01*
X61770000Y-61885000D02*
X61770000Y-60359000D01*
X61730000Y-65363000D02*
X61730000Y-63845000D01*
X61730000Y-61885000D02*
X61730000Y-60367000D01*
X61690000Y-65354000D02*
X61690000Y-63845000D01*
X61690000Y-61885000D02*
X61690000Y-60376000D01*
X61650000Y-65345000D02*
X61650000Y-63845000D01*
X61650000Y-61885000D02*
X61650000Y-60385000D01*
X61610000Y-65335000D02*
X61610000Y-63845000D01*
X61610000Y-61885000D02*
X61610000Y-60395000D01*
X61570000Y-65325000D02*
X61570000Y-63845000D01*
X61570000Y-61885000D02*
X61570000Y-60405000D01*
X61529000Y-65313000D02*
X61529000Y-63845000D01*
X61529000Y-61885000D02*
X61529000Y-60417000D01*
X61489000Y-65301000D02*
X61489000Y-63845000D01*
X61489000Y-61885000D02*
X61489000Y-60429000D01*
X61449000Y-65289000D02*
X61449000Y-63845000D01*
X61449000Y-61885000D02*
X61449000Y-60441000D01*
X61409000Y-65275000D02*
X61409000Y-63845000D01*
X61409000Y-61885000D02*
X61409000Y-60455000D01*
X61369000Y-65261000D02*
X61369000Y-63845000D01*
X61369000Y-61885000D02*
X61369000Y-60469000D01*
X61329000Y-65247000D02*
X61329000Y-63845000D01*
X61329000Y-61885000D02*
X61329000Y-60483000D01*
X61289000Y-65231000D02*
X61289000Y-63845000D01*
X61289000Y-61885000D02*
X61289000Y-60499000D01*
X61249000Y-65215000D02*
X61249000Y-63845000D01*
X61249000Y-61885000D02*
X61249000Y-60515000D01*
X61209000Y-65198000D02*
X61209000Y-63845000D01*
X61209000Y-61885000D02*
X61209000Y-60532000D01*
X61169000Y-65180000D02*
X61169000Y-63845000D01*
X61169000Y-61885000D02*
X61169000Y-60550000D01*
X61129000Y-65161000D02*
X61129000Y-63845000D01*
X61129000Y-61885000D02*
X61129000Y-60569000D01*
X61089000Y-65141000D02*
X61089000Y-63845000D01*
X61089000Y-61885000D02*
X61089000Y-60589000D01*
X61049000Y-65121000D02*
X61049000Y-63845000D01*
X61049000Y-61885000D02*
X61049000Y-60609000D01*
X61009000Y-65099000D02*
X61009000Y-63845000D01*
X61009000Y-61885000D02*
X61009000Y-60631000D01*
X60969000Y-65077000D02*
X60969000Y-63845000D01*
X60969000Y-61885000D02*
X60969000Y-60653000D01*
X60929000Y-65054000D02*
X60929000Y-63845000D01*
X60929000Y-61885000D02*
X60929000Y-60676000D01*
X60889000Y-65030000D02*
X60889000Y-63845000D01*
X60889000Y-61885000D02*
X60889000Y-60700000D01*
X60849000Y-65005000D02*
X60849000Y-63845000D01*
X60849000Y-61885000D02*
X60849000Y-60725000D01*
X60809000Y-64978000D02*
X60809000Y-63845000D01*
X60809000Y-61885000D02*
X60809000Y-60752000D01*
X60769000Y-64951000D02*
X60769000Y-63845000D01*
X60769000Y-61885000D02*
X60769000Y-60779000D01*
X60729000Y-64923000D02*
X60729000Y-63845000D01*
X60729000Y-61885000D02*
X60729000Y-60807000D01*
X60689000Y-64893000D02*
X60689000Y-63845000D01*
X60689000Y-61885000D02*
X60689000Y-60837000D01*
X60649000Y-64862000D02*
X60649000Y-63845000D01*
X60649000Y-61885000D02*
X60649000Y-60868000D01*
X60609000Y-64830000D02*
X60609000Y-63845000D01*
X60609000Y-61885000D02*
X60609000Y-60900000D01*
X60569000Y-64797000D02*
X60569000Y-63845000D01*
X60569000Y-61885000D02*
X60569000Y-60933000D01*
X60529000Y-64762000D02*
X60529000Y-63845000D01*
X60529000Y-61885000D02*
X60529000Y-60968000D01*
X60489000Y-64726000D02*
X60489000Y-63845000D01*
X60489000Y-61885000D02*
X60489000Y-61004000D01*
X60449000Y-64688000D02*
X60449000Y-63845000D01*
X60449000Y-61885000D02*
X60449000Y-61042000D01*
X60409000Y-64648000D02*
X60409000Y-63845000D01*
X60409000Y-61885000D02*
X60409000Y-61082000D01*
X60369000Y-64607000D02*
X60369000Y-63845000D01*
X60369000Y-61885000D02*
X60369000Y-61123000D01*
X60329000Y-64564000D02*
X60329000Y-63845000D01*
X60329000Y-61885000D02*
X60329000Y-61166000D01*
X60289000Y-64519000D02*
X60289000Y-63845000D01*
X60289000Y-61885000D02*
X60289000Y-61211000D01*
X60249000Y-64471000D02*
X60249000Y-63845000D01*
X60249000Y-61885000D02*
X60249000Y-61259000D01*
X60209000Y-64421000D02*
X60209000Y-63845000D01*
X60209000Y-61885000D02*
X60209000Y-61309000D01*
X60169000Y-64369000D02*
X60169000Y-63845000D01*
X60169000Y-61885000D02*
X60169000Y-61361000D01*
X60129000Y-64313000D02*
X60129000Y-63845000D01*
X60129000Y-61885000D02*
X60129000Y-61417000D01*
X60089000Y-64255000D02*
X60089000Y-63845000D01*
X60089000Y-61885000D02*
X60089000Y-61475000D01*
X60049000Y-64192000D02*
X60049000Y-63845000D01*
X60049000Y-61885000D02*
X60049000Y-61538000D01*
X60009000Y-64126000D02*
X60009000Y-61604000D01*
X59969000Y-64054000D02*
X59969000Y-61676000D01*
X59929000Y-63977000D02*
X59929000Y-61753000D01*
X59889000Y-63893000D02*
X59889000Y-61837000D01*
X59849000Y-63799000D02*
X59849000Y-61931000D01*
X59809000Y-63694000D02*
X59809000Y-62036000D01*
X59769000Y-63572000D02*
X59769000Y-62158000D01*
X59729000Y-63424000D02*
X59729000Y-62306000D01*
X59689000Y-63219000D02*
X59689000Y-62511000D01*
X65700000Y-62865000D02*
X64500000Y-62865000D01*
X65100000Y-63515000D02*
X65100000Y-62215000D01*
X82390000Y-84118000D02*
X77670000Y-84118000D01*
X82390000Y-81998000D02*
X77670000Y-81998000D01*
X82390000Y-84118000D02*
X82390000Y-81998000D01*
X77670000Y-84118000D02*
X77670000Y-81998000D01*
X77724278Y-78649723D02*
G75*
G03X82335580Y-78650000I2305722J1179723D01*
G01*
X77724278Y-76290277D02*
G75*
G02X82335580Y-76290000I2305722J-1179723D01*
G01*
X77724278Y-76290277D02*
G75*
G03X77724420Y-78650000I2305722J-1179723D01*
G01*
X80030000Y-80020000D02*
X80030000Y-74920000D01*
X79990000Y-80020000D02*
X79990000Y-74920000D01*
X79950000Y-80019000D02*
X79950000Y-74921000D01*
X79910000Y-80018000D02*
X79910000Y-74922000D01*
X79870000Y-80016000D02*
X79870000Y-74924000D01*
X79830000Y-80013000D02*
X79830000Y-74927000D01*
X79790000Y-80009000D02*
X79790000Y-74931000D01*
X79750000Y-80005000D02*
X79750000Y-78450000D01*
X79750000Y-76490000D02*
X79750000Y-74935000D01*
X79710000Y-80001000D02*
X79710000Y-78450000D01*
X79710000Y-76490000D02*
X79710000Y-74939000D01*
X79670000Y-79995000D02*
X79670000Y-78450000D01*
X79670000Y-76490000D02*
X79670000Y-74945000D01*
X79630000Y-79989000D02*
X79630000Y-78450000D01*
X79630000Y-76490000D02*
X79630000Y-74951000D01*
X79590000Y-79983000D02*
X79590000Y-78450000D01*
X79590000Y-76490000D02*
X79590000Y-74957000D01*
X79550000Y-79976000D02*
X79550000Y-78450000D01*
X79550000Y-76490000D02*
X79550000Y-74964000D01*
X79510000Y-79968000D02*
X79510000Y-78450000D01*
X79510000Y-76490000D02*
X79510000Y-74972000D01*
X79470000Y-79959000D02*
X79470000Y-78450000D01*
X79470000Y-76490000D02*
X79470000Y-74981000D01*
X79430000Y-79950000D02*
X79430000Y-78450000D01*
X79430000Y-76490000D02*
X79430000Y-74990000D01*
X79390000Y-79940000D02*
X79390000Y-78450000D01*
X79390000Y-76490000D02*
X79390000Y-75000000D01*
X79350000Y-79930000D02*
X79350000Y-78450000D01*
X79350000Y-76490000D02*
X79350000Y-75010000D01*
X79309000Y-79918000D02*
X79309000Y-78450000D01*
X79309000Y-76490000D02*
X79309000Y-75022000D01*
X79269000Y-79906000D02*
X79269000Y-78450000D01*
X79269000Y-76490000D02*
X79269000Y-75034000D01*
X79229000Y-79894000D02*
X79229000Y-78450000D01*
X79229000Y-76490000D02*
X79229000Y-75046000D01*
X79189000Y-79880000D02*
X79189000Y-78450000D01*
X79189000Y-76490000D02*
X79189000Y-75060000D01*
X79149000Y-79866000D02*
X79149000Y-78450000D01*
X79149000Y-76490000D02*
X79149000Y-75074000D01*
X79109000Y-79852000D02*
X79109000Y-78450000D01*
X79109000Y-76490000D02*
X79109000Y-75088000D01*
X79069000Y-79836000D02*
X79069000Y-78450000D01*
X79069000Y-76490000D02*
X79069000Y-75104000D01*
X79029000Y-79820000D02*
X79029000Y-78450000D01*
X79029000Y-76490000D02*
X79029000Y-75120000D01*
X78989000Y-79803000D02*
X78989000Y-78450000D01*
X78989000Y-76490000D02*
X78989000Y-75137000D01*
X78949000Y-79785000D02*
X78949000Y-78450000D01*
X78949000Y-76490000D02*
X78949000Y-75155000D01*
X78909000Y-79766000D02*
X78909000Y-78450000D01*
X78909000Y-76490000D02*
X78909000Y-75174000D01*
X78869000Y-79746000D02*
X78869000Y-78450000D01*
X78869000Y-76490000D02*
X78869000Y-75194000D01*
X78829000Y-79726000D02*
X78829000Y-78450000D01*
X78829000Y-76490000D02*
X78829000Y-75214000D01*
X78789000Y-79704000D02*
X78789000Y-78450000D01*
X78789000Y-76490000D02*
X78789000Y-75236000D01*
X78749000Y-79682000D02*
X78749000Y-78450000D01*
X78749000Y-76490000D02*
X78749000Y-75258000D01*
X78709000Y-79659000D02*
X78709000Y-78450000D01*
X78709000Y-76490000D02*
X78709000Y-75281000D01*
X78669000Y-79635000D02*
X78669000Y-78450000D01*
X78669000Y-76490000D02*
X78669000Y-75305000D01*
X78629000Y-79610000D02*
X78629000Y-78450000D01*
X78629000Y-76490000D02*
X78629000Y-75330000D01*
X78589000Y-79583000D02*
X78589000Y-78450000D01*
X78589000Y-76490000D02*
X78589000Y-75357000D01*
X78549000Y-79556000D02*
X78549000Y-78450000D01*
X78549000Y-76490000D02*
X78549000Y-75384000D01*
X78509000Y-79528000D02*
X78509000Y-78450000D01*
X78509000Y-76490000D02*
X78509000Y-75412000D01*
X78469000Y-79498000D02*
X78469000Y-78450000D01*
X78469000Y-76490000D02*
X78469000Y-75442000D01*
X78429000Y-79467000D02*
X78429000Y-78450000D01*
X78429000Y-76490000D02*
X78429000Y-75473000D01*
X78389000Y-79435000D02*
X78389000Y-78450000D01*
X78389000Y-76490000D02*
X78389000Y-75505000D01*
X78349000Y-79402000D02*
X78349000Y-78450000D01*
X78349000Y-76490000D02*
X78349000Y-75538000D01*
X78309000Y-79367000D02*
X78309000Y-78450000D01*
X78309000Y-76490000D02*
X78309000Y-75573000D01*
X78269000Y-79331000D02*
X78269000Y-78450000D01*
X78269000Y-76490000D02*
X78269000Y-75609000D01*
X78229000Y-79293000D02*
X78229000Y-78450000D01*
X78229000Y-76490000D02*
X78229000Y-75647000D01*
X78189000Y-79253000D02*
X78189000Y-78450000D01*
X78189000Y-76490000D02*
X78189000Y-75687000D01*
X78149000Y-79212000D02*
X78149000Y-78450000D01*
X78149000Y-76490000D02*
X78149000Y-75728000D01*
X78109000Y-79169000D02*
X78109000Y-78450000D01*
X78109000Y-76490000D02*
X78109000Y-75771000D01*
X78069000Y-79124000D02*
X78069000Y-78450000D01*
X78069000Y-76490000D02*
X78069000Y-75816000D01*
X78029000Y-79076000D02*
X78029000Y-78450000D01*
X78029000Y-76490000D02*
X78029000Y-75864000D01*
X77989000Y-79026000D02*
X77989000Y-78450000D01*
X77989000Y-76490000D02*
X77989000Y-75914000D01*
X77949000Y-78974000D02*
X77949000Y-78450000D01*
X77949000Y-76490000D02*
X77949000Y-75966000D01*
X77909000Y-78918000D02*
X77909000Y-78450000D01*
X77909000Y-76490000D02*
X77909000Y-76022000D01*
X77869000Y-78860000D02*
X77869000Y-78450000D01*
X77869000Y-76490000D02*
X77869000Y-76080000D01*
X77829000Y-78797000D02*
X77829000Y-78450000D01*
X77829000Y-76490000D02*
X77829000Y-76143000D01*
X77789000Y-78731000D02*
X77789000Y-76209000D01*
X77749000Y-78659000D02*
X77749000Y-76281000D01*
X77709000Y-78582000D02*
X77709000Y-76358000D01*
X77669000Y-78498000D02*
X77669000Y-76442000D01*
X77629000Y-78404000D02*
X77629000Y-76536000D01*
X77589000Y-78299000D02*
X77589000Y-76641000D01*
X77549000Y-78177000D02*
X77549000Y-76763000D01*
X77509000Y-78029000D02*
X77509000Y-76911000D01*
X77469000Y-77824000D02*
X77469000Y-77116000D01*
X83480000Y-77470000D02*
X82280000Y-77470000D01*
X82880000Y-78120000D02*
X82880000Y-76820000D01*
X102025000Y-66835000D02*
X102025000Y-71555000D01*
X99905000Y-66835000D02*
X99905000Y-71555000D01*
X102025000Y-66835000D02*
X99905000Y-66835000D01*
X102025000Y-71555000D02*
X99905000Y-71555000D01*
X96900722Y-68035277D02*
G75*
G03X92289420Y-68035000I-2305722J-1179723D01*
G01*
X96900722Y-70394723D02*
G75*
G02X92289420Y-70395000I-2305722J1179723D01*
G01*
X96900722Y-70394723D02*
G75*
G03X96900580Y-68035000I-2305722J1179723D01*
G01*
X94595000Y-66665000D02*
X94595000Y-71765000D01*
X94635000Y-66665000D02*
X94635000Y-71765000D01*
X94675000Y-66666000D02*
X94675000Y-71764000D01*
X94715000Y-66667000D02*
X94715000Y-71763000D01*
X94755000Y-66669000D02*
X94755000Y-71761000D01*
X94795000Y-66672000D02*
X94795000Y-71758000D01*
X94835000Y-66676000D02*
X94835000Y-71754000D01*
X94875000Y-66680000D02*
X94875000Y-68235000D01*
X94875000Y-70195000D02*
X94875000Y-71750000D01*
X94915000Y-66684000D02*
X94915000Y-68235000D01*
X94915000Y-70195000D02*
X94915000Y-71746000D01*
X94955000Y-66690000D02*
X94955000Y-68235000D01*
X94955000Y-70195000D02*
X94955000Y-71740000D01*
X94995000Y-66696000D02*
X94995000Y-68235000D01*
X94995000Y-70195000D02*
X94995000Y-71734000D01*
X95035000Y-66702000D02*
X95035000Y-68235000D01*
X95035000Y-70195000D02*
X95035000Y-71728000D01*
X95075000Y-66709000D02*
X95075000Y-68235000D01*
X95075000Y-70195000D02*
X95075000Y-71721000D01*
X95115000Y-66717000D02*
X95115000Y-68235000D01*
X95115000Y-70195000D02*
X95115000Y-71713000D01*
X95155000Y-66726000D02*
X95155000Y-68235000D01*
X95155000Y-70195000D02*
X95155000Y-71704000D01*
X95195000Y-66735000D02*
X95195000Y-68235000D01*
X95195000Y-70195000D02*
X95195000Y-71695000D01*
X95235000Y-66745000D02*
X95235000Y-68235000D01*
X95235000Y-70195000D02*
X95235000Y-71685000D01*
X95275000Y-66755000D02*
X95275000Y-68235000D01*
X95275000Y-70195000D02*
X95275000Y-71675000D01*
X95316000Y-66767000D02*
X95316000Y-68235000D01*
X95316000Y-70195000D02*
X95316000Y-71663000D01*
X95356000Y-66779000D02*
X95356000Y-68235000D01*
X95356000Y-70195000D02*
X95356000Y-71651000D01*
X95396000Y-66791000D02*
X95396000Y-68235000D01*
X95396000Y-70195000D02*
X95396000Y-71639000D01*
X95436000Y-66805000D02*
X95436000Y-68235000D01*
X95436000Y-70195000D02*
X95436000Y-71625000D01*
X95476000Y-66819000D02*
X95476000Y-68235000D01*
X95476000Y-70195000D02*
X95476000Y-71611000D01*
X95516000Y-66833000D02*
X95516000Y-68235000D01*
X95516000Y-70195000D02*
X95516000Y-71597000D01*
X95556000Y-66849000D02*
X95556000Y-68235000D01*
X95556000Y-70195000D02*
X95556000Y-71581000D01*
X95596000Y-66865000D02*
X95596000Y-68235000D01*
X95596000Y-70195000D02*
X95596000Y-71565000D01*
X95636000Y-66882000D02*
X95636000Y-68235000D01*
X95636000Y-70195000D02*
X95636000Y-71548000D01*
X95676000Y-66900000D02*
X95676000Y-68235000D01*
X95676000Y-70195000D02*
X95676000Y-71530000D01*
X95716000Y-66919000D02*
X95716000Y-68235000D01*
X95716000Y-70195000D02*
X95716000Y-71511000D01*
X95756000Y-66939000D02*
X95756000Y-68235000D01*
X95756000Y-70195000D02*
X95756000Y-71491000D01*
X95796000Y-66959000D02*
X95796000Y-68235000D01*
X95796000Y-70195000D02*
X95796000Y-71471000D01*
X95836000Y-66981000D02*
X95836000Y-68235000D01*
X95836000Y-70195000D02*
X95836000Y-71449000D01*
X95876000Y-67003000D02*
X95876000Y-68235000D01*
X95876000Y-70195000D02*
X95876000Y-71427000D01*
X95916000Y-67026000D02*
X95916000Y-68235000D01*
X95916000Y-70195000D02*
X95916000Y-71404000D01*
X95956000Y-67050000D02*
X95956000Y-68235000D01*
X95956000Y-70195000D02*
X95956000Y-71380000D01*
X95996000Y-67075000D02*
X95996000Y-68235000D01*
X95996000Y-70195000D02*
X95996000Y-71355000D01*
X96036000Y-67102000D02*
X96036000Y-68235000D01*
X96036000Y-70195000D02*
X96036000Y-71328000D01*
X96076000Y-67129000D02*
X96076000Y-68235000D01*
X96076000Y-70195000D02*
X96076000Y-71301000D01*
X96116000Y-67157000D02*
X96116000Y-68235000D01*
X96116000Y-70195000D02*
X96116000Y-71273000D01*
X96156000Y-67187000D02*
X96156000Y-68235000D01*
X96156000Y-70195000D02*
X96156000Y-71243000D01*
X96196000Y-67218000D02*
X96196000Y-68235000D01*
X96196000Y-70195000D02*
X96196000Y-71212000D01*
X96236000Y-67250000D02*
X96236000Y-68235000D01*
X96236000Y-70195000D02*
X96236000Y-71180000D01*
X96276000Y-67283000D02*
X96276000Y-68235000D01*
X96276000Y-70195000D02*
X96276000Y-71147000D01*
X96316000Y-67318000D02*
X96316000Y-68235000D01*
X96316000Y-70195000D02*
X96316000Y-71112000D01*
X96356000Y-67354000D02*
X96356000Y-68235000D01*
X96356000Y-70195000D02*
X96356000Y-71076000D01*
X96396000Y-67392000D02*
X96396000Y-68235000D01*
X96396000Y-70195000D02*
X96396000Y-71038000D01*
X96436000Y-67432000D02*
X96436000Y-68235000D01*
X96436000Y-70195000D02*
X96436000Y-70998000D01*
X96476000Y-67473000D02*
X96476000Y-68235000D01*
X96476000Y-70195000D02*
X96476000Y-70957000D01*
X96516000Y-67516000D02*
X96516000Y-68235000D01*
X96516000Y-70195000D02*
X96516000Y-70914000D01*
X96556000Y-67561000D02*
X96556000Y-68235000D01*
X96556000Y-70195000D02*
X96556000Y-70869000D01*
X96596000Y-67609000D02*
X96596000Y-68235000D01*
X96596000Y-70195000D02*
X96596000Y-70821000D01*
X96636000Y-67659000D02*
X96636000Y-68235000D01*
X96636000Y-70195000D02*
X96636000Y-70771000D01*
X96676000Y-67711000D02*
X96676000Y-68235000D01*
X96676000Y-70195000D02*
X96676000Y-70719000D01*
X96716000Y-67767000D02*
X96716000Y-68235000D01*
X96716000Y-70195000D02*
X96716000Y-70663000D01*
X96756000Y-67825000D02*
X96756000Y-68235000D01*
X96756000Y-70195000D02*
X96756000Y-70605000D01*
X96796000Y-67888000D02*
X96796000Y-68235000D01*
X96796000Y-70195000D02*
X96796000Y-70542000D01*
X96836000Y-67954000D02*
X96836000Y-70476000D01*
X96876000Y-68026000D02*
X96876000Y-70404000D01*
X96916000Y-68103000D02*
X96916000Y-70327000D01*
X96956000Y-68187000D02*
X96956000Y-70243000D01*
X96996000Y-68281000D02*
X96996000Y-70149000D01*
X97036000Y-68386000D02*
X97036000Y-70044000D01*
X97076000Y-68508000D02*
X97076000Y-69922000D01*
X97116000Y-68656000D02*
X97116000Y-69774000D01*
X97156000Y-68861000D02*
X97156000Y-69569000D01*
X91145000Y-69215000D02*
X92345000Y-69215000D01*
X91745000Y-68565000D02*
X91745000Y-69865000D01*
X79408000Y-38310000D02*
X84128000Y-38310000D01*
X79408000Y-40430000D02*
X84128000Y-40430000D01*
X79408000Y-38310000D02*
X79408000Y-40430000D01*
X84128000Y-38310000D02*
X84128000Y-40430000D01*
X87121722Y-44286277D02*
G75*
G03X82510420Y-44286000I-2305722J-1179723D01*
G01*
X87121722Y-46645723D02*
G75*
G02X82510420Y-46646000I-2305722J1179723D01*
G01*
X87121722Y-46645723D02*
G75*
G03X87121580Y-44286000I-2305722J1179723D01*
G01*
X84816000Y-42916000D02*
X84816000Y-48016000D01*
X84856000Y-42916000D02*
X84856000Y-48016000D01*
X84896000Y-42917000D02*
X84896000Y-48015000D01*
X84936000Y-42918000D02*
X84936000Y-48014000D01*
X84976000Y-42920000D02*
X84976000Y-48012000D01*
X85016000Y-42923000D02*
X85016000Y-48009000D01*
X85056000Y-42927000D02*
X85056000Y-48005000D01*
X85096000Y-42931000D02*
X85096000Y-44486000D01*
X85096000Y-46446000D02*
X85096000Y-48001000D01*
X85136000Y-42935000D02*
X85136000Y-44486000D01*
X85136000Y-46446000D02*
X85136000Y-47997000D01*
X85176000Y-42941000D02*
X85176000Y-44486000D01*
X85176000Y-46446000D02*
X85176000Y-47991000D01*
X85216000Y-42947000D02*
X85216000Y-44486000D01*
X85216000Y-46446000D02*
X85216000Y-47985000D01*
X85256000Y-42953000D02*
X85256000Y-44486000D01*
X85256000Y-46446000D02*
X85256000Y-47979000D01*
X85296000Y-42960000D02*
X85296000Y-44486000D01*
X85296000Y-46446000D02*
X85296000Y-47972000D01*
X85336000Y-42968000D02*
X85336000Y-44486000D01*
X85336000Y-46446000D02*
X85336000Y-47964000D01*
X85376000Y-42977000D02*
X85376000Y-44486000D01*
X85376000Y-46446000D02*
X85376000Y-47955000D01*
X85416000Y-42986000D02*
X85416000Y-44486000D01*
X85416000Y-46446000D02*
X85416000Y-47946000D01*
X85456000Y-42996000D02*
X85456000Y-44486000D01*
X85456000Y-46446000D02*
X85456000Y-47936000D01*
X85496000Y-43006000D02*
X85496000Y-44486000D01*
X85496000Y-46446000D02*
X85496000Y-47926000D01*
X85537000Y-43018000D02*
X85537000Y-44486000D01*
X85537000Y-46446000D02*
X85537000Y-47914000D01*
X85577000Y-43030000D02*
X85577000Y-44486000D01*
X85577000Y-46446000D02*
X85577000Y-47902000D01*
X85617000Y-43042000D02*
X85617000Y-44486000D01*
X85617000Y-46446000D02*
X85617000Y-47890000D01*
X85657000Y-43056000D02*
X85657000Y-44486000D01*
X85657000Y-46446000D02*
X85657000Y-47876000D01*
X85697000Y-43070000D02*
X85697000Y-44486000D01*
X85697000Y-46446000D02*
X85697000Y-47862000D01*
X85737000Y-43084000D02*
X85737000Y-44486000D01*
X85737000Y-46446000D02*
X85737000Y-47848000D01*
X85777000Y-43100000D02*
X85777000Y-44486000D01*
X85777000Y-46446000D02*
X85777000Y-47832000D01*
X85817000Y-43116000D02*
X85817000Y-44486000D01*
X85817000Y-46446000D02*
X85817000Y-47816000D01*
X85857000Y-43133000D02*
X85857000Y-44486000D01*
X85857000Y-46446000D02*
X85857000Y-47799000D01*
X85897000Y-43151000D02*
X85897000Y-44486000D01*
X85897000Y-46446000D02*
X85897000Y-47781000D01*
X85937000Y-43170000D02*
X85937000Y-44486000D01*
X85937000Y-46446000D02*
X85937000Y-47762000D01*
X85977000Y-43190000D02*
X85977000Y-44486000D01*
X85977000Y-46446000D02*
X85977000Y-47742000D01*
X86017000Y-43210000D02*
X86017000Y-44486000D01*
X86017000Y-46446000D02*
X86017000Y-47722000D01*
X86057000Y-43232000D02*
X86057000Y-44486000D01*
X86057000Y-46446000D02*
X86057000Y-47700000D01*
X86097000Y-43254000D02*
X86097000Y-44486000D01*
X86097000Y-46446000D02*
X86097000Y-47678000D01*
X86137000Y-43277000D02*
X86137000Y-44486000D01*
X86137000Y-46446000D02*
X86137000Y-47655000D01*
X86177000Y-43301000D02*
X86177000Y-44486000D01*
X86177000Y-46446000D02*
X86177000Y-47631000D01*
X86217000Y-43326000D02*
X86217000Y-44486000D01*
X86217000Y-46446000D02*
X86217000Y-47606000D01*
X86257000Y-43353000D02*
X86257000Y-44486000D01*
X86257000Y-46446000D02*
X86257000Y-47579000D01*
X86297000Y-43380000D02*
X86297000Y-44486000D01*
X86297000Y-46446000D02*
X86297000Y-47552000D01*
X86337000Y-43408000D02*
X86337000Y-44486000D01*
X86337000Y-46446000D02*
X86337000Y-47524000D01*
X86377000Y-43438000D02*
X86377000Y-44486000D01*
X86377000Y-46446000D02*
X86377000Y-47494000D01*
X86417000Y-43469000D02*
X86417000Y-44486000D01*
X86417000Y-46446000D02*
X86417000Y-47463000D01*
X86457000Y-43501000D02*
X86457000Y-44486000D01*
X86457000Y-46446000D02*
X86457000Y-47431000D01*
X86497000Y-43534000D02*
X86497000Y-44486000D01*
X86497000Y-46446000D02*
X86497000Y-47398000D01*
X86537000Y-43569000D02*
X86537000Y-44486000D01*
X86537000Y-46446000D02*
X86537000Y-47363000D01*
X86577000Y-43605000D02*
X86577000Y-44486000D01*
X86577000Y-46446000D02*
X86577000Y-47327000D01*
X86617000Y-43643000D02*
X86617000Y-44486000D01*
X86617000Y-46446000D02*
X86617000Y-47289000D01*
X86657000Y-43683000D02*
X86657000Y-44486000D01*
X86657000Y-46446000D02*
X86657000Y-47249000D01*
X86697000Y-43724000D02*
X86697000Y-44486000D01*
X86697000Y-46446000D02*
X86697000Y-47208000D01*
X86737000Y-43767000D02*
X86737000Y-44486000D01*
X86737000Y-46446000D02*
X86737000Y-47165000D01*
X86777000Y-43812000D02*
X86777000Y-44486000D01*
X86777000Y-46446000D02*
X86777000Y-47120000D01*
X86817000Y-43860000D02*
X86817000Y-44486000D01*
X86817000Y-46446000D02*
X86817000Y-47072000D01*
X86857000Y-43910000D02*
X86857000Y-44486000D01*
X86857000Y-46446000D02*
X86857000Y-47022000D01*
X86897000Y-43962000D02*
X86897000Y-44486000D01*
X86897000Y-46446000D02*
X86897000Y-46970000D01*
X86937000Y-44018000D02*
X86937000Y-44486000D01*
X86937000Y-46446000D02*
X86937000Y-46914000D01*
X86977000Y-44076000D02*
X86977000Y-44486000D01*
X86977000Y-46446000D02*
X86977000Y-46856000D01*
X87017000Y-44139000D02*
X87017000Y-44486000D01*
X87017000Y-46446000D02*
X87017000Y-46793000D01*
X87057000Y-44205000D02*
X87057000Y-46727000D01*
X87097000Y-44277000D02*
X87097000Y-46655000D01*
X87137000Y-44354000D02*
X87137000Y-46578000D01*
X87177000Y-44438000D02*
X87177000Y-46494000D01*
X87217000Y-44532000D02*
X87217000Y-46400000D01*
X87257000Y-44637000D02*
X87257000Y-46295000D01*
X87297000Y-44759000D02*
X87297000Y-46173000D01*
X87337000Y-44907000D02*
X87337000Y-46025000D01*
X87377000Y-45112000D02*
X87377000Y-45820000D01*
X81366000Y-45466000D02*
X82566000Y-45466000D01*
X81966000Y-44816000D02*
X81966000Y-46116000D01*
D13*
X35560000Y-28575000D02*
X35560000Y-90805000D01*
X115570000Y-28575000D02*
X115570000Y-90805000D01*
X110490000Y-23495000D02*
X40640000Y-23495000D01*
X40640000Y-95885000D02*
X110490000Y-95885000D01*
X40640000Y-23495000D02*
G75*
G03X35560000Y-28575000I0J-5080000D01*
G01*
X115570000Y-28575000D02*
G75*
G03X110490000Y-23495000I-5080000J0D01*
G01*
X110490000Y-95885000D02*
G75*
G03X115570000Y-90805000I0J5080000D01*
G01*
X35560000Y-90805000D02*
G75*
G03X40640000Y-95885000I5080000J0D01*
G01*
X45720000Y-36195000D02*
X45720000Y-56515000D01*
X48260000Y-56515000D02*
X48260000Y-36195000D01*
X111760000Y-76835000D02*
X111760000Y-61595000D01*
X109220000Y-61595000D02*
X109220000Y-76835000D01*
X45720000Y-81915000D02*
X45720000Y-84455000D01*
X45720000Y-84455000D02*
X48260000Y-84455000D01*
X48260000Y-84455000D02*
X48260000Y-81915000D01*
X45720000Y-34290000D02*
X45720000Y-36195000D01*
X45720000Y-34290000D02*
X46355000Y-33655000D01*
X46355000Y-33655000D02*
X48260000Y-33655000D01*
X48260000Y-33655000D02*
X48260000Y-36195000D01*
X48260000Y-59055000D02*
X45720000Y-59055000D01*
X45720000Y-59055000D02*
X45720000Y-79375000D01*
X45720000Y-79375000D02*
X48260000Y-79375000D01*
X48260000Y-79375000D02*
X48260000Y-59055000D01*
X109220000Y-84455000D02*
X111760000Y-84455000D01*
X111760000Y-84455000D02*
X111760000Y-79375000D01*
X111760000Y-79375000D02*
X109220000Y-79375000D01*
X109220000Y-79375000D02*
X109220000Y-84455000D01*
X111760000Y-33655000D02*
X111760000Y-59055000D01*
X111760000Y-59055000D02*
X109220000Y-59055000D01*
X109220000Y-59055000D02*
X109220000Y-33655000D01*
X109220000Y-33655000D02*
X111760000Y-33655000D01*
X77343095Y-51692381D02*
X77343095Y-52501905D01*
X77390714Y-52597143D01*
X77438333Y-52644762D01*
X77533571Y-52692381D01*
X77724048Y-52692381D01*
X77819286Y-52644762D01*
X77866905Y-52597143D01*
X77914524Y-52501905D01*
X77914524Y-51692381D01*
X78343095Y-51787619D02*
X78390714Y-51740000D01*
X78485952Y-51692381D01*
X78724048Y-51692381D01*
X78819286Y-51740000D01*
X78866905Y-51787619D01*
X78914524Y-51882857D01*
X78914524Y-51978095D01*
X78866905Y-52120952D01*
X78295476Y-52692381D01*
X78914524Y-52692381D01*
X53236905Y-24797381D02*
X53236905Y-23797381D01*
X53475000Y-23797381D01*
X53617858Y-23845000D01*
X53713096Y-23940238D01*
X53760715Y-24035476D01*
X53808334Y-24225952D01*
X53808334Y-24368810D01*
X53760715Y-24559286D01*
X53713096Y-24654524D01*
X53617858Y-24749762D01*
X53475000Y-24797381D01*
X53236905Y-24797381D01*
X54760715Y-24797381D02*
X54189286Y-24797381D01*
X54475000Y-24797381D02*
X54475000Y-23797381D01*
X54379762Y-23940238D01*
X54284524Y-24035476D01*
X54189286Y-24083095D01*
X53332143Y-30717381D02*
X52998809Y-30241190D01*
X52760714Y-30717381D02*
X52760714Y-29717381D01*
X53141667Y-29717381D01*
X53236905Y-29765000D01*
X53284524Y-29812619D01*
X53332143Y-29907857D01*
X53332143Y-30050714D01*
X53284524Y-30145952D01*
X53236905Y-30193571D01*
X53141667Y-30241190D01*
X52760714Y-30241190D01*
X53760714Y-30193571D02*
X54094048Y-30193571D01*
X54236905Y-30717381D02*
X53760714Y-30717381D01*
X53760714Y-29717381D01*
X54236905Y-29717381D01*
X54665476Y-30717381D02*
X54665476Y-29717381D01*
X54903571Y-29717381D01*
X55046429Y-29765000D01*
X55141667Y-29860238D01*
X55189286Y-29955476D01*
X55236905Y-30145952D01*
X55236905Y-30288810D01*
X55189286Y-30479286D01*
X55141667Y-30574524D01*
X55046429Y-30669762D01*
X54903571Y-30717381D01*
X54665476Y-30717381D01*
X59586905Y-24797381D02*
X59586905Y-23797381D01*
X59825000Y-23797381D01*
X59967858Y-23845000D01*
X60063096Y-23940238D01*
X60110715Y-24035476D01*
X60158334Y-24225952D01*
X60158334Y-24368810D01*
X60110715Y-24559286D01*
X60063096Y-24654524D01*
X59967858Y-24749762D01*
X59825000Y-24797381D01*
X59586905Y-24797381D01*
X60539286Y-23892619D02*
X60586905Y-23845000D01*
X60682143Y-23797381D01*
X60920239Y-23797381D01*
X61015477Y-23845000D01*
X61063096Y-23892619D01*
X61110715Y-23987857D01*
X61110715Y-24083095D01*
X61063096Y-24225952D01*
X60491667Y-24797381D01*
X61110715Y-24797381D01*
X57825000Y-29717381D02*
X58015477Y-29717381D01*
X58110715Y-29765000D01*
X58205953Y-29860238D01*
X58253572Y-30050714D01*
X58253572Y-30384048D01*
X58205953Y-30574524D01*
X58110715Y-30669762D01*
X58015477Y-30717381D01*
X57825000Y-30717381D01*
X57729762Y-30669762D01*
X57634524Y-30574524D01*
X57586905Y-30384048D01*
X57586905Y-30050714D01*
X57634524Y-29860238D01*
X57729762Y-29765000D01*
X57825000Y-29717381D01*
X59253572Y-30717381D02*
X58920238Y-30241190D01*
X58682143Y-30717381D02*
X58682143Y-29717381D01*
X59063096Y-29717381D01*
X59158334Y-29765000D01*
X59205953Y-29812619D01*
X59253572Y-29907857D01*
X59253572Y-30050714D01*
X59205953Y-30145952D01*
X59158334Y-30193571D01*
X59063096Y-30241190D01*
X58682143Y-30241190D01*
X59634524Y-30431667D02*
X60110715Y-30431667D01*
X59539286Y-30717381D02*
X59872619Y-29717381D01*
X60205953Y-30717381D01*
X60539286Y-30717381D02*
X60539286Y-29717381D01*
X61110715Y-30717381D01*
X61110715Y-29717381D01*
X62110715Y-29765000D02*
X62015477Y-29717381D01*
X61872620Y-29717381D01*
X61729762Y-29765000D01*
X61634524Y-29860238D01*
X61586905Y-29955476D01*
X61539286Y-30145952D01*
X61539286Y-30288810D01*
X61586905Y-30479286D01*
X61634524Y-30574524D01*
X61729762Y-30669762D01*
X61872620Y-30717381D01*
X61967858Y-30717381D01*
X62110715Y-30669762D01*
X62158334Y-30622143D01*
X62158334Y-30288810D01*
X61967858Y-30288810D01*
X62586905Y-30193571D02*
X62920239Y-30193571D01*
X63063096Y-30717381D02*
X62586905Y-30717381D01*
X62586905Y-29717381D01*
X63063096Y-29717381D01*
X65936905Y-24797381D02*
X65936905Y-23797381D01*
X66175000Y-23797381D01*
X66317858Y-23845000D01*
X66413096Y-23940238D01*
X66460715Y-24035476D01*
X66508334Y-24225952D01*
X66508334Y-24368810D01*
X66460715Y-24559286D01*
X66413096Y-24654524D01*
X66317858Y-24749762D01*
X66175000Y-24797381D01*
X65936905Y-24797381D01*
X66841667Y-23797381D02*
X67460715Y-23797381D01*
X67127381Y-24178333D01*
X67270239Y-24178333D01*
X67365477Y-24225952D01*
X67413096Y-24273571D01*
X67460715Y-24368810D01*
X67460715Y-24606905D01*
X67413096Y-24702143D01*
X67365477Y-24749762D01*
X67270239Y-24797381D01*
X66984524Y-24797381D01*
X66889286Y-24749762D01*
X66841667Y-24702143D01*
X65008334Y-29765000D02*
X64913096Y-29717381D01*
X64770239Y-29717381D01*
X64627381Y-29765000D01*
X64532143Y-29860238D01*
X64484524Y-29955476D01*
X64436905Y-30145952D01*
X64436905Y-30288810D01*
X64484524Y-30479286D01*
X64532143Y-30574524D01*
X64627381Y-30669762D01*
X64770239Y-30717381D01*
X64865477Y-30717381D01*
X65008334Y-30669762D01*
X65055953Y-30622143D01*
X65055953Y-30288810D01*
X64865477Y-30288810D01*
X66055953Y-30717381D02*
X65722619Y-30241190D01*
X65484524Y-30717381D02*
X65484524Y-29717381D01*
X65865477Y-29717381D01*
X65960715Y-29765000D01*
X66008334Y-29812619D01*
X66055953Y-29907857D01*
X66055953Y-30050714D01*
X66008334Y-30145952D01*
X65960715Y-30193571D01*
X65865477Y-30241190D01*
X65484524Y-30241190D01*
X66484524Y-30193571D02*
X66817858Y-30193571D01*
X66960715Y-30717381D02*
X66484524Y-30717381D01*
X66484524Y-29717381D01*
X66960715Y-29717381D01*
X67389286Y-30193571D02*
X67722620Y-30193571D01*
X67865477Y-30717381D02*
X67389286Y-30717381D01*
X67389286Y-29717381D01*
X67865477Y-29717381D01*
X68294048Y-30717381D02*
X68294048Y-29717381D01*
X68865477Y-30717381D01*
X68865477Y-29717381D01*
X43823095Y-93797381D02*
X43823095Y-92797381D01*
X44204048Y-92797381D01*
X44299286Y-92845000D01*
X44346905Y-92892619D01*
X44394524Y-92987857D01*
X44394524Y-93130714D01*
X44346905Y-93225952D01*
X44299286Y-93273571D01*
X44204048Y-93321190D01*
X43823095Y-93321190D01*
X44823095Y-93797381D02*
X44823095Y-92797381D01*
X45061190Y-92797381D01*
X45204048Y-92845000D01*
X45299286Y-92940238D01*
X45346905Y-93035476D01*
X45394524Y-93225952D01*
X45394524Y-93368810D01*
X45346905Y-93559286D01*
X45299286Y-93654524D01*
X45204048Y-93749762D01*
X45061190Y-93797381D01*
X44823095Y-93797381D01*
X46156429Y-93273571D02*
X46299286Y-93321190D01*
X46346905Y-93368810D01*
X46394524Y-93464048D01*
X46394524Y-93606905D01*
X46346905Y-93702143D01*
X46299286Y-93749762D01*
X46204048Y-93797381D01*
X45823095Y-93797381D01*
X45823095Y-92797381D01*
X46156429Y-92797381D01*
X46251667Y-92845000D01*
X46299286Y-92892619D01*
X46346905Y-92987857D01*
X46346905Y-93083095D01*
X46299286Y-93178333D01*
X46251667Y-93225952D01*
X46156429Y-93273571D01*
X45823095Y-93273571D01*
X63801667Y-84542381D02*
X63801667Y-85256667D01*
X63754047Y-85399524D01*
X63658809Y-85494762D01*
X63515952Y-85542381D01*
X63420714Y-85542381D01*
X64230238Y-84637619D02*
X64277857Y-84590000D01*
X64373095Y-84542381D01*
X64611191Y-84542381D01*
X64706429Y-84590000D01*
X64754048Y-84637619D01*
X64801667Y-84732857D01*
X64801667Y-84828095D01*
X64754048Y-84970952D01*
X64182619Y-85542381D01*
X64801667Y-85542381D01*
X90936381Y-91773333D02*
X91650667Y-91773333D01*
X91793524Y-91820953D01*
X91888762Y-91916191D01*
X91936381Y-92059048D01*
X91936381Y-92154286D01*
X90936381Y-91392381D02*
X90936381Y-90773333D01*
X91317333Y-91106667D01*
X91317333Y-90963809D01*
X91364952Y-90868571D01*
X91412571Y-90820952D01*
X91507810Y-90773333D01*
X91745905Y-90773333D01*
X91841143Y-90820952D01*
X91888762Y-90868571D01*
X91936381Y-90963809D01*
X91936381Y-91249524D01*
X91888762Y-91344762D01*
X91841143Y-91392381D01*
X82542286Y-88082381D02*
X82542286Y-87082381D01*
X82923239Y-87082381D01*
X83018477Y-87130000D01*
X83066096Y-87177619D01*
X83113715Y-87272857D01*
X83113715Y-87415714D01*
X83066096Y-87510952D01*
X83018477Y-87558571D01*
X82923239Y-87606190D01*
X82542286Y-87606190D01*
X84113715Y-88082381D02*
X83780381Y-87606190D01*
X83542286Y-88082381D02*
X83542286Y-87082381D01*
X83923239Y-87082381D01*
X84018477Y-87130000D01*
X84066096Y-87177619D01*
X84113715Y-87272857D01*
X84113715Y-87415714D01*
X84066096Y-87510952D01*
X84018477Y-87558571D01*
X83923239Y-87606190D01*
X83542286Y-87606190D01*
X84732762Y-87082381D02*
X84923239Y-87082381D01*
X85018477Y-87130000D01*
X85113715Y-87225238D01*
X85161334Y-87415714D01*
X85161334Y-87749048D01*
X85113715Y-87939524D01*
X85018477Y-88034762D01*
X84923239Y-88082381D01*
X84732762Y-88082381D01*
X84637524Y-88034762D01*
X84542286Y-87939524D01*
X84494667Y-87749048D01*
X84494667Y-87415714D01*
X84542286Y-87225238D01*
X84637524Y-87130000D01*
X84732762Y-87082381D01*
X86113715Y-87130000D02*
X86018477Y-87082381D01*
X85875620Y-87082381D01*
X85732762Y-87130000D01*
X85637524Y-87225238D01*
X85589905Y-87320476D01*
X85542286Y-87510952D01*
X85542286Y-87653810D01*
X85589905Y-87844286D01*
X85637524Y-87939524D01*
X85732762Y-88034762D01*
X85875620Y-88082381D01*
X85970858Y-88082381D01*
X86113715Y-88034762D01*
X86161334Y-87987143D01*
X86161334Y-87653810D01*
X85970858Y-87653810D01*
D18*
X94699667Y-88540167D02*
X94699667Y-89175167D01*
X94657333Y-89302167D01*
X94572667Y-89386833D01*
X94445667Y-89429167D01*
X94361000Y-89429167D01*
X95250000Y-88921167D02*
X95165333Y-88878833D01*
X95123000Y-88836500D01*
X95080666Y-88751833D01*
X95080666Y-88709500D01*
X95123000Y-88624833D01*
X95165333Y-88582500D01*
X95250000Y-88540167D01*
X95419333Y-88540167D01*
X95504000Y-88582500D01*
X95546333Y-88624833D01*
X95588666Y-88709500D01*
X95588666Y-88751833D01*
X95546333Y-88836500D01*
X95504000Y-88878833D01*
X95419333Y-88921167D01*
X95250000Y-88921167D01*
X95165333Y-88963500D01*
X95123000Y-89005833D01*
X95080666Y-89090500D01*
X95080666Y-89259833D01*
X95123000Y-89344500D01*
X95165333Y-89386833D01*
X95250000Y-89429167D01*
X95419333Y-89429167D01*
X95504000Y-89386833D01*
X95546333Y-89344500D01*
X95588666Y-89259833D01*
X95588666Y-89090500D01*
X95546333Y-89005833D01*
X95504000Y-88963500D01*
X95419333Y-88921167D01*
X101049667Y-88540167D02*
X101049667Y-89175167D01*
X101007333Y-89302167D01*
X100922667Y-89386833D01*
X100795667Y-89429167D01*
X100711000Y-89429167D01*
X101515333Y-89429167D02*
X101684666Y-89429167D01*
X101769333Y-89386833D01*
X101811666Y-89344500D01*
X101896333Y-89217500D01*
X101938666Y-89048167D01*
X101938666Y-88709500D01*
X101896333Y-88624833D01*
X101854000Y-88582500D01*
X101769333Y-88540167D01*
X101600000Y-88540167D01*
X101515333Y-88582500D01*
X101473000Y-88624833D01*
X101430666Y-88709500D01*
X101430666Y-88921167D01*
X101473000Y-89005833D01*
X101515333Y-89048167D01*
X101600000Y-89090500D01*
X101769333Y-89090500D01*
X101854000Y-89048167D01*
X101896333Y-89005833D01*
X101938666Y-88921167D01*
D19*
X105754714Y-90278856D02*
X104992714Y-90278856D01*
X105065286Y-89952285D02*
X105029000Y-89915999D01*
X104992714Y-89843428D01*
X104992714Y-89661999D01*
X105029000Y-89589428D01*
X105065286Y-89553142D01*
X105137857Y-89516857D01*
X105210429Y-89516857D01*
X105319286Y-89553142D01*
X105754714Y-89988571D01*
X105754714Y-89516857D01*
X105682143Y-88754857D02*
X105718429Y-88791143D01*
X105754714Y-88900000D01*
X105754714Y-88972571D01*
X105718429Y-89081428D01*
X105645857Y-89154000D01*
X105573286Y-89190285D01*
X105428143Y-89226571D01*
X105319286Y-89226571D01*
X105174143Y-89190285D01*
X105101571Y-89154000D01*
X105029000Y-89081428D01*
X104992714Y-88972571D01*
X104992714Y-88900000D01*
X105029000Y-88791143D01*
X105065286Y-88754857D01*
D13*
X81621334Y-73858381D02*
X81288000Y-73382190D01*
X81049905Y-73858381D02*
X81049905Y-72858381D01*
X81430858Y-72858381D01*
X81526096Y-72906000D01*
X81573715Y-72953619D01*
X81621334Y-73048857D01*
X81621334Y-73191714D01*
X81573715Y-73286952D01*
X81526096Y-73334571D01*
X81430858Y-73382190D01*
X81049905Y-73382190D01*
X82573715Y-73858381D02*
X82002286Y-73858381D01*
X82288000Y-73858381D02*
X82288000Y-72858381D01*
X82192762Y-73001238D01*
X82097524Y-73096476D01*
X82002286Y-73144095D01*
X81097524Y-71953381D02*
X80526095Y-71953381D01*
X80811809Y-71953381D02*
X80811809Y-70953381D01*
X80716571Y-71096238D01*
X80621333Y-71191476D01*
X80526095Y-71239095D01*
X81716571Y-70953381D02*
X81811810Y-70953381D01*
X81907048Y-71001000D01*
X81954667Y-71048619D01*
X82002286Y-71143857D01*
X82049905Y-71334333D01*
X82049905Y-71572429D01*
X82002286Y-71762905D01*
X81954667Y-71858143D01*
X81907048Y-71905762D01*
X81811810Y-71953381D01*
X81716571Y-71953381D01*
X81621333Y-71905762D01*
X81573714Y-71858143D01*
X81526095Y-71762905D01*
X81478476Y-71572429D01*
X81478476Y-71334333D01*
X81526095Y-71143857D01*
X81573714Y-71048619D01*
X81621333Y-71001000D01*
X81716571Y-70953381D01*
X82478476Y-71953381D02*
X82478476Y-70953381D01*
X83049905Y-71953381D02*
X82621333Y-71381952D01*
X83049905Y-70953381D02*
X82478476Y-71524810D01*
X55697381Y-36361666D02*
X55221190Y-36695000D01*
X55697381Y-36933095D02*
X54697381Y-36933095D01*
X54697381Y-36552142D01*
X54745000Y-36456904D01*
X54792619Y-36409285D01*
X54887857Y-36361666D01*
X55030714Y-36361666D01*
X55125952Y-36409285D01*
X55173571Y-36456904D01*
X55221190Y-36552142D01*
X55221190Y-36933095D01*
X54792619Y-35980714D02*
X54745000Y-35933095D01*
X54697381Y-35837857D01*
X54697381Y-35599761D01*
X54745000Y-35504523D01*
X54792619Y-35456904D01*
X54887857Y-35409285D01*
X54983095Y-35409285D01*
X55125952Y-35456904D01*
X55697381Y-36028333D01*
X55697381Y-35409285D01*
X53170714Y-36956904D02*
X53837381Y-36956904D01*
X52789762Y-37195000D02*
X53504048Y-37433095D01*
X53504048Y-36814047D01*
X52837381Y-36528333D02*
X52837381Y-35861666D01*
X53837381Y-36290238D01*
X52837381Y-35290238D02*
X52837381Y-35194999D01*
X52885000Y-35099761D01*
X52932619Y-35052142D01*
X53027857Y-35004523D01*
X53218333Y-34956904D01*
X53456429Y-34956904D01*
X53646905Y-35004523D01*
X53742143Y-35052142D01*
X53789762Y-35099761D01*
X53837381Y-35194999D01*
X53837381Y-35290238D01*
X53789762Y-35385476D01*
X53742143Y-35433095D01*
X53646905Y-35480714D01*
X53456429Y-35528333D01*
X53218333Y-35528333D01*
X53027857Y-35480714D01*
X52932619Y-35433095D01*
X52885000Y-35385476D01*
X52837381Y-35290238D01*
X62047381Y-36361666D02*
X61571190Y-36695000D01*
X62047381Y-36933095D02*
X61047381Y-36933095D01*
X61047381Y-36552142D01*
X61095000Y-36456904D01*
X61142619Y-36409285D01*
X61237857Y-36361666D01*
X61380714Y-36361666D01*
X61475952Y-36409285D01*
X61523571Y-36456904D01*
X61571190Y-36552142D01*
X61571190Y-36933095D01*
X61047381Y-36028333D02*
X61047381Y-35409285D01*
X61428333Y-35742619D01*
X61428333Y-35599761D01*
X61475952Y-35504523D01*
X61523571Y-35456904D01*
X61618810Y-35409285D01*
X61856905Y-35409285D01*
X61952143Y-35456904D01*
X61999762Y-35504523D01*
X62047381Y-35599761D01*
X62047381Y-35885476D01*
X61999762Y-35980714D01*
X61952143Y-36028333D01*
X59520714Y-36956904D02*
X60187381Y-36956904D01*
X59139762Y-37195000D02*
X59854048Y-37433095D01*
X59854048Y-36814047D01*
X59187381Y-36528333D02*
X59187381Y-35861666D01*
X60187381Y-36290238D01*
X59187381Y-35290238D02*
X59187381Y-35194999D01*
X59235000Y-35099761D01*
X59282619Y-35052142D01*
X59377857Y-35004523D01*
X59568333Y-34956904D01*
X59806429Y-34956904D01*
X59996905Y-35004523D01*
X60092143Y-35052142D01*
X60139762Y-35099761D01*
X60187381Y-35194999D01*
X60187381Y-35290238D01*
X60139762Y-35385476D01*
X60092143Y-35433095D01*
X59996905Y-35480714D01*
X59806429Y-35528333D01*
X59568333Y-35528333D01*
X59377857Y-35480714D01*
X59282619Y-35433095D01*
X59235000Y-35385476D01*
X59187381Y-35290238D01*
X68397381Y-36361666D02*
X67921190Y-36695000D01*
X68397381Y-36933095D02*
X67397381Y-36933095D01*
X67397381Y-36552142D01*
X67445000Y-36456904D01*
X67492619Y-36409285D01*
X67587857Y-36361666D01*
X67730714Y-36361666D01*
X67825952Y-36409285D01*
X67873571Y-36456904D01*
X67921190Y-36552142D01*
X67921190Y-36933095D01*
X67730714Y-35504523D02*
X68397381Y-35504523D01*
X67349762Y-35742619D02*
X68064048Y-35980714D01*
X68064048Y-35361666D01*
X65870714Y-36956904D02*
X66537381Y-36956904D01*
X65489762Y-37195000D02*
X66204048Y-37433095D01*
X66204048Y-36814047D01*
X65537381Y-36528333D02*
X65537381Y-35861666D01*
X66537381Y-36290238D01*
X65537381Y-35290238D02*
X65537381Y-35194999D01*
X65585000Y-35099761D01*
X65632619Y-35052142D01*
X65727857Y-35004523D01*
X65918333Y-34956904D01*
X66156429Y-34956904D01*
X66346905Y-35004523D01*
X66442143Y-35052142D01*
X66489762Y-35099761D01*
X66537381Y-35194999D01*
X66537381Y-35290238D01*
X66489762Y-35385476D01*
X66442143Y-35433095D01*
X66346905Y-35480714D01*
X66156429Y-35528333D01*
X65918333Y-35528333D01*
X65727857Y-35480714D01*
X65632619Y-35433095D01*
X65585000Y-35385476D01*
X65537381Y-35290238D01*
X94591190Y-58896191D02*
X95067381Y-58896191D01*
X94067381Y-59229524D02*
X94591190Y-58896191D01*
X94067381Y-58562857D01*
X95067381Y-57705714D02*
X95067381Y-58277143D01*
X95067381Y-57991429D02*
X94067381Y-57991429D01*
X94210238Y-58086667D01*
X94305476Y-58181905D01*
X94353095Y-58277143D01*
X105132143Y-61126666D02*
X105179762Y-61174285D01*
X105227381Y-61317142D01*
X105227381Y-61412380D01*
X105179762Y-61555238D01*
X105084524Y-61650476D01*
X104989286Y-61698095D01*
X104798810Y-61745714D01*
X104655952Y-61745714D01*
X104465476Y-61698095D01*
X104370238Y-61650476D01*
X104275000Y-61555238D01*
X104227381Y-61412380D01*
X104227381Y-61317142D01*
X104275000Y-61174285D01*
X104322619Y-61126666D01*
X105227381Y-60174285D02*
X105227381Y-60745714D01*
X105227381Y-60460000D02*
X104227381Y-60460000D01*
X104370238Y-60555238D01*
X104465476Y-60650476D01*
X104513095Y-60745714D01*
X105132143Y-56046666D02*
X105179762Y-56094285D01*
X105227381Y-56237142D01*
X105227381Y-56332380D01*
X105179762Y-56475238D01*
X105084524Y-56570476D01*
X104989286Y-56618095D01*
X104798810Y-56665714D01*
X104655952Y-56665714D01*
X104465476Y-56618095D01*
X104370238Y-56570476D01*
X104275000Y-56475238D01*
X104227381Y-56332380D01*
X104227381Y-56237142D01*
X104275000Y-56094285D01*
X104322619Y-56046666D01*
X104322619Y-55665714D02*
X104275000Y-55618095D01*
X104227381Y-55522857D01*
X104227381Y-55284761D01*
X104275000Y-55189523D01*
X104322619Y-55141904D01*
X104417857Y-55094285D01*
X104513095Y-55094285D01*
X104655952Y-55141904D01*
X105227381Y-55713333D01*
X105227381Y-55094285D01*
X58547143Y-84601666D02*
X58594762Y-84649285D01*
X58642381Y-84792142D01*
X58642381Y-84887380D01*
X58594762Y-85030238D01*
X58499524Y-85125476D01*
X58404286Y-85173095D01*
X58213810Y-85220714D01*
X58070952Y-85220714D01*
X57880476Y-85173095D01*
X57785238Y-85125476D01*
X57690000Y-85030238D01*
X57642381Y-84887380D01*
X57642381Y-84792142D01*
X57690000Y-84649285D01*
X57737619Y-84601666D01*
X57642381Y-84268333D02*
X57642381Y-83649285D01*
X58023333Y-83982619D01*
X58023333Y-83839761D01*
X58070952Y-83744523D01*
X58118571Y-83696904D01*
X58213810Y-83649285D01*
X58451905Y-83649285D01*
X58547143Y-83696904D01*
X58594762Y-83744523D01*
X58642381Y-83839761D01*
X58642381Y-84125476D01*
X58594762Y-84220714D01*
X58547143Y-84268333D01*
X52157334Y-89003143D02*
X52109715Y-89050762D01*
X51966858Y-89098381D01*
X51871620Y-89098381D01*
X51728762Y-89050762D01*
X51633524Y-88955524D01*
X51585905Y-88860286D01*
X51538286Y-88669810D01*
X51538286Y-88526952D01*
X51585905Y-88336476D01*
X51633524Y-88241238D01*
X51728762Y-88146000D01*
X51871620Y-88098381D01*
X51966858Y-88098381D01*
X52109715Y-88146000D01*
X52157334Y-88193619D01*
X53014477Y-88431714D02*
X53014477Y-89098381D01*
X52776381Y-88050762D02*
X52538286Y-88765048D01*
X53157334Y-88765048D01*
X74422143Y-84601666D02*
X74469762Y-84649285D01*
X74517381Y-84792142D01*
X74517381Y-84887380D01*
X74469762Y-85030238D01*
X74374524Y-85125476D01*
X74279286Y-85173095D01*
X74088810Y-85220714D01*
X73945952Y-85220714D01*
X73755476Y-85173095D01*
X73660238Y-85125476D01*
X73565000Y-85030238D01*
X73517381Y-84887380D01*
X73517381Y-84792142D01*
X73565000Y-84649285D01*
X73612619Y-84601666D01*
X73517381Y-83696904D02*
X73517381Y-84173095D01*
X73993571Y-84220714D01*
X73945952Y-84173095D01*
X73898333Y-84077857D01*
X73898333Y-83839761D01*
X73945952Y-83744523D01*
X73993571Y-83696904D01*
X74088810Y-83649285D01*
X74326905Y-83649285D01*
X74422143Y-83696904D01*
X74469762Y-83744523D01*
X74517381Y-83839761D01*
X74517381Y-84077857D01*
X74469762Y-84173095D01*
X74422143Y-84220714D01*
X74763334Y-89003143D02*
X74715715Y-89050762D01*
X74572858Y-89098381D01*
X74477620Y-89098381D01*
X74334762Y-89050762D01*
X74239524Y-88955524D01*
X74191905Y-88860286D01*
X74144286Y-88669810D01*
X74144286Y-88526952D01*
X74191905Y-88336476D01*
X74239524Y-88241238D01*
X74334762Y-88146000D01*
X74477620Y-88098381D01*
X74572858Y-88098381D01*
X74715715Y-88146000D01*
X74763334Y-88193619D01*
X75620477Y-88098381D02*
X75430000Y-88098381D01*
X75334762Y-88146000D01*
X75287143Y-88193619D01*
X75191905Y-88336476D01*
X75144286Y-88526952D01*
X75144286Y-88907905D01*
X75191905Y-89003143D01*
X75239524Y-89050762D01*
X75334762Y-89098381D01*
X75525239Y-89098381D01*
X75620477Y-89050762D01*
X75668096Y-89003143D01*
X75715715Y-88907905D01*
X75715715Y-88669810D01*
X75668096Y-88574571D01*
X75620477Y-88526952D01*
X75525239Y-88479333D01*
X75334762Y-88479333D01*
X75239524Y-88526952D01*
X75191905Y-88574571D01*
X75144286Y-88669810D01*
X62083334Y-67032143D02*
X62035715Y-67079762D01*
X61892858Y-67127381D01*
X61797620Y-67127381D01*
X61654762Y-67079762D01*
X61559524Y-66984524D01*
X61511905Y-66889286D01*
X61464286Y-66698810D01*
X61464286Y-66555952D01*
X61511905Y-66365476D01*
X61559524Y-66270238D01*
X61654762Y-66175000D01*
X61797620Y-66127381D01*
X61892858Y-66127381D01*
X62035715Y-66175000D01*
X62083334Y-66222619D01*
X62416667Y-66127381D02*
X63083334Y-66127381D01*
X62654762Y-67127381D01*
X84177143Y-83224666D02*
X84224762Y-83272285D01*
X84272381Y-83415142D01*
X84272381Y-83510380D01*
X84224762Y-83653238D01*
X84129524Y-83748476D01*
X84034286Y-83796095D01*
X83843810Y-83843714D01*
X83700952Y-83843714D01*
X83510476Y-83796095D01*
X83415238Y-83748476D01*
X83320000Y-83653238D01*
X83272381Y-83510380D01*
X83272381Y-83415142D01*
X83320000Y-83272285D01*
X83367619Y-83224666D01*
X83700952Y-82653238D02*
X83653333Y-82748476D01*
X83605714Y-82796095D01*
X83510476Y-82843714D01*
X83462857Y-82843714D01*
X83367619Y-82796095D01*
X83320000Y-82748476D01*
X83272381Y-82653238D01*
X83272381Y-82462761D01*
X83320000Y-82367523D01*
X83367619Y-82319904D01*
X83462857Y-82272285D01*
X83510476Y-82272285D01*
X83605714Y-82319904D01*
X83653333Y-82367523D01*
X83700952Y-82462761D01*
X83700952Y-82653238D01*
X83748571Y-82748476D01*
X83796190Y-82796095D01*
X83891429Y-82843714D01*
X84081905Y-82843714D01*
X84177143Y-82796095D01*
X84224762Y-82748476D01*
X84272381Y-82653238D01*
X84272381Y-82462761D01*
X84224762Y-82367523D01*
X84177143Y-82319904D01*
X84081905Y-82272285D01*
X83891429Y-82272285D01*
X83796190Y-82319904D01*
X83748571Y-82367523D01*
X83700952Y-82462761D01*
X76557143Y-77636666D02*
X76604762Y-77684285D01*
X76652381Y-77827142D01*
X76652381Y-77922380D01*
X76604762Y-78065238D01*
X76509524Y-78160476D01*
X76414286Y-78208095D01*
X76223810Y-78255714D01*
X76080952Y-78255714D01*
X75890476Y-78208095D01*
X75795238Y-78160476D01*
X75700000Y-78065238D01*
X75652381Y-77922380D01*
X75652381Y-77827142D01*
X75700000Y-77684285D01*
X75747619Y-77636666D01*
X76652381Y-77160476D02*
X76652381Y-76970000D01*
X76604762Y-76874761D01*
X76557143Y-76827142D01*
X76414286Y-76731904D01*
X76223810Y-76684285D01*
X75842857Y-76684285D01*
X75747619Y-76731904D01*
X75700000Y-76779523D01*
X75652381Y-76874761D01*
X75652381Y-77065238D01*
X75700000Y-77160476D01*
X75747619Y-77208095D01*
X75842857Y-77255714D01*
X76080952Y-77255714D01*
X76176190Y-77208095D01*
X76223810Y-77160476D01*
X76271429Y-77065238D01*
X76271429Y-76874761D01*
X76223810Y-76779523D01*
X76176190Y-76731904D01*
X76080952Y-76684285D01*
X100322143Y-73382143D02*
X100274524Y-73429762D01*
X100131667Y-73477381D01*
X100036429Y-73477381D01*
X99893571Y-73429762D01*
X99798333Y-73334524D01*
X99750714Y-73239286D01*
X99703095Y-73048810D01*
X99703095Y-72905952D01*
X99750714Y-72715476D01*
X99798333Y-72620238D01*
X99893571Y-72525000D01*
X100036429Y-72477381D01*
X100131667Y-72477381D01*
X100274524Y-72525000D01*
X100322143Y-72572619D01*
X101274524Y-73477381D02*
X100703095Y-73477381D01*
X100988809Y-73477381D02*
X100988809Y-72477381D01*
X100893571Y-72620238D01*
X100798333Y-72715476D01*
X100703095Y-72763095D01*
X101893571Y-72477381D02*
X101988810Y-72477381D01*
X102084048Y-72525000D01*
X102131667Y-72572619D01*
X102179286Y-72667857D01*
X102226905Y-72858333D01*
X102226905Y-73096429D01*
X102179286Y-73286905D01*
X102131667Y-73382143D01*
X102084048Y-73429762D01*
X101988810Y-73477381D01*
X101893571Y-73477381D01*
X101798333Y-73429762D01*
X101750714Y-73382143D01*
X101703095Y-73286905D01*
X101655476Y-73096429D01*
X101655476Y-72858333D01*
X101703095Y-72667857D01*
X101750714Y-72572619D01*
X101798333Y-72525000D01*
X101893571Y-72477381D01*
X93972143Y-73382143D02*
X93924524Y-73429762D01*
X93781667Y-73477381D01*
X93686429Y-73477381D01*
X93543571Y-73429762D01*
X93448333Y-73334524D01*
X93400714Y-73239286D01*
X93353095Y-73048810D01*
X93353095Y-72905952D01*
X93400714Y-72715476D01*
X93448333Y-72620238D01*
X93543571Y-72525000D01*
X93686429Y-72477381D01*
X93781667Y-72477381D01*
X93924524Y-72525000D01*
X93972143Y-72572619D01*
X94924524Y-73477381D02*
X94353095Y-73477381D01*
X94638809Y-73477381D02*
X94638809Y-72477381D01*
X94543571Y-72620238D01*
X94448333Y-72715476D01*
X94353095Y-72763095D01*
X95876905Y-73477381D02*
X95305476Y-73477381D01*
X95591190Y-73477381D02*
X95591190Y-72477381D01*
X95495952Y-72620238D01*
X95400714Y-72715476D01*
X95305476Y-72763095D01*
X85955143Y-40012857D02*
X86002762Y-40060476D01*
X86050381Y-40203333D01*
X86050381Y-40298571D01*
X86002762Y-40441429D01*
X85907524Y-40536667D01*
X85812286Y-40584286D01*
X85621810Y-40631905D01*
X85478952Y-40631905D01*
X85288476Y-40584286D01*
X85193238Y-40536667D01*
X85098000Y-40441429D01*
X85050381Y-40298571D01*
X85050381Y-40203333D01*
X85098000Y-40060476D01*
X85145619Y-40012857D01*
X86050381Y-39060476D02*
X86050381Y-39631905D01*
X86050381Y-39346191D02*
X85050381Y-39346191D01*
X85193238Y-39441429D01*
X85288476Y-39536667D01*
X85336095Y-39631905D01*
X85145619Y-38679524D02*
X85098000Y-38631905D01*
X85050381Y-38536667D01*
X85050381Y-38298571D01*
X85098000Y-38203333D01*
X85145619Y-38155714D01*
X85240857Y-38108095D01*
X85336095Y-38108095D01*
X85478952Y-38155714D01*
X86050381Y-38727143D01*
X86050381Y-38108095D01*
X89003143Y-46108857D02*
X89050762Y-46156476D01*
X89098381Y-46299333D01*
X89098381Y-46394571D01*
X89050762Y-46537429D01*
X88955524Y-46632667D01*
X88860286Y-46680286D01*
X88669810Y-46727905D01*
X88526952Y-46727905D01*
X88336476Y-46680286D01*
X88241238Y-46632667D01*
X88146000Y-46537429D01*
X88098381Y-46394571D01*
X88098381Y-46299333D01*
X88146000Y-46156476D01*
X88193619Y-46108857D01*
X89098381Y-45156476D02*
X89098381Y-45727905D01*
X89098381Y-45442191D02*
X88098381Y-45442191D01*
X88241238Y-45537429D01*
X88336476Y-45632667D01*
X88384095Y-45727905D01*
X88098381Y-44823143D02*
X88098381Y-44204095D01*
X88479333Y-44537429D01*
X88479333Y-44394571D01*
X88526952Y-44299333D01*
X88574571Y-44251714D01*
X88669810Y-44204095D01*
X88907905Y-44204095D01*
X89003143Y-44251714D01*
X89050762Y-44299333D01*
X89098381Y-44394571D01*
X89098381Y-44680286D01*
X89050762Y-44775524D01*
X89003143Y-44823143D01*
X77343095Y-64222381D02*
X77343095Y-65031905D01*
X77390714Y-65127143D01*
X77438333Y-65174762D01*
X77533571Y-65222381D01*
X77724048Y-65222381D01*
X77819286Y-65174762D01*
X77866905Y-65127143D01*
X77914524Y-65031905D01*
X77914524Y-64222381D01*
X78914524Y-65222381D02*
X78343095Y-65222381D01*
X78628809Y-65222381D02*
X78628809Y-64222381D01*
X78533571Y-64365238D01*
X78438333Y-64460476D01*
X78343095Y-64508095D01*
M02*
