M48
;DRILL file {KiCad 4.0.7} date Wed Apr 18 20:42:25 2018
;FORMAT={-:-/ absolute / metric / decimal}
FMAT,2
METRIC,TZ
T1C0.700
T2C0.800
T3C0.900
T4C1.000
T5C1.016
T6C1.800
%
G90
G05
M71
T1
X55.245Y-32.385
X55.245Y-40.005
X55.88Y-83.185
X55.88Y-85.685
X61.595Y-32.385
X61.595Y-40.005
X67.945Y-32.385
X67.945Y-40.005
X71.755Y-83.185
X71.755Y-85.685
X77.978Y-73.406
X78.78Y-83.058
X80.518Y-39.37
X81.28Y-83.058
X83.018Y-39.37
X85.598Y-73.406
X99.695Y-55.88
X99.695Y-60.96
X100.965Y-67.945
X100.965Y-70.445
X102.195Y-55.88
X102.195Y-60.96
T2
X47.752Y-93.218
X52.07Y-60.325
X53.38Y-92.075
X55.88Y-92.075
X58.674Y-64.008
X60.198Y-66.802
X61.Y-62.865
X63.5Y-62.865
X66.294Y-61.976
X67.564Y-94.488
X67.818Y-63.754
X71.755Y-92.075
X72.39Y-52.832
X74.255Y-92.075
X74.422Y-57.404
X74.676Y-59.436
X75.692Y-51.562
X75.692Y-73.66
X76.708Y-42.672
X76.708Y-59.944
X76.708Y-63.246
X76.962Y-71.12
X78.78Y-77.47
X79.756Y-60.706
X81.28Y-57.404
X81.28Y-77.47
X83.566Y-45.466
X86.066Y-45.466
X86.36Y-65.532
X87.122Y-57.404
X88.392Y-51.816
X89.154Y-58.928
X90.424Y-55.88
X90.678Y-51.816
X91.186Y-75.946
X93.345Y-69.215
X94.615Y-55.88
X94.615Y-60.78
X95.845Y-69.215
X103.632Y-77.47
T3
X52.705Y-27.305
X55.245Y-27.305
X59.055Y-27.305
X61.595Y-27.305
X65.405Y-27.305
X67.945Y-27.305
T4
X46.99Y-34.925
X46.99Y-37.465
X46.99Y-40.005
X46.99Y-42.545
X46.99Y-45.085
X46.99Y-47.625
X46.99Y-50.165
X46.99Y-52.705
X46.99Y-55.245
X46.99Y-57.785
X46.99Y-60.325
X46.99Y-62.865
X46.99Y-65.405
X46.99Y-67.945
X46.99Y-70.485
X46.99Y-73.025
X46.99Y-75.565
X46.99Y-78.105
X46.99Y-80.645
X46.99Y-83.185
X78.994Y-90.17
X78.994Y-92.71
X81.534Y-90.17
X81.534Y-92.71
X84.074Y-90.17
X84.074Y-92.71
X86.614Y-90.17
X86.614Y-92.71
X89.154Y-90.17
X89.154Y-92.71
X110.49Y-34.925
X110.49Y-37.465
X110.49Y-40.005
X110.49Y-42.545
X110.49Y-45.085
X110.49Y-47.625
X110.49Y-50.165
X110.49Y-52.705
X110.49Y-55.245
X110.49Y-57.785
X110.49Y-60.325
X110.49Y-62.865
X110.49Y-65.405
X110.49Y-67.945
X110.49Y-70.485
X110.49Y-73.025
X110.49Y-75.565
X110.49Y-78.105
X110.49Y-80.645
X110.49Y-83.185
T5
X93.726Y-84.582
X96.266Y-84.582
X100.076Y-84.582
X102.616Y-84.582
T6
X61.84Y-76.415
X61.84Y-81.915
X66.04Y-76.415
X66.04Y-81.915
T0
M30
